<mxfile host="app.diagrams.net" modified="2023-12-20T11:03:14.388Z" agent="Mozilla/5.0 (Windows NT 10.0; Win64; x64) AppleWebKit/537.36 (KHTML, like Gecko) Chrome/120.0.0.0 Safari/537.36" etag="-NQAICCiapSRuYGoUoaE" version="22.1.11" type="device">
  <diagram name="Page-1" id="tVe64BAqxr6bpwGABSHs">
    <mxGraphModel dx="574" dy="309" grid="1" gridSize="10" guides="1" tooltips="1" connect="1" arrows="1" fold="1" page="1" pageScale="1" pageWidth="850" pageHeight="1100" math="0" shadow="0">
      <root>
        <mxCell id="0" />
        <mxCell id="1" parent="0" />
        <mxCell id="8sTzedX7tIWZvyyzNoVF-1" value="" style="shape=image;imageAspect=0;aspect=fixed;verticalLabelPosition=bottom;verticalAlign=top;image=data:image/png,iVBORw0KGgoAAAANSUhEUgAAAaoAAAGtCAYAAABHijBOAAABhGlDQ1BJQ0MgcHJvZmlsZQAAKJF9kT1Iw0AYht+mSkUrDhaR4pChOtlFRRxLFYtgobQVWnUwufQPmjQkKS6OgmvBwZ/FqoOLs64OroIg+APi6uKk6CIlfpcUWsR4x3EP733vy913gNCsMtXsiQGqZhnpRFzM5VfFwCsGEMYITZ/ETD2ZWczCc3zdw8f3uyjP8q77cwwqBZMBPpE4xnTDIt4gnt20dM77xCFWlhTic+JJgy5I/Mh12eU3ziWHBZ4ZMrLpeeIQsVjqYrmLWdlQiWeII4qqUb6Qc1nhvMVZrdZZ+578hcGCtpLhOq0xJLCEJFIQIaOOCqqwEKVdI8VEms7jHv6w40+RSyZXBYwcC6hBheT4wf/gd2/N4vSUmxSMA70vtv0xDgR2gVbDtr+Pbbt1AvifgSut4681gblP0hsdLXIEDG0DF9cdTd4DLneA0SddMiRH8tMSikXg/Yy+KQ8M3wL9a27f2uc4fQCy1KvlG+DgEJgoUfa6x7v7uvv2b027fz+It3KvL6ryzgAAAAZiS0dEABkAdgDSrBLplgAAAAlwSFlzAAAuIwAALiMBeKU/dgAAAAd0SU1FB+cLGhYtJmVtB6AAAAAZdEVYdENvbW1lbnQAQ3JlYXRlZCB3aXRoIEdJTVBXgQ4XAAAgAElEQVR42uy9V48kWZqm95h2Za61hxYZWaLlVE9v7/Qsdjiz5BWxWGAJkJwrAvwx/AsECF7s/gFKLJZcbjdmene6p2uqursqZehwrd3N3M3dNC88MzKjIlJVRWaJng8IeEaGuYlzjp33ez8pXBzeD3lOfN8lX8zyRWnWu8RiMW5DFguL6loJcxEymQtUy1lSegzbcen2p4iiQD6bpDeY4LsL8kkRQYAwXN3q+WmTVCrFN1mC0CObS7/28a1GlyAISSQSX8v9jkZjstnMc/e/+jQNAzNqMi1Mb+1a2jDHmrLD3s46QRjy8NEpPfECOzt6o/MoRpLsbJ1yOU+llOfR4RkRKSAeVa8c5wchw4mFFouxXitjmDP6gwme65KMycQiCh/LvwFANZOk7Qp5PU8QBGyslen1R1wMG5jRHm7CvHJuQRAASI5qRMU4C3vJIjbG1c23NleVzveYCD2W+QGh5D/7QygQGebI+hXeO9ghCEOOT+p05BO8mEV1uU9Ei9AZd5kX2oRi8NLrREZ5FCeKqigYWg83MXvp8fH6OkIgsswN8V5x7NsUZZqi6G1QzhcYTwwy6STd4YCedIGbnr6162q9AgfZ94hGNeqNDpNwyKLQIZRePs6xTpXd/C6DwYRe8hg/Zq3W4ihDhS00VSWXS9PpDmhw9Faf4Zsqwvnj++F8PgdCwhAURaJSK75gM+0TjUa+9MVMc0Y0plEoZhkYAX6osrFWQJGly2PG0znt3pgwDMnEIRlbbQRhGNJpD/Bcn0Qi/o0f2Ol0yuZ27ZXHNRtdwq8RoJ7dr0Eqlbzy+20DlGzFyFrr5PU8vu8T0VQuRnUMvY0fWb7+iUKBSL/AfuaAXDbNeb2FvbRJxZVrIDU2Fti+gCAKbG/WcByXVruHKoakEtozgDJSJKwCxVSB7c0aYRjy8PCMsT3ESgxw4zdvvE+BSlpGSM4qrBeqGHOTC+UBgeK+s/mTrRg5a4Pd2ibzxZLZzKK7aGNlu5f3oY4zRF2deCROnyZu0njpOUVbo7DYZLO8Tr3foJN4TCiE39h3Tp7HiZsFCvEiezvr2LbD4fEFA7GJkx2/Epi/rIiuQqxfYquwRa1SpN7ocDx7iJ1/teIl+BJb5g+5s7fJHx48ol24d+Xv0iJKalplf32HdErn7KLFiXsfN2X8UQGVbNsO65vl1zrYcZwvDVTTqcHWTg3bDWkMAgRRIqVHkCXxynFL20ESAvIpAU15BlKXLEr7dgysoqivAVB8Y0A3lUoyGo2RJAkjZmBs3OKL8ETTX9N22HtvHc/zefj4lFP7EU5h/EankhZRCpNtstkMtWqRVruHs1xQziYQReHyuJnlYFgOlUqJQj5Duzvg8eE5mgz5dIx/eApQ0zQ5r0qtUEEtKgyGE87rbVrTJrN4Hy89f6378iNL5vaIWGSXfCpL/6zLPN19J3OnDfJkvQrv390hJKTZ7tMWT3BKkyvHeYkZUavI/toOUkukETx46eYdaDZjq8972j4bhTUGvfYrwe3rENFR0UZZdjK75Pcz1BsdTs4aNOYX2OkRgea81esXJ3tsb60zGhv84fPHDGLnuPnXY9TyLE46pbNc2oy4vl786IJR9JjftSZU+1soskx6WaH/xwZU2XweeD0tSdWUL3WR2WzG1k6NqRUyW4qsVXMsbYfxdE4sqpLUYziuR7MzQgyW1HLPwKvbGWAv3W+8qe8anY9FadQ7rK2Xr5lQw5BvHCucTg3myTlG7nZfAHkeJ7/YJJ/K4nk+w9GUIAgYeb03Bil1nGFLuUP1oEij2eUP9w6JKQKVvH55jO14jIwFcV0nEpWIRiNcNDpMRmMK6RifRT/mLAB1kqYQrKGKEcqVHLoeo9Xu0541WOhjvOLrAVQYhpesykkaHHVO+f7WB+SUAvZs/lZNYE8Z6m51k8XS5uyiRX/RZZbpEKjXN+dAcRmFXYJgh7VijU6n/krg8RIz6r0WxUweN2kg+NJVc+PXaQ4KRNRxhpxXI5dPUasU6fVHjBZD5skeXsl6+xuomaCcK5JIxDhunjNMn7+RdUC1dKbMGI4meIkXrzm7MKTTVvho98ekHZ1pr4eTHfPHIvKbHFytFWnWe8Ri0df+zmK5oLZRoTcJULQY+9s5RFFAkSWshY05X+J6Pr3BhEwcEolnIFU/b5NIJFAV7Vs5uALCtwCgpkwTBuaGeeubiDbIsx7bZve9NWzH5dHhGTPL4sO7e/j+He5PFjjpyWuZVqLDIrXEGjvbawxHE6z5nFwqgqaslnAQhAynFj4Sd+7somkqp+dNjo7OSOsarcp92qGAOk6jL4vsrm+QzaSYTE3OzluY4pilPvpqm5sQMtaa3DuVcDwXnQLTyJJA9t7K3Hkxiw+rBwiCQLs7pCUcX2NRXxQ3MeOsWyeXzJBwckz8+UuBJ1Bc2s0e2ViWn2n/FZ+0f/vGvsS3Ieo0Rd5dZ7NWQ1MVjk8bDMYjhloDt/Lu2IY2S6OkZbq9IaNY441ASvBkyrEKa2tl7h0+xo8uXnq8nR3T7g7Y3V6j2Fmn6RmEss8fg8gAti2gaa/HqlzXBV4NVKY5IxbTyOQLNAY+6VSSaumZs17TFPRElFZnjCqHlDMiyhNXVa87ZLmw0XX9Wz248XicZr17+e9vGkBN9CmzjdvX+BVTp+hskstmWS5tLhodLibnWJkekq0RPdXQE3Fyy3V6y+VLX27F1Km5+1S3igyHEx4+PiX0Har5Zz69ibnECQTyxQLGdMZ4ajIeTZDFgE71Pt0nmncp3KBSLDCfL3Bdj7OLFhfGGcv0GD+yuJVn9yNLxsseBa1KKVvgYW+OlendDvj7EsosgZN65jc8v2gzWPYwUx0CzX41A5Q9uvM6RttEEsVr57tJloU+0+lKScg3azTDMXxNvip5HidlVUirGVL5BJqmUm906AsNnNzb80PdaIZeRihGS0yNGZ1JD6/2Giw8FJBncTQriRpEya2lCYMAUx6+8quBZlM3TuAUBFZr2i4M/pFR3SSRiPpaZqStnRrjWchoLqEoMqIoEIbwxErC0nYYjmfosZDs8yzqok0inkDR1e/EAH/TAOpyc9enzDK3C1KCL6EN8mwmttm+W2OxtHl8dMYgUicmQLmbRwhF6tFT9tQDtrdq2I05o8jJjS90ZJCnomxwcLDFbG4xm8/RozIJ/dmY9sdzBFnj/btbOI7LYDBh1B9Qz9+HUEAbZcl6VWJalN2ddVzXZTiacjw+wklN8IvLr/zcz5v/ANykgWNmKabzeP4+9805Xnz+5V/SWQJ1rlNQKoRhyAWfXv7tOPlbSL7Z+dzEjISbZbuyyWCqU/fuv5T1BapDfXxGcBIiCTLqNPVaTPg2RbQ1tHGGzdQ2W+9XWSxtHj0+40H3AU52TJBy3vk7pEx1NvcqzK0l59bxq9lXL082LBONRNh7fx1BEDDMOf3hBALxtcyqTmbCfLjgYG8T79SlzR8JUHXbLUqV6mt/oVwt0LjoEo/fHKo+m81Y26zRGQdEYwkO1rP0hwYTY04sqpFMRBlNZnT7Q3K6SEx7BlLnp02SyeStP+R0Ov3W+bjepoyNCbP12wUpxUhS9rbJFTLMLesZW8n1CWSPRKtGUk+xcAJyZMllU0iyRFSOQihc0dClRZTqbI9SqYBpWhyfNpjPTErZBNJzARPtgUk2l2O5tDk9bzIzDDqZYwLJRx1nKIQ1NmoVkskE5xctHjw6oe+3VgCl229tfEMxYKS2Oe8WSMV1op0sM80mfAMToLSIoswSJP08qbjO9vs1RFHk5KzBzvQjTlIff/n7k3xMdYgi77FZWqN70mZZ6L98g0xNETyB9+/u4Dyw6TC5oqC8Lb+VEIiooyzr2g5aVkFTVXr9EWf9C8xUBy9ufT0vUSiQF6tIkkQ0orKfukuvO8QIh/ixBV5scWW+1XGa71d+SDaT5PD4gnZ3QBiGzGYWezvrJPU4rW6PVvQRfnT5UkZsYaBpKolIHMGT32hdfWuBKpFI8BSsXtf853k3h90ulguypTKtcUClmCOTWmm+eiKKtbQxTIuJMce1LapZiacBf+1mD98Pbx2kZrMZU8VAlEVS/CNQPRVbvL1NWnQVtGGOzeQ2W7tV5taCdr/HKFbHLZlkOhniYZyopmMsfEJBZmO9iO24NC4u6KrnV0BKHWcoehu8/94uvh/Q7Y1QpYDqcwETnh/QG8/Z2FgjndJ5dHhO0zvEy5sokzRVeRM9HcexXQRB4OikTmNxipOa4qv2OxljP7rgePyYwryMLMpoRopldvjKsZRnCaKLFNVMldJuDs/16A1GdHsjBpMhg7DzlQM0pGUEaRlhNl1QKkbZjO9w6ExvDMB43qTZ7jbZ8qtUCyWG0wah5CO6ClVtg7PoH97KOGbbe+xurvyJvcGI00aDud7DLX7NUW9CiO3YdPtDEvEYtWoRBNjQKoDAeGLQm3WxtRmBtiTr1shmkpycNWna53jKHCEExU6hNhTKxRwbtQrd5sVLgQpgKc7p9ob4XoDoqPh/DEAFIIriG30p+oVgCtOcEYtH0JJ5BiaslfOkks8YV0RT0BSF/sggkxAopa8HTLwNFtXYaF7+rjf1b0X+1W1Jx+wSJ3bNzzefz7Fjt7NZq9MUlWCHXDmNYc45PWtyPj/Bzg8JJZ9UL0UqmiJYakgRnXxKo9sb0G73ME2T8cbFpSYuejKVwQHZfBbHcak3uxjTKemERkR9FkyzdDwmcxctEkMUBB4fndPkCNGXyffuUK0UKRdzzK0FxycNTudHOMkJQeLtmoa+aP4DcFNTJoMom/kNJLHCA+t3eDHrGmOQZwkiVoqKXqNQWY1lNBphPl8wGI7p2A1cZni5+Ve4QQHF1EnYeSJBnN3tNRLxGJOJiecFKAsdO/dyIF3qI+4/PCaRiJGZrZHLpEmUIuSSGYpGnr+3/+Otj+taucJiYXM4uqDhneBWx4TiNyOXS4nIlIt5Pn90iBmOibg6pXyOfD6DpinIkkSxkGUyNbEFZ2VlsE6wi8/Yqxe3OF6OWJy/RyIRQ3ReHVkdqA7LpYMWUZEW6mWC8HceqGKxGJPxmFL59SoplMo56ucdEok406lBdb3KwAyJyDEims/SdkjxDKj6I4PxdEo5IxJVhedMfS2SydsNmJjN5kzlKZONqzZ0UzBJ8N0HqunUYJKYYNZMBkC6n0Zf6siyhBnOGNaGX/kaoqMSGeXZTG+xuV7BnFk0ui3G8SZu8Zm2H1nquEGUaq1CLpthMBwjiSFS6FDKRBE6aYa1IcosQWG2xd7+FtGIxuHxBcv5jHL26nzNLIelJ/DewQ6Tqcmjk1Ms0WQjvk9ls4DvB7TafSYTg45/gZ2ZvNOk25tMgHZiQhiuUSvU6B0N6PnHhJKPPI8jzxJUtDX0RJyFaLO5XsFaLDBnc86GZyxjU7zk7HqAQCigTtI4mVeHJ0u2hmLq6E6BrfUquWyaw+MLbNuh0exi2y539jexz5c0ePnaEDwZ13cpFrKs18rIssRh44TmsE0/aL6xr+yl13oC+n+Q/4ZIp4iTnbyU8d2atcFysKYLrMnqZz5dEPoBgiQiigKiJCCIIqIk0LLmDFpNOr0B42QDURSRWxFkN0I0SBBTEhQLWZLJBLIs02j16MZOSSw1lIhyBXgkSVxVQTF6LOm9EqgUWaJcynP64OiPQvF+LpjiTbWUkNl8RrZcpWuI1EoZknqM3nCKYS6IRRfEohqNzpDAXbCWky4DKVqNLmEo3DpIfZFFPS+j6ug7zaqmU4NpbIqxftUkMilMmDzxJ3xR4/9SLGqSpsYeuWqKydTg+LROfXGKXRhebqiCL6G3i6jRDL4f4Hk+5+cN5saEZES6cr7IIM9mbA+SMJ2anJ41iCoCmczVeZqYS8ylx87WGoulzWn7glAOqcXWyWVSBH5Au9On7Z/jpicEsndZcuudWIJeMLZezOJ4fEg2lSGmxol2yqQjGTRJI13UKRVzlxUUPnnwOTNliJuYEWSub8pCIK7KA4Ub1EpFXNfjE35xs7ZvJIlaGWrpGnopxmy+QE/EaTS7DOZ96uFj3JSJ1i8gSzuUcgW6hn6t9JPgS6uqF2EFVdJ4//t38P2AXm9Ic9TB0Lo4SePWogBvGsdluXdr82T0Z0w6U4z+7BkgPfmcTxZ4zpuY0f7hS99HqpQkt5Ymt54hu5YmEV0DtkiqKYxJCj8+J1BedC+rwDRRFBHfPB7uWynC+eP7oWEYVGprAK/tpwpDGBgBohylVsldVphY2g7d/pQwDFnYDqloeFkGCeDspHHrgQ3z+ZypaDAuv1zDzLVylOOl79QEGoaJoRlMCpOvvKm+SjOPjgpsZDfZWCszNWY8vjhhmmhdiWiT53FK4SZ75W2sxYJGo4MQ+sQ0EUVaXXc+mzGVLWKU2NyokU7pnF+0mU7GFLOJa9VKBhOLuJ4klUzQaPUYuX00KcKH2weEwP2Hx5jRPk56csWp/66A6lXjKfgS2ekmnufz/a0PiMejTI0ZzVaPUAjo+y3cxOyFeTRCIKJO0uSDGkIosrezDoKwKtWT/O2N3/nA+TkA67US44nB6XkTQx7g6uaV68hWjJ3weysmO32Ele1ezre0iKL7WXarW2STGYbGmMlgRttqsUgOX5n3c5tj+KUAqT1l0jEYt6dM2qtP33150Iesymhx9cmPhhZTkWSRIAgJn/6Eq09poaHJGrbjsJRml/8fBgFB+Ox4XBFFUPF9H8d3mE3NG9dmJpNld3eHcrlKNJ5EL8bRygJe3LrCJtVhljIbhCF0lJM/inJKsmEYb+yjWjohAyMkl01TyF3l+xFNJQxDbHtJMfmsDNKgP2Y+W9w6SE2nBo2NxmsdO6wO0ZsJ4t8BVmWaJoZsMl578+z0py/J624O6jjDurRHbj3FcDTl8PiChnOKXRxeatKio6KaKVJShr31bQI/YDQco0kBUfUZizKmU/qpOTV2URQZ3/c5PLoA36ZauG476gxNEnqK9bUy7e6AntdCI8patoaqqRyf1nFkCzdpXIs8EwThrYPV64xhKPlMtS5pyiiqTKPZ5Wxwji85JGM6ghDemEv2FKDSTpmdjTVSKZ1Gs8vRSZ1B2H5p/tM99VfUet+nM+lgqgPcknljZJ4Xs2iP6/yg9H022OTYtJCsGBvxLaK6xsWoTn8yZGROaMzPWWaGoL/b8XuVjFtT2o97DC5GT0BpiufcDEhRPUI8GyOejq3AKPYEkJ6AkyRLr33d2CTP3Y19Or0hbfXohTlcoqNQcDdI6gkMY0ZPvmBqjjGHM8z+jEXXxZhOGY9HfPzx1WRqXdcplSqkChkyazrp3TjbWpqD97Y5PWvcWv7ft8L0FwQBrUYdVdNwHQdRFNjYujlkfToPGc9D9ET0MqrvqTwtgyR8oQxSs9ElFo3dqqlvPreYClPGG2+2UZvMiH+LfVWz2QxTuB1f0ytZ1DJCbFRkI7/xRDM3GS9GGHobL/nEgRsKKEaSdW0bUReZtA3O/TqeYxPXRFR1tQ6s+RxDnBHVSnyQ2qdUzNHq9KnXW+RTMSLxqwE6vh/Qm1iX4efHpw0u7COSYpad6ha9/ojOoI+gBmxXN7gYwzhZ/9oSUV8lXnzOzJng+z6pTJyqUGQwHfHhxgfYrs295j0m8Tah7CH4Euo0RVnYJJ/LMJ4YIAgrM6t1hpN+PX9NRz98LdazUKcsbJtKtsS4N2dvZwM9EWM8NohqEVpWAzc1Jci82iyW6WReadn4qiBlDma0H/doH/ZoP+4xH18PJogkNOKZGIls/MlnjHgmjqxKtzanfuhfmpeEUHih8yRQXcbzAWlRp1Ytsjy30ZUCYkXELbgU/2meVErn9w8+pzO/YNazmA3nGFMD0zQxTROec0Wp6r9jZ2eH9e0tin8RvRJs9J02/X1RU9/cvg5SQbAy9SlanFhUpT80KOZTZNOriL2JMafdHa3KIEXfrqnvTVjUTbLV2vzGJuK+DJiN0GBYvT2AetlGoY2ybKj75LIpev0RhND0T69EhsnzOAk7x0H1Dhk9RbPZYTAYElVBk58pKqZh0MlOKC930VSVfC6NaVrMjCnF7PV5sB2PoWmzt7NJLBbhs3uH9NULEssc37/zPpIk8vuHDxllTknMC3y08ycs7SUfN397LcDgbTKqN9poQ4HIKM+P1n5IKpHktH1Bd9QjEY1zZ2OPsTnhd/Z/Qp2kybhlMukUm+sVFoslRyd1hsKKQd0EUKKtIVsxYk6KqBalL9ffLIQ9FFibfMjd3V0CP+Dx0TmBEIAU8P7uHsfNM87Uz1+YK5Xqp0gsdFRVxXVdGuv1Wx27hbG8BKX24x7T7lVTlxZXyVTTZCop4tkYiUzsSrDC2xJ1kiKrFnAdl3G8+RKf0hM2N8lTTZVxPZ9YNEIsFmE6NbEdF9t2GEYaBOqz4B/RlXGGIfPeEntuYxpTBoM+hnH1+bd+tM7uRxts/Wj9u82ormjR0nWNw7JDBkZAqZAll9HxfB/bdjFmC6IRldFkhjWfUU6LPCm9Rr83YmHZtwpSlmUxxWC08dVqjZnht4dVWdYCwzcY1N5NBrq0iBIfl9gorLNWLTIcTRkth5jJzjPt/EnViLXINqEc4rsex8dn2IsZ6djV9dO1OiSiVfblDTbfqzAYTjg9bZDRtRtBarZwmC19otEofhBw/+ExvegpqUUZPZJkubQ5azUYZU4JVIeZ2OVR/ZC96g4ltUbH9N5qL6gvywYUU0f1onTHfZrDDl2rjZcyMcSAxemCn+z/mD8Z/nPUmoIiy5xdtHh0eEbbvcC5IXpRWkSRrRipME8ukWMpOGzdqaLIEr99uGT8JkAlhPT9NrvOBkvboS/VsTNjFFNnYa+RSiQJ/esglW1niXtxEroOT3AhEomw29vjuHj0pcfOtb0noNSlfdhjeHFV+ZBVmUwtRbaaJlNNoee/nhY5oRCSz6aZzS3G/qvXwzI1pDUJSappknqcTm/AwrbxfBcrOrkCUgCB4iGXIVVWEL0ItWUJZfFjyrkc9XqdBw8ecHp6wtmndc4+rRPRNXY/2mTnow2K2/nvNqNabY4z1jYqK/vvLMRyJTaqeaLPlU8yZwvavTGeH5CMhqTjzyaqUe8Qj90uEHxVFnWdVW29sLrGN0Wm0yn19cY722y1QZ6t2B65bJp2p08YhrTDsytFSOV5nNSsysHmLkk9ztFJnfa8ScoWSaX0K8zcEmxkMsTicUrFHI7r0et0KaTjyPJ1v+hktgRJY29nfRWdNhwxSJ2RnW/wwd4dDGPGcfMcI1+/wiykZYSstcbStVElhUm8fQmqb4NRfRmTlWIkiS7ShGHAIjnCi1kI3qocUVXaYr1WQtNUlrZDq92naT8x8T0HUPI8vqqYLpbQowkIYXurRhCEPHx8QjwWZXOjyqPDM86Sn75R3TvJ1qia71HIZzjpnDEpn95Y9SAxTqBZGglBf2EjVdN4+bv6xfELw/CSLXUOe3SOrlbJEERhBUq1FJlqmnQ5+Y14PxUzwX7+AFEUOW2fMU/3X/kd0VbZlPdIp5Pcu3iAk3mzfm85c5PNWpXBaEJKT3B0fMaj1me0z1oY/WfKSW4tzQf/xQH7/2T7u8moDMNAkiQ8f2XqcwOJVCKCokjXzDO+51JIXc2NOjtpXmnAdxuMYhpOvzKLus6qTOJ8c4FqNpu/VZC6sgjmceLTEhvFGrVKkf5wzHA5YJ7uPnPyX/aU2iaMgiSKHJ/WGY1H5CQFU5siGKvqIr15Fz/UyCY32Nlew7KWHB1fkIjIV1pyPC+DicXSCznYLzIaTxmNxvSzx+jDGlsbawhAo9/CKFxcYxd+ZMnE7ZKTqmyVN2j0o7TcxwSK+04CKl5HAs0mr2ZJxXXu9xZIVoykXWBna41MesUU290hx8ND7NyQIOmuwtFNHdmKUVCqiIJIqZIlk0kyGhtMDZPj0wZ9q4elTBBnMhkzheO4SIvom9UXDAWsYEYhv8PcWmDaLfznitymu2kSdgI9meRVxgg9meTO8IDHuUcvBKne6ZDOc+Y837vK2NLlJJlqmuwTcBJE4Rv3jnoxi3avSylfIKEkcSc2Ttp4pUKAIjKeGPiRN0u8Fx0FWZTxPJ/+ZMDCWlKrVVDiMhsflZn2TLpPgH7YmPA3/+Y33PvFY77/X77Hzp9sfLcY1WKxJJ4uYNoB5WKOMAzpDaaUCikyqQRBENBoj/Bci3xS5On6WVU8d9D126Pht82ivk2sajQd01pvvdVriKGENsyxre+TzaRotnoEQUBHPLvi65GtGCmzxp2NHVLJBMendXrDAemETiGfpdvpktCgN+8iejJ+ECOmp6hVCoiiyMV5g8AxqVUrN95HZzgjXywgSxK9/ojQc2hmDikYu6wXq4wnBsZyyjBz+tIEXnWc4U+qHxGPxvj45BMmqQYI4a0C1VeJUlszPuTD3QMazS7ptI5hzknEY/i+z+PzU+bxPk5qimIkiSyT5NUSjuNy9842iiLT6vRxbBfbcenbbeyoiRezLlmPPEtQc/bZ2qjym7PfsMy/2lwsz+NoZpqCVmZro0IkotFq97nvfIwXs8i1csSDOPE3rB4zm80olSuXHZR91+foN2c0H3RoP+5hW1d9bXo+QaaaIltbmfNk9duRHyQ6CrpRoljM4fk+jdkZrv5is2tyXCWbTDMeGxjZ5htV2VDMBEWliuO4jOUuqp3gYGOH2czizDzGfa6fVfNBh7Pf1bEmK8tCcSfP9//FXTZ/sPbdYFShksAJFXY2s2iqguv5LJYOxmxBGEJvOCUZCcimxGumvtuseN6ed26dRX2bWNVSXb7V8yvzBLpRYb1UpVou0OuPGNo95tnuFbOaNsizpm4TRkIEAR4dnjOetqgk01ieTy6XQZIl2vU6ulLAVzW2NmsEYcjJaZ3Qd8jEZYgkaDcbl/l6AH4Q0hnOKJVWZY/O620kPM4zh+TG23x4cIcgCDhpnzHJXryyyoSTGcxWIeYAACAASURBVPOg/ZD94h66ksKazF6resPbAqmnybKyFSOvlMmmVmynUs6zWNhMJiZaREFWJBbqBMGTyTUPKOfzrO+uGm6eXbRotHpYS4u+28GPz/GS1o1mPT+6QAkVotEIephl+aLK2qGAaiRJ2kVquQrF9RztTp9Ob7hidsE5qWUUfVq6Vi7ttU2JT3zdg4sRh78+4/DXp3j2MzNiLB299DFlamm02LezW0KgusxjQ5bLBIV8huWiQm9Rv7Fen+gqpOJJspkUXaP32iAlhALKJMVaeo1YVGPQGxFO+yxbx5x98hiVEHE4hogJEQkiCmvpGGt/dZd6a8rZZy16JwP+w//8Kyp3inz/X7zH2geVbyej8kORRaCS0HU2alcdccZsQbM9RBQC8s/lRr0NU59hGIzjU2bZt+8QT/fSZPz0C23tX5eMpxOa6823M+G+RGSUZzd9h0xKp9Hq4fs+XeX0Sl6ObMVIGTXubD5lUQ3asyZWtkdqFKccqeB6IXIsSbGQo9MbYTsO5WKOaDTCyVkDwbWIadIXTLkWhWIJ2/WYmC7pTAo/CFgubaTQ5Tj2gNxkh1R0xdaOGqcMMyev3XxQ9GT0cZXAD0jEEgyEJk7iqydEvi5ISbaGZMWIOkkKsRJJPc7UmLFeK6GqCu3ugOFwwlBu4eomJWuHH+x/wGA4QdNUHMfFdhwqpTyGMecPJ/ews6NrNQJfJNn+LluFDXr9Ea3MvSvjJroKipGkKKyRSaWIRSIk9BjD4YT2sMdIbq3y0Z6A4EZj442Z1FP57Sef8ve//QfOLp5FAGZracr7RTLVFLFUlO+SKGaCsra2KnSwWDKOta4FRyhmgt3MPgBH00evVflddBSiZpZcMksumaD12UMGDz5B6LXROgbaxEa2PQTPJyQkVCS8iIyTimKXdLyNHMJBmfOhxdkfmpdM9s7Ptvn5X//pN9Kk+kJGNbdDAjWKqinIsoTvB0hPqgO4ns9obBJVA/LJZyzqqanvNkGqM+syXB++kwfPNXKU9a+nSoVhGBiaiRAKRJdRxCeBBUuWLGPLW2/B8exF0UmaFdYrVSqlPJ3ugL7TZpHtX2Erlywquiq0+vjonEZ4hFNeVb8Ylx3EpkgxXsKcTphMTH74g/dWTLg74OS0TkQKiUevR5AGQcB84TBbBtw52IYQ7j04IqNrPFIeUjb3ef9gn95gxIOzx0wL9TdqYxDIHjO9R365wf7aDslRgqPF53jRt5QYGQqXrCktFMjqGaSEiCAIVCsFFkub0XjKw+NTpuEAL2bhlkwUI0l6sk4mlWM4nq4S5YHxxKBlNFkubbY2qhTiRRrh67PCuTjB82okEjGkRZRAN1ctQ4wkBamCqirsbq/h+T6mOUeWJBq9Nv3SdX/SXJgT5/WBqtPt8ttPfsfHn3yKZa3GW1UUDg7uELurkSwk+K6Kq8/oTtqUYxU21it4DQ9DaRE+l9cne6uKJI7rEiRe7Z+SrSi5sEppPcfg5IJHv/hb3IefkTjvEZ+7REUJVRCRBQFRetLp2gdv5mObBsv6mNmDDtZhh80fbbLxL7/H2emI49+e8/jvThnWx/z8r/+U/Gb2m8+oPvv8YZhIZqhVchimxWBkUsqnSKfiTE2LVmdEOh6iP5cb1bjo3GoekmGYTGITzNy7YVFJJ3mrvrQ3eU5TNRkXx+/0uqInow3z7OfvkEquqhs4vkNfPcdNGldYVNKscGd9l3RK5+SsQdtsMs/2bszfKZ5tghJnY71CPpdmOp0xNWfoiTi2bdPrDVAE/0rPsclsiaTpJPU46bTORb1NNqFyT/yM1GCD9/f3kUSRe6cPGWbOvnSvHcXUeT/1Ayq5Ep8efU4vevylC9R+kU2JrrLa/BdxilqFdDLJbG5RKeWJx6P0B2OarR6+7GCIQ7yYhR9dIDoqiqlTCGuIgsTO1hqRiEqnO6TeaTHThrhJg0BxUccZKuEWuh5nMB7RzT5+rbGQrRgfRn5CPpfhV4/+M65usuV+yOb6CqSarR6D4Zix0CcW6tzd2qPe6NBM3btxfLbb20SiL2c/n/7hMz7+5FMeHz5rHlgs5Nnf3WFjbY1MNsuh9Jg/BklMS2xXNpnPLZqTJm5ySiAFCL5Ixdklm0lx1q4zy3Rfvn6nSTJinrVaicnJBc3/8B+RPrtHamSRFGWioojAy9lQQMgyCJgGHtNCnOVPdwh/usNMFLn/y8PLfLQ/++9/wt2f736zgarbn4TF/CrXyXE9eoMpQRAiigKWNaeQfJYb9TZMfZ1Z951UWfg6WZRpzjAlk3Fl/M4j0FQjRXJWYb1SoVzK0Wr3eTx4hJ0bECrPIq20YY41ZYcwDCk/YVuN8OjmTq6hwM7oewiyQrlcpN7o4LoOYujh+lAqFalVixjmnHHn4vJrg4lFoVxlY73C0Umd+WxGJZfg9+HvKc/uUMrlMc05w8WQce7sKzfjU8cZdpP7mNaMwaLPIt9/o8oVzwOUtIwgWzESfoZcrICqyoThqpae63mcX7SwFjZmOMHWDLzYs/psTwMWUmKO3a014vEopjnnvN5mHprMIoMrCsNTiXdrfLT3I8Iw5O9Pfsuy+OrirIIns2F+n72ddT4/eshIbfFB/E+IxSLUW216YeMSDOVZgh3tANt1aTsXN8517bxG8oZcyP5gyMef/I6PP/0Uw1gpmKIosr+7w97uDqXCyn2wWCzIZHMAfxRgJfoSqVkVVVZJJGJY8wVDp08oBmxndpBlmcPBoxsDLoRQQHAVYlaaSraCbTtYrTbT//Q3RH73iJzpkpRkpDf0lXphiOF7DNMq1s92Cf9snzCX4MHfHNG4twrYuvvne/zZf/fRNxeowi/snIOxSac3JhmFrP6cqa8zxLadW+sdZRgm0+gUI//2Cyp+XSxqNptjCiaj6ioo5F2ClOgqxEZF9or7JPU49UYH27Ppa+eXCbGCICAvoiSN6iWLOj1r0jKbzDM9As2+wWausm19QKVSQpQkTk7O8RyHdFy+rI6/cAJsT0TRVOLSarPuTxbE9DR39jYZDMcM+wNKuQSfer+nONvlewd3WC4dfn98D6NQv7WOsbFBiQgxUvEUzcU5dmb0WsAkBCKyFUOyYuSkEtlkmqVtU8hnSepxJlOTs/MWghIyDvor1hSzrlSQV4wkKbdANV8hm0lRb3RIJRNMpia5TIqpOeM4/OyFYeSiJ7O7/DG72+v8+t7HTIrnr37eboVypIamqZxOj3GTBuvL9xEEgbZ7fqWTrxCIxHtVFFmBECa582tBGslhkpr0LADms3sP+PiTT7n/8JmpMJfNXgKUosjX9HzHdUkmU388YGWrZJZVivkM0eiq+oQ5W5BKxlksbYazEYqsICIS+AGyKKPICk+3h3IphySJXDw6Yfr3vyD+dw8omC5xSULky/mUgjBkFvj00irzvzgg+Kf7ENdoPmhz/5eHABS2cvz8r39Ctpb+xo2p/JQ9AYync3r9MYWkQDxy3dSnKLcTmfO1+KLeYTms+dzCdmwWsQWT4uSdT6o6TZOe11irFikVczSaXTpug2V2cAUAtGGONXmHMBIiiiKHxxfU/SOcF9RqOzB+yGzhUVjLE4lo1BttElEFyzEQhGdKQFQViaoADksnYBlI7B/cwbIWPD46R8KjXrpHaxkhP90hlUxiziweNh7fKkgBLNNDomaCvdoWqanO5+Pf4erGzSY9R0W2YkTsJPlIkWg0git47GzVCMOQ83qbi3obixlzaYyXsa4Vk5UWURRTp6ptEIlpq75BxRzd3ojJfMKFdwiSTyb8CeVSnrOzyAuBKhQDZrMFh8cX+MHLx+RppYo7hTuUS3k++fwedm6IEArEohob6xV6n7eund+Jmmwm30NVVD4fD65V9TByBuHnDR48PuLjT37HaPxsbezt7rC/u0259MxKcdM26rkrk+XMNMk5WSRJYhEuMPMzvosSaA4j+QJjNCAZZJFEhVw2STQaWQG5IFDIZ1Z77sRAUWQS8RiO6zEaT5hMjVXR2tPfEvvdEXnTJSHJfJWwB1EQSEgSwcTG/80pVl6HH2xQe6+Cnk9w/5eH9M+G/O//0//Dz//6J9+4RGF5hfQxmp0RC2tGNSvytIBw/byNKIq35o8yTZNJZIpR++6yqI7ZZbg2/FomU3JU4pMye6U99FqM83qbZr/DKFrHLTzbFORFFN2ocbC+Qyad5PS8yWen97Gy3StJns9r3lvjD0BTEQSP/mBEt9tDjyqomkoiWqHTaq6SQZ9n59MlshbnvbvbCAi0OwM0KeAw/dmqaaCzy/sf7FJvdLl3/gCz2HijagqvtWnIHpNok9NOmr3aFsPpBq3lyY3FWg/8j/Bkn2whSSadfFJnr8G9B0eM/D5OdIafsa5HID7pnqsvC2hhjK31CqmUznQ64+yixdHgGDs+xSvPLtnueGKQSiZQ3Sgvc6vHYhH2dzfof37Vp/HF0HdVVonoKuVSnnqzyzjWXPm0ApG5uSAMQzQxyhch0YtZ2K7DerFGc1SixzOgqn/e5ujXp5x++lzkXibDxlqN9987QNOuan/CC58hymQ8IhKJIMurCNtwuSoQ/V2VUApw9RnDcIZsxbAHS/Sojr20CYKAZsslCAOWjo0gAaMQP/Tww4BlZog4HyN9dkKqNychfjWQugQrBHRRZtk2cT69wKtmoJQkWdD56b/+Efd/eUjrYYe/+Te/YVgf80/+mx9/c4BqPJ3RHUyIKj7ljMhoOMWYmqiqeqst4udzi4u1+jt5qK+DRU2nBtPEFHPN/FomUptkSC+qrFVLFAtZLuptOn595Yt6bvOPjHLU5B2IrnJdjo4vuPCPcCovDvDYMX5A9Ykz/vSsDr5LLnnVwV6u1mg3GyRTKcbTOaKWYO/OPrbtcHrWwrEXZPUIn8V+jzbMkfNr7N/ZZG4taBnNtwJST8WPLDk3H+OeOzieS3SWx5I714IHHkT/M99z/5xWu89Zu8GUPl7CemFouOioKEaSpFtga23VPXc4mtLqDLhodxiELdyscS0QJVBcJv0pzbZMQkpj8uKk9qfWDlEQLkPf426aXLSA5/lU1nOkUvpl80XLOqPlnePmzUvWtHCWnJ43EdwbojAVl+b4gpJVIK7E8doy9z//jKNfnzHpGFfY092DfdbX1jCmU1RVfS2Qulx3kcgXftfQB4nvLKt6fmC8uMUUC9OXCOMhiOGVaMDrFDQgfNwmfjxAF0TEF/ikxGiEyNYGsYNdlMLKD+j2h1iPjlmeXRAsrudySYKAHorMj3oYRx0oJkFYWRc++Is7JPMJHv7qiHu/ePwkKvAnpEpfb8mqhFVBuPfoLCwkRSxjgmnOb73S+dXN/MUdeL/NLGo2m3Feu3i1lvUWfFSSHSFpVNktbROPRzk7b2H5c8bxBl5s/gUWVeFgfY9MOsnZeYum0cTK3MyiAD7yfrr6hxIjldKpP0nIjUdfbAJudscEosLd/S1kWeb4tIEYupxk/4DoqCQnVe5U93Bdj/HEpOe0WBS6bw2krphExxnSfpFiPkdz2rixLYg6SeNFFzf65y7HcpYgMk9T09fIZVKMJyZaRMV1PdqTNmakvzKhvWQzSnTX+PmHP+W83uaR+PGNUZVCIFLsvEe1UmAwmhCNRHAch/3dTSRJpNsbMhpPCQgYuB282ApUn5pORUdFnsfJuGV+9MH7PHx8yln602v3JS0jCIcJHtz7A3/7t3/7jAmlolQPSlQPSnwQ/fDquzyZXDKqpywh9gbJwculTT/f5x/lBmzrm0j/5+8o/faCgqzeqATI2TTpf/Yz0n/558QO9lAK2SdANcJ6dMTk//tbJn/zd3ij666HIAzp+g69P98l+K9/BPpVJWLSMbj/y8fMxxaKJvPzv/4JOx9tvnsLka+Smm1QzKSRI6FBt2mRSiXfKkgBpFIpjIH5VgIovg4WdbmwEiL6SMfMvls2pY2zZOwViyrkM5ydt+iGFyzzwyubkTZa+aKIgixJHJ3UuXAPX+iLugJSAK7FyfGQZFxFkW8GqfmTqudbO9t4nke92cVePmVRf0AxddLmGnf3VoA6Gk/pOg0Wpe47GSvR1lCcGOV8iVI2RzKW4OOmea1yxY1Rjqyi6RRTJ+tXSEZ1hIRAtVxgubSxHYdT82jVPbf4evlarmIxm1uoikK8V8YsPwNNaRlBniXICxWiepRUMkGpuNKYHx2ecXxax3SMK6Hvl8/pKiimTsLNERd0EokYm3cql+zqyrMuXA5/fcrhr08ZNZ49d3GzQPW9AoWt3HO72xc2O99nYS2QFZl0JsNk/KZVZEL2/Tt/NGHrbyStCZH2lKhwc+iEGI2Q/mc/o/Q//LdEd7euKlrVEmq1hLZRA2D0739xjVmJgkAUkUjbYNGeEOrlqwp/OclP//WPuf/Lx3QOe/zif/07BvUxf/qvfvjOhiBqZ8kutijVYhSiRWRFkm813PyVYLVIYnB7QPV15kVdbjqm+05NftIySnpWY7e8TSwa4fS8wVnngonexMtZV45LTivcWdsjm0lydtHis7P7zNJd/MTyxjyMKwD1vCLwkkoCvdEcx4f9vQ1UReHopI6ER7N0jyYQGeTZTd5FTch0ekOSepxCPkO2W6TlD241eOL6fiigjbJk3SrvHWyjqgqd7pBcNklFW6P1Gm1BIv0Caa9ENptiY61MEARcNDp88vAei+h4Vc0h9WbP4CZm3D86pJwtcnftDg9aAa5ikQqKFPQcM3HB3TtbhGHI6VkTz/fp212cyKq+X5B6rm+RJyPPEsScDNEgQT6fplYpAnB8UufBoxMMb8IstgrP7x73L8sahcEKHCPxCHf332drewcnurgxXP55yeRyTyxbqzWUzmQxppNrJsEXKneCwD/KC5bseI46WaAKN3dej2xtkP7LP78GUlc2+t0t0n/551iPjrEeXFcGNFFEHVsshjebXiVZ5Ht/dZdkPsHjvzvhs//3IaIo8tG//P5bf/7kbJ28VmB9p0xEXLE9WYsnEUIfZ7kgCF7f/BKJJbCfvJvxiMLCcQEBKfQIBBk/CIkqItbs6oJPJpNk21lGla9ex+/rZFFXzBjCq+vy3ZbZLzLKkXGr1CpFMmmds/MWHS5WbeGfX4jPsShFljg+qXPuHmKXRq/Hol7jeayly2zps7Zew7Yd2p0BC2t+yaIkWyM+KrNf3aWQz9DuDKjPzxBNCUX5kEQkjjbMvVZ+0JcRxdTJ2etsVmoY5pzeYMRgOmIsdkhNc7ieS4I8huy9sBOuPI9zJ/MehUKGZqvHZ/ePmAYDlokJXnX+pe8tUB2MVJu4lWBjvcLWcgvDmHP3YAtRFKk3Otx7cMzI7+EkTLzU/ApLFnwJeZYgukyheQnWayvfpOO6nJw2OLQumNhjTHmIl5jjCosn7OmM/tmztZLfyFI9KPGzjZ8xmTuUywV6gyGD55TJveDOzWDzBUXHf4P9Q9M0JpMx5P4RmK6J7SLZHrJwczfi2MEusYO9V54mdrBH7GD3RqCSBQHZcgitl1fI2PzhGvFsjE//78/5/b+/T6aaYvcnb8cMqDpJ0rMNSsUk1fRVlif/L//br/iT97f56KDGYm6+9oYqiBL/9v/4FfsbZf7qp+/zb/+vv+V7d9b50/fWOGmM+He/+gP/47/6ZzdSVz3QGfHlgeqbwKKumFCizlu/hmzFyFrr7FQ3iUY0jk8bHHdOMZJt/OziORYVQZ9WOVhbZcGfX7T57PQZi3oTkAqCEMfzcT0fx/VxvYAgBFlWkGSJxdLl7v42kiTSbPWQBf+SRSlGkrVgn2QxwXJp8/DxKS3xGKc0RfRkDk/P2VqrsSvv89hc3GqzQ8nWiEzy5OQi77+3g+O4tDsDulxg50YghIxNlwxlNsvrtIexy7Yg1wBZ9rAdB0WWMeYmndTj12oD/8L3JhBXCcBWikSQpra5Yj75bJrJdMbJWRM/9KlVClzMT7EK7avgayRRFzp68P+z96axkuVnmefv7Evse9x9v5mVtdtlu2012MYwDD24GWj1IKEegWYkaFBLAx/gE0gNHxASQkjzAZBQj6cH3BjRRqgA2+Ct2y5qscuuxZWVy828e+x7xImIE3G2+RA3b+bNu2VmZWUZd/2lVH64N25EnPM//+d9nvd9nzfB3GyeVDKGZQ0olKoMBjaNQYOuWMfR+vjREfWdJhv/OJH33PEkslQNhcfXH+PChTUS8ds9Mz2hzaycJx6N0uqbeMbpXnR3g1Sn0z5kZ/cc7Pg+768TrovjIXo+oniyg7ySSR3mpM4M1DLJwyKLY8+IICCOXYKRe24hTHo+ydpHl9h4aYtv/vm3Dl3uHy6LmiUvLjC9lEC7qw2qOWogry3k+ftvfJf5fIKkoYEoIIoiQRDguS6u4yCIwsHhJEMArusgCPAvP7B+2KTmBwfjFAIIGxo/+tEnkCUBzzk42BQFAQHPc4lEJaZrM4ymHRDA8ccM/QGOf/4B8ChZVLfbo6t3iQwjJ8qjvZ5FT+7Ry7+Lsl8goDfSpPwppqeyRMIhtneLVMSdyaF7Z5TaSjIjriAYoCiTQoad8XVG+bNZlD1y6bqjQ0AKEJEVGVGUGI/H5HNpsqaBPRpj2yNmpieHa6lcp1iq0u9bByzqtcnnrWVYjq0xP5un07W4tnuDTqxw2HPkyy59tYkkzTE3m+dy7Z8eyqUSAgG1mWReW2F2PU+5Up8MdhzuM4zXjwCME+nRbsmsiItcnF/F2urSju4fKzTwtBH7lR3m3DxTmSy1zu4DAZXcD6FYYeLBxLUjvRxna6eA53ns7JaotZt0jTKuYZEczBE2F8mGclhe5VAa1RopHk89RXYlSaPZoduzGA5tat0GbaGKK/bx0jbRepTdfyryxrcvs797G+hy2QxLCws8++zTJ35GzxjSbHbQde0QpE5iUwIC/b6FM3YIAh9JltFUFe6zzdIwDHKtPJVE+X10unOJAsHBHLV3TSK9T4Fn8Zk5rMaA0vUKL/z5t/j0r//YQzG0FQKJmDVP3phiIZ/l7vrR3c4e1VoX+blLC7zw3au0ezaZeIbLmyUKtRa6prA+nyMXDyMKAlf26uyWmqiKxNJ0mvWFBK3uAENTGI2O0kfH86m3eqzOpFB1g/bQ4+3re4xGDqtzWdbnc3RrIm+9sIMTeGSzIWYuJGhQYuTb7zmLsiyLrtijNTdJtHfo0D6YbBoRwoiiSMfrvuv9UnI/RNpeYHl2Hk1TuXFzl43SBr3YUXY0YVF51mfWSCVj7OyV+N7mVax4CS9hn5oj+KDzESpNC1+QmJ7KYugqVn/Sc3Mreb+7XyYIAkbjMYPBkFqjRbvTJfB8gsBDU+VDFiXZOsnePOloGgHY3imy3b+Bna0fAoDgiyidGGvZyQysvWqRh9EkonSjJIbTRM0oK0tztNpdGr0GLaOAkz1Zhw8kj1KpydK8Tjt2euuEHW1z+cpNImGT8CBDK3pvOVZpaByAU4Z8JkskY1KuNgiHDArFKrVunW37Ok6ojz91+xnq0KDRbaEqKtLAwD0YK6+4BtlMknKlQbVVoxFUcEN9vPRtRl2+UeNrf/Mi21uT76OqKqsrS6ytLJNMJLCHwzPlyEa3TlKOY/TSDGNHx4T0ul08z0NgUm4u6e88WnQd531guvvZ1BU8TcYdBZxU8+fUGji1Jur02XZwTq2JUzv5jHIJ8DUVWQzjeyKBdD67ffyT61jNPrWdJt/87Lf44f/9I+/oe2rj6ASkZiJMhfLHfl5ptqg02zTjG8jf+M51EtEwM/kEb90s8sLr11lfmKLS6PKdy1v8+3/7I2wWanzhG6/xoSdX6A9GvHF9j6WZDNe2iswvJhnL42Na9ctvbPDhJ5cY2AF/+Q+vEAubJKIhvvRPbxIJ/wu+8vJlTF3FiCp87b9d5bnuEisfjjEa2+95Lqqtduhkjo6IthIWVsKiwbvfzCv44oRFMUU+l8bQNbZ3i1TlHUbx1gksahnBEFBVmc2tfbZHG4zyjTNZ1HDkUhkOmZubxfM9wiGTntVnMLRptjrUm20CzyXwfVRFQpEn/2bSISTxdpL31mA8tR1nhhXWLi7g+x5Xr29T0bZwMt0jgKr3EkTUKGEjxE5ln5u9q6jEjowYuS+Zz9YJdTIsZ5bJLqXY3inw5lsbNJR9Rpnmqa8x2mlmorMsLUzya/nyE5Tzb53KNIa9Ho/PrWDUdXpW5RA8jgXDYxXFChPzMmTjGZSMgud6ZFJxao02jXaLveEmTtjCyw9Pfb+t4g4BIAf64Xs58pBiqYbv+1S1nSOfoVuzeP2Ll7nxyvYBW9F5+sknuLi+dtQa6oQI3fcn+UaNOLIok0tkcV2Pod+k224fTlPQNA0U5aHuddM06Fsadnj0PkLdukcxk3FUZ1zpo0rHCyoG124yuHbjXKAaXLvB4NrNk9MVvk8QT5JKLyGNVmiNGzja4MQ5WrfTPZNeq1c+/xobL22RmIrx5I9efKDvGOlPk5RyzC6nCcsnT/3OJGI0e20sJ4z82tVtnr24hKFIPLUyTSoeIhU16Q7G/PFffoVmd0C12WU6m+DZ9Tk0RWY4mphv3mpaG5knbzJRlLixX0QURf7tjz2HJgm0+2MSEY2f/OGnUWWJgTd52ArFNheF2fc8FzUYDOhMdd6zTapYEbKjBZYW5lEVmY2bu1wrXaefODrQUBrphNt5LsyskkrG2d0rH7Co8pGc1Ukg1egMGLkCTz+5juO6FAoVkokY7X6Hbe8qT6QvIYkC50UGr8qvTEC1lmHamEdRZMrVOvuNAp3Y/pH+LKUXYUFdQ0kp7FULXNndoK820ewoU6EZlJEMQcDG+K1zK85ugbnaTJIT5gjFDPK5NPvFCvv9XexE49S+JK2ZZN5YJT4Tpmv12dsvs9XexE6eHYBYZp16o0Uum+LmW3GsO0DiVtVdeJwiG8mCDolElFg0zF6hQrPZZqNxbdKflRkheNKhF6DgSQi+iOCLeLqNE+nhP5ynAwAAIABJREFUKw4Dv08+kkcdKVTcNr7s4msjRqMxCBMXEhdwxy6vf/Ft3vzHK4efZ/XJJT725IcPhxfeRaWPM8aRixcIhLwoc7OTUnZTNonXE6gh7UDue/dWxI68D1R3Mv2pOMN8hGG5S4jjrhT29i7tr34TbX7m1Mq/4c1t2l/9Jvb2yf2dNj6jTIqp1SUi+TSxQZhGs03gBnT8Jp4xPDZPCyaTmB//xDpvfe0a3/rr10lMx5i9dO9DGCVPm/RGJeMsJOaO/bzYqjKdyB4ooCIz00mGWwvIv/hvPsmffv7rLM/liIZ1vv7KFfzAR0DA8Tx83+expTzXt0v8+RdeQpJE0ukw/9OPPXaX5BmcoGVDu9snFjbRJAF72Cekyvh+wEtv3qTSmACCj48gCAiB8J6xqEO67LjvyeYUPAm9kSYtTpHNplBkma3dAhVlm3G6fSKLEg0BVVXY3N5n2z6bRQE8OXyOUnfA1FT2MAG/19xnoLTRmwq6oSE1NCRdOBegYNJEnLQWWF9aIhwyubm1z/XW2xOp7w6GEavNsbQwSzaRZq9axFVtHHzy42VW1+bQNJV6vUU6naB9tUsxuHxms6zSjZIazbEyN0coZLK1U+DlN17HilZwcyczHaUTI2rlmZvKk8+lJ31cnQq9SAU3d371nhu22Cnv0R/YzMXnuT5sIDoKuh0lZ0xhu2Mev7SCIAjc2NyjXKnz9t4VBnqbIOYg9yIsCBfxhh6qqhCNhYGASrXJ/NwUmqawX6hww359Alh6n0w8hSiI1KsF/EgPTx0j+iILc1MU3trntf/2Cq9/6TJ2b3LIT1/IsfzBeYyojttwTwSqk1wOggA0VWE0CtgvlNFUhcDzUA5e/34h+SNe6TDuTILB22XGno92V5m6P7Rpf+OlSTB/TsPvSe4U48BnGNYYLJtsUyO85yGhkIhHiURMxk6GUrnGuG9jK70JaN0hDU5dyGE1+2y/vs8Lf/5tPv3rP0oocf7wWcNOkhwtkJ8OkzYyR37WdToUSk0sx0LWArLmhC1GlRjTMwPkiKmhqQrD0Zi3buyRTUX5oWdXGTse//d/qRIEAamIwc/8+JMM9RGDvsd//avv8syT88dQyfN8BFE8srVNQ8Mq1PACUDUDF5Fya8Crlzf5P/7XHyYRNvnmGxsUG633jEUdiUSkhz9g77xKSqUXJe8usbQ8iyzLXN/Y5mr5CsPE0YGG0kgj3J5ifXqVdCrO3v6ERfVjZdxzWFS7Z1OzbR6/tIKqKNTqLbZH1xllJ/LYzcoWCgqaH+I19w2elZ8+E6TUVoKsN49p6Nj2mL1CmaJ849C6B0DtxJgJVplaTjPybW4UttizttHdMLnQNLIkMrRHXNvcojPqsDReJKSF0JpJRqnGiZJdpJsjY+ZRYxMJ6sbmLvv+TcbTrVPzRNFensXsIlpGod5oTyoQ2Tqz4flEVmU0mDdmSacSdDfWMXSN1cfncFyXza19dvfLVHtVekodN9RHVBU0K050kGJ+Lk8iHqXTtej1+ui6Sr8/RJYlBoMhruuSSSXY2Y7h6TaebtPqdVieXiBUitGmNylpr/d5+eWX+YvPfpZaZdIsnZpLsPyBeeJTUQgERFs7tdVEUVXs4fDIjClREohGI9ijEePhAF0TARHLkx4JSOm6jtHTGUbs90EKQJURVrL03y5ibbVQT3CncJttmv/wdQbXbt6XhRJAP/DpL2UJLmZx4gNaDJBsjW6rSaKXRlUVDENnPpVnOBxRb7axvA6OfmDCLMDaR5exmgPqu01e+Oy3+fH/8PEzv1LMmidlpJmfnkITj7KPYq9IudylE97F1Uco+wbmsnkoCeZDU8h/9ZVX8TyfpZkM5Vqb/XKDjd0YtVaPoT3GE3z+++UN2p0BM7NxOq3Jw2Wad5T4iAHRiMH13TKKIpNNxQ+0b4+LC3le+O5VvvDiZRLRENvFOh9/7hKiILC5XydsapRqE8YQaodJaOH3tC/K0R9dcld0ZfRGhoySJ51KTKLxrR2q2hbju+QvrZ1gmhUkQ5yMcNgusG1fxz6HRT07+hClVo90Jo2kjWm3exTqJRrm7hEPu6HZJDSeZTo9z826z6vxV46UrN8CKMGTMOtZLuQuks0kKZXrXCtep5+8LU2KjoLeyDAdmmV1eY5ur8/OfpGe2CYnLrC2PpEJb2zu8XrhtYnLtyvT6aQm01FLi+w43UOQFjwJrZlkWl1g5bE5pAOn9++2NhglmyeWld96TcLLszA/RTwWYXe/zP5gh/EprzlPahRdGf8g6JiZyjAajSmWqpRbdTpiFVew8DIjZCtMqDHFQnKeqYtpavUW3V6fYrVGzS0QiD5B3584RYg+uwOPXH0FUzfJytPsj1v46phyq4RWU0lL03RHNcqFAl/7mz9l++YWAOFkiOUPzjE1P4M4UtE6JmEliuu4jMUGBic3ad8NYqIg4HkehqFjD27vCVm6XR49dhx8zzvm2fewljySIfI+Rh2uhTTj9RxWoUPY9dHE47kqf2gzuHL9xD6pU8+3wKcfURldyBNM33Yi8vQRnj6iGnSRhjrqKEzg+8SiYQxdI20u4Lgu7W6XbtDCM2wufWKdb/31a+y/XeKVz7/OR/7NcecK1QkRtebJ5aLMRmeOfhZ/zE6tSH3QoJPY5VYpYju8zX5J4uLc7Q0h/fz/+Uv/8VMfeZyphEkuFac3HLFbrJNKhEgkw+RmIsSSOgNrTLHYRpREPvrRJbLTJpWSRTSmE8lCNh2l33MIXMgmoziex+pMhrAqsjibp9Lo0Oj0eXJllkvL00TCBlvFOr2+zdJMBhB4ankWZ/zeaNX9/oCG23hkYznUbozZ0WM8vnyRdDLO9m6JG60NWvHtI2PTpZFGtDHDpdwTzM9NMRgOuVncoqzfOAZmd7OoiJWl0bVZXVsilYxTr7fZ7F2nm947pj/7ioNgq1ycXkcRVOpWg319i2l/9rbU1w+Rai8SU5JEI2Gq9SYbvSsMsuXDEmp5YDIzuMTqzBKO62JZfTZ2thnobZbDExbSanXZLu9RUieDGaWRRrwzy8LUDCHTYDCwaQZVAsVF7cSYHq4zE5vB9wOGQ5uN/S3K2ibjROvEaiW1HWfGvsCl+YtEIiFK5To71V0K8gbjRPueKpzulhoTrQWenLtEJp2g27PYKRQp2DuU5W2sWAnPHCIPQqR6CyyaK2iCztxMjla7R7FeoRhs0Y7t4ob7eOYQz7Dx9RG+NsZXHMa2y3RkhlwuRbncwA0NCEYS5jhOo17na89/jRf/+lu0W20Mw+DDH/4XXPjAJWYjyxP3dN9gfmqaWDTCeOwwCNoYonkqw1dUlRvidZpCgx49GCmoikrB3qWulmmKTbpaF9/yGdCnHW+DE2CK5rvzQLgwMAfvA9ThppNAlvCqHaS6hX6GOe09KztAB4/W43ncj61C7IR7KYCvuDjGAK83ojZq4NgBqqwQjYRQFAUtMIhJKeSRgR7XKGwVqG7VCSdDpOYSh38qNMyR9RZZmM2QNbNH3qZh19nZrVMVdrFCR3sFPWmE6wS4TkDCnJAeoVrYDTx3jOs4SLLC2HFo5zqM/THSQWe07Q9RBQ1ZUPADj6E/RAA0UQcEum4LWVAwpBCRboSMlsH3XHzPYzyykRUVWVEn8qDr4rkukiwf9mUFBAhMSlXfC6B6t81y75T+REcl1MqSUnIkE1FCIYOtvX0q6hZOuHcCi1pGkiTyuTT1RovtwQZ2qn7m+z3nfoRqq08oEsX3fGKxMOVanZJ8Ezd6ulu1NNJYl58mE0/xvZ3LtJK7RyS0Ff8plhdn6fb6bGzt0IrsHVae3So7X09cJB6OIfgi1za3kTSIR8PslAtcnFlHEATeLl5hmC+DEKC2EsxJq6iqgmnodHsWu+MbuMYQs51mLjnP/Gye4XDiAF4Wd4758x1G5QOTqDVFWIoyM51FliV290uUhK1TPfzuBaQumk/juZPcUrfXp+hsY6frR753bJQjHo6xsjQpCNq4uUujX6cfatxbcYgnsdh7hgtri1y+epP92Fv4rs/N5yt8479/7fD3Vi+s86lPfmrSjD12yOcmk3T3CxUURaY/GtCnixPtkGvnUU6o0mt4DYbRO0DBl9A6cRRJZiQOTpw+e2tl6ul3jVXVg/r78t8dK1LW6V15jfA/XibfcYhI8jtLa/gelYxJ5189gf/cEpzSB5WppxFFEc/zqGcmio040pCHOoYbIRYNk04n8DyfYrnKtatv851Xv40gCHz613+M3HyWmDVPOppgKT1/rDl8t71Htd6hE9nFlU6/3/HeIuuJiYm2bA+sg8O6SzfUpZfucfeAnHtxqxhh0/d61PUyzu7wSIOsMx4dAyDPfe/7J3o9i67apT3/iFhUJ84sqyyuzyAAV65v0RLK2MnGEb87aaxhtnJcmFojk06wX6hwefMqvVj5iJffSevx/gco9CwWF2aJxyYWS5cLbzNM1QiUswtFPG3EZvMGvWEfZ+yj9CJEuyp6oGPhEpsP47oel7eu0MsUDucySUMDo5dkMTvPbGaavWqRjfZV3JRFerDIQn4O3w+oN1tcurDCymiFa/0ehpUkY+ZYW5mn3mhzrXCDYbSO7Jms8Qwzj2WpN1pcvb5FeVw4VbITXRm1mWQ5usr841O0Oz12dos0hQqjZHMyl+lBpFlHYdpbYWYqy85uiWvVaxOpMTaROJVOjJyzwOx0nmg0zO5uies3dmiMavTNBu7UvY+wCCSPoruDuqMgSxIbX97j1W9+m0Fnwq7X1tZ54smnWVtdIgCajUnZ+H6hQtft4CpDPGlEEL39XT3POxGoxOCuA0r0MTSdqBmhZjmc9WTago3O+/Lfu7lCHRNjbGCEDbS5p2k+3qL1yjaqf7IEeE+ENQjoyiLW41ME6/kTQSpTzyAIoN3RHxdphOmlLHxtxFgb4QRd+kOd+m6DsBRBkWV+9FM/wnhk873vfY+X//Ob/OJ/+DVyM2Fy4aMFE33XYr9So+FW6cXPJwbRYZiK1yMWjSB3uz16Wo/OQudcNnDPAGD0iBH9vt4MZevRDTiURhrhTp6kmiEen8wO2tzfpR7awQlZd8lWCWZYRjIldF1le6fI1uA6dv58FtXsDhkpMpGIShAEBxN7NxjlWges/nzpwIn06FdjxPwA3c6jhiYHXdBrs1spsqIukDIz9Mc1fMlD7cTIytP0hQEdq0u926QuFpBdA19xaEolqq0Z8sksXWXAeOwwtEfM8xgzK1mq9eZBvm2DwPCItWeZyeeYzmfwPJ9wOMT12nXs/Mku62orwVSwhKxLxGIRqrUmW7UdetHSEQn1QZbeTBNPR7GsAVu9G9j5o56EETtNLp9GEAR2dorsWTuMom282IO9rxPr8J2Xv8Or33qRzc1NAKampvmhH/qXzM7N0Wp1aXd6dHo9+o6FE7bwtTGn2QycZlEk3A1UBAgCpGNJusMeQ04vMumlLMxWCPUh9lMNh0MkWSafmKbH/9hu6qlqEtM0uZVeFOJR9LVLDPb6tHerpAUF6T4lwACwAp/B4jTq8kWc+FHJL9PIQBCgn9DAbWAcGXAZCAGuOcQ1h9huC2moM9gb8qGPfJT9/QLVSplGcYenLnziyN+p9MuUCxat8A6j0NntP4IrM1VfJ5ZKYJoGL7/8CvL+/P7Dl9IyHSK7kUfqyn7vMl+XTqhDb+bRuJ3fkrYWL04T+AFXrm3RlEqMUg0Cwb+DRamYrfxtFlWscPnmtXtiUU8Nn6PQ7jE9nSebSVIoVrmye33SU3UfUkq0ESXSjxKNGphmGkmW6HUnspUaVWlZLcqVEIl4lHZpCsHxWZ9axdANru5sUB2XCCSP3GiRbDqNrmm0hz1q5TbajEYuk2S/UGF+Lo+mqjRbXUqtEkOzTdhLsZReIL4YoVCq8t03r2DqBpGISSxIM3IaR9iU3A8R7uZYm53k38qVOhtb23RDZcaZd9YHJzoKaivBYmwZx3W5urnJKHc8UJAChU7XomW1aCV38XMPLlvXtpu8+XfX2LkykVuTyRTPPPMsFy8+BgJUq01aTh3XsPGj59/TVX+djtRmPB4fdzT3jx9042DE2B0jIU5OtjPOQtdxHwpQjUYjggASyfedacPNMIZvoJtHwULXdbS1CwzaNlbnZfTOgKis3Fc1pu17WKko/mNr9J+6DVK5Zg7Pc9GN06vXNE0jVU3SyB5vnvdlFz9i0fNH+H147IlLvPjNF/jqV7/CJz/5iQOQDNiq71LvtujEd/HFs9WNx3rP0h26LK/MYeg61XqTN7/3JvK95lb+ubCqXs86iBBFwuHQbdrZH9AVujTnm4/kc0i2TrQ7RUJLEQmb9PtDNgs7NCJ7RwYa3pIEp/0VZFNC11S2d4ts9a9jT53PojrWiE7gE4lGUBSZnd0im/3jDOwsz7BYLUZkGJmMkj+4ZX7gEzYijEYjxqMRRmAy9sd0xm3W0wv4vo8veOiazo39LeoUkByDGWWV1Ytz2PaYwXDIwvwUQ3vE9k6RTrdHqVOhNWhhymH2BlsgQ2Y8TyoVJx6PTKbr9m4yzjRR23GS8pPMzeZplyvYmduD9talp/FiAaIosrVTYKd/k1Gu+c5GhgQCWitBxptD01VmprMUyzXakcKJgx3DeoiF+Sna11pnDlo88xAp+7zxxbe5/OrliZyoqHzsYx/lmWc+QKPZZr9ZZKxaE8eAkH8mMB27r/E47ebx/W4EOhZHA7XAEVFlFU0wEALhyARas2MgORJaoCFJEqqpPhSQisUT7+t8QKqaOnPopKAq6I+tYlXrtF+9jOp6GKJ0byw98OlqMv6lVSJPXSToeKi+hiBMzInh/IDDNE0G3SHD6HGlQBtHiXhpEhmD5amP8vp3vsv169d56623mF2foVRq0xAL9KPnT0hYbj5F1/VIJROAQKdnEY+F+fe/9IunA9U7HUsheiKdTveRsarBYEjXP+q/F26FUW0V0zF5N5jjqVFIM8mcssrSxRk8z+Ptq5u0lNJhAv7wGo0nhRXr+fVDJnR58zq9WOlcFvWc+xHKDYtkKsXq9ERCu7azRS9axE3d2/iJeDVO2A5PAOqu/WoPhxiGiaIojA+8HGOROIVhja2dAu1xE8/32Ghdww1c8qyQySfodi22d4rs9XZQ0JkdTKOqCq1+i/mFixhhlTeb38GXXPLKCiuzC5imztZOgW9dfp1hvIabnXz3UbxNo9XmsfVl5rsr3Bh3Dkvg5+em2N4tTppq43W8zDtLwivdKAl7mqWZORLxKJvb+7x1ZYOGWsBNHM81CZ6ELMsosozD/ZnUio6C1Atx+avXePEb3zgsF//gBz/I0tIaKAIb9YmTRRA6P7922hiOyXN8wvvf3QgsCASBT7PVmThfaMIROdEcmxiG8VCfEc973zn9UPrUBpicfX2lZBzjg08yaHZoX99BDkSUcyRAPwjoCmCvzKE+cwkxGuFBPc9N2zwGVNo4SlLOkE2lDgvvnn76aV566SWe/8Lz/Lj203TCuzjK+efRTPkSoXSMtXyGeqPDl770RS6/9T1+67d+a6KgPGyQitViRO0o0WgEjEdzo0+r2rMODph3MlLkvljU0CBhzRDTEoRDBp2uxc3SFu1YAfeukQlHWJSusbNbYtM6YEJCcC5IAeRTYURdo1iqcb1xFTt7b0MI45U44XGESCRypuO11eshSiKSJOF5k78bdhSumS+DOSkmUIch5kOLrC7P0R8MKdfrVJVtnFwXeWAytFOkU3GioTCVZpXl6UWS9SkafoFEKI5p6ly5tklJ3GI83T4CHNF+jmh60vitqgqiI+MrDunuImRAUgUGscahK/uDLHlgErFy5MJ5CIOha5Pm3eEmo/TpDE3wRUajMZVqg3Fw/vsLvjgZbmjH2fjuDV544e9ptya5oPmFRZ588hmCiEtPr983O2u3WsQTJ7MT8TyH6zsOO1VVEE/wlvODhw8qpmkwGAwm+Zg71klTf9e8CRD/oE4DHsSGGNXj1+JYGmFmCu9DTzPoWPRKDeKyjHiKCDjJS3lYMzmkDz+NMp19x/dr1AofnqkAmhMhlYwfghTA409f4qWXXuL1V19n7SdniCpnV8eIY5VcYxXNNMmkEmzulEnFw8zNzvD//ef/l7/927/l05/+NPLDutiRRoRYPzZhUOqjvdGW3n/PN5vWSLGgr7L02MTk9Mr1LVpqiVG6cezGmAcsKpdJUixVeXtzY8Ki0v17Aqg717fcL6P2Y4yznTPOoslmTpQThJ0w4UjkHpuqJ6NeboEUQCwax6pbdNNdRE9iJb2Kpim8+db1SZVdalLBqHRiTPvLzC/kEUURRIGd3hZSWUJk0jy7a+2i6xqapoJ7ewy72c6wkl0mvzJpln39zWu0tCJucgL2baVCsV4ml06zdzNF17h/tiyOVbRWgil9jrVL85Oy+aubfHvjNexEHe8c7znBk1AUGcPQTpQF7wRC2QoTcZI061X+7ut/w8bGxiRHkMuzfGmV2HyIsd48N0AB0AYa8lhG9MRDKc7j9Pe/kz05jkPg+7fZzJ1mtQiEQyaWdZzJj2WH0DthDMMhgiAcK2sfj+wzD+dbAHUWiP0gLLNj3Ns4D0lEW13AqzfpWq+i9keET5lZNfA9OrEwwgcuoS3PwwNWCx6RjD0D60hhhY8XuNw68LvjDtbAY3Zthv2NAldfuMmHf+b08fXrnWcYuQLLF2YpVRpc2dhncTZNNBrmQx/6ED/1Uz/FH//xH/PYY48dB6oHYVOHvnyx9+hG2yZt2o/8fYMgmDR5DmaJGXFMQ6fR7HCzvEUnXjgW6U9Y1DKyKWPoGjt7JTZ798ei7ly3GnHH0bOLB5KlJGEvTCgc5l4qi1VVIxKNIEkyVq+H6x6Vn8KDMF26+JKHIEDINOgLXexsFdGVMSvTrGXWcD2PSq1Js9eibuzgaSP2akUMTScWZGibFeqNFpl0kkx1nkatzIK5QnIhRr8/ZL9YYbN5EzvVQAgEzGaWQbKKNDS4ad/EGvYRXAnFCuOc4mYujTQUK3LYeyb4ImorwayyTDwfod8fUq212Kvv0zaPyqbhdhitrxERIjT0Br1k7whQmaZONBImQgKb2hEQVKwwpp1kLjuNpbb53F//JW99700AQuEwK08tk7+UIpBdPE6XeXVLR3YUNFdFFEU0XZ/ItHdItQO7zQ3xlAM8DkbXxJd8RnH7RCY1OXTA9bxD540jMp3iPjBA2bKNlekTapvHytpPO5zNjsFMeO5/CNnv7iq/884bdA3l0ir9co32m9dRTihZH/k+LVlgdGERc32ZQJkYPr/T2Va6rhGtR+ge2KTZaptawyQcsXFcj25/QN+oMfVEZgJU37zBB//1k0jy8XzaYv0JLM/n8ceWqdTbuF7AxdXpI4U/H/vYx3jhhRf4nd/5naNAdb8glSqkiAgRQhHzPb3ZA23wSEDp7idbb2RYCq2xeGmawdDm6vVt2nrx2HgJ0VExm1nWc2vksimKpRpXNjfoPiCLugVQ596fUopwECEUuvd4WFEUNF3DcRy6nS6Oczz/oqmTA8eJdSjVqkzlM8zEZhm2OyRHs6QTcfK5NFvbBXYGNycs64B1jMwuc6FpMvE0r+w0qTgFlkIzKKLCSuQCczM5iuUae/V9euEqXmaA0o0SDzLYjs0Ph/8XqsMmm6MrVNt1MrEU6kih7m0d7UWzdfRhjPnoAl7UR3cv4QcBpWqV6VyWmanspLm4WKTjlI5UCkbrUSKDKNFolFtUItZ1jwCVG+qzW9kjHDLRMFB6EfBFjGGcqegU8WyEvUKRL37hef7hH/5h8pkkieVnFln80PQBXz0OAEbXRHYlVE87ACZtErCeoVIo/tkJ8SPNvSeA1GR/+1RrTYbD0bFgZhixGTVGkzEf97Bs22Yo2liZ28FDPz7AqBlHcl2aph2TLZuNOikzRbPRIJlKnciyfhBYVaQexhTNeypMCQ6G0nqeh+M4OIaGe2GRTqWOWqyTuqNk3Q0C2oFHdzqPsLbAUJNRbBtFUZAkaWL+/Q4AK6bHcHoOw4iNIw9pibtYfQNf8Bmbk/sdz0dJzsZp7re5+s2bPP7J9SMS+FTlIsmpDIqi0OxY6JrCVPboxOI/+qM/4uWXX8b3fV544YXbQHU/IJUoJYh4ke+LUfD9/oD2dPvdB6Y7D4Z+mLS9QNSMoukq1VqTG9VNrGTpyGiLCYuKMeWtoBywqN29EjcfAos6a6WLacKEMe8DoCRJQlEm/Vd9yzrV1BTAGY+Z2p6mtFikpRe4tjEpWb8oP0VsemKt9ObVa1S1bdzMUabjRHq0rDYL+TmWYqvcGL7N1k5hIg8ScPX6NkU2GedbyP0Q+cEaSzMLeJ7HzZ09+v0hi/PT9K5a1NUCmfg603KeTqE+sWOydWQrTFJJ8/jKBWRJZrtQQBAFZqcyJOJRSuUaGzd22Xc3GedahyCaKCcIOeFJ7u6uGqBINEqsFjsyp6wfrrFXiLO+toiyLaNpKuGESToV58/+/LN88Qt/f8hG556YZvmDc6iGehd7MJFcCdXXkCQRVdNAur+9KnAfss4ph5QgCOSzKaq1Jif5aLi+i3aHXnzL+8/3/UP5zrYne7+WPrla1ZbtE/wHJ8/ArVH2t/6WaRpn5t7+ua9e2kKrafd0Dvm+z3jsMB6PGI3HOI6DG4/gry/QsPpoXZuoPAlWer5LPWYyWJtDjJiMLWsSfKoqqqahHgDWO1KwhqFDBxFPdPBOGAcye2lqAlQv3DgEKmmok24tsbSygCxLvPqd7/DiP73Ab/z6rx957Ze//GX+5m/+ht/7vd/j0qVLfPGLX5wA1b2CVKwaIzo6KJT4Plme5z4ykBJ8Cb2RYim6xsJjU/T7Q65tbNMyC4wz7btYlILZzLCWu0A+m6JUrnNl6ybdaPFcFnUSSN0TQBXSRMQIRuj+GK5hmESiUXzfx+p1zwSpW4fHoN8/BJ5GpcpKYg5ZltjeLbIT1ObEAAAgAElEQVRjbR7mqo5fxIC6WGCnHEcQBJSRQVHcIjRMUBxZjJNN8EX0RoawEGVxdh5ZlNmvFumYJa5WLBTlCcJGiFbHoNyskglnmZfWqTfKZCIZhtoQ1/PYLRfpdfuIgUJ8JkoQBDSabQqDHUaJ1mEFYaqYIuSHzpVGI8MIHTpHWJU1aKHIy1xYW6RQrPKVr36Vr331Hw8LJbLLaZY/MEckHUYb6ChtGcETJvklWZ44R7zDTPE9B8jn/KIoiqdG247gMBgMGYsjPMVjkBgesM/IQQ5KpJaunfn3rUQfvaYfYVW+71OvVQmHw8dYWTyRPDV39YPAqvra4FTj4DvPorHjYI9sRqMx4/Hkn+M4eNkEzlweZWMXxZ08a3VVojWfx03GkEYjlIOcpO8H+MHEqk4QBERRPLnH7l6AyjQYtUJYidPPsdxKhlB8h3apy87r+6wuXWI2WMNM6ZQqTZKJCCFD54VvfpPVlRV+5md+5vC129vb6LrOM888gyiK/PRP/zTSv/uNn/2P59LUZoRsLUs2lLln+v9OV7fbo04DBpz4noPBkPq4SWW28khASrEiTPXXyYUnzar9wZC3C1doJ3dxQ3f1RXVjzIwuENMSxA/cEjbaV7GyhRMH+t0NUNP+7H2BVLqQJjfIEw/FT7TMOWvJsowkS4xHNlavh3PKaPBet8twMDiMcBVVJdQw6UQ7uJKDXYdKo84+G4yTLRBPD3581WHY8uh0LQwphK23GSSqeMYQxQqzqFwkaSZpdlsMRkM22tdomUV81UEYK0TFONlMig31VWzLZTo6Qz6bZj47SzIap95p0e70iKgRVhbmCZkGhVKVrdo2JfkG40SbUNcg0oiQs3LEzcQ9PbCapuG1Xezw7VyPK44Z1UVeeull/vwvPsO3X3oZ27aJ5aI8/eFLPL5+kbSfJmyHiMoxdMlAl3XkhxDZ3g7WvPMNXc8BKXlooEsG/cGQgdI5dv/G5phhaMjYHOPo7l3JrYDWHTPTREc51fhXHIsY0uRwtiyLUCh04rWXZRnLso6MIzkiawcpmmLjnzVQuZoL3QBd1s+8t+PRiPHYwXHGOGOHseMwHo8Z+R62JOIMbYReHwsoTSXpLk7hGfohUxYFAUEUEAURQZw45ft+QCyeoNvt3veZASA4wrl7zvd9GnstxI7G//yxf830dI5as0c0bJBNx5mamsLzPD73uc/x9NNPk8lkDu/9Zz/7WT7+8Y+TTk+8LOXz2NTs7gyxWOyRFUr0+3269GjOHeR5KqAM5SNVQ51O94H7opRuFGMUw5atY+amJ10LwZXRm2lW4qvMLefpWQOu39imHS4cq7QTHQWjmWE9u04+l6ZUqXN16ya9aAknfb7v24OwKID6TB1jz4D76HWRJBkzZOL7PiPbPlYwcRKLOg3UPWNIQb98yJjuKY9hdsgqCyzm57hRhna3RtaZZ3YmTyISY79WJFB8atoOnm5PnCiGadZmVkhFExRqE8flUaLFXrlI0bnM48FHKXYLKL6GoomkknEGQ5vdUoGasocT7U6am+uzk96xB1Cuw26E1h0WQ/VOhS///dfY+u7uYbT5+MWLrK0s3/ZMe7erYAXhnf381qHo+9xvLdUoNGIUmkh+oisj9U0yao6QZrLhv3Eiq1LKCqIoHWNRxxneD/7Ixm66h1bXTjX69YMA3w8O81T+rf99H8/3GYd0nIU8I1UGBKypFJ6po/o+vu8fec1oPMIPfKambhctqNqDbU5d14nUw/TOONfmL8yy+a1dbtzYYHt3F2voMp2LEb0jZfRzP/dzvPHGG/z2b/82/+k//SdCoRBPPfUUH//4x/nd3/1d/uRP/gTTNJH+3a//bycyqlQhRb6fm+j1j2iVrQqlmRLDyO3GMjts0wq3aYVbDOwBXb9H/RzfuxM3vaNg1vOsRi4S0+NgaYyC4YFX2skgpfaizNgXyEdyKIpCz+rzdvEy3dT+kVlOt1jUtH2BuD5hUbVak43WVaxM4Vje6mGwqJMinKh0783VQeCjKAqhUJjReHSkBP00FnXs+qgq5gGrmmgK98FcFRevL7CUXiIkh4n6SdaWF2n12uzXSpNZW4kGgi8S6mZJkmXsOMiSzH69yLZzfTKqRICeWUNtxwnGIiu5ZWYyU/SHffZq+xSGO7STe8TaJplWhpSRfkeqgKqq+E2PYWTI1t/t86X/5+u0Sh1EUeSZp57gU5/4YXLZDLIsP7LnJggC+rr1joBKsU3mctPYoxE9qXkmIz72bHkici9CZJhmKpEjnUrgui4Nv3wU5FthYv0YpmneUxQvSRJ9y2I8Hk+qHX8AWRWAOBIOWebJOSoPz/MJ/FugcxBQHEh5nqExSkQZpeME0TCqoqAc/pvIy57nk0ymiUSjqIpykBOeVPh2u50HYlWiL9I3Tpb/JFsjPZ5HViRKxSIA/+rHfwTDOF75+eyzz/JXf/VXlEolfuiHfghBEHjqqaf4/Oc/zwsvvHAyUCVLSbLdLMlw4oE+/IOsTqdLRa3QyZ5dZu3oDmNjfP+HSydGsr3AM+tPkEzGKFUa5HNpgp6GpTTwBe84qDXyrEUvsbo0B4LA1t4++8LGgdP5bVlDdCcAeDHxBMuLsziOy+b+DkXlBqN4674LJl6VX6Eo3v/IkZE5Qq/p93UIO+MxoiSiqRq2bR9jUbF4/FTp5TAKd13akfsvZhE8CdkKEdcSREIhhvaIbtfiZm2TZmQHTx+hdGMsKRd5Yv5xdFWj0+9RcYp0wsXDpli5HyLamOVi9hKmoRM2QuxW9ik5u9iJJrG2QaaXIWkmJ4UKD2GNLYcv/9k3ePXl1wFYXVnmU5/8YeZnZ99xCfCDLEmSGLnjk8vI7/HzKLZJJp6i3x/eF1ApvTBpb5bZ1AxmSKfb7dPudCnb+wQHgQRAuBEmocbvG8BlWcbzfTRN/4GVAMeGg9JWTjxvb1XpBUFw6BUyyTEJiKJ0UASloGgaqj55/jVVnfyvqXhegK4bJFNJNE1D1zRkWT6yTw3TZDDo37cULUkSSlthGBrelSYJkXCnSKXi6JrBW299j8L+Hj/xEz+BpmkMBgO+8pWv8Nprr5HNZslkMiwvL/O5z32OWCzG2toakUiET3ziE7z44os8//zzCF+s/tcAJm4FkXHkkRZK3HJuf7eGFd5qrl1Jr9AfDMlnU2zt79N0q3xo+TkEQeDbN75DP1c8AmozwQqhUAhZkvB8nxvNa9ipBoHk3sWiouTcZTRFJZtO0rX63Gxfw07Vz2wCfadS32krXoszrc480EF3Sw+/U+qzer1Jc/C597FL4T6kWLkfIj7Os5haJJ2KU6u3uFncwopWcUN95IGJ3o8TUsLMZSffZ7O2SUerHPamiY6C1kixlFhBVSejMaz+gE37KpoXEO2HUFT1oVv/vPLt7/D8F740ifI1jY889wFWlpfe88Ou4dePKBH3A1IAWitB2sgwGNq0o/v3NFxSHKnEBpPp1Ios0Wh2aPoV3PDg2P7PNh48v31WYQXcn2NFuBWaSGQJi++3ddo1CoIAx3FxnPFhfsp1XVzXO8g3+YeK0K1CCcdxMAyTaCyKqqqoioqqTsDwpGCq3Wqd6J5+L6vpNenHBhBAqj1LPJFE0xSuXrnCq69+m0wmw9WrV/nZn/1ZLl68yG/+5m9iGMYhAP/hH/4huVyOP/3TP+ULX/gCf/AHf8Ds7Cy2bRONRhkMBgj/dOUfg2g/+kidzg/zUNPvnrWR2o4T60/zxKVVNFXhje9dpyVOnBMAptuXmMpkqVQblOUtXGOA2cyykllheipDu9Pj+vYW3Ujp2EBD0ZXRGmkuZC4ylU9TqTbYKRboRounNp6eBVAPA6Rurbn9+fuSa2+BUigUplQsHG50QRRRVQ1Zvrcoyx4O2ZraOudg0zAHSVbTq2TiKfb2Ktij8aQcPdFCtHXUYYjVxDqaolFqlOkOLEahDk5kcg8EX0TpRZjVloibcSKhEJ7n89bmVfygR9TRJ/mnhx1U9Xo8//df4o3vvQXA0uICH3nuAw8dCB8KUD0Aq9NaSVanlmg0O1S0zfOBKoBYd5q53DTlSoMODdywdeLrws0Jm3ony7ZHZ5aq3wtYResRdEPHs30aqe8/FnbWdbqVa/JcdwJSnofneniee5jDunWdVE0lFo8jS9KkslSWkSTpzKrOyVnQfKChmMPhkGa8S7SXIxwOH5TDy1x5+zKf+cxn+JVf+RX+9m//lsXFRZrNJk899RS/9Eu/RLfb5Zd/+ZeZn5/n93//9wmCgF/91V9le3ubxcVFlpaW+L9+9dfYL9WR5+TZR+ooUbYqNGbevU0ymf2UYyW7Qke0GNkjrm7epBbeOZxGGwQBFW0TvwiPXVxC3ZEJhhDKGAgC7O6X2excx84dZ0ZKL0reWUIzNQxDY79Q4Ub7Ona+9p6wqLuXpfaInDN97pbbhCiKxBMJ+pZFJptjemaWSqVMNpc//N1SYZ9o7PwNclKO6zCwPwAXZRBmLjdLPpllu7zH5mgDN9LDl10UK8ycskY6nyQZjbNfK9L0aozTncMBjbIVRrWizKVnWJqap9ltU602WZifJq4lcXoekejD7+377utv8Pzff4n+YIAsy3zkuQ+wvrb6/achvRPZUQBNVZHvUf5RulGmUjkkSWTgWziJ06cYG/47H7R4XmHFeSXryVoC2ZzIjpIukqwmaGZb31e3z0paaFXtRCd1QRCQBAFRUZBl+SB3NclfBUFwONMrm88jHgSbtwLOex1hLzzwUEaRvLtIPB+l3e0jiSKmobO+vk44HKZ/0Mqyvb1NKpXi53/+5xFFkc9//vNMT0/z9a9/nT/7sz/jF37hF/jd3/1d/uIv/gJN0/jJT/8U5Uodhi2E3Y23g0dxEzqdLu1I+12l3GorQayf56kn1lEUmTff2qAplo44I9xZNGFU8jy78AyRSAhREGi2OmzsbtGLlo8NNLzFotYzF5jOZ6jUmuwU909kXI+aRd295vfnT5TsOu02QRCcGJnquk4oHDmQFI5KnPVa9Z6Yg2VZ7M3uHpP5Mv4s6WiKeqc56awXx1hGDU+3Eccqei/OUnKFuew0nuexVytyY/j2YWAhDQ3i4xxT0SmaVhsBkESJkreLNNJYDK3ieh7V9j4zkfhDu47Doc3zX/gir353kouan5vlw899gEg4/H11wAlAPWgcl/7ui1ElWM4t0Wx1qOpbZzIqydaI2XlSiThdy6Km7p44eRkg1DZJysmH8j0nDcXBqTLgSUAVboXQAh1JO34ID+0hvdT3lwRo9AzSQuo+romNIIjE4g9n3zcbjTNHjty5RqMRtieSTKUIh0K0221SqcSRXNdnPvMZXNdFURQqlQq//du/zdLSEr/xG7+BYRj82q/9Gi+++OJh1d9zzz2H7wc02z2sXhdxPDlbH1lpko//roGUZOtEunlWcsv01D49q89OuUAjfLTH6U6Q0lpJZs35ycTZoU2t3mLL2jjRMULpRck5S+imhmnoFIpVNprX7tmt/N1mUXdHXpZiEb6DVXXakxzgWZvZtu0JiIwdIncxKN+7txlP4XCYaD1KNz2JrvVmmrnwAisziwxHQ8rNKh21eijjKd0ocTeL7UwOoM3iDtV2HVmSCAVJeuoYpRchreZ4cvUxHM+l3KzSFZs4kd7EJ89RGHRtlhZn8H2fdqtMPP7Opb8333qb57/wRTqdLoIg8JHnPshjF9e/r8DpoUf01gDHcRH002YGT9hxbDyZwFyq1OnItVNBCkAfGw/tlNF1jbHj3DOruiX1nQoKuoHb9U6cs/RerWFkSLveJq7H7wG0OTN390DB/j2Wq/cHQ1BM/n/y3uxHsvQ87/ydPc4S+5YZudfa3eyFTTVFyZQoagZj2YKAAQQI0J0AQXf2hf+EAQaYizHmZjQj2NKMRxyLkjWkSJE0bWs1TXnGNiWxufZSlVW5RmTsy4nlxHKWuYjMqIzMyMyIzKzqavkDGoXqrIz1nO95n+d73ufNpGIIgsRf/MWf893v/i2/9Eu/xFtvvTX5d2+//TZf+cpXeOeddyiVSuzt7ZHP5zk4OOCLX/wihmGQSqXIZDJ89atf5fU33qRcbdFtVjFPvZQXBlSC/HzcUFo9QdRZ4vXX7qGqCsVSlX1nHGR6GnBOQErq61jNDHeX7pDNJKnWmvxw+33akSJuatpyLngyoVqKB8mH5JbTlCv1Z+dWmfkmBF8GUs/LIdZYamAdhid9KtFYbJKUcJV0ZIXD9LodDPMZa8gsLVMpFeeKZIo6UezjEJ5+okpCfpvdfJ6dziOGEZtAdpH6IWKDJe5m7iAIIk8Lu+zUdhiEm8iSyaq5QTKaoFyP0RG6WLpBvnrETn2HnlWfGoPhKyPK/iFr7hJL2RTf6xyhdrsLxUedXm3b5pt/8uf87ffGPUAruWV+8p1PEYtGX4qN7Pl5CgPSqThBJbg03lmxwyxl0iAIdH37XLP7WXYwb3U+d8F7RdF0Gqxk/+rtTR+GcHh5gArG8UqhaujS8yJRFOeS5BddlhWmXqtemGrvOA6BKINikkjEsbsOmUSEn/u5z9HptPm93/s9dnZ2Jg6/e/fuTTGsp0+fcu/ePer1Ont7e5RKJX7rt36Lf/yP/zE/+7nPU6k2CHr1KZBq2s0XB1T9oH+rjzeeoLvC3aVNuj2Hpt3msFygbh2c63E6ASmtnmRTu4+R1fE8n53dPLvO43PTcMcsKkx2dIeQrmEYLzeLmlnxSB2sUx2t8+jPnusiGQbpTBbHcSZRSvOeUwFY4TDr+Q0O00esdV4n/jBCtd4cm0xEH7UZw3LjPFi7hxHSeXq0R1MpTVhWIPoEXkAiHCOkavx45wMKrSKOXseNT3+v4khBb6RJhTI83TnkrTcesJRMU68WMBYYTNF3HEajEU929/jTv/wWlcr4evjpz/wkWxtrLyyN5aMBqFnPNPvZ5J5OWIgzGrk0a/aVqf2Go8Mt5VX3+30QhIUYRD3TIFlNIOkXn7vJujyVCP6yrJ7cO5c2PwXYvvfcnjuRTNFqNsfjd47XcDjE9wPkUJhAkEAU6Q+GZJJRVEVGVRV+5Vd+hfv37/OVr3yF7e1tfvVXf5XV1VXW1tYoFosToPr1X/91vv71r/Nrv/ZrhEIh/tE/+kd87vP/La1GA3HUmVx9vV6PltiiudF8MWdUnU6HvZX9W2VR8UGOVx5sEgpp/Oi9bSpCfuzoOyPbBUGA7BhYrSXuLm+SSSeoVBs8LjyhGy3h6s4ZFiURqqW4n3zIynKGSrXB7uEhrXBhspneFkg9756b9cP1cX7dSWUyR8inIAgkkimGwyFHhTyyJF3aS9Xr9WgLNvpQn4CZ4zjsLu+g1ZL8RO4dAN7d+SHRsIWpmpQaFaJmmKbbwLFq56QjxY5wz3yFVs+mQn7m567YEZLOGq/cv0NIU3m0vUegugxGAxq9BomhcmmrRb/fZzQcIsky6UyWL3/1j/nLb30bgNzyEp/96Z8ilUrSajRmNps+98Ku3ycUCs0NUDc/o4qxHMnR7jg0rH38M8WY6Ekke+tk00kKR2VsrYJrXP582XrmWllysyWuxcJpT1iV2TQwlauLlt6wd2l23YteiXIc0zCvvEZuW/qD8+dUvZ5DIpmkYTsYVhg/gJCmELlgaka9XufLX/4yBwcH/MIv/AKhUIivfe1rhMNhgiDgC1/4Apqmsbu7SyQSw/UF+p0GovdMKbFtm/xG/nalv5N+qBUtN+NnNm3tds6mJEcn1s5xN7dFzxnQaLYp1B/RMM8nRYxBCkK1FFvGA4zlEMPRiCdPD9gbPWawdN4ar3TCZIebhHQdQ9ePJ+d+SD9buRaL+iiY1DToiJPvwPe8uW72IAho1GuoqkY0FsNzLw/9bWNTXx5/lnJexjBNdF1ndX+V/GqBJ/sHWLrJJ1ZfJZWMUbMb1O0GJeFg5oh3gFHE5sPh9whM95yTUnRl9Fqatcgmmqngjlw6roumKuzVj4iYFquJHOVikcgl4JrOZAH44NFj/vm/+L8pHI0jmT79zqd451NvP5My43HsVuvGG+684CQAiqIuGvRxOwWgpo7HfMxYqh0lu5waBxcLrStBKly1UEPX/8wGgwFBwLXT008kwG6sh1SVLj2rAtA8jQ4fPVBFqmF0UZ9r/EcoFKLb7S40xmcRkHIcB0mSCcfi1O0+oqziDEakExFCl3y3iUSC3/iN3+Db3/423/jGN3jttddot9usrKzQarV4+vQpn/jEJ4jG07RaNvLInsr/L3VL1Dem9+cbAVWn08EW2zTWxucfZsEkcAMQQBZkbNWmuXY7zbxaLUnSzXHvzjqhkEbh6AkV8ZBBujZzs5V7JuHWMndXNkin4uNep+o+3VgJz+rPZlGJh6zcGbOo7d29MYvK2LfKol7Uesf9DGQhf7C/8M3u+z5+4COJEr7gXZqunzWWGNVHtBNtbMmeSG7hSIRYuUsjVCBjvEEgeRyUC2w3PmQYH59VXfoaZoT3KnaERG+VV+7fIQgCdnbzfFj7gIy0QiRikjGy9Ghzd2WLkKZT3csTi5yv+oJjSfNr//qb/Mmf/QUAmUyaz/70T7GUzcz8PF4EOMVPVcet5vWs04lKfMoJ4Yru3LKWaeh0e+clerlrEpaiDIZDas0Go8jVjxfiemdTY4AKbpUp2Kk2ckWe2NNnFsG69JFa1sNVC13Qn+VDzvt59fu3BlSnQarfHxBPJHEGI7oDH+u4NzFi6SjK1bAhiiKf//zn2dra4g/+4A/o9XoMh+N7+sMPHyNrMUZ9m4g2jSctrYW9en7PvRZQdbs92kH7XD9UPpe/9S9Q7hnEOivcXdlkMBhSb7Y4ahZpWnk8fUZV5wmE6mnuhu8Tymn0BwMeb+9z4D9msNSYyaIyw010XccwQmMWVT0+i5Ld+QDhJWJRZ1+Tql7vfCXw/fGF2uvRbl8O1rFujHaiTWOpgbFvjgcOAmEvQiO2xw/5KxiB7BiTcfILMUNXRq+mWY9soqYUfM/n6cEB5dAOI6tDuRKwHnmHiGXy7n6e/dIh69lVqsXZmZCVWp3f+d3fI3/Moj719lt85tPvXMI0blf6Ow1OsXgcYQZ3um5Pi4iIfkq2afVb833fgOt6YxA/daQjjhSSLJHOxDk8KtPWS1f2C1p1a+GUg/EZiH+rAHXaWFFPN0jWkzNt6gDewGd4iXvxea773gOIjxtuF12GoWPbLSKRmxkrzsp9oiRid/sMPVC1ECFNwTQWvw82Njb4J//kn/DNb36TarWK4zi8/8EHfPL1V9FPXSKtVovCZuFiHFj0iZ93w+6zO0dAqyVJBytsbuTQ9RAfHO1QFvfPTdCdvJm2Sbi9zL21DZKJGEelKrv1PZx4GU+dljTGs6VS3Is/YPVOlmqtyfbu/phFZT/GLOrMSmezlIpHVyZVn5PfRiN6x+65waA/qYZmbkzhMMl8ktpKjfz6IXJhE8MwME2Tlb2VidbsGouDlGJHiPdWePXeHUDg0ZM9HtU/mJp3NYy2KJVrZDJJdDdKu9elUC3S9prEmO5J+bO//BZ/+hf/HoBkIsFn/95PsZJbvvQ16IZOo1ZDN67vDJgHnKYq/AVz1yJuhEgjgqpfP5+zUq3j9IdTAQBaJ8bSapLBYERXbOKFBlezKW/x4kgQRGLx2K3fE6fBasAAYwbTc7vuR8Kk7nsPzrGQ66x520fmBaler4eoWoRCJrg+8aiBoV+/WAuFQvzyL/8y+weH/Ks/+H0Kh3v02s1JQVt0ijQ2L//85waqScPuyvNvkJO7JrHuCvdWNxmNXGqNFqX9D2mFC5Ost7PSnVZNcjf+AC2s0O06VGtNDtlmmG3OYFEWmcEWekjHNHSOihUeVR/Rz1QmKQh/F0Bq8n6vGS7c6bRx3dFc1X3GzOKVPJrZJm3Bxji2e0WiUTqVztRk3HlZVKiWZD18By0l43oee/k8VWP3nLnCV4ccNHcZFVw2cjn2iofYXZt+rE2rKhGNxDgsFPj6N/8dO7t7AHzi1Vd46/XXiM4pi16HVZ0FJ+BKgJrIcKaFbbdQ5/zu1FsIkM5mUlRrTexj6VBpW1hyGMcZUGpUGUWuLuDMprFwrNTzMgWcu54THdSygmw+2/Ycx6GdefFNv2dBanyvxBZquD0NBNedhtyon3++QFRBUlBVlWQidG0AnbDlkUez2UY7Tm2vVGu0Ox0EQaBpNunkOpfuA1o1eTVQtVo2tmFjr9vP/csTAgGtmiIjrrKymsE0dT58vEtJ2mOYno24SjtMpL3M3fV1EvEohaMyu80dnEQVXxmeYVHimEXFHrJ6J0ut3mR7Zx87XGD4MT2LugqkYGw3XcRifrqykiRp8p93ReUWdaM0aVJfrmPsG5PMvUg/MjUZ90oW1Q4T66zy6r07GEaInd08j2vv0k9d3Bowiragt0Y2kyQSsdgp7tFWjuiFenznr97lT//dt8avJRLmM+/8BKsrOYaDwdyvybBMGrX6lKw2azk9B1EUpsBpEYA6K7++uBUgisIkhUkcqKTlZeLxCIf5Mm2rMpe743oNvs/XNjIlAR5b1gEcxaGXerE9VLMAarogup5Uf53ZXc1G/VxR0euPEBSLWMQiHL55b0Gr1aXWbGEpPhIBqWSCcqVKp9vDMk06VySD6LUMP3HnrYsvqXa7ja20aa43X8gXKHdN4p1V7q9v4noe9UaL9w8f0Y4czWRR40ijJPeSD1DCMu12l2K5xpH0hGH2/KaodC3S/U2MkHHMoqo8rj7CyZb/TrKos2t5ZXXupl0YN76GdAPP8zAtC1XVaNRrl4KVYZqs7q9yuH7I4fohm4VNdMOYkgYv3a48Ca06HlIppkTK1TrtXpeyusMoe/kBvqcNKDUP2RrkIAi4m9vgg+/8iH/7Z18j//64h+OVB/f5zKd/4tksHk1bqBKdp2tfN3RGoxGGZV4boCbQEQQv9Hqy210GgxESOpprkl1P0uk69NTGZOq91yQAACAASURBVG7bpe+9HVqYDQwGg2s7+64LVo7i0Iu+XAA1YaSWRaNRR1+wJUJVVeq1Gonk1fFL7baN53rnGordQELSdZYzCSTpZiwqCAJKlSZOr0P41G1zAlSH+QIP79/DKTg0crNJiNwxSUoZFFU5D1SdTpe20Ka+Wn8hX6Dgi2i1JEvyOpmVOLoe4tH23phFXaAbK3aESDvH/c11YrEwh/kSO62nDJLVc6BzwqLuxh6wtrVErd7iye4BrXDh3ITeRQDh4wRSk89iDgrvOA6BH7CUG4/XKBeLSJJMKKVjWmHs1uWFSzgSIVFIUM/VsbHRTzo+r9hzFTtC2EmztTR2aRaOKuzZT8fjVeYsJIbRFo+f7LOxtsy7f/23fPmffRnXddENnU//5FvcXbtz7nekBWQN07LmYlWe694IoCaSpv9igcr3fQxDI6bexXEGdDo9jpolRtH5pDHDMRZu8PU874XfOy8SpOYFqNMrHk/QajYWZlfzGCvGrRYKypm5YINAQdU0lpKxG/d3Ov0B5WoLmRHWmdoumRiz2cPjYYpL+hJe2cOeoWhFe8skkhG2nxxMA9ULM0qcbE4di3hvzKJ836dSa/Jh4TGdaHHmVNzxqPcM99L3kKIijZbNYbFIUdmZaYBQuhap/gZmyMQ0DIqlKo/Lj+lly/jyfA6f5wVSgiCQKCQIB2E6Qodabv7P/TogBeNBiYN+/8IKtm3bE4A6WZmlJYqF/ETOkiQZz7scOLLGEm7NpZ4bS4A9uXdp4aNVU2SFNZZWUnS6Pb77/fdpWIdzm1pOg10iEeUb3/g6f/zHXwXgjTfe4PW338TpdPF9OItLiqrSqNWIJ+cLApUvseae3N66rmO3WrcQcfMCgUqA6HHy/Gg0otPpcVg9YrDAUMzrTDW+bUflvKzqZQWpZ4zker93Ud+jbbfwXPec1OcFIsNAJh41CYdvHrbcaLZptGwsJUCYcf2mksdAlX/m8IsNY5PYtcl92YyynlkjnYyzU9mfBipXdV/MPeFJaLUkK6ENYtkwqqay/WSfkrzL8IIhimozSrQ77qOKRiz2D4vstZ+OhxSeObcYs7QU96JjFlVvtHi6d0DLKsyUBRcFhHfcz9wIrGLlGJFhZJJwbmAyaAyuDO29LkBVyyWCIBgbG9qzJbRut3sOpJ7JWSaj0YggCOaaJFFyitjL4wvv8JKBiuJAI9rK8SB3DytssLOTJx6PEI9GaLjzV3XSQCPcWGYtucIXf+93+eu//msA3vzkp/j0T30K1/PoDnt0BiMiM1xxumFMHI5XrXAkQqM+re0LM5nCze+lmx5iX2e1Wh0O7XEMmZ+c3659nQZfx3GIJ5Iv9P29CLC6CUBN9oh4nEa9trAxRdf1KTm72+kwGAzGkuwZw80okBBljaV4+MYN7a7nUa7aDJxpqe8cW4zFUBSFRrNFq2UTjUbG7uDdHPlje7rgi0R6WRKbEQ7zRXrh8jRQCcFilE9w5bllmQlStsPEeys82NoiCODoqMKj0iO6sfLMJk9xqGI1lribvYsYF6jVm+wVDimru4xmuHXkrkX6hEWZOsVSjceVR/TS5UtTnhcFhOuAVaQeIdqNjk0GZ1h9rB27EKhipRj3kg8X33SaDZxeb2qQoBUOT13I7XYbXdenZlCdo+CxGOVSkXg8TiQao9fr0uue7+Jvt9s0zQad5aulIsWOkOqtk0rGicXCPNk5pDDcR+/fZ2tzhd6HDofej65MBFHsCKv+fYqNPP/TP/sfqVQqaKEQn/3sz7K+vkGt0cQNPGJWGE3U6Hc7qDMCkgf9/tznd7IsXyns6bpOq9kgGrvB+csLHmtfqtToO0PccHfuc9uTdZ0GX3FBC/7Lvm4DoKYKMFm+0WVzMgjxnKsPgaEvY5o6sVjkxlJft9enXG0SkrxzUt+slUokOCqVOCwUJgN7I9EoSkFjN7eD0oiRiMQ5OCxy0NnDXeqdYVTKfBenOFRRmzFifpq+2KWV2r+yCfDEbrxqbmKmQ8iyzJOdExY1m+WojTix3jL3764TDpvs7hfY647Pos4+nxAIaLUUdyMPWd9aotG0x2dR1vxnUfOAVEtpX0uZSeVTZKwsF+X6nD7bOQtSUXdxCalcPMK0rJnTbmPxOK1mE1mWWVrOzfV4mexYAtRCOpYVZjgY4rrPgL/cLVFbu1q+FHwRrZriQeIVMhtxnu7m+c6PvocdPcLLODwpCeh6iIhpodUT9NOVizfHSpp70Ye8/94P+J3f+Z2xBp6L8/pnX2fNWCedipMVk5SrDXzfJ5VMcNBzIPDP0SDdMOh2upiWeYVCJhCJROeqdm9qhnjRjCoejdCkzaL2KauxeIPvVRN7P06s6rYBalLYRqLXsqtrmkar2ZiZvu4FIoNAIR23MMybufqCAOrNNi3bxlL8uU9lI5EwR6USLXta7vN9jzedd2hLAXc2V3jvg6cM4sfxbKdpeGepcyXYqM0Yq+oW4ZQ57iYPIjj1DoNU9dKqN95b4eHdLQRBYG//iO3KNr3EbJYzni+1zN3sFiSgXK2zfbhHNbSHm+7OYFEmKWcDS7OwTJ1Sucbj8jbddPFWWdQUSAH3hdd4HLw3HyUPrr4oIkSo8wyoNo4bZ9GgWMhfKM2dXrVqBdd1r2zwlWWZzNLyfNJhpQxBQDgSodO28TwXWZZw3RHdbhdbadFcuXp7kxydaGuFdCRFbjlNvlCmMNinn61MwoSHiToH+SJrK0ts+fd40hqzbGGk4Fqd8bDFgUastUpCT/LHX/0jvv3tbwGw/kaOh5+9O2YHvUO6+S5RM4rnekSjFp7nYVgGLbuOpZwv/YaDwYVAddYcMQ8buEl/C4yHQ77IparKuNF4QXwNuRos3Mb1Yo0iHwcGNfOzvWaj7SwjxjCQkRSN5Zh1Y6lvNHIp15qMnB5hbTFGph0/d683bWrxPI9qs8udO5u0213KHEzcpjKMQ2XtkH1pFaw2Y8QHOZayKZaySQrFCvWmzSffeIj71OPpoD01JwjG5odQLcV6dBMlKSMKIk/3DijKu4wSs1mOVk8Q7S/x4N4Glmmws5tnv/+UfuL8QEMCYezoCz9g/bVlms022zsnLGr+uvA6ILWoBDjPhaEbxsTevX64gWEZU4yrVDwiewW4JFNpioWro6xMy5rr8U6Y2TNZQcDzPDzXGyccX3IGdZYdbygP2Hh1icJRhe/+4H0a5uG5LEVfGdHQ86yRZX1tmd6jAYl4hFg0zP5hkUJrn4y6Qjxp8Nu//c/50Y9+BMCrn7vH6mvP3otn9GjRo92voQ0sIr7JaOTRc/qMBuDLIJ5jVTqddntqOvJF7r1oNDaRVp7XMi2Ltt26dsP2ostxBuPpzgsoTkZLX/gcBcaxPB81yNyEVb0IkAIwDPPG11mAwMCXsSydeOzmM6xOpD5D8lA14Rrf/XgvdPr9Y8DqIYgixXSd5W6KcrVOq9NmmHq2h8vFKyQbtRkj5a6xnltmMBij26PtPfLuDqgBzVYO09DRKnGcpeIzFtWKEu+t8Mr9LSRJZPvJAU/q2/QT1dksytGJdnLcXdrC932KpSqtfou6cYCbPB+9I/dMUs46lhbGNA1K5Trblcd0MqVzjb63JvVd9PM5isN4IknpqDBTijtbZ64drs+s7C3Lolouk8pkLn2MpdwKxaMC4XD4csnGsmg26hemAhwV8pOYk8kGHYsjiiL1WnUuqi+6Mno1S1Zf5s7mCvWGTcEuYCcLM88kAYaxJsVKjVQyTjaTwPN8nP6AleU0alXm/fff43/50r/Ctm2MiMEnfv4eseXZN6Af6uOEBhTrIcIhC0VS8LQ+rhigBuerztFwNL+1fA5tPxTSLv2Mr1r+C2v6Dej2HIbDxYBKHyxuST8ZG/EyMKJFwepFAdTpFYsnaDYaC8urJ1LfCJV43MS6sdQXUKm16HQ6hNXrM+IJo3IcbNtmeWWVv5H/C9HSBq++ukW+UKauFabOp+WLbNGKHSExXEGXdDa3cgiCwGGhTDXIM4w1x2ATCOzmD0iE4+SMNfa6bXx1iF5PsxnbIgiNd97HT/coqbsXRrBotSSxwRIP74/nS+3sHnIwfEI/NeO1HbOoO9YDNl5dptlqs/30mEWlXwyLOnfxziEB/q3yHe4bF1/knXYbWVFYzq1wdAkj0g2dVrN56Vh5gKXlHIX8IdErLNJ9x4EZylTpqHAOpHTdQFEUWq0mwbEUmCwkL7TWyx2LpeEWd+6u0+05fP+Hj2ioRwwytSvZVzoRx/N8HhWe0FOaCJ7EsrTOD7//Xb70pT8EIL2Z5BM//wBFk6/chDtqlZgUJZNO0D/s4zhN1DM3vsBiIZ+xWHyuDeQmZ00vsuk3lYxRa7Soz2mquk6DL1xu8f+vWea7aDWbDYJg8YJlGMjISojlRARZvpmMPBy5lCtNvGGPsHoz88WJLNlud8hv5MmTJ1TKcDd7B1EUKbcrjM7s5fKszcVoJ7m7tEU2k2Tv4IiDfImCs88w1pzubxICalqejJxmfW2Z5o/rSLbGaw/uIMsy73/4lJ3m9oVNm3LPIN5d5U5uA9f1yBfKNAZ1WuECrjWbRSV764S1MJZlUK7UeVzappMuXlidP2+Qmq/wFiZs5GyUkdPr4QcB2VOmhuXcCsVC/kL21Xd6VwLVUf5wLl4QjkSolIqkj11/J+dR1gVsrNNpM+g/SwrR3dkblVZNkWGVu3fWxgy5WqYa2bl0dPnkNTlpnNCAH7//hHakOE7JD+D3f+ff88H3xwXBnTe3uPv3VuevLEN9is0i0YhFJpFku1FH7ffQQ8a5z+lsL0qzUScIgmtbqVVVpdGoT43xmJ9RvRigeoZN829CykCBBRWpF5Xrd1us6qMEqIt6n64ubgT6vkw4bBCPRW4OlK0OjWYbQ/bR1Js7UcXj/bAZtMbmqkqKNXOTdCpOt+fQHc5wc58GDbOTZiOxQdd3SKfiHBbKHLT2cSI1vMjsbu5RxOagcsDyUorl2DIj18XzfLb3nlDWd2dPxQ0EQrUk0VGWV+5voigKO3t5Dr0nDDL1c1Wk6MrolSzr8Q02X8vRsjs8frL/Qs+iboNVwTjKqFopT5pCl1dWL5TvSkeFmYBhhcMc5Q8v/N1iIT8Bw3nY1wmQlkpldMNEEp5Vb7I8HoY4Go1weuPiodft4gcBuq6zlFthyV2ZnNPJHYuwk+HB8l1ESWT76T51r4yTKs81fHKsA/tkUgn6/QF+qE/jqMV//JffobJXRxQlPve5n8PIGYzmzA8UBxohJ4olh/F9D88PEBDoy/1JeO40cxyzKkEQcEejyUYxyxgxdlBenSKgP4chd7e9avUWjtNnXqd5SLjOucmLsdw7Tg9dn0/qugisPiqQuqz36arlBiIuGul0GD2k3eh1nEh93U57Ltv5orLvsDMiXbtPNpFGlmXyhTIruQwZfZlC02EUO3VGJfVDhFpxokKa11+9iyiKfPBoh//y3rt0rQpu9uoKuG2W2H5yQDweoVZosdd5OjWGYQoZuyZJZ507K+sMhyP2D0s0hrVxpl9kOtNPHKooPZNVfZPkZhw8kXKlznb5Ce300UvHomaB1ekehb+R/wvvuJ/B9zyGw+GFQHOyspfId5FodIoJTSS74tEUE4vGYlc6z8RQhGLLJZoaS7x2d4AcDLE0gVg8ThAE9B2HZqOBqmnnnvO0XLzmP2B1M4uuazzZOaQs700dis5VdY/66LqGZRns/acy3/rSt3GHLrF4jL//9/8BsqLRpDIXTVDaEbLaMun1OIPBkPxRhY7YZBTtMAKkqkg0dB7Ih4MBlmVNRc1cdCQ1rzx3nSF31wkbvb4kozIazdeiYjaNawWoXtcYcpJPB8HxuZ0w9Z0IgjD5D0FAVZRrOy4/ShZVr1UxDONakqrjyYT0EJl49MZZfb1en1qjjT/qYam30ybR7w+oZWr0O2NVzu35vP3qJ2i12jzZO6SlHzHafwVFkdkUHrDT/fFEgZHv+Z8keyfJYaFEqVznqFGkoRUYxefftF2jx0HrEZWyhWPaM1nUSaZf1M3yyv0NJFmiWKqS58kUKwqCAGkQQulZKAODzeU1VtPLNNotnhR3aQnVC5PUrwtStyHzRUfhc2LqRY1089rCG/XapfWnYZo06nXiiQT1WhXvAlt6LB6fedMGgOOpxOMRMunkqbOUgHK5Tqtlo/V6OE6PWrVKLB6nO6PRNwgCVkufIJ5MsLKcGU+CrTc5dHYXYrwEwrg3avkOo5HLn/7Jv+XP/+1fArC+sck//Ae/SCwWZnt/78r8OcnRCQ9TqJKKFlJpd3oUGyV6ZmOqwLFTHeSKgqmbxzdoD9/3Z36OmqZRr1VJJFNnPt8Edqt5pbPTMHS6nc6Ui3IO3fjG12akOr42PdmjG7t4Jphp6AyHo7nMQZIrLZySfhPZbxyiuhgwLmJk+SjB6YStCwLjdpQFlxsI9D2ZVCJC2LqNxPMO9aaNKfsItwBSjuOgqCqVVAXBEzH76UnhVqu3eHy0TTs1Jh671cdsGvfZXM/R/cChqHyIrw6RtzZWaDRt2k6HQx4zTLWu9WKG0RbDC6QYpWORHmyytb5GfzBg76BIbVSmGytNbRqSo2P2E6xG11ANhb3SIXW7QcWuUOMIN9q9srH4RbOoKZCaY52wqnnWaDgkEo1eKt8NB32q5dJ4qN8lFe5ZsHIDCcdXWVuKEz1nWRXIZMZjqFvtFu1mbfJ75ilwhPFYgFZvhKKGsEyD/FGZYqlCNpNmSVnlsNPDta5OqpAGGlZtmc3sOrGoxf/8T/8pP/j+9wD4uZ/7OV599RNYlsFgMKQf9LhoNxVcGbUTZjmSI7EUZThyOcyX6Cg13NhsdcAJOZiYdDqdK/vPDMPAtu1zRpN53XmDweBSoGrb4z61IAiQZJmQdjP5JhqKTm0YXS4GqpE7wpvzfWgs/rpu5mC83lndRxFDtRgoNAl8/9r2895IRFZDrKQjqOrN2hhGrketbuP0Orco9fVIJFM8lh4h9TUsJ8Xa6hJ/KooMBgO+V/xb3FMzAwepGgdFjXQ3TjwSoVvL0VraQ/7Be4+pygfjAYPC7R7cnoxtiAVp7t3bQBRFDgtFjsSn59IijOoSphjm1Y37GCGdg3KekTCgLZYZmYsPNnsRIHUWoE73U900luS0Nfwy+c4Kzw+SJ2ClRzPImsH95cSloaDxqMFuvXrueYfDMXWv2w6iEuL11zbp9hweP9knHJJpWkesSEu88mCL/vt9iub7l15bih1hLXhAZjPBd7/7Pb785T+kWimjaAqf/XufY+vOXSrNBp2ew8pyhrSe4WjYPSf9yh2LpLCEFtbwPJ9avUWxfcQw0iKQ/UuZXKfbmXsKsueeb6+Yty/IMHTatj2RZzudNu7Ixfd9ZFlCVVWUj8gVV6u3GA6GcIU6Gepo19pY5Rv1g13vflJV9UZN189rtdv21PnnwsTACxj4CrGoRSIWvvHrcfpDypUmou/cstRXp0YdxbZIykuoYQXf9/F9H1EScWcoLk6myAd7BtFQnNc2H/LunoN8lPjx/Ifci2jRdoSsu8XWnRUcp8/e/hHVUREnUXnWR3Us9WTlVdSoQKleYedon5bboKvWZ/ZPvewANQ9IzcOqlnMrlEvFyZnGRfLdYjWpgBpZwrQMVlaW5toa1JAOTAOCZVk83S8RjiUwQirlaoNKuUImGkJTZbblFtvlbSxLZzmZoVErX5hcEqqkWdO3uLu1xje/+W/4whd+dwySy1Fe+/x9lLBL3n9MEHPpdSzMlo6iyGitKI46PqcShypaN0Y2miYRj9Jz+hRKJbqhOl7MuVQ+C1ctYqEYLKDGnQ3+PGFaJ+cLV1auoxH1Wg1JEtE0DfkFZd5ddZSWSSdotTo0ryA+8lCBBSvu4XBIJHr9UfMvOPbwua1utzvOlTT0c6M25v0OuyMQFZ2lVPhGI+JPVr3RpmW3MRUfQbo5SPX7fWRZoZKqjOcGtmOsJlYwDI2DfImD2sEYI0Kz338g+tSjByjNEJGwyYPUQ+TbBqmTNIooKe7cW0VRZExDp1CsTIGU1A+R6Kxzb20L2+7Q6/YZyB3yUgnP7F/ruV80SN103Ee5VESWJPwgIPD9sU391PmVdGYDuwlYTaS+5fiVvVWT3/F8RM7vWs7QZ21zg+Vsiqe7h9iNJksJc+p7+G7sXR5t75NJxVkS1zl0umOb+cl1MlSJNddYTazQc/r85v/2W/zVcRTS6mvLvPq5eyeC0UTuda0OxXqJpUSWpWiWg46D4EtktWX0ZAin36dYrlEZHDGKtccs7oIdzmwZGCPj2pLLLJODtgCrehmXgDAXIKju4kDlujfbZ26iUNy06XpeiWs4HEDAhffnRSGxcwPAyGcUyBiGSSYdndi8r7s8z6NUbTF0Oljq7VQCTr9P9bgolXs60VGWkK4SDo/HLLXlKj1p3Eephi5m2L42oGLssrtvEdJUblVjUFpRcv4dNu+v0O067O4VqHVrrKZyhC0Tu56lkz1EbUVJOuu88Yn7eJ43lgOVJ4yi1weR5w1SV7Gok/Vp76fmArEP7fdYNdemL0RnugUgmUpTKh5NSVLXAauBr8wl9U1dKL5Ppd5BEc9vMIok0LY7LGdThDQVf3i+sPiU+DY/0B+xHlpiJZeh875NTd8e/347TKa/xasPt2i1Wvzm//rPePLkMQCv/Mxd1l6/OCi3b9qMRknSqTjOYBnDChGLhrHbXeq9On2jiR8ZXlqGJ8pxTMOEGxCZWRNVTcu6Vojoi1gtx8aXL6dK7U6Xfn94ZW6fLC2+bUiSSKvZOGZ1wcQpOc3yglNnSsIEoARRuBGl6vWc59JkbNst/OPBj6FQiJCm4Tiz23g6nfa1iyLXA2cEmmGRNHQiYf3GRwudXp9KtYkc9DHVmzP6fn+AKIkTkFJaEZbNFZLZKIWjCtt7e3SMKr4+xKt5x4zq8gvNDXfYqX9Iqr12O0A1trgniZBg424Oz/M5qpTHozgSHaoljU+/8SZW1eD9A7i3tIUX8tk/PKLULtKMHi5kNX9ZWdTd0j2OBuP+pqsyANuJNu19e8pKHtL1qfy9WnW2Bfsk/fyq/qgA4djVF2Ypm54f2Pp98sU6gusgisGMjUpg0O+wu18gHotQrbfQBi76mYSIYbzB0+IuYes1MuEM7UYNwZNY0+5ACP7zf/4O/9fv/ovx2Puwxic+/4DEyuXvydf6lKsVohGLVCJGvdHisONQp4gb61yqFVkNE90zCBnzGwHGwctjxnv2PGFWisU84+o/ijUwBwyMweXXix8QXGFaMFr6tWzp2g1NITdd8ySNXC3bdRgNR1PniWf7nC4azXFdU0d34OMLMkpII52MoSo3B5VqvUW73RlLfdz88U56ox5LjxCHCqaTRBfNyf3ZcKuMYjbB8Tm1O5oPqACGiQb1koycUrNUh6Vpmu1JKB2LABhFL3cBarUky+IGWw9WaLd77OzmqfiFqT6qViTPzl6S3HKGT7/yFroeYmc3z66zzSBTvXZMzMvCogA28htoloYW0iZgc9Xrq2vVGSAwvnDOJlice22x2KVTZE+kvvXlBJHo/N3prWaLg2IDXRyiihfLNWZIolGvEfgBK8tpDvNFcqo1hQ/vuJ/h3fAPeP9DnWQiyqbygFg6QiIe4Qv/8ot88xtfAyC1nuC1z99HM67Y5H0RzY6RjqRQVYVGw6bWrzC02tPJJzNAasKilMVvQBiP8J75ks6MUres8EvLqq7ezE0ggEtUOmkkwd+tMVJXsiZ3NEIURUKhENIVFnn1OGIseuY8zjDMhQYhDkYBHhJmJEIQQDxqoSg3j0Gq1Jq4ThdLuy3DRJ9apkaNGnLXICXkWF5NUas32d0vYKtl3Ng0y3SH7jFQzceT+tkKsiSMU839wEfqh1DaYcKDFHfvrDEcjvhx/fsMEufHiMtdk2gnx/21rYn0ki8fUQntn7Mju0aP3fojutsO9+6ssf30gD3eZ5RqXwuk5rV3XxekFgGod9zPUDoqYEasU5uVRbGQH9emx+/vZCyEcGozFUXxnIwX0nUq5dJcY8wv+uxOpL4Hy0nUBSrZYqlCo9HGkgZzeazipkyrbbO2uoSiyHz4wSN0cTQ1juRt5U1+zD73YmvousZwOOK3f+f/5M//7E/GAP/WKg9+euvK5xKHKpF+lkwqScvukD8qUwuOzlvOz4CUVbcwAh3NWHxe0mlZLxKdPYNq1iiPj2OW3TMWfvlSAoW/q2vswBwBAkHgEwQBhmGgLuhW9C44jxOEq8HB86E39EGSMXRz3Phu3NwwYbd71Br2ceL5bRgmxlJfJVVFCASUZoSwECOTS9Bz+tS7DXpmfWYAuTecn1E9K+B9lRXvPvRkImqcxGaEwlEFTVXGAGTfZWfQnWT8CZ6EVk+wom0imSKqqrD9dJ/D/u6YRV3Q5zRI1GmXIsjyONPpMK/Njld6iVjUVedMd8v3qIyKMzP5rkpJPy2znZNX5mz6O2tbv4nUd1is4Q16GNJik111OeDDx7ssZVMYVhRcZ0q+rDS6bMa3sCwD3/f557/9f/D//b/fBq4+j5pU8Y5BeJBmaz2H63r0hwPaegVf618OUg0T3dcZuaO5padez0ELaTPPAC+WdYRzMtN1xoh/1KtcqTMcuZdGKCmyysdvBZdK5c1GfVJ0nHZgdjqdaz3bRakQyhV9Tr2hj6zqpNIWrXaPiBXCuCFIBUFAtW6Px9eot9N+1Os51I6DpcWBRrSfZjmbYTAcUShWaAU1RrGLx0adSH+qNn9BJ33yrf/+f/jBD47QZJ1PvXGfbrdHsVRlt/WUmBZHFCU6tSFDy0Zph0nZW7yx8RrLSymq9SZPSk+oWE/HyehX9GGNFAe/oo/j5nsqHdd+aWKQoqMwIV+bG6Q28pvohn7jAWTD4RDtBrNmQsdWaTlk4fgaq8tJksn53U2tZoudwwqK71wq9V14AYkCo9GQ/jBgJZfBGXjIa26YJwAAIABJREFUYkDbtmn1fARJYXUlS73e4jd/83/nr7/znwB4/edfZeW17JWPr9gRcqF1NE3F6fUpNIqEAp+QI+OYvQtBKllOEAlFkGUZ13Xniu7p9wfEE4kLv1NNC9Fu2+ceS5IkbNseN12fXOuj0TnX5ke5jMDCVi/ePKSBRi65RBBAmwaBdL7gtBomlvLyZhVeeA0pCrIs0el0CM0oHvp9Z6bRYTgcXuv+lmWZntM7Z1xSVZVOp418puAZugG9IYiSgmGaeH5AKhEhdMPzzn5/SKnSZOi0MW/J1dcfDKimjw0TbYuwkyKXzSBJEtVGk4ZyhGtdHrvXKDSpHTRYvp+ZmiF36Wd6byNHu+vwH77zI5JxCz/axM4VCUSf7cNdEmaCe9m7PD4UyMVzBEaAHwR88GiHgviU4dL8ETm+NiDff0xQCsik4/SPNijqHxJcUcU/b4CaV+Y7WasHa5iR27thO50Oge/PzcLOsZpohkDSuL+RWUzqK1ZoNG0saXijqFBTk2h0bXw/wb07a7z7/ffRQ1EebK3R6XZ5tL3H1/7oX/GjH/8IURT5pV/6JTwjYHjZ0HNfQrOj5KI54rHIse28SNzTxoYFVSFdy1BJlqdAymwaGK5B6FQlahjGpakTjuOgqtpcTsqLWNVZY8XLxqpOmrQvW6qiIMtDuOB2VEfqNSb5vlzMasyehKmMwIumNd/EWTeWEGdc1qfSOfwA7O6AaCJJNh7hqNxAEgViUevG77TV7tJo2OiSj3ZLMUiqplFJVhA9Ec2Ok4vnUGSZSq1Bx20ziDTw52h38iZmivkZlfzG/XVqTp2//uEjak6d6LpD4I4/zKaZJ+pFyWaSJOIRFEXhw8e7fG/3+/ST1bnHvE/dMNEW5WKB9dASD7e2sJ/U6WaOPhYgtXV0hyDwMW4RpERRJLu0TKVcusZtN5b6EvEI2WzquUl9vW5vMg9HkqSZVWnclNnd3SebzZBMxsmmk/i+z8FBgT/60u/z6PFjlJDCz/7sz7OxsUW9YVPr9/FC56VPcagS7WeJHZ/TFUtVyl6e+MiYmiGlhTT0toFznOwfqYbHkUEzrn/Lsuj1nJkmhyAI5s7fi0SiF5olzhorRPHlYVSaqqK3Qzjh/oVXU88ZjLP+LtjXBPHj3XW7qD3cNE36/f61bOVnXX69Xo++08MwDPr9ASMfJM0kZGgIgkix3CQZtW4s9XmeT7Xewul2MG8xBqmWGcujUj+E2U2QTCSIRizK5TpNKozi88uk7nXOqArSU8SweO4ilAYaZjeFFlHo94f4gc+jJ3sU1aeMlm5m93ZSFR7t7LKRy7Gsr7HfchhGmwsD1HVB6rosSo/cfnV8spmlM1kq5dLc51NuINEPNNaW49dw9dXRxSHaFbmJnU4HTdNIZ6clutOJGVNgoApUa03ubo0zHd999wd844+/RP7oiEgkwi/8d/8NbcuhXK2zsbaMmx9S1w6mJGO5ZxB1l9hYW6LX65MvleiaVeI9C+3MTSwA5sBAaIE5Mq/cUHzfu4ANGXQ6bSxrviiai2TEUChEtVImlR5PYB6fIT7fcfW3tgRwnP74jGrGeHHd1jFCBv+1Lc+7XqNyKBSi2+kgiOIEoAJE2r0RoqKjH5/Z6iEVXVNJJ29u3+/3h1RqLYJR91Z6owAGg+EEpBQ7zFJohXDOpFKp07CbtLUKXniw0GM+c/0tAFSB7II3Db1aPUHGX+fhww1kWebJ0wN0PUQyHqPYvjmN9KUR1dAuWkljeSnFqLjFgftD/GOL8fNiUbPCY68CqUQpQcSL3CqLmq7m/ZmywKUXj68ghwzuLy3m6jsqVmjOKfXZts3yKffeVBFzAVNQZIHhYEC90SLwh3zp//l9arUqiXiMX/wHf59wOEwKOBhWcd0MsXCUtt2cTH5W7AjZUA5BEeh0exzWCjixGolaHP0Mgzl5/bqu43U8QtbVYGBZ1oUS4HAwnDtGKRyJnGNVJ6nriqIcW5rdY9fgx4eFJOJR2p0utRkkWx5KCw9J/LuwbjJheTDoo2kGo0CiPRRQzTi+D4auEouatxqd1Wi2abaOY5BuAaQcx6Eb6uIk+4gjBa0TI2WOG+2brTa212AYtRcKCT8n/S1gppj+l75IvLFONByjPxjQaLY5KBdoiRXuKA/ZWFum1tgi7/5oAirXWdJQw3IyZJYTaKqKpqgIrgKy+8JAai4Wtb86l038Jst1XSqlIq7rXqiV34rUd1TDG84n9XW73QtBCiCZTl/Y52VqEt9/97t85at/RLttk8lk+dmf/jThU+G5y3qCcqWOLEuktSWKgwGqE2YtuYpl6uzuFyg6BUbRFqlqitAFIHUagOYdSnjRucMiI+ibjfrUaO+z4Hfyd7vVXHg0xUtBrWYVIX+Hbem3fk970BuMEBULT9FQxbF7LxY2kCTxxqkSZ6W+Sq1F/5YTz09YlNzTSfo54ukIjabNYb5EQygxinev//lcR/oLAh8B+JmffIVMJM5rd+7j+z7vffCU/cETBumxDXGnvE3MDo+BpZbEyZau9SKVVpR4Z4WN9RzJRJSnu4fsjR7zdujNCw9xbwJS1wGoeClOxItiRp+/wykIAow5NtibSn3GJVJfr9dDEARGwyEhXSeTvTqwdnlllUqpeO61f/DoMb//B3/IaDTi3r17/MN/+IsUCtNnkJIk0mzX2VpaxzBCDPaHSLJM2DI4KlZpqxUUF2K1DJquzbGNzr9M8+JxHmdH0J8HqPHMoBMpr9PpIIrSuce67DzsZV71pj1mljOwVZBF/mtcwpyJEiMvYOgGIMoomoYsaJimTsQyUOTbBadJQdR1qNXbiF7vVqS+wWAs4dUydYRgHIOUUDPkcml6vT7dUWfcG6WObvQ8E3v6nGYKuWsgt1sD0sMM7zxM4zgOxVKNvdoedvho6qB7kKyxvbvH1toquv6AD9q9hfqgTkZ+PEg9JLEaoVCssH24gx0t8MnwGy8Ni8rt54hFX66RAANfQVlQ6guCgGKpQqvZJiwNL918ZUWZCsO97k38vR/8kC/+4ZcBuHtni8/81M8gCAK6YdHpDbEMleHIo+O4JM0EhhEaD11cWaJUrrFzcEArVMLoqcSU+LkEhItu9X5/QDKVptlozMVgLgKSWanoY7BvEATBFEAJgnDpWJCLzsM+itXqtxgYw3MRSkIAQiAjBRIyGiAiSBKqa+CJMgg+AT4hO4SuGFx3JtTHeUmXANXQCxiOAkRZQZQVJBF0XSNsGciS8FzbE+oNG9tuYygBgnQ7MUiT3qihSthJk4rF6XQdSuUa5UFx3Bt1C3jrzXlGJfU1tFaSrdgWcm50l/v3xmPhC0clqurhzAm6geTRNAv0BxlWljPUPtjgyHt/rhEhctck3FxiNZMjt5QmXyiz333Ka8lNBCH5crCocpyIe/ssyun1cF0XSZIIAjCt+R9/IvUlImQzi0h9Dnv5CoI7QL9E6ju9KVfKJdKZ7ELvLZXOTOZm/efv/A1/9LVvAPDaKw/5zKd/gsGoT6nisbaSpVSp0+kNQVLYWM9RrTXZPzhCkiX0kEZj2GAQaZBuJNFmgI1wYRU4nLyHWDw+d3zRPEBi2y081z1nMRdF8UrTyyJy5PNh6gL+8acWqBqiqGI5UYRARvQlZEFBlECUQZIE5LBCWDfwXA/NE/HxjjMOwY8E+EMJzwc/CCAI8AMQCBCOwUvgpEvg5O/B+P+d/vkJOh7/7OOwQqEQvV5v8n33Bi6uLyKrGiCg6BKKohC2dGRJRH3OqSTD4Yhqo83IaWPe8oh4AKVjEvUyrK8t4XkezVabmlDAjTq3J41eYU8XRzJKI050lObunTUiYRNZEAQO8iX2Grv04uVLG3BHEZvt0uOx1VXR0WpJ+pnypS9KqyXZ0h+w+nqWUqXGd7//HnXrkLfir85XDb4AkJqwqFs4Tug7DiPXRRQEFFUldWrzr1bK83+ZgUTf11jLxc9Nk71Unmo2yR9n9bVbNdQZvUGtZhME4dw8pUa9RjyRXOj9LudW+OrXvs6f/eW3APjkm6/z9ltvjr97RaTbH+H0B6QSMYqlGkvpGN2eQ7fbIaxrHIj7MBLxY31StfTcIDUYDBBE8VzaQCKZPOe0GwwG55IpLgKSUEij3bYZDUdjwJvh8LuqL+s0q71V8AE4BUD+CVQEYzgIEBAEEVkWx7OuJHEsVcomgiqgiDKyoKCIysVSlKpgzOmaCIIA3/fxPJ8g8PH9YPInwdgo5AfgB/4Y8Pxnf/d8xv/e908B1zGoCUz+LjANiM9ALwCBqf9/20A/cD38ADzZpDOSkWUZzZRImDqaIoMwZlyS9GJk0XbHodZoIXkOhnpzQBwOh/h+MBkRr9oxslaWwXBIvdGi0q7iWPUb+RFm7m0nZ1TamXsrEFDrcXLiFmubWbo9h3KlztPDfeR2t8NecMgoa8+3ESeq7O7nubu5Rqij8mG3i2ueP1gTBxpmPcNyOMfKSoZG02a3tkc3fcTbvP1cpL6z6yqQitaiWH3rXIDkoqvb6RAw7khPHluTZ1bxM6yusXh8Enh6Yk64ttRXrNBqtbGOpb5ZI0EuGxEyGi2uPX/9X/+bCUi9/dabvPbw/tTPzZBIuVwjHLYwzBC1epPRcEDi2Op/h022lUckK6mpJt3LQKrf7186W+j0JNmTYNlFmm8VWb5yqN08PVKXuQwXWaNAwkVGkaUJAJ1skJIkIkoSkiQhis/nLORC6VcYy1s3lbiCIDhmbwG+743/DE5Ajwn4nbA5zw+OQTLAO/7z5OfCKdATAD/wJqA5vgmPHweO8/wgEEQEYSx7CoKILMmoqoxlSciihKYpKIr8Qj/bs59PrWHTaXcwFB9BujlInZb6xiPi06wtZ1FVlfxRmXz3YDzT7Tksb0Z6utKMkhytIKOwtp7F8zwq1Tq2UkVcGiCXU4+mk6evkkyUES2rwGCYZW11iep765SMD6Z6YdRWlJXgHndeXcVud3nv/SfUtDxvJh8Ay1dWmjcBqZbSnmlDPwcQlRg5dWWhya6zAEo3DDJznu9cZD8PgoBoLDaR+qIRk1xufhmu7zgcFusEw945qe/0SJCr5liZpknxqMDScm6u5/3DL3+F//BX/xGAz3/uZ3j1lYdjMKzXp5qCdWX8WfkBGJpMLDwNSMlK6pz9/CKQchznStZnWWGazQYETIJlZ41Bv8xYcdUyDH2u373ueIcxQMl4SETDOmHLnPtg/+O2BEFAEoTjRuNbAD3/BNj8Y5AC1/MmQON5Pp7vIYoSvh8gigKaqqCq8rGE+fIIk8PhiErdxnU6mNpzkPrsMCl5iUAN6A9GHJUrNNUSnjl4Lu/H93x8bzyGXlYl5I6F1U5zZ3mcAVs4qvD4yT49pYmUGiBKY6yQg2vQumG0xXb5CYoiYygGoVqSfqqK4EmEqikyygrrG8s4/QF7xUNq0T3eVt58ISzqNFhdNBMqXoqzHMrd6Dl63S6+7xNeYM7NRZtWEAT8/+y955Mk53Xu+UufWd6175kBZuAI0IlWogBSIsVF6H5YMvYPwwfG3S/LCK1ErkCCCl6Zvbs3eGOvkcSQRCeRIkEQBAYY0758VVb6fN/9kNVuurq7qrp7DIGDaEzPdHVVmjfP857nnPOcoRcizTI3VuszVfX1uj02dzOqTzulqm8akNq3YrHI9mY2U+ss+/Nv/yU//unPAPhf/uTL3Lp5qIBeqdXod3sHNJ6mwv4ED98bkHMOgabf7U4NUkfHbpy7EalUHziv0sTm20KhgO/7c0kdTfO709KER+m9WOoIdColm0Kh8Fg5zicC9DQN7QkfRRJFCSPPpz8YoQmfnHXxKCoIQjx9xKjhjUfEV1mvr1Is5NhrdbnfuU9U6k/Uebwsi4P4gPYr7VxjrbxOmIvJOTZ3729zp38buwGadfwY5j77UWWXO3eL3Hx6Hatv8n5HUJcr3Hz6BlEUcfu9+7TY4qXK01xXHh5ITQNWpfTivVFCymPjLKax03TiNLtCsVZnbak2ced/JtU3OKT6znuAp7VSucze7s7EMvU0Tfk//uzP+eWv3sQwDF796le4tn7yOpzWE+bkcgx6fRRVQQgxUZD3NLpvWpA6FbyqtYlgNa/6wLS/Ow01JlGIpYZQjDFA5T8EqA+YJWlKEqf0BiOCIERJw3EUdblUn+45VJIlNENDU1V2dls0060L9UZNfRztLFJbbCzzuY98Gk1Teef2Pf7tvX/HqKU4a5NBcu4rIMyIXm6bOF7mqeurhO9ErK8uoesa9zZb7Nrv8QnnxalB5WHaQO+T53gS/TJyCWdHPt0TDlKiMAxVVtYWaNSnL4kPfJ/7Ox2IPBx1uoh4lqhqnxZrt5rUGwvHrtE3/+wveOf2bQr5PK9+9SssLp4cJzIcDLJ83CkVUGdNwVVO2QmelZO6qF2kQm+aninHOZ0m3AcoVINy0aFQyF1o7PqH9mRZmqaEUYI7CgjDGFUF0gg1di9N0Hh/uCFyPI0gv059uUyvP+T+7hZ+sYtwois9T0Uo6G4BtZVFVIsLi+zsttjt7xLlXMz10/Pj3bR1MahOcx4bu7vkcjYLjSr3NrZpJ0286i6fUj71yAHqtKiqu9hF29RYLGR5oEG/jzZjgrJQKDAc9A+ov1ZzjygMWV2/Nnm3FMcYRxz3flXf9fXyuSPlZ6X6To8oqjOBlTySU2u2Wnzzz/6cjc0tatUqr371K1QqkyNTkYq5RpdMrO6LoqmP9zy7KjXzaUrdM0A7LHM+ACjNoFJwZmpb+NCebJNSEieCXt8limNytoWhq7iujyZidFVeyjr1fR/P9PAaPmpkUPAaWKqNY1t0un22hpvEtcMR8VdlhpsnF1cp5gvsJjsZa1OtcD94D3U54qzMWzdtYfTL8wOV2auwrjzDzefX0bQsfNxW7vDx2nPA+ZTYVYPUfkHFaZV/rbUW1l0L0zRZXl2j1+3O/BlRFLG9tYmh6zi53LhhtDNx958ecWahMDDtPM8sVad26FJKtneaDKak+kaui5SSQrE4N1g5uRy721uEieCbf/bntDsdlpeWePWrXzkzgphHZVuZEEVpunbhisyDKG84OPPhv0hhxYMgdDqgCaRUiNFRNINyYRxBfWgfCIvjlG7fPYickjhGigQ/DRFpgpoEU4tSTxNFtRYOe6Ma6irL1+r4fsj2TpNRrn1iRPxlm+455OMqi5UFLMtgr9llczNTqSk/a6FWz/Zj3aSNvbfAsnl9dqBSUg2ntciCsYKdM+n2Btzb26BTuJ/JID0GVN95IHWgJ7h23IG3m3vHht+dZ7Ztn6DzojA8NTrZr+qr10osztDAG/g+97fbEPtTUX3ucMjSuHJvktL5LGC102zxF3/5XYIg4Pq1dV796p8c6Nwpp7RtlssVut0Ozpyq4eeVn89jxWKJTrt1piO4yFiO8wSFpcxESWNNo1rKX5pD+tAebwuCiOHIx/ND0iRGlQJFxggECEG2p9OwTROMi6+JMAzxVA+3MUIRKuagRJ4ypXqekeez1dnBK3fmGtE0ramhRc4vk9eLlKoFco5Nq93FFX36bhYQ1FYqZ0ZRWmDTGD7D06vX6ffd2YBKdwsshU9z62am0fab377Pe8N3+Gj1Jjc43+kdANQVRZpTA9QpliQXb2wTp5TeS9XEEw7XVmsUS8Wp36/b7bE1I9V3NAlvGOapNOBZ47kBfvXrt/jW628gpeTGtXX+w5++eiQCOjtqqlZrj9049lq9ceYxTVtyflpUNSnPJaRKjIZumNQKzsQKxw/td8s8P8DzQjw/BJmiK4KcKghEOJb4uhqBX9/3D6IoLbAoR4usLC2CQqahqXaIy1cXJKixge7mWXSWWLhWzXrUkLx/bwNRGpHqEb7ro2kqtaXK6VRfr0wjvM5HP/IMaZqytbM3PVBZrQaLrJPPO8RxzK/e3iCnKXy0evPJiqLOcOoXxc+R66IqxxnXfq+Hn6jkKgtcX1vEmHK0tZSC7e0Wg+F0VN/xyODwGKq1Gu1mE9s5Gd2UKxUG/f5EFfSf/uvPeeP7fw3A8889yxc+/1mGgwHFUmkiSHXabVRVPRalGeZ8cs62bU+tZD6rVWv1MzUBL1JYcbQ/UEiVWGqZOknRmThs8mGblJIkTRFppiYRJyly3EAbJ0mmMMGhvp2hqVnF4vh2W4aBqiqkQqDr2nhMRdZsq+saiqIgpfxAVSumaUoYxsRxTBwn+GGCSEIsXcF5YGN5lUr6/lGqb1ggH1epN2ooisJ2s0Xf2iV1giv5bCVV0d0CC+YSekFH01QGA5eBO2J9dZmFapV7bh8vyIYr1parZ1B9i9ysPEtiJGxu77HV24S6dz5QaYFNebjGs6s3qVZKvPvefX5x71c8W1nDmEJR+WEB1GkgNQ1AZarYykxSRfs2GGSKHpZlHTT+9ns9wsBHoqA6NRaXrpbqe5A2azyg2VdfWJiodH4aZfXDf/oX/vb/+S8AfOylF/nMpz6ZvTZNT4DUYNBHpOIgZzVy3YNpuYVCcWqh2BPHlYordC4JZ+llzSt9VCgUcL0Qwy5gWlYGUA9paKJIU9I0JRVZQ2WSpqSpIDkApUzmSEGOJYrkwVcUhhSKRQxNZrtgmYybZCWxzEamSwnueDcnxtu67DIdzHQ/Fm0rqoqmKgcyQ6qqoqrZCHhd11FVBYRE01V0TUPTNUQqx2MwTj6jj9riJCWOY6IoJooT4iQlSQSIFF1TUBCoSGxFjAOmhyPge5TqUxMN262xVl3Bskx2mx2GSY+o1ENcUW+UMSzghBVWlhvkcw7D4YiddhPhhPiWi7KlYBoGZbHAzt72wWYxbVmolRhFz45r4LpUezf5yNPPUCzkuf3efW57b5Mbt7ueCVRmr0I9vEYxn8OyTN69fY974h0+3nj+iYiiTgOoXreT6VylKZquXzhfsLK6Rr/XY29n+6CAQS0U8VKL9dXGlVN9x5zwKfTlwtIyezvbx0auT8pT/X///X/yg//2PwD49O99go9/9CX23ZFt23Ta7YN+poOepCNMRhSF5I/IfcwiFPvg7vPoZ12GZaCanls4Ma/0USgMnJJDtVSYq+pxWkByRx5RnB6AUJJmTvI4CGWKgCoSVZHYCqcq+yYIzCsa4yHZl0BKEWm2CQij4AD8pIQoEZRKedyRD1IeaBpm9ACoioqqZGr9qqKMAU9BUzNAVDjU3FPUbCulaXpW6s3h66eJOIUQxHFKEEVEUUwcp8RxAlKgKXIMShJDkZiqhEcoFnKM6vMd8qMajXqVYjHPzl6LHnszjYifxXTPoZQ0aFRrJEnK0PXodvuM1AFKPUZRQIiIbrjHkrLG9WvLvPnmLwBYrq2z5tzA7XjsaO8DcE2+iFk0CMOIja1dtozbFJcPN5MTgUpJdHLtBZ5bfJ6lxTp37m3x7+++yVqxxsdzjx6kzouijlFY+o94pvkscRQhhEAfV+gZxuXwxAqwu71FoVhELxQYDgZZhObUufn0wvSKBEKwtdNkOHRnpvqOWr5QODYO/agtLq8cDDycBFL/93/5Af/ww38C4A8+91leeP7ZE74tl8tGYQghJoKP4zh02i1q9cMIMhOKnT2yyj6rcymFFQfFHeP7fh4YzVJYIaVCKA1qlcKVlZmnaYrrjugNAwwlQRsDkIbkoiLaVxm47Kuqq5py5F+OW6ufbRrTJKZesk7Nf4qxHpKU48gvhXS8L4vkPkOQAV0GhOPXkQHiflSnKhlwqWMQFFISJylRFIMUqGPgVpEYisC8WkH0uexYVV+/xEpujdK1Au12j71eGy/XQRQvXwZJCyycoIKlOKwsL6AqCi23SzPaxSqB8sBjExddus0ejXoV3/MAaCwskHNsrq8vk7/vYFkmy4t1trab/GbzHfzGHmXnOLt14hboboGqu07RKVAuFbi3scOd0Tt8tHHriYuiDrW90mORxGVasVSi1+3S63ZRVZVSuUwqVTSnPDVI+b7PxnYHYm9mqm+SnVUmbzu5iSD1V3/9t/z4p/8KwBdf/gK3nn7q1HIJ27bwxotuMsDk6Pe6lI/IGM2reXfRfNVwMCBNk4kViGeB0bSFFalUiTFZaBSvhOaL45jRyGPgBhhKSk69/DlXj5piUxSFQt7B9wOkPB041aPIdyY0nhfljf+TEilTdAUcS6E7OtrC8PjME5t4LcZqJ063TiO/QKNeodsd0I72iCuX3xulRgbmqMhScZn69TKD4Yjt7SYuPYwiWPnTga1cKLG712Z7J+uhcqs3+PH9Pi8MR6RpykK9wv2NHW67b5O7pmByMgVzDKjsVoObxee5/rFlNrf2+NVv36FX3OSTlZcuFaSOFTBMmQ+YJYp68MGT4nL52UG/f5DbMQzjhNOXKDjWdBFbt9Nja29+qu80m1Qmv7ezQ76QxzSPH++3v/M9/v1Xb6KqKl/+0itcW18793E/775ZlsVo5JLPZ46+VC7PXbI+7/3bpyaNUxQyzgOj8/qjEqmh6BYrtdLU0ldT378ownV9XC8DKEe9Qsf5qIFqvPk5T7H+UqO8/fNWjq5pnhiTQqCkKpbMkQrB+3c3GZotkop3uQCVamhunpq+AAbk8w7d3oDmoAm5CMM++9kshA2WrzV47/27uMMBRr6IuPUZNoC+P+BTepdczuEX7/ya3PXT16GeoZ5NqbdC0aiw0Kiyu9fmvc67eAtNpJ7wU350Zmn3RaKoSbu5B53gNFHUWbtCcQkrsN/vZ4tDUc5VkpBTPPtCiKxkdI6qvmkpwJ2tzQM9wp2tTYoPFIuEYci3Xn+D3757G9u2+fKXXmF5giTSxPefokE2CsMDoIL5S9Yta7Z8lesOiaNoqs85jwI8rT8qkjqW7VCvlS81IgmCCNf18IMQQ0lOVI5dhZmGMbcw76U4XQQjzx9Tewp8qCB1/jWTcItn6BsJpWKegd8nyV8eSClSQXfzlESDlaU6pmnSbHW5u7UB+Qildv7GSU00ilaBNE1587e3AaiiW/c6AAAgAElEQVQ/c9hrO7RKJHE2o69gFfE5XWtQN3sVrqvPcvOldZqtHm+/c4eOvUG01HtkVN/+g38QRSnwE+1f5qYt5t2R93s9pJSoqkq5PINKOpIoOpvCu31na66qvllpya2N+ximeQKk+v0Bf/H6d7m/sUmpWOTLX3qFWnU2FYjznLzjOHS7HapHKMh5S9anzVft58L0GZzuWZHTpHMMhEGpmKNcLl3avQqjiH5/RBiGGEqK/RAA6oTne4QWRTFBEJIz7Ed4FE9QSHVk3lbOsTG1yyt910c5ymKBSqGI54eMvICdZhtfG6IsTN8oLPSUQW9EKlLau1sA1J49LgrRizrcubuFiEHGKopxct33oi76QnSdtVtL9Acud1v36Fc2Se2T9fY/1U9GVQ+zYEK5wDZrluW3L6WkadpMGnzHgEqRhPHZOw5D15Bp+hD8jzzhgHd29/jW62/QbLVo1Gt8+UuvUJhzZPp59Jhj2/T7vQMppIuUrNu2zaDfozRBVmnkukRROHdUcBaVuZ9fE1IllDqNapFc/nKUJcIootsbEYUhpvoIAOqAdXg0n5vtQxWqlRJRFF/6VOSZntsnaN7XfqQfpRFhGKEpF59rovk2TlCm5JRYXmkQRTGD4YgNdwerpKDMcXmEFlOvLdHczUrT689+4nAjHQ5YKaySy9m0ul0U7eS976YtSq3r6MtLDW6/d5+mskm40DrzQ/fB6nGp6DuTmurnMX2TXJibSjR0H6QuQwBVQRJGZ3+mZWh4gYJ6RYKQg34fKeWJ87lz7x7f+ss3GLouK8vLfOVLr4z7ii4GhtPu1ucFqbM+a/89L0JdnUVl5nI5XD9Ct8ssLxSnnrp8lvlBSH/gEYYhlpriaOKROr5HGVDJgxH0ClmX1qPi/h7O50ZxjEjT8dBGFU3XiKN4xhaO7FgTYvqDTD9QyStIdfYbqUYmtldmqbhAsV6g1emysblHL21hlsDS57suWmBhqQ737t1DCMHSyhrLpsRPfJzY46bY4ebTL9FsdUmKQ9QJx27vLLKQW0Lfae2x69whKbg8arsoSFV2K+SDPKqmZQ7HBmzmEpy9+I4nQaTpqXOZTFNnhMp+++Rl2mmA+5vfvsO3Xv8ucZxw4/o1vvKlV/A8j1q9wch1ieNorsq18/JVlmXR7bRRFOXClXH771Wt1RmNRoRBMHOP1lnR4aTziKVGrlilXi1euGgiihPa3SFREGBrgtwjBqhDoHqExyFhZ69FHKcY1u/WFOMoikjTdJxC0NANfWIFa6fdmg1Sx9ghECwu1JBS4koVeUq1ohqZlKIGSRrj5XoII0ZNdPRhnpJao1h0qFbLdLp9un4XrZBgWvPvXoJhwpJ6neVrDX7wX/8rAB976SVeaUjcUQvNVFlbfY44TriztYF67WSe3tuRvLT8UtZWtFV5C6lNT0H9VP8Rn4kvN6qaF6AqexW0SCMnc+iGkTlB62xK76HRCEiiOMLWJjtRXVMRRxLHp0kZXRZI/fo3b/N/fvt1AJ69dZNXvvD7BEF40O+0X74/rz7febRJmqaXNu8rK7/PoqjcJWvnPXgekTRwHJta7WIq7n4Q0ekNicIwAyj98cqHPErKDQVqlTJ7zc4jzRLNo/p/1MIwHCvkS1RNw9CNiTT1ZdCO+7l5oSYIIbLK1lSFU3x5wa/z1Np1pJTcvbeFj0vFrrG4WkPTVLa2WzQH7yFzEVr9YimJsAtVdQknZzEcjrh9OyukeO6551leajB0RwyHHt3+kKWFGrZms9cPKJYPN7GjVsJzlY+y0Kjy3p0N9FlA6iiYPMuLl7I4ZgGpcrOMHunkRA5d1zP9tCly85c1z2gmh6cI4ijhtADCMAyEVHBdF8Mw0PWLlzefBlJ37t7j29/5HgAvfeQFPv+ZT50656laq8+lJHHWyPWrGEp5Vbpp++eRLxQJhU6llJ9JWWQSALS7Q1zXQyemYPBY2qMEKgUwDD27pyJ6dMcxR/VmEIQoqoKu6cf6Bq+edtxX7hC0On2ESFFOkckw3DxFq4iiZFWl9VoZw2zg+yFRHNPa6xBoLko5uRD56cUu9rDO0/VVLMtia2uXbfc+w8EA0zFIb/j8+K1/I0gDUjMARTIYPMPSYh2lA9vBW5TtCm43ZCm5CRLu3tvmTvqb+edRlePihaKqeaKoclSZSyz0UZhKJgB6mhmmiUBFQTmIaiaN5JjGTstHAew1m3z7O98jSRKee+YWn/joSyRpeuacp0xJojMzTTeJOrvqyclXAlb5El6isdgoXUheK0lSdpo90iggb4jH+pwfBVClQhJGCUJkiuNjFvCJAiqQlMuPYCM8jv6kKjA0jUgIFKFOoPwMqnIZKSW7e23aoza3Vp9GSEF/6LLld7BK6oVb6Tw/ID9aplaqUMjn2Npp0jf32O1tAPDUizcoVmxgSOZVspTI9sYGayufolTM03+3w7DY5QYvceuFdd65fY/N9H3i+mB+oLoIBTgv1Rck/okR8o8tUCky0wjj9IgKRT1e6HHOU+oOh1i2Q+B7B+Xm3U6Ham1yyfbQdfnW699jMBxy49o6n/7kx6eOLufNxeyD1T6V8aSBVFbZZ7C6VL5Q0UQQROw2exhKhGU8AWXPD+kQgyghjBISIbEsm3yhiGbG+EGI5wXkbfURPrPqI7tsM9OOyj5QSXRDx3Es9jqHx5+N3MhRNRssLddRFQV35JOmVXRdY+RFDO09nLx58XvqJixxg8ZahWa7y+27dxnmWggror/hjoHq+mRmZDnl3Xt3uXX9OjVjkXBQ5tZH1+n2BmxF94gWO5k/usgBzgpWRwFqFpCqbdfIxbkDncqHbWEQjOVW5Fg3TJ4b+ShT9FIZpk58RMZncXmZ5t7uxF38oN9nZW19zM9V2d7cQAhBtVabmN9K05Rvf+d77O7tsby0yO9/9tNUa9MLvBYKRfq9HpY1+0JWFOWJHAy4D1LLCxcDqV5/SH8wwtESlCeqN+fyLU5SgiglShJU1aBQcKgVLQYDl0qlhKappElCpzvA1FVM/dFxo/PkqC5L9WbWaM40jEzGzBBEUYxlGiDUrEDCzdGwl8jXc1k+aDDCMHVsyyRJkoPiDkVcvKQ97EJdW2FltcHQ9eiHXYJSF6kJCmqJvfvNMVBdO2VHLPHybX77ruTmU+sIIXn/7hab7n3C5ebhyx7WIngQpM6zym6FfFjAMIwsuT9OmcxaQh4EAXEUnWh4nUihDQZYloWqjFWYlUzEstZYeAA0zm+GVhVxbi+VbWjo+SLucIjvjZAwEQA9zzsAqW6nTRLHCCEOrsM+bXN0qX/7O9/j/Tt3qVYqfOHzn6PeWJj9nlUqc1GAFxnr/qSDVLvTx/d9clrMk2WXA6hCSII4IQwTEgGFQp5KtQgouCOPcqmI5wekQrC1vYuhqVimRqPioD4GmoNz/NYj+2whBFIVuO6IMIpQA4tCWqVUKlCvlhl5PkEY0E53EHGMGhtosUUjWWBxoYrvrzIImij27GA7il3sYY1r5WXCMGJ7p0Ur3iWuDiioma/du98kTVIWrzUo1U73/317lxpFCoUcYRixM9zBW94+jmcXvcDnRVVnAdRnks8fi6pKrRLFURFd17PZSXP6C8/zSJIEzxzRXe5ybeP61L97VPX7VBDStKmWb3BOL5Vp6kSeQuidPahvf3THfrRlmuax11cqFbrdLtUxcL3x/b/hzbd+Qy7n8PIXPs/y8vLc97dSrTHo9zBnVJSYd1TGkwpSaZrS6Q6IwgBLSXjSTFwgMgjjlCCMidOs2q1SLtJYcBgMR2OVchXXC3BHHp43wjZ0cqZOyXm8om7HyTEY9DGNhx/VzUM7CpGCJnAcm3qtksl5ATu7HVx3xEBtk1RGBwK1qR0S47Lbj3GGFoW8w6iVR2gjmCGH6gUBxdEy11ZWsEyTjc1dOuoOSdk7AKkMqFpn0n6QNfQ6uyssVhsg4bd338dd2IQH+ksvJaL6qf4jkPCs8uLMUVSxU8T0TfIyn5VIl89znNWJVNfIdRkxIrES+qv9uc+l02pRazTOpcXazb3zp7bKlCRJ0E8R29QUBSGVc2nEYqnE9ubGmTJO1WqVbrfLD//lx/zkX/8NTdP4wuc+y7X1axe+v0mSMqvyked5j8VU22lBaukCIBVFEa3OACWNMJWUJ9Om39HHqSAME8IkIU2hUMjRWKxgGjrNVhdN03BdD3fkk8QRpq5hmToL5cd/Pcza+XxZQeBctKOUSFWQpimaphLH0Gx36atNkvzo1ObfuDzgXuceZb3K+soSm81d0vJwqtlagRvTSNfRHY3AD9nZa9K1dhFWeAyk9iOqs4Cqm7aw9hZ4Yel5oijm3998m3btPaR+cqN3JdTfWQDVbbeJ42w2lKbrrOeuMWt9hBCCIAgI44BQDYmciOH66XkyTxlR4PydfalUIgiCKR3c+QtaRRJH0alAZVoGYsLqeHDJHo2WzrJ/+vFP+fvxPKkvf+kVrq2tMhwOKBYvpkmnabNx2Uf7s/r9HpZpPpY+aR+kFhtlrDlBKvB99tpDTCVGUx7vyr75r5M8KIIQMsu6NepVlvMOvh8y8nySJGHQd/F8nzAIsE2NkqOjPmG5SiEeTU5RUVRmpV+lkEhF4ochQ9djt9VmWNlCTiHDFVV6eD0TXW+wvrTMe9sBWv1sujrsSVadp2gsZyNFNrvbROUeQktPgNRo4NFvDTAsg+svrE8EKbNd4yONF1lcqPHO7Xt0yndJ7ckztC4VqN6Rvz6mBzgcDAjDgDRNQcqD3ifTms9xjUYjkjQmcAK2H+AwL29HNe0iOX8xqIogjmOcU6k/EyHPVjGcGqR+9BP+xz/8EIAv/uEfcG0tm+GcxBfPlZQrlakpkSAMj+UQy+XKhWWTrhKkFuqluY/NHbp0+yNsNf6dK5oI45QwiknSTP7UskxWVxfQdY1mq5tRnb0Bo5GPSGKSKMA2dRol5wk/81kjqssJqRzHmYN2zI5VkDE3wFQgBSAViVdqsbljUa9WKeplep0W5oQC4lHiYvYrVLQyjm3R7Q7YcO8T1wYnAGrfmufQfkavTCNZQ1EU7t7f5r7y9pnq75cKVJ9JPk9zd4ckTdE0jXw+fyH9Nd/3ieKQUA+J7Ijh2px9W8ost366hSqnjKiiM0rUTdMcDww/af1+/4DSO89+/stf8Z/+7j8D8PnPfvrYqI6zhijORP/FyZkPkef5mJZJZULTYzaOvvXYVAIeRlKluSWder0Bruthq1dbNBHtbzSOTLY9WKnjvxxfitlfDpUOlIM/FEU5I7pVcP2IKE5RNZ0kTbOx5oUcQRDS6w8ZeT4jzycKQwxNwTINqnkDeEy7mOdi/uTVOZdL2Pw+yCxlN1tQrZTw/YCBnP6QhJbStXeIdwXrq0sUwxz3+newyocsjxf4lPwV1paWkUi2tvfwrC5xeXQqSB2n/U6mHob9gKf1F1m7vsjt9zbY1e4QV8/27ZcKVD/Vf8S6uEapND/V5A6HeKpHYiT0V/qXswBm2SXJy1vQWS/V6TkLVVVRJkyZnTaKAvjtu7f5v777VwD83sc/xksvPD8GjkNFc9u2GbnuhaYcq5p66mZC0/VzZ0XV6o25FC+uAqSCC4JUq9UjDH2sOUe0+L6PomRNlkr2PxSy8ejKeJjf/s/nnWw8EVzdgDRNsCyLNE1QFDWjpRUFKUFoBtdXllEUhXanTxhG+H6AH4QoMkWRCXlTp2g96VHTZVJ2lwmS8+3AY5ltZjRNQxEqcgb9SGFGjPItBsM8iws1at4SbXcLu2Dgj2IKoyUWF+vohsbWzh5uvklqh2eCVAZUkyOqgTtiafQMN19ap9Xussd9our5VdSXnqOadVfgjUbEaYxv+ES5iNG10RWspssP/ad5lYYgSc6+HnnHwm03KYzHRswCUhubW3zrO28A8OILz/F7n/jYRCD1PH/qoYOnWaVSPUZN+L6Poqoz9WbNq3hx2SC11Khg2/PRz812nzj0Mees7AvDENt2cB5idJkKSd8NqVTLODokaULg+Wiahp1zDkByGAg63QG+H5AkEZauY1katcKjzzH6voeU43Utx6PkRfYn40jz+OZx3PMojqux7wPLIWWnHG4YxgzEk0I7HtxfEnZ2W4RRjKJpMwEVQOoE7LobiD2JqqjUxSrddpvV/A0KqzmazS7bbQ+v2CZn5jivHLu52SaOYhbW6pQbh4DW9wcsDG9RKOS4e3+bO/3bhMvtqY7x0oFKO2ectO/7JHGMr/kXo/Nmuf0zjNKY+pVTRlRhfLZDs02d0LRnBqlOt8u3vvMGQRBy6+mn+P3PfuY4AI57mfQpop156D9N1+fa7RvGo3F6+yC1vFiZu7ij1x8RBAH2BcrPFUV5qCAVRAmuH7O2uoRpGmxs7uJoCVJKhEiJBzFImW08jBwygXJOn8o1HIKHAJkVXeyrsB8Aijz+ZB2WwU8PHigKpmFkr1OUw9/VeOR2mdOd5ZwVh1IVlEsFhiOfrpjveOLCiGZ/h5XcGo16hULfoVwu0usPGcgOUaVPQZuOKZtU7deLutR7N3np2WcZeT5v3vs1wcre1Md36UClayff0nVdPEakZkpvpffQF9MsQDUtUp1XCbe/XMIpeqlyhTKd3fuZrNI0zicI+Nbrb9Dp9lhfXeVLL3/hVGrRfmBw4UXsqMKzaRgMB4OpGqmPAWih8NCLK4RUCURWgj4vSDVbfYIwRL1g0YRpmg9t7PvQi0DTyRfyjEYeu7seSTjCylknNlxJkqCKEaMQRifAQzlwjPtU5f4ayH6sHsGNxwA9nlDub1bqT9nvvVIkiqriWBaKN78EVVwesNtVyecdVE1jZ69FM9ohrgzPpfqOPSv7tN9LGVB10xb5vTVWF1ZAgfe27jBa3JkNVy77vhlm5myHgwGe4RHmQkbro0e8mC4//D5rJ6Uc+16QxPGp2nmmodMXkrVr2U3d3dlGPUeC6C++8z02trZZaNT54y+9fOrr9pXAZy0vn2Qj1z0BLumcE4or1epDowBTqRAKg7WVOro+33VodwdEccziQoVWs33hY/K90ZUDVXfgUywVD2YM9foDqkWHQDFO3YQ86vzhk2imYeB73kONkk9EVFrKaOSja+pEYdpZLKz0uL+7iaPnqZQK9AKbmOlZL98N6O710A2dGx+5RjdtYe8u8sziLTw/5Je/+S3t2l1mndpx6QqQb9d+g+95SF3SWekwKo8e+WK6CupPmXJ+jIogCsPTf65ppEco5aXlFRaWlhkMBhNf/+3v/hXvvHubUrHIl7/4MsY5VKumaePS18GFrmEcnxy/cBE1A1W7+p13lEIozAuBVLc3JIljHNtA13WEBNO+mEO/ypHnSSroDAI0w0TXDVrtLiPXpVHOoakKcRRfxm7uQzvmMx5R75Wq8mz6HFIVBGGI54cXBioU8EotojSiWMxzvbGG2Svjiun8xwHt99L1rKG3VefFpZdYXmoQhiGd8l2EOfsolyt5YlIhCGTw+CykK6D+TnM2Dz7uqiKJziiosCwTPxJEyfEPXllbJwhCXPdw8vL3//Y/84tf/grLsvjyl16eaiSI4zi4rnuhfqpupz0x+tG0+ZdPqVTG8/wru+dBDIlqXxikRJpgGypRFNPtDkDKC7M9pnU1kaQfxrhhytr6MvVamb1WmyQKqRTsI+tWuWoG64MHVJfUJDyrOsV+NCdVQc62WVyogri4SxdayjC3x+bWHigKRaWKMZyuYni/2m/xhRpmt0I1XkHXNd6/u8mW+S6pM98zfyXKFEvLK3ONkn8sgGpKpJoEVMrEnYAkTuSZ7/P09SX2mj3CJKZ4ZMxBfSHrh9rd3uIf//lH/POPfwLAl7/4MrUZhHkLhQKe551LUYxclyRJkFIghERVVVRNPZWmsizrQmXvtXp9Lh3B82wUgWLYXFtpnOqYpwWpvK0TxSlhlFApF/G80YUdU+B7l95TNhiFRKmkUauSxAm7zTblvIVlaA9sLvRTgOpDpHrUEdU8d0AIAao86F1VxeXEHsKMaKWbhLsxy4t18r7DlnsXu6BPF1Fdu8XT1gs0Viq8d2eDln2fpOLOfTz6B2IhqZcfmquqNvUyPs8H5HM2T99Ypt3p0WoPKOdUDO3wl3751tv8t//5DxlIfellVpaX5noMfN/H9z1UVUNRFaIoQlM1VFVB1TRMw0DTZgONOLlYw+tlStZICW4ImmWzvFC+FJDad+KOYx3m6C7o1BMMgijBMjWUC1JuEkl34FOuVFhwbHb32qRJTLU0mxq5bdsPrcjjw4jq8qBKyExBfTj00DUV9RJdeuoEjNI2QVigUa/gb4Z0vE2c3ORCqPZ2hyiIqC5VeK74ezx1fZXdZoe2sUVcmb8n1hgUPyBANWVEFYbh3E7orNKKaXer9VqFfM5mc6eLHicUbJV/+pcf8f2/+TsA/uiVl1lZXiYIwpmq5jzPn5govwwNPpFeTN/usgorkhRCoWLYFmvL9UsDqSMegcHQRZI1yQrDIIljTNNC03UURSGKQtI0xbKyf0NKwiBESolt26i6jkhTchWLZqtLkIBIEnRdwTL0E9HPeRYlKf1RSLlUolIustfsoJJSKZ8erUVReCoYyQ/26KxHHlHNs2fZF6bVNQ3DNNAv2aXHhRGb/ftImdHGlXCZrrpFbkKedp/2e+7pF9F1jY3NXd7t//Zg+OHMlyPVsFp16sry1QDV40T7HQCVnOqus7g03UgMIdKDHI1ydjw1E61i2za3bizTavf44T/9M3/5+ncB+P3PfZYXP/LCoUPtdnCmdO7HpghfemR5ccroooUVYSxI0NF0k8XG/JFUqzNAkekJkNJUhSCKMEwDx7bQNA1d10niGFUbqzvIrFkyJd2/8QeOX0pBkqYoUiCFIIwkhZxDo5HRt7t7bcI0xY9jRJJgGpnauHFGDnAUxCRCZXVliX5/yPt3N8lZGqW8fW7UedZq/dDmA4tLeZbmGvUx7ltTUgr5HGb38vsU4/KQ7e4Wq6VVqpUF0o2UvrZF3jhO+W/fy0rO//iPvkilXOQ3u28fG344E9Xn5lkIbnDzqev4fvjBiKi8ske4E2Cd49hnWW4iFShTtD1FicCxZ9RCUxSazR2++51vA/Cxj32cT33yE8deUq3WcIdD4jh6pHSNbdsXLs8tlcpzyyt5ocAplKjkHeL9Safz0BypIAgiGmVrIhjnbR13OEQicXRJ4GdJ4cD3D77ftwf/DhAG/jGQUTQT3w+xHIsoTlhcqGKZJkEQ0mr3SKSG64ZIkWKbOpapo40BuO8GoBqsry3ieQGBH1DOGRhTFI1YlsWH9ngC1Vws8PijozQmjhPUK+pjiyo9WgOLYiFPo1Ij6Pi41fZBf1XHbdHfHaDrOi++9BK/vP0WweLuPFEFVqtOLV3h+WdvIKWk2e58MIBqahCaYsHtR0dCTkd5CdSZnef9+/d57bXXSNOUj3/843zhCy8z9APypsrRYKFQzMap9LpdFOXROaE4OV0hflqbtbBCShh4MZaTo1DI0e4OWV2qXWiFaGdEYnnHIu9k1ze+oCK9KhOqY1WPOIlJEOxs76LpJqqmYppmVsEF7LW62RDOJCUMA+I4pV6vkCQpm1t7JHFEteRM7ePCMDi1kEN+yP1doXOZhp1Q5/7wRMa0Oz3iJMn0/tRLHjmjgFdocX/HwDEclktLbPUS3HHuafB2VnL+zDPP8et336VXuz/zMWieQ210jVtrTxFFMbff36Cd7hHUmlcHVA9O730Mtj3z36MJ1N20moaZ85l+l9Ptdnnttdfo9/s899xz/Omf/mkWuVgme50hjgGWfvx49sdqnBaVaFfcsyTSy6EWpy2sSAWEqcrq+ipCCHabXZYalQuVy6uqipjW41ywmOLoejB0bRwJZQAdxilh6HH3noemGSRpwuJCjZxj4/kBuqZhmgb9/pD+wMUxNaI4nTq/ZVrWMcHiDwpQ6YY5Fv1VUdRDAeB98d/9XHKSxATeo+n9nG8c/ViaSklYWmzQancZCAV5BY1HQksZOLuo3ioryw00TePe4A5IBa+bySE9dfNW1itlzLaZM9s1qtEKLzz7NJqmsrvXZkd/n7iRAeEHJ6Ka4iGUMyyaad5PoGCb06+YOI557bXX2Nzc5Pr163z9618/pGxsi/Vlg97AxQ1CcpZ6ogmuVq8zGPQRaXpQnHCaU3ocqY9KtUq30z6Tyhx6Ieg2q8sNTNNgc7tFuZgnl5u9GMPzguO/Ny1OXSGwW4Z2ADpCSsJIo91q0ySTMlpfXURKSblcJBxTnUkq6Lo+QsSYuo5taqfSgIVCkUH6eE4hPh1MlAMpp+z7qzsGwzCYvQNUnrHGRgghDr6QHAjqZhuk7LzU8flqczaDCyV7f11TIVWBq7nHwozpp7vs7lmUy0UKaRVVVbl//172DH/UIrVnu4L27iIfW/0YQkjev7tJL+ngVrYR1mFj8JUB1WNXUDFl1DXtrmYa+SAhVSzrbNqv0xtSq2QU3muvvcbbb7/N4uIiX/va104ci6KqVCvZFOJmZ4hjKCeiq32h2P1KuouoR0wdsl9ixHaWqHGiGORLOXKOTbPdQ6Qpmm5Srczex9XpDo9RfYqiIKYOqB5Oz5GqKDiWjmNl16TZ99hrdgjDCEVVSFOJY1vUSgUsyyQMIxzbYuT59PojNAUsM6sm1LXL2WIfB5P9cSQPF0weNxNC0Gm3JwKPYRhZBH1FrMbBdVYF3d6AOE6mVs2Z11InYHe0QbC3yNrKItvbW3ieR2WhQv6p2SDF6JW5WXmGWrXM7ffvs6PcIVrqHnvN2t21D05EdRr1p8y9QM7/zVQqOOeMk9ja6TAa+fzNf3qDn/3sZxSLRb72ta+dGQXZts3aUhZdjcKYnHWyG6dSrTFy3YdyaU3TxHWHFArFC7/XpMIKy8nRd0OcnE2jXqE/cJEiwbJsatXizMDR7Q1JkhhtzknTFwUqRZnPkeiaxuJinY3NXZ9/j50AACAASURBVGoFkzhNcQcDOp1uJu1kmeTG1yhNU8rlIkmcMhi6hKGHoatEgYelT/78lbV1PrTZ7VEOBN1fi/v5IF3XUBL1yj9Xaik6GQ29sbEBwPoLq7NtSn2HxfgGqSl4/84md3iLpHbosyrbFcqiTK6U+2AWUyhXTGHtW5QIcmfQWEkSY+oKf/fX3+Mf//Ef0XWdr3/969Rq5xcFqJpGrVrG931aHZecpWBqx89sXzHC83wM00AIgRQyS9gblzuVNTljnMnIdYniiOqUU4aPFlYUyxWGoxDDNEnShO2dFlIkFPN5VF2fWdXC83ySJMGxdJIHQqjLKLW/UqekqmiqetDIa2gaRu5wpx7GKZ12mzgRJKnEMk3yeZsSeZKcTSGfw/N82r0Btjr77LgP7TFcE0eAyrJMDF1np3O1QKVGBiV/Cd3RaHf7vPvuuwC8sP4JlERD6uePwVGESt29wUc/8gzv393kbvAuSeMQpOobdRbzi1dP/T2OEZVyBQvkTEoAFcM4/RLHccI//v1/5+//IVOd+OM//hMcp4gQYuoKIMdxWF026fZdRlFM3jwJVg9KHPV73SuhP0auS5ImSLEvwaSgqlkVm6PNNmW41lg4uMZ+GHH92io7uy10VZLL5+mNIlars83DStOUbn9EvWSRCol4YGMyfX7g8ooppr6+SOIkxXW9cY7r5EbjaH5LIgkjn113SJIKdN3Ixr44FutGmTiO8X1vrEyiHiiMJKm4NJrwQ3uYQCWJ4zjzN+Lq7p+aalSCFW5cX6Xd6fPLd37Bzs4OlUqF//VP/wO/uP0mvaU7576PtbfAU+vrhFHMjrtDuJRRp8V2kfKoTLF4nJ25UqB61JV/R8HksqOlaYBEUfUzcy4/+MEP+MEP/l8AXv3qn/DC8zcJIsHWToeFeglrSmpK0zQatTKe59HujshbyjEJpquOHDP6wxkfy+nHHIbhuUCl68Yxcc4wSg6GLcZRTKVWoOdGLNRmp/zaXZdizhhDjXIif6eqICScF1hdlPqLo3B2oEollmEQx8nBcMKzoVTBNnVsM1t/qZAEnku/l6CJkFwuhxQC3bKwLBuHrHij1R1Syjs4tvmhUO0TYKZpYnkmsSHoD1z8y1BQP21NSQV7UGd5qUEcJ7S9FnfuvgPAJz/9aSzL5OnFp3hrxydYPr2HyuxWWMtdZzgcsbGzi1vbAqC6WWU5twwTMghXunV6FCB1PLE7a9AlcYfDiV+zOiuJgn1GIcUPf/hDXn/9dQC+9MrLvPD8cwDYpkqtaNHru/T6w5lAJZfLsbpUJUHHi+RDBappwezBcSP9fo9up02328EwzRMK0q4XIoSg3e1jGBp+mOI41syU38jzURGY4/yMopyUf1IV9aGIM8yzNlMhcRyLUrkwk4bfYbSokLMMqkWHNE1JkoyeCXwfdzjA9zw2dzvkHBuhqHT6w0vVYfzQrpCKS1WkmuI4NstLDTR5NfGH3a/RyNfoDVzu7WzRTO6z+14LRVG48ceLvPX2+3h+wI3i01ityVPFNc/huv4cz9y8hjvy2bPfRxgxpb1SBlKnnePvUgh80Z1uoVBAQU782t7cYHd7i+buDu3m3rkJVCEVbGvygvn5z3/ON77xDQA+99nP8slPfPzEzr6cN5AiZXOnTRRNP79F03UWGxXy+Rx9P8tVTGBBH5mlSczIdRkO+kgps4nQqk65uogXpAz9BNdP8MIUP0oRUsnOpe9iWyZumFIs5mf8zJTeYETB0Y+sF3jw0qiqeoIOnLzWHv5126eDkzhB1S4oZPvAKaZpShiFyDH916hXqdcb9Fyf/tD/wAGWbphPlu8TClLNytM1TUVXLx+ozF6Za/V1Go0qnu/h5ve4/9YmAC+88gx6TbJtv8to5PPUjVWeLX0Eo3ecmldSjVJvjevrmQD3rnKPpJDlpSrR2RPIfydyVNMA1EWjiNKMI9dTVEoTKv7effddXnvtNQCef+FF/uDznz31PRxTw9Q1Ot0hjmNTKuamBuNCIYdtGbS7LrFIcQzliEN++J5WoiCkgqI7hAIkOt1RimkUyeU1FE0j5+ioqpYJbUpBHAsqZTObiVMsEKawslCZOaJo9QaUHGOC809PbBAe157XNJUMhyOGwxH6hcuP5QSqEAw1RZEpOztNSqUijuOQJindYYCpKxTzNh8Ie8I4T0UqoEAQBgyHIxRxuaXwxqBARWtgWxZb23sMcntEMuD+mxll95EvPgNAUnDZTe5Q2SpSr1eotdZp6+kBGDnNBVZqi2xs7bLtbhItZWK1a3fXSEkZDofHGDFVVQ/6QfUnf009nosqjLJQ/Kjt7Ozw2muvEQQBL774Ip/+7B9MQdlApWDihTHbux0atRLmlJJMumGwtFhlOBwxGHrkLAV93OdxlWAkURDj74XMcmiGrmIZOiXLRNc1NE0bK0mcfixHpRmLhflEmkYjDw0wJpRkPwhKiqoiRcLjOO02FYLFxQU8PyAOvKl/z/e8rNlUZhWfQopMRHfy04Rt6qRCkoYjeoOA1ZUFGqbJ/fvbzBjIPrk+5Uk73nFOKkWQCnGpen/6KMdq7jqaprKxuUPf3kNYERv/to0UkhufWKe2WEMJNRSpkpSGvNN5i6F7nfW1Rey2xUbwazTP4fmlF1hcqPGzX/6aUWPn4DPOaosYDgeIVFw9UF1lQcXjPOxNcLwE3HVdXnvtNVqtFjdv3uTVV1+l15++zylnaZi6SrszoJB3KBScqc+/WMxjWQbt3ggtTalUq4xc95gDAzkuLjhsVlTUk2Xsk8BIoqCqGoauYGhqJgtk6BiGcTAC41FYkiT0hx61ojWVQ1JnaPp9mOYOh6Qyu57S8xm5LsFIjPuxDu/bfjCwLwu0f/80TUWbgeXfb4SulXI0m13W15Ye2bj1w+cp+28yLZS5sZiYkJOFKiYWJsbvhF+ZHFEdcGvZcE8/QJHKjANjj7yXUFGEhubbLJgr1Gtl2p0+o3SEHjhYQZHNX/4MgM+98Efc8j+FZRr4YUjQDxFqQtfts7K8wPPP3sB/00dTdGrVMnfubdEr3kcYyQE+nGZRnKLqNgnp1QPV4wJSD7uAQCrasYq/b3zjG9y5c4fV1VW+/vWvkyTpzGXAuqZQLZqMgpDdZkijWkCfsh/KNE2WFwwGwxGDkU8+n0c75RoKmWmIpRKCIEIAEjUDI0PFHOvT6bqObmhZpd5j+HC3O0OKjnkmwyOPqJGoqkL6UJaJQqfTRtf0TNxYcgrgZNGvbVuIKCRw++gyoZC7GvHhar0+Vp44/Lee69Pu9InjdCJ4ZFuco/8JLA6Pz8cfv04iEPRkD4BryvWpIxcJbMiNiT9bVw534yERHXn67KPryvXfXeoPSGQy3mioWd5KkyhSySKuVEURh1+M/9SkjoaGIjVsw0bTNKIwxnEschUHQ9cYeT7FYp5q5Vl6/QHvv3cbbzTi1q1bfPKTn+SpG6soQLPVpVIustCokgrB3Xtb5BybZ56+ju9FvHdng830fZL66FSQcv2IvhsgpEq1UsTO5wkHoyeT+nsSdjy2ZR4c5xtvvMHPf/7zA9UJwzDwgwhtzqR43taJE8leu0+pmKOQz0193cqlAo5l0uwO0BSJrmYir6mUpGn2GtPUMQ2NnKFRLBXRdS2bCvwEPcD9wQiJxNCVqf2RqigPJXKYZ5yJaWbr6SoFhnVdP3FNpJA4ton/QKvEPXlvKkBoysnziO7Le6wr11DPgauElC25eQaIHd6v895LTknrPY7LPIrjrD9xPOcs+1Nmm0rVwOiXkHEm5hrHKaVgDZFICnknA58oRtc1CqUcCgqdbp/l1Qa6rjF0PZIkoVrJ8vC7ex2qlSKmaeD7Ab3ekHzeIU0F7sjj5z//OQDPf/Sj7I322H1rm5QIqYAlcjTbFWzLYuQFhGFEsZCnmM8TxTFqR0eNDT6lfOrY+XlBTHcYUK1VeeaZFba2m6yvLZOmaXbsHxSQumoF8aOWShV7PHzvJz/5Cd///vcBePXVVw+KMqIoIWfOnxQ3dIVa0cL1Qzw/pF4pntmzdczpWSarS3VGfohIBaaRRUiqpj1xtMfEhzpK0HSNvGPTGwVU8sapa+loRKUoyiWOFb8CKjNNrrR8fhLpoKoKuZxDfzA6aOKeRK/NYxvy/vRRzqmUoDzIyCjn0JsyG2M6Rbx7Nc9AHMfjQqHDLzGe6SolJEp6pM44o3BVRUVVNAzTRld0kjAiX3AwTYMkSUnTlGq1hK5pdLoD6rUKqqoQhBGDgcviQqYG0+r0skgLhSiOSZKETm+AFIIgCElkSnfYIxEJitBo1MsEQcTdnU3C3IBmJECVtPotWq0m+WqOlVcdXI5vWEJgwF3U2MB0a1g7Bs/cvEa/77Ky1MD3A94z9hgOQoo5Cz+I6Qx9NN1kZWWJhUaVvWYHd+jy67feQdF0JNqTBVRPihMNooSlhkOn0+Gb3/wmAC+//DK3bt068pqYgn1xCqfg6ESJYKfZo1rOT71bVxSFQu53s4pL01QKpj127ilxIiYWU+wD1dG/P86V2FEQXmmmfzI9LonihCRNSIWBqirsyt3H5prMElFNHVOdo8W4H93IMWWbgc74Z2o8/l5B7KtGjOFPaAqGZqBKHYSCY9lYmkYYxti2iePYSClJ05RSsYCmqfT6Q1RVpVTMI4RkZ69FrVpGURWGQy9rLQhjvCTA8wPKaYqIUrb3WkQioOt3SGSMUAWoAhmkSFUi84KeKpCaQFri4LLkegvU8hU63QE9v4dfax7LdR0tST/L1MjkevEpLMvkzd+8R1vZorTRoFaq8Grjf+Od/j3ubnep1Wp85IV1PD9ga3uP3b0OuqZg5/IU8jbVUp5c/gnS+rsISBU6hYeiIn4YUSlYpsF//N//I71ej1u3bvGHf/iHR+gUcan0gqmr1EsWQy/A9ULqlcLU0dXjZFLKTDNQUdB17WAHP8u9T1NxbC7VWZX46qEXOQSuS6HQDJx8HsM+TsnGgYc/GpEk8ZzPAGiaTnRFYzrkxLJ1hXa7h6qo42dIneJ9Hl7lnDxSYHFeRCWQU5WUGIbObtAf598UpAJC2f88hVTPCllUqaOjY2gmGhpxlFAuNPj/2Xvz58iy677zc+9bc9+wA4Xqqt6K3U1SJLvZZFO0bGosjcIxMWHPTwrFLP+dZ2zRMi1a1tAh2ZIlU1yaFMnu6qVW7Gvu21vvnR9eIpEJJIDE1l3N8Y3oBgpIvHx5373ne8/3nPM9hmUQBuGQapeGQa3WoFwqYNsWvb5Hr9tnZibpI3dYbSTJR6ZJrGJy2XSi/FBv0u97iTp7s06kIwIVUNs5QIvEw9FGjO4rtFQY0iHbTtZc2zokyvQuZ0fqRVZnV3Bdh6cb63Tz4yDVrffYHxT4Pvjuy2ev08hkrn+Pew+W2duvcmhuEJTrHMY1rP0H1OpZZmZK5LIZLNOg3emys1sFIclkXSqFDJlsesiCBUHw2QDVi9BE0TzHcLdarUSwdXAsOtkHRwhBNpu9xOaR/PA//pD333+fTCbDH/7hH44bU6VuoBbm9MilTDo9n83dGqVClnwuzYs2jk6MUZT8F0YRYRjjBzFCJL+T0hi+VgvBfKWA605XhDlaIxbHMZ2+T+WMrD+EQGmFMSCPpBDXrqPKFWawtEH4tEl/p4YOElARtoG5mCZ/r0woYtrNwyt4iiZuOkUYhbcjKDvBnZRSMlMp0ukm/a4AyqJCTVevTbHdxBhN3Lgos++s+GO10cUPI0zDwDd6iMDEdWYxTQPPD0inXBzHRilF3/OZmykPvR3TNMll08SxYnf/kEqlgBCSVrtD4IdEcUzsB/hByGGtMaQA/cin3m8Q6ZCYKFE/lwoRG8zY88zPVYiiiI5q4pem0+YUSuJ5PrZtXVpGyWrmmXFnSaVctrb36WQOUMb4geioburBd1/BzZzNBqUP5ykUcnR7fT7df0SwkNy/NhSObdBstrn30jIUYGNzh3qrz53FCtlsGmuQHLa+vkG90SQIAorFwmcDVNcFqetSfp1yh/JWBc/z8H1/zLsyDGOqYt52u32KXz45SoNOu4+fPB2LS50UWEwy/m52IweRoufHSGEyX3FxU58fraeUIgrDMSCKopggVqg4KSpFxUlmm44RJMW2QkiUcJit5Nnbr1IppKl3o6lB6uRaaXd6ZM+RsZJinO4SUlwrO7RQqqB3fHoPT2ee6SAmXGsTrrWx3yhTWKzQrFcv7fEIBFKIW2mLN8mQG1IMFA8EYZTsm4tS3UcpuFWxem7ixXXGpPjWee836fP5QYRGUC4VSKdT+KGP74XMlItDb8d1bWzLwvMD4iim3e0RR/HQ26k3m0QqxI8DGpt1lIwSmk0qdEeDUOiUAmNAu6XPX2N7XkB/3aeYz1HMv8TagaRfrF7opmqpSKUcCvkcu9vb04NUO8tiejkBiI1tGu4uyh73+iM/YvPDnQFQne1N2dUyry+8RhCEPHz8iP78MU28svcmkWFQzmXYP6gRhjFdT3F3ZY5CPnEEtrZ22Nre5uX791hdvXPsaPw2U36jY315LZGOL8xd7aScu7jXUqfTodlq8Rf/8d8D8N577/Hqq6+eel14hdT0s0Y/iOn5EWnXYaaUwbQ+m0ea0HQhcZyAURSpxDMKFVrHSDRC6OQrGik0KaFHVpw88XUgCGtZuK5DGPh0O5psOn+l+4uiiH4/oJQ7B+TE6QSCaYAqnCBplSvMoHd8ggFI2W+U0d3xzS4yFsHDGsHDGjZlcvMzl/Ks4jgmDMPbe6YTvDQpBc12F98PcCw5ACrzxsDjQi8SgwWxgCBJBBADX01fEsDOXseQSSc1iesbO+CGtLJ7NDeWiXRIpANUTx0Dj6WoDhILdCZOPKEbdh5j16PFHnbfolTKs1JZYbMKXrF2fm2UVEPqW07pUZm9FAvOCjOVIvuHdZr2PrF7Ollm48ORAt/lyXJHZifDvdRrzM6UePx0g2ZxG23ECCVZ3HvA4soCjmPz+MkGlimRpsOd5VkyaZe9/X2ePnnO/fsv8c13vnH62v9/AKnibpGMn7m0DNJlRzab5f/+dz+g2Wxw7949vvvd7072fsIQ17z6Z1MKen6EF8YUc2kWC/mp24JcFozCMEwASWl8P0TppBBPqXgIQKNg5Ap95Y2rNcSRwvMDpBAIyyGVulrfrEarSyZ1/vJOqD41tt6mcai8/jj3b5gWljbGPClzbjLtegRkwcMa6bkVTNOaOmal4ph+v3drfaQC36MdNJnJz49Rf0ppivkc3W5n6FEl9UvHwHEV72cqGwDY3KL2nkh8rWwmRbvVZj+b1Gs1C1ufq+2LXZ8DfwO1pXAdh5nMLPWmmcSNpDrDo9J02j2U0gh9cZaz4TlkvVnskkm90WbP3yTK9Se+dnNI+032pmRoUWyt4M7b7O3X2IgfEed7SN9m9vBlZuZnKJcKPH6yjmNbpNJpVpYqNJotHn74kKWlBb797W+eDai/rSCVqWcod8oIIchkMuDc/j3/1d/8LR9/8imu656KS40ZOj8iY19+8wWRou/HgKCQTzPj2DdS9BFGMSqOByf2CM8PCQY/k4IhGAW+R8q1cdC3ImesBtlTjUYLIQSxEpdWST8CWM8LyRacC9ZYAvqja05dIZ0inckQPm2Oe3T7vVNgFe2PA1z4rEnqfoZ2szH1e9m2TRzFV07IuOyQQmDZFo5r026roZfzRRtHhcmTMgN7fZ9MJsmWnRPz7L8gWY3KCaiKTXLdee6vrlDIZ1jfk3SyeyhDTaT+pJQUi1nafhvvvOcaWJTDJRZWZtnfr1KLDwgLk5Vytj/Zw+v4zL5UYeWNxcmH9NoiD165z95elY3uGsFCA7ObYdF/hTsvL7K3d8ivP/gU17EpFHMszs/wy3/8NeVSiXfe+fqZDMLa2gaNZvPFBKrrgNRL2/cIwyDxnrKf3T1/+vgJ/+lHfwXA9773PQqFwplG9LIR+34Q0/cjXMehXDoOOF7HU+p7Ae1uH88LMA2BikJUHCJROLaFi+akPTJdi16vd6WC1Wk9qlw+Tcqx2el1QcipPcXReqgjELr4MD0hJnWFEJXlpunvjMelwsfN0weCEz+Ldnqk3ijDBUB1nA6tyeULeKpPr9cHNEIemd5EmPSoFsw9o/RhdumY9+9323QueG9pSKJYEQTB56aifhZteJaXdtbrZ8QsaVKnHSoBB9UGWoN8wRpKKDukzR5rW5KF2VnyTh7VVPTyhyhzQqRSKBzbxjpHQV3GBtnuLCur83ieTyOsEpZaZ75+GJv63cnelHNY4bXFV8mkUzS9Fv7sATI0qbTv8sZbL9PudOn3+ziOS6VSoFIu8st//DUvv3yP/ISQiud5rK1tEIQhd+/e4f79ly4GquJekcZ8spjL22VCJ6Rdab8wIPV29C7NRgOv30MIQSrjnhKDve3R6/f5/g/+HIA33niLB6+/fg5tN54+fRG91w8Sem8hn7tSZ9iTJ5Rez6PR7mEZAhF5yMAj1opUKpUo4CLPtdYnFcdv2qMyDYMoVghpkE1P700l82qcsEAXrTXGjO916qiOsvuGoL6Yxrk/zuXHWx3ikded/JshKA1A96j7bj5/fOgJwxDDMClXKmfTnvXaVIAuJtQLOXoc4AwpqDU65HVmmISkgS5d9EAa6UgW6SrgcRkppUnXPPl+58XCYia3SHcdh2Ihy/b23hS1WJ8PWDXENsFOwGxxhvuVu2xsWzTTeyhr3LMOVEC/753Z5VdoQbo1Q8bJUGu0qLYP8YtnH1aqm3Waey0yxRSvvXf/NCXXzjKjlomiiCdPN6hm1tCGInOwRCaVZmt7n2q1hu2mWZwvkc/nzgSpVqvN2voGtm1x9+7q2GHrXKBaWl+ikC9ibBlUl6tkVZaMkWV/c4/qSvXGH8i0IPV29C6Neg3f89jVW+RyuUuljwP0er0TJ/BjdQLHuRxP+P0f/DnVWp2F+Tm+/o1vnlvDFEXxQMH8LBouofcUgkI+RcVxrk2DBkFAp9un1w9wLYEIWvhRTDqdOvPk/blsSA3tdjdBEGlM3eEYksLeUaCaVirnZP+p26wpl0WHuHlxb7FCoXiLHJgefshp1pUUAtexmakUWesl1KVCnZmeflnwmGbMiTn29f7U73fWqOs6OXH6BK8Hvb6G4P0CFn0rK6JXOKDalmTSLncWl1BbmnZmfyxDL9Qh3W4ftEYoeSqe5TRLrM4vI4RgbWeTbuHw3M1ynOn3ykT6cDF8mVdfvcujJ+vsGc+J8/0k82/xNTKZFJ98+hzbTXN3eZZUOnUmSD386BNSrsObbzyYyKKcaVErmxUK+WTDzGXmcddTZAYphHPZebJbWdqyTW2x9pmA1NvRu9Sqh4RBwHa8MaxvmiYb7+TodDrMLy6d/fv2UWfdJGaidRKfmdQs8b/+t7/nV7/5ENuyeOfrv4NCnEtXRVE0MePPCxQ9P8JxTIoDna3rDq/vDRrfRaiwT+z38QwjAWL7dp7TdW1oJp2i0+2jRaLAPjVQRYojXNN6SqkcIYhPtHWf5u/8IMA5ETsTtjHmIYmBbFPvvyXB+fR3V4Y/G/2b25lHfa7XOpQcEhd79lLK4/rCKb2NPn1SA4qtQ/fM162IO1Nd0cUdglFIxI7evrnJEtDu9rAG+02+wE0+lBHTzu7yfDcmY2Up5QuYXZM6Oyg7GBwiYmZmSuhDqJ8AKquZZzY9h+s6rG/t0MvV0MbZiTmd2lGB72SgytQWeOW1VXw/4CDaJphpYHbTLIq7zFSKfPpkg3Qmy707s1i2fSZIffTxJ8zOVJidnTnzXs60BCk9bpRPZsylMxnSZEivp2mlW7RmWjf+YEbVdeu1Kr7nYZgmSwOQ2d/bRWmN1++PgUi73T4XwC7S/ctO+NvqwekT3eOnz/jhX/4IgPfe/SaZTBbnAuPjBSHOoIZKaej7STfbQi7FfD57bU1CpWJ6PZ96q4dtgGsJWo0Grutip69WAByEISqOUSqpH0viI9x4rErppOGj54cYxvSgGJ9UatB6Ks9IClAn5NKNKWJiJ+8r9HqYi2nCtWNK3Monr4lbwdjPghP04GV6S93E8HtdpJGAz1E7+ou8ziiMOKw1iePpsg3jEbWISYZ/GjHas4Z1w2F1gSCTTiW1kUnDGl7koQ1FN3+AaioqpTuUSwWMbYOq2iJ2fYQWxHGMbduk6xUC4RGlexi+w0JqKVE139ih7u6cog1Pe1MjBb7ZcebFOaxQcWZpNNtsHuzgzx0iYoNy9y52yuKTxxvYlsXdlVmkYZwJUh9//CmVcvlMkGo0OzTPUk8v7Zam9lRy+Tw58ljXoANHN/7b0bscHuwTRxG7egshJPOLi5TKpzn5ufmFoQfUarUwDJNUOsXC0jLVg/1hd8iT3tRlR6vZPHUt3/eHcam33njA/Xt36XkB9gVeQODHWCmDVi8mijXFfJpy+fr0XhiGdLoena6HawmKKUGjXieAifNwNiXaH56kpWEQ+B6maVEslcde1+12b2UjhlFMEEUULqGq4fnhmCKFnpLDE4hTqd7CGGPHppuzbpfCvfIYUKli9pTJE/nx52DdK9Dq1m7emJ1DXfn9HmIAxtMyXEpr0q5DtzMdqI7LGokbAajRsSSWz1VUvzQlKwTFQo5Ws/WZKWpc6/lKRb94yLM9zXJ5iXTKxW/M4XW6lNJl+p5PLpuikL9Pt9tna3efcrHATKXI7u4hTWsP5ZwvLDxe4DvuTZntHC/nXmdutsxHnzyjVlxLio13F3j95XvsHTRJ2bC6nJQ5nAVSn3zyiFK5xNzc7AR7FvF8c5+q2qGXOZgMVPk4f4XJuxqxm21mmenNEgYBhmFQNfdJjRjWZrN54TUmdYgMwxDXden3+8MAtJtKnUv5nXdiN05k0Xz/Bz/k4LDKwvwc3/zGIL3SSNpjnEfJBFGEGUqKhcyVUq9PGWnPo9XxiMIQxxI4eHgdj0DKS8Wfer0echC8Lw4UD32E3AAAIABJREFUNgar4YzPouCG05T1QFcuCCJSl4gT9vv+qQ7A08ao4hNAZQh5IVCdNGZxFBKKGPuNMuHjJumvF9FeTExM5t3kgBV3AkCQ+VaF3i8aWK8UCMVnl2Y+pNEyGSwrORjFcUyzdnDh35hSkk67mKYxFbiNC8XKS9Gq0wzziutuUixLCPDDREhWv+DU39gcC02/eMhGLWY2Pc+9u8vDRK31zV2qtHAsEySsLM0jRdLa40BtE2X7F15/48MdtNbc/cryWIGvDGxmuqvcubfAzu4htdQmccrDrhe5k7vLQa1NyrVZmCudD1KfPqJYLDA/AaRipXiytsehXqdb2plM/a2sr5DOX67ndKvVorY63ckwW89iezapMI0hZZIEkQJSqalolqm9NJnoXs3MzV+fkopjGPGU/vbvf8wvfvVrTNPgvXffGblX81xNQaUUi3Ola8eftFL0+kn2ngG4Fqi4R6ebxNEu40GNmt9xgLqIYlRww61TTNNgYb7C5nYVw5z+2t1+MOaBJTGqaYHqxOlayoF46dlXSGeyhMF4lUq7eUhhsYJFge4/nM8s2G+UEYs2rfrhZ27gDMPCPDognUFzngRqjSYMIxhkSV5EjzZ0g7zID1aVvNThYdqxIlbObKYIUBZlDAzk4P/mmZShII4Ue/uHp+73hR8C/FKd/boml0tjWxYbW/tsNNI0owL2XMSK/5xiIY9jW+zuHxKng6kuPUr7jTFo9WVy2QwbW7s8bTwmnG9i9FMs6nt0vYil+TzlYu5ckPr00WMK+Tzz83MTDt4BTzf20WGf7tzOyOFk9OFul8ldUr2h2+mwtbo51WtLuyUW3EVIgZgyvHFVoJpfWLzy89/aWCedyQyLYJVSQ+/k2doa/+Ev/hJI4lLF0XopYZwbYzIM41oxqDiK6HT7tDoejiXIOYJup02zE5BOpyYme0xNf1xS2eI2OiZLaeAHESl3eiAPwxDjpMK6ZmruTp9ItxcS9AUi4eKMrM1mvUpufob03ArhsybRTu+UKK11L/GkzgOpRr1+qUPDZG/34t+dtbdO1qRprQeebohSDoYUU8siWVjMi4WbXyvIM+WaLu1lphyK+Sy7u/tfCOpvAl4hEBxUazyt5fAqaUwDFCZ75hzG3gbl7EwSt+pW6Ni7517vqMB35m6ZlTeP7ahzMMODlVewbYtfP/oIb/EAoQSVziqZQp581qUwcHLOAqlHj56Qy2ZZWDjtQNQbHbb3aoRel73lj0540UeeTi3LfPryC6ppN6d+beAGlz5ZfR49qBzHwbYsOFFYG0YR3//3PwTgjQev8cr9e8efLQwRZupWGjQGfkCr00+yzSxBMS1ptZr0WxHpdArzBpIalFKXMpC30WAwjGKarQ7p1PS0n+eHGJJThnXaZXPyY0gh0To6d5XKc7Ll2s3DpM3H/UxSzDv6+bwerW7tXLrPtiy8+HqNCQ3DJAiCidTyyf5bk8bh/i6l8nFbeikls7MlGs3OWKuPaUBBAM5tSiDdCI+msW1r0J7kxQMqoQEth1+TniMCoQRogaMy9D2fbs/Hn5sZ+wS+ztPNP0Q1NHfmlqEFXSXODdUceVNfGvGmrFaOJesuxUKOTx+v0SnvgNA4+3MUsmXSKftikHr8hEw2w+LiaZw5qLXw/RChQw7mHk2gewej2CmeFY44c+x392guTw9U3WKX3lY3kTS6pZP+bY7v/+DP2d3fZ252hm+98/YJelBhpYwb3Dua/iC9XGiFY0HelTQbDXoqJpVKJWB6QyOdThFcUvDU932ElDdyH1qDZRkEYUylND1QdXvJPXCCqrqquZFSoC5KhpMXtE+PwkQW6RLSSKMHnusqjxRLJVpnvLeKI+KjTrMXRJyiMBh8XJFQfoZERTG/baPX69PreYma/5WFKpNiWrQYfE3qsY7abYx9Hbzu6LVCi4SiFAlVGccKx3QSGnqQleq6NlJI+n2PVMrFsiziKJE7m1tOwgnbh5Nt8b73LVbkR2TSqeRzKomWk59jdaNOc69NeqTAV/oOC8HLWK7Jo8frbIpHxK6H1SywnH4JpaBczJ4LUo+fPCWTTrN0AqSUUmxsHaIHEm07qUcoK5oMVJWtyqUpv3arRXX1cll+QgjCOLyk4fjsgWrSSfPv/+En/PwX/4iUkvfePS2eqEia/V13xHFMt9un2fZwLEjbiW50o14fLNjbK9BVsbqUMTze6D2USihSFSuUUpdOXVcaHNcBjKnnUSmFUvFYxt+lgUmMU11SCmJ9Ee10e6du27Jutd7U6/cJfP9S9K1hSJqtDlEcY4rbubtqZBJoQaglz/xjD+z3cu1b3utg2RY9zyOKFEGoML30AFCOPRmhJRIDEFjSRGCglUYisS0bgcDzEs1AwzAIowitErFbKSWtdpdMJoXrOIRRRLfbY3amjJQi6WtlmORyx32tFuYqGIZBp9sjDEJKpSTEsH9QJ5tJWtH3PZ9gpMQg5xoIT6HdcZtpqQBLObQ7vUEph4QzGsUcZfqNelPF5gqvvX6XWq3Jw4MPCedaGJ7Din6FWEvuLlcQQvDs+RrLS4unQOrJk2ekXJelpfFwTBiGPN88JJO26ba7EAdExcmZpWb+MM9c5nIJB71ej80p41Injb9vXo7WcF2XZqNBoVjksxjtVutUMsLaxiZ/9ud/AcB7775DuTThXqRFJn11EAmCgfZe/4jeE3Q7HRotD9M0PxMFiat2QT4ZG6vXLl+moLQGpcnnnEvMWYhtDiSXxj7H9OnlJ18nhbjQ0xDydukhfYtIZRgGtusO9qOk06qfTtE/MSlSDCSqpETFt5Ol+EE/xec1TMNgplzEkJIoipgzVihVckghqTdaZDNp0mmXIAipNVoszCWZnKNt4rXW7O5VqVSKWKZJu9PD83xS6dRQ+UIpRRhFBGGIH4Q0W22USpgTgE63SxxrPN9jfXsHLTRRHBKj2GvvE2uFFjF7nmaAniA09c06s7lZDGmwaH3INl8eA6nVuMbKwgqNZouW10KVJj/DTq3L/rMkdvrgdxOgcvZnWSgsIBCsH2zizyVZounaAjJvszhbwnVs6vUGYRAy99J4Ft/Tp89wXIfl5fFsa8/zeLJ+wMpiBbSidnDA1sLDs59RoV+AS4o7tGTzyosisqNL/00cf3Z0g1IKOaIcoZTi3/7ZDwB45f49VpYW6Xa7w9PoULpJmhfWUE2i9zzPp9nuo1WEawryqST+1A2jaydIXIX2ui2PdBrj7PkhpcL0f9v3AtIpGz9Uw9qgIx7miMJJ9BET/UKt9HENkVZoFQ9ae+gxCa3bEl+1bAdpGEkWneed6dEcAYc0zLG1mPxOo1R8ZquPJNvVw01nkEIM6bshUJkWqczxhu91WqdS9CexGo7rYNnW0LP/bRmCRNYMIJ/L0mq1yWVTSUsbpfCDkDju0O31iaKYXt9ja3sfpRVBFKJRHDQOUTom1BH1rSoKNVSE2PUH+ohSga/RQQIu2tXU4wHYZHTSZ0oMvl7SHkvXx+/lubOygFO1yXQ2aSsD6Rxg+1mW5pcwTEkYRfTSZ9PRo3VTbs7BauZ5KfMyQRDy4UePqZc2EvA6mGE+v0gqZZPJuGitefT4yak+Uk+fPceybVZOgFS30+XJ+j62KWi3O9SqNXYWPjr/MJG9pATRfmeP+kr9yoarNduivF1ORFCnpqSuD1StZmNISymlUFoNlczjOB4zVEf/FkLww7/8Ebt7+8xUyvyT73x7/ATS6eB5XmLYnDzTpomoOKbb82i0+9gGpCyBFHJgBHSiInGD8aepF/yNJYJcHqiU1himcSp1v/cPO2g/JvN7Sa1cuNXB/7hG5ttL9P2IjHSIfnKIvxrgfqkyPAAMl1wk8P9+F+vlPPJOmvhRi/jAw/nWHDHHQDW6Vi/yaISQBGE4fEa242JoE40mUsGZyRIGJvrHDcw7aaLZs7sJH3l0hmEQ/byO9o4Pd7JoY97PETsSFUeTQWVbQT2Cr+WIo3DsfU56i6NnCiEECIFpmjQ6HoZM1kOsNKbt4AhBHGt+u5BKEIQhh4d1Gs02SwsFPml/ADoJI+EMGiNKhTY0pDRNNC9SzoXRd8nnMsRxzEwlYXuWMmmgjOcHdHp98jLN0sIs8U5MQ+yc6uAb+hGbD49pv4Tae5WX7i7xfH2bw9Q6yvGxWjnuZl7FNC2W5pP99sEHD3nrzS+NXe/Z8zUs0+TOyvLYzxuNFps7VeZn8pRKeT59tMZe+fEgY+QcoLrMhHS7XWIrvuQ6OP1Ep5FuGfdypnvPRr2O73nEcYQQiebe0X+u604ljzM6fvzTn/OLX/1mQPmdjkuZpjlUbGj01YWeRBAEdHse3Z6PaybqEd1ul1bXRwjxuQvE2pZFp91mmsNLrVodM3THn/1qn0PphHY7RTs5Bv1Pa6S9RYRrEG138D88xH6lgJuX6GZIvN7BfGt2nDoTx/9QDQ/i5DPpUBMfHtdASU5nwumLbVuSEjyMaxmo/15DlG3kay5i6PEIxEi7e4EA12AYBBNiDNaPXhf4wbBFTVz3EaZAFh1QmmijS7TTx/ln88f6D+JEq+IY1KGHHDmaD+f1hLeYzRXw/T5er4/jOjhOQns3ewGVcgkpBd1uD8d1ODioXZkefpE9qpTrkM6k6A5Ed2PH/8Lcv9lNM2ctUSjk2D+ocdA+xBYOSmnSg1BEvV2n1WuxurBIuVAkOozoZA9RTjDiTW2jlWb1K8uUl0tkdhaorBRpNNs87zwmnGshA5t8a5l+JuaVxWS/bWxsUqmUx5if58/XMaTkzp1xIYZqtcHBYYO0azE/V2FtfYeMI8fu40aAKpPJkCFDZi3D1t2LJUzOMtyxvhzYTRP03dvZJpvNYmUzN7IANre2hxJJ7737DjOV8gUBDnEudVZvtOl7Hq4pKKQk7VaLbisknU5huO4Ls/Avc4i4Sa0/rSfr7JkLGfjFHnGtj7mYIdzpInM24XYHu1Ii3m+BI5EVF+3HhLtdZKxw8wbSMDm3b8fgcKBrAUG/h1FyMTIGrm0jahFI0FECOHLOSQqBhYBOTK6fRsYGomRDKyYMNSIEqy0QheR5Gh2gH0POIHKSU7hcTYElcRwDUY/AEBAmv1MlkyD0Tq0jmbUwvlZAa41Zz9L/0SY0IqxZBxoxuhciHAOKJlqAIY0hiJmWjYmFqIUD6m/ca1atCNmMEzUYKZNW9yG4tZheq44uW/QCnyiKmamU2NnZ47dtaA3p1FHc7otTR2X0XUpqAS00u/uH7MfbRDNdfKAb7SPbFiI2kgQFAU93QrJmjpWlRarVFId6c9h2fpT2cw5muL/wEtVag1r/EH8xiVvl6ksUCkVmSjlsy6TVbtPudHjjSw+G97S2to6QgtXVOyecnB4HtSZe4GHZGR5+/BSpI9ZmP5gOkK8yQflCAWPLpGU2h72qLhOn8Gzvkh7V5FPcz82fDL8vyzLZG+yUeARSr73yMg9ee3XyQhlQIwouFKONI0XGlrSbdZRK+j9Z1ovXt/I2+01d5FFNUpU3yi4yaxPt9xAZC9Xycb88Q7DWwv5SkWivhzGfhlDR/qv15GFIUO0A97uLmLOpc2IvJsajBr1HDWTGRnUC3G8uYMzYeD/eReZslBehOyHmnSzuewtEz9p4P9tD5GxUpJAlB6PoQBCjmz7xU4X5zTLq4zbhoyYiY6E7IdbXK4gFm/AX+xgPCpA3iX5eQ2QttBehuiHmchb7azk8rz/h5D9w4yI9LGhWH7YIH7cQaRPtRchyCvs7s8N8LiEEVmQS/fgwmWBDELZD+I5CLLnEn7Txf3WAzFhoP8Z6UESupAn+fg8hZfL5shaF9+Zo9n0Khdyt9UG57ey+84bv+wRBkChyfEGASvo2M2qZ5eU59g9q7PnbRPlj/U1lRihz/NDZKx6gGzGlOM/y0hxqU1FXu6xvPB8W+N5fecBrmQfMz1Wo1pq0ywmAOYcVFgsrFPJZivn0gPL7iPdG2sevrW+ggZdOgFQUhqxtVVGhzxuvv0wYRjx9usbG4sPpPcerTtQk72raIHrohJc0nmoiOI0BgXlzBvb7P/ghG1vblEulMYmkU0Z0cDpVsb4wkaIfhPS9xgvV/2maA0av1yOKwkF8Lx5SqjcPaBLHOR2XE46BUXYJ93qItAUarKUs3m+qiEaAagXI14rInE3qG/OYsyl8PyL4u22itQ7mXOpszsdThJ82cL85j7OSx/vNAf6vD7G+twxKI/M2zj9ZIH7axvvpHs7vzBA+b2Ou5ohfcTENIzFsjoT1DqLiwpsZ8BTRoybW1yroGQse94geNnAWF8eUYLVKgEB8s4S56RO8f4D1xmnaNa756L87AA3xYR9zKYMoW8h8DqfiQsVCHwZ4f7OD3SmPeQqxozC/XETnjQTcflIj2uhgVxzCj2vYX6mg7jjIaoiYc4k/boMpkd8qY2oD/6930Dt9KAp6Pe9WFEk+b/JPSoN6o3OuoscLBVKhSaYzw+xykW63z35/l7DYnuaj0i/VeHYQM59ZxDQNZljmx79JbOob3/oShfYS6RmXza09du0nKCfA7GQphUuJDugApB5+9AlvvXUcl9rfP0DFinv37p56263dKnHYH6bjP1/fYr6S5TLNWsyrPdrjUSgUMLdMWmaLxsL5BY6ZRgan65CO0zRVc2K79na7TRzHSUGi1mSyWZbvrJ4JUEPUvkI24aTx0/d/wY9/+rMh5XdWHVcQBOQHDe5iDSnzfDFaFUekX3CQOjJutWp1qEhwrNJx4rAR3myasjDkRI8KwFzM4P3jAZFlYC5kMCopZNZE7XmoboiccZKkmHaA/3ENrTS6H0HKOPN8LADVDtGdkPBxk+hJCx0r4oaPFSqQAlm0wdBJfGjwoI0Zl+BhDVHtE6dNjJUMcjU9Bj66FaE7EfHzDjxPXG7VDCA4mcggEUWLiBBZSLaiUJySNRe2HPayspcyyDsplFAIXxFt99CPwgEq6SHVeRSmkxjQ8VFPOqA1uh9DWiM9UJ0IYyGFH/UQJYkpYvShB7FGvd8gHATjVD1AF2z6nv+FgqCjmTgqbTYm6WIJMC2D+bky6xveC+9PCSXJ9eaZKZc4OGzQChsEpctlYQelJrtNzXxqiV6nSeOgQSaX4b03vscrK6tsbu2xrzcJZ9vI0GTev490XWYrSa3t9s4u2WxmWC/l+wFb2zt87Xe+cuq9Dg7r9Ho9UqkUURzz6w8eMVtM8Uv7p5e6Z3NaQJrGu0o/T7P90mmcLG2VyMSZpHXIYE/X63VardZY6rmUcgy8eqJHNTjkqfnkwnvolrr0t/unsgm73e5w3x/RJ2IQnxj+WwjiKKLV7vD9HyQSSd96523mzmnkNZrCHKukFuNcj/ALclqbNu5009JWWnNmWrg1l6YfKqJqH/etGYRjICsu4XYHkTLROYtgo433/h6pdxdRtiD6ZApViMSSY93PY6QGSPxlCM2zNfDMNwoY8ymCeg/aMcH7h6Rm74xsloGiqwTjbgasxDgar+XAnFJ/8MRaGcaoVNLMM1IRJibh+1VwDKxXC+goAa1kPcbD/cR+gP+bGvbXyuAaqCdtxCDJIymQIknWMA2kkMRSIPM2rKawjIF5MCWOLSiVCldqk3Nb40hrsCwqZEli0x7emd2Al8XKKbASjBa6v/i0X6pV4c7CAlIa7DUO8IpXaxMTFlrstTS/+Jv3AfjGN77Fq3fu4zoOrbiBP5/EpdLVBdK5HEvzSb1Ur9ejeljllVdeptlsUSjk+eDDh3zly2+deo9Op0u11sSyLF65f4fN7T0KGYuH2V9c+n7Nm3w8hUIBczPxroQSpMM0tm3jpt2Jmz4/QQ2j2Wui44SH9w0fYUx/d5PqraSUUymo7+1s86c/+HPiOOaVl+/xxoPXLoipHBuTWOtz1RTiKAb92yU9c9OKIYZhYJ3RIkUWXWTaJK57mIuDZJn5NNHDGs6DMrEUECTlBkbWQmmFagUYFWcAGhJV85A5G2lJtBcR7fUxiy4yZxMf9LFeTxPtJ4Ze5ybfh5CS8JM2MiXReQOpRVLgr3WyTnsxZkcginYS36oFyNU0up54n3r28lT3GI03mvauBSpQGAUbMgZ6JzjuMGwItB/DYZh4cUpD2gBDoFohsmIhyy5GwSH6tIl9L41+5iNXDMRiGv/DGuZKClxJ/LyD8aUiahD5Onk+OUuYdlQH8BhQbjaOPPnscba92NKbLIqlU80XPT+gWm++8BmNdr1Izk7KYDZ3d+nlD5O6qyuOp+ufsLu7S6lU5v/6P/8PlFI8frZOu5Q4G3atRN6YpVTI4LqJWsgHH37EO29/nc3NLer1Bgi4u3rnVLw9DAPWtg4JPY87dxbY3jmg1WiwMffhle7VvOkzxJF3lcD/+YZpPBbS5yC7T2/56h1PJy20aU/+/+k//zVr6xsUiwW+MyEVfaLlOHrf+PwapCiOLpbk/oKNVCpFr9e/scw/ISXWGS1ShC2xFjPIlJkYZkBVbMzZNMZiGk/F5FdymPNZuv99G2w5pOu0IbBeLRA+bqI12F8qYay18X9ZxfinS9hvzxH8ukpnax1hSexXS4kHbo4/K5l3kkQNP8J/1oVIEZsS66sl4jQYL+eIPmygP4gxf7eC+bUS0YdN1HYPLIn5Ui4xoaM77sTukzn71DoWljzzoGS9mid82CDe7SFzNkbZRaOx7mRRWz3C39RxvjWHMZ8ier8+mJfkPYQpSX97kd7PdtA/6Se/K9lwL43Z9FG/quMLgVFK0uI93+cwrk8FUqPU4+io6RpZcTNApTij4PmCPebjjwGVEOA6DinHoSM6L+x+s5p5VsurgGZ9c5dOfg9lXP3wG/oRT362BsAf/OEfoeKY5+vbHGSeo+wAs5tmxXyVVDZFaaDj9+mnj3n1lZcRQrC4uECr1abeaDA3e/oEtrldQ0U+d+4sEoQhBweHrMzl2bji/X5uaWeFQoFWq0U+n6fT6TC/uMSa+fzG38d1XVrNJvkJ8bCj8Q8//Rk/+XniAn/n3XemUkCX0hhFw3MBMQxjhI5/q4AqMag34yUO6q7PzShLfWtxONdaayJHkPsXqwhDEHc8hGuQ+4NVdD+mHwaJoroUKBVjPshjvpofApf7+0voSKNNgZ53sP6nZVxpIkyJsA2q9Ta5P1gBKdBaIWcdUn90ByyB+dUS5pdL9OptDNciJibqdjHnLIy5WbQm0dIrgfFPZpCRRklBSEisAuTvzSRZicTD73UUoIom8nuzKAMMzxwClv27s6c8+IQ9iDDuujh3FhOvzhSD1MmkYD3+ZhZL2kS2RrxbRIYCZBKrcTIZAt+DsoH9zxaI+wHahEBFqKCL+dUMKWNgfBxJ4AfIWJBOp+j3+xeCVAJUeqJ306FzI17VWb2oLsraU2do3KXTLkK8mPvTamdZzCyTz2XY3Tukmz04VbA71WFQDxTXlcHTf3hG6IW8/Opr/G//6n+lVm9SM3eIcp1hS/nYkSzOJ3H4/f0DLMuiNJCP04Dn+9x76S77+weUy6WhWv/+QY1et8vS4hyVcoGPPn7CfDlzYZ7BCwlUo1RdNptN1J4r1zV4empK8Gjs7O7xr//NnwLw7ttfZ35ubkrqSwwMCNj2Be3nwxgdR5zKSPgfYziHiQDo2V2DxUj6v1aKMAhRtkCrkecuBCJt0qt1SclEQvSUXRrmbiffK6UJIkG6dOwZ+kFIxj66J4iJB6nhx5dpeQ1SI03VAv/0GguZPvlgkppFHIXHt69Oo3scjvz+6N4GtZPdTifJMJ1QSxnG/iBGmwBKHEVjny2OIuyCc0QHEMcxlm2RGmm/UhRFGrpxLlRNCirchFd1HkheJBg82tTxeO6jQXr6i5fRaPZSFPUsWmn29qscxNtoN0YG1kA4VyKUGFNll0piCAuhBYYwsQwbqQVBGJHLpDk8PGD9YeLb/O9/8idUaw0e7TzBn0+K+N2DGSwzzd3lRBjXD04nSxypUTiOMwZSnXaHw1qLKI7xvIAPP3pC1pX8yv359ebhRXkgnudd+xpneULnnfz/9f/zbwmCgJfurvLmSOHahUBlHJ169bnt54ExheP/MSYBlUZKOXUvL6UHhbcDb+xkgay+hMKNRJyijI2BjJIQX+BJPefe07lCoiEoBJHv021fnDWmYoXvByNqGuICj+pioJkULzqTlRgg6Y7evsBjujzYaDSNRodY3TJQDdp+iKOeUkcgowdAM/xZ0pfYwqaYKTCzUKJWbxJFEUU9B31BNp1C2okqez6bxnUdgjCi3/eYm01KFGr1JrZtkc2kieOYvYMalZkif/3XPwLgj/7oj3j99df45Qcf0Z4bxKXqRZaz9ymXcqQGWcoffPCQr3z5zeHHePYsUUl3HGcYBgAIg4C17SqmhNffeJnN7X1sqfg496vrA/bnupdGLEF8A8b8LPrtrCDpn/7ZD3j05AnFQoFvn+gvdd7o9/uUyon7F2tIWxelpv+21Z4ceZU3Q5VozaUyepRSx+A0oUhTXwKpknb0J7LsDHkhUL3o5UTnUdGW4xwfCqYwzhro9z2UOlapvygWpFCT08FH2YwB6EzTgPE8gDrK+AOwMC9sU39qPkyTubky/ubOxUCjZdJvKpaDflInPBqV/NvABC2wDBtLmAlZoCGVcpFS0uv7ZFIOTtohVonY7exsCWlIWq3OsO1Hcoj3KeSzw7YfQRCSz2eIY0Wv10dpjR+E+H5A3/PZP6yj4pi+56OF5rBeI9IRQRzw67/5JWtra+TzBf7kT/6Eze19moVtlBVi9FMs6Ptk0ilKhcTrffL0GaurK8MeabV6nTAKmZubPbUh1neq6CjklQf36XR7tJtNFmdyPL0Jz/Lz3EzFYpF2u00ul8MwDN6O3r0Wj9k22seJHBcA1c/e/wV/9V/+KwDvfONrl3L7R7nsJDXdPMeoxhjGQODyfwDVOR7V9BM0BlQk7ePH9ozSl2rzcXJ5SHnU6uPzeWg34cmde4m8np/+AAAgAElEQVRRinWaedeQz2XI57Ps7h4MPNHzn/2op3RR2/rrzPQkkJNI7ohVPDwkAjH4/9F3Z3l/Sin2ay0smUXGNibmsKnhUSPDIAhxHBvHsdGDFh3lcgFDSjq9PqZhUMgnRn53r8rMTAnLNOj2+nheQKU86Ct1WMdxbCzLRAUxcRTT7fVRStHtediWiTQEvh9QqzfB0igiIhWhiNnqaJAqUVz3ErV2LRLR3Lqh0KZGu2psYuNI8fEHSdbdP/+D/5nd/RpPe58QVTqgBYXmCjgms5WkPqpaTbQdZ2dmhvPz5PEz3nnn66fmcO+gRrfTwbEtnjzboNftcWc+fy17/kJRf0facplMhka9BrPXMHhSnUkJ7u/uJN6NUgRhyL/503+XgNTXf4c7J2ToLzQCI5s7Hqh+n/35YgwhiMVvH1K5rkuv17t2KxKtxZkZf5NGrEaoP/Qp70FfUtw6PkENSykSNffPyxu6gQPAeXFZPeJFTdMEUg9qw0bPcmdRf0VRJD+hVfiqWKVFC4kxhI0E7MRU3tc0XtdJoE4xnYZmMEhPv7uaKH2H8Tw6TtrT93oevb43VCU/rDVJuw6u6+AHPp4XIIAwionCCN8PiMKIWCn6fY+d3X20UIRxRKRC9jv7xDoatP0YAI1UaEtTHbQAycRlFubvoJVm/WCLfuXgRs5MT376HL8X8Oabb/L7v//7fLz9CcFiUofl7s9STFfIZSzq9QalUpFnz57z9tvHoPTBBw/H1CiGDkK7zWE16dM1N1vmo0+eMVdK3xhIvRBANTp8/3qV71pO9opSJ0Rf/8Nf/CWdbpelxQW+/OYbVzjxjnhU8fmeRRzHJIILvx1AFYSJnJIetEk56ql1HWkoxcUJKeNzqjiacq1PG1t1yeLqk860FBKtowue2e1xf1F4uzHNWMXIOEajp6sd0tD3/LGC7BTupcFjEoC9CMOyLVKOQ73RIopiYhmiggRMwzAiiHxa/TZKR4QqRLXj5FA86CFVa+2gxQB0LJVkVxoKyvrSdU5OvUQ+lUcg2NjbxstXb8R0tA46rP0qoUP/+I//mN2DA/ozicCw1cyz4LzE4nyZWu2Q/XqDx0+e8jtfPW7AuLa+wezc7ClBhcD3Wd+qYpqSYiHH2voOrqn5Tfr9G31GnztQjZ6Gr9t3ShkXb7qNzS3+9u9/DMDXv/qVK73PqMq3NM5PTQ/CGEN88QLzvu+jlBokK0ikFBiGST5/Os3/Kh19T3pUxiV6YcWRwjKOkylOUn/qkgEkwWnqT0Wf5564/jXOm4J+p40/iMPpKYBKD5JXkjYsX5w1HBIN5JMUavCdhXUqgUOIJD29WmtQyLk8Uc8QTnLw1enPLhiZ1ErdIYwinm9u08ntJ4B3A+PpPyTU63vf+S4Kmz33E5QVIX2HGf8e6YJDNuOSzazQqDcQCPb2D1hcXKDf69Hv9bl7QmxWa836dhUVR+RLRR4/3UASMVvM3PjcfO5AZY5QPtY1mwUqQ8EFz/X//av/AsAbD147VyLpvHHUdVVpcMyLU9MdKW5ccuimwCihQ5MYkRASwzQwDINCsXQlD/NKRlVMZzCHBihWOMOCXH0qsH/ZRAchGevyK6XgovyXfL5IFAW38lxue60IKTFNawjRYXAxk5FKuaRcB6/fP9fH1Ogz6cQYRYCPGgKHoqEbU3lm58W4Jv39ZV6vYoUfBCitsU0DHSs+61wZq53lTn6VXC7D9s4BncwByroZPc3dTw442Dwkn8/zL/7F/8Jm/Jwomyitl5p3SaXSLC0kyWHNZgvbtllcXKDeaGJIg48+/pRvTRDn3tuv0e/3ef3Vu4RhxOH+IfOzuRul/F4YoMpmszQaDYrFIqlUivt7L/N0/smVrtUr9PB2PNwz+jv9/Jf/yMefPsJ1nCt7U2NitEqfKftzDFQRKffFc6m63S6VmdkbudZ1W9gLYeI69vTUWKyGdKtmPGZ4pfc/YVilEKc64Z429rf5PG93rThuCjedGZ6KL0pP1yQV2UqpsWU8jXzSKEhtnZGJd920lXW9PlGyaWoPXWuajU4idfZ5HNa7aQpqFq0HtVJyC3VDzRu11jz5SaJA8S//5b9i39sjWEjiUs7BDFm7yL07cxiDw/dHH38yBKVKpczDjz7mrbdOh0darTYH1Qa5bIpe32Nzc4f5SvZWQOqFAKqjyRyeloPrnVLP4tzjOB56U1/76leGBWqXv/64GK17QWo6StPv96/cWr7X618IBO4VGi8axs08+n6/d+W5HAU6w5jeK0soYnPoPclrGnYpxj0qIcSZArmjXsmLTP2dF0MbFb2dxnvTGhqtDoaUmFNob54Ejj59DvTBOXeqLkx3v1VvxjCS9PSt4DN/b6PvMm+sMDNXYnt3n4bYJ872b+z6z/5um163x0v37rN49yUOZx4nn7mVY1bcZbaSH+qUfvjhR7w1ErPf2t6hVCySzWROMTHr21XyuTSFfJb1jR3KOfvSiuhfOKA6C7SuSmeNtqA4ut5f/+3fUa83mKmUubO8eCUV6GRPCxr1GsVSmViPU5eTDKo0QMf6ynSOlJJi6Wwart1qXRFwb+b0qJTC9/xraf4lmKCnXh8aCCM1OIBoRtWsjp53NGz3PnpaFxP9FTGQZRoFzouW4W3Sc9e9dr93vl6mPgHCQsox6tXzPHInQpGFfBbTNOi0p9s3ISHWQInlolT2GHXha34bh/RtCv4886sVmq0ODX1ImOve2PX7OyFPPkjYqe/9/h9Qz62jzQgZ2MyHrzA3W6JSShJcNre2KRQLZAcd0tvtDq1WmzffeHBi7SjWtg6xLYO7dxbZ3Noj4xiknNtV3XkhgOqqcarCXgEjNHBiB1OamKaJWzrtXezs7vHff5L0mHrn618jm72ehEtvYAiU0ucmARylputBd9UrGa0LvKmr1zLdjKFVSl0b9C7TAlxrSKUchm2bJBgnBGQd2yKMxZECEkMtJD1C6OnjL9IwiGM1fJZKXQybt+lR2bZNv3/csqbX6w7mWSX9rgbAfuT1CTHobSWS+7It69ySgW67OZUaxahzZg5il9OumlHR2IuLg+PP1RRFcUy11iQMPzvqT0YmRW+BTDqV0H3e3nTND6fdU7Hk6c8SmaTv/O53cV4SBJnEbmVryzjZFDPlpF6q0+nSaDR5683j1PMPPnzIt791Wpx7d79Gr9OlXMrx9PkmXq/LfPn2KL8bA6per49S8bWMfy6Xo9lMGim6rktxt3huE8bSdolMNOhvNQXrdET5vf7qKywuzN/EMhhSf+cBRTRITQ/0xXUiVz1dS+Nq171OXKnf6xFG0YCC09cKPCdZe9NTf1IKZkq5c+drbqZwPSrIMvDDmFzq7O0hbzmO5HtekuQgBLZlJer8xmdT2XWSPtdoPC8YJNxMi216ZLeICz2qz2qsiDunn6UQpFyHTrf7mdyDUJJcd447Swv4fsDzg41LNz+8aNQ+7LG9tYnjOLz+zS8RlBPle+ewQt6qsDRfGtqWDz58OJYs8fCjT3jzjdP1Us1mi4Nak9dfXSUII9bWNlm+peSJGwWqVqvF4vIKkPRzug5YjW6OtJemwTFQvR29O3iPHYRIioOnHb/6zQd88PAjLNO8cgLFeSBxrmp6lKSmX4fOlBdk1KVSaVrNxqXjRNPQS6OANNqGPun6ayIGtU+6d3VOXWleONVqwzDIpF3a/fBMsLrdZArI5fMIKZFSYlkW7WbjM5wBcdKhGkqcTQvQ6hJAleZi2vgidYtpxrJYmXj/UkrSaRej/tkcBJxmiWK+iAa2q3v4V2x+eOZBq53lycPfAPC7//SfIu8lzWPNToYF8z6ry/OkU4m9+PiTT3kw0ntve3uHXDZDPp87dXBa366yNF8hlXJ5tvbkxot6bwWoer3eEKQA5heXaNTr9HvdiQ0RzxvNZnMIfIk4qTkEp5MU4WULS4+8qa//zldIpdyb2caDjgqONUVquiGuBVTTGER1BTFNx3Go12uUSuULAYkLPmcqlcLzvCsldSidFE2+aKNUyNJsduj0Q7ITwer85+K4qSSbbTCXUshhO5gvnEiJ1uRzOTSa7khs945YZeMM8Bil/s4Dt8sUDa+KVTz8oaqFGNCKgvHMwcsWIis9SE9Xt78O7XqB5dJS4kltbiW1Uje4/g3PYf1XW9TrdVburPLyP18mNnqIyKTUvkdluTAEqd3dPVKuS3HQAqnb7VGt1fnyiSw/pRTPt6oIrajXW2xu71HK2ljmZ6fdcg2P6vTiK5ZKFEslDvb20FpN7flksll832dufuH8h3DJifnRX/9X9g8OmalULqWMPo03EiuNZZ9/P34QkUqJU8Hrm/Sojs+8VzNAzUZ9akA6F7iv+BmPCoqnHZ2eR73eYSyspY9nQMrB+V0cmbHxpSpGvjlKjmGgoJ5Ju+Syx6f7QiFLvdGm60VkXPMUBZkblCl8VsOynalqnq46Op3OxJWkR56xOJGasiSWB4JIR75T8n2b9ghQyUuDx1nDxbnxzx3HimazQ3jLXQ6sZo7V8l3yuQwbm7t0MvsoM5444ULLY8FlJQZioYN+UpCorGsGwrjJ74WSiI7FB7/5zwB89XtvEaeTuFS+ukI+m6NSTDwlz/PY29/nq185Vp/44MOHfPOdb5y6nd29KjrycV2bTNrFtEz6vQ4f5375YgPVKOU3aczOz09NB150rXGPypraKB8cVvnRiDd1o8SIEElqunl+arq4ZoVIEIYTlSBuwqM68oRubqgreQpa6zGljwvXgIRMyiTtXO00dzLB8Di5QtLu9TEkYxmMpWKOar1J349JOZ+X+h9DULxNoJKGgZGWRL3o1KQ1mh2UVjgnYonmGYqIOXJfGIfRMgzmZsuEQXTuwrkKeAx7RIUWWTOLEIL9gxr9qEeqW8LqW0ghiWKFKQwsM0km8/yATCaFISVBGIJO1qWU0Gp1yWYzOLZFEIZ4nk/5/yPvzWIkS8/zzOfssS+5b7V1dVd3kb0vbC6mabdkscdqyzalGYGyQEjCwDAs2IBvjLnzwAbkG8+1BRu+8AUvDANjGBgKlE2RBCluEkk12Uv1Ut1VlZmVS0TGfpY46z8XJyIyIjMyM9aqavkHqruWyDjbf/73/97v/d6vmEeWZb7xJ98A4Klnb7L2asxs6dUieX2Fa1dWe7npt9+5NdBf6v33P+TJG0+cSgnU603aTpvFrM5B1SSfy7CUSbHbdnms+iwLueSjmaM6SfmdN1bXN6hVK7hth2x2OB2o66PvkDLZLOXDg5FMUP/0z74NwOOPXWNrY332QNVRQp25bPc8/qaLeD5B7ND588ZykGTpFP0acaoj+wWgPF2dkXROhJVPa9RNG0kaPM+FQo5ypQleRFL/6yujlvrm90lwTyUN/DCEMJjrHOoqGkVnEyP6ZJrxv/fpOIXoiDlFzxWD/u/o+7/oHED0be5iWlbqOcgrqkypapGN1pGQ0FQNGRnPC9B1DU1VCKMI3w/IpFPIioTjuKiqQiqZIBKCRsNkcTGPoig4TpswjCgWcrEtVxQRhhHZTIpcNk3TtFlZiktParUGqqaRzcS9ow5KFZYXiyhK3HMqCAKymVTPXb3XuDWKCIK4pcfOzjbv3bqFrCg895U476TYKRaDq1y5ttzbEN6+/THXrl7pqVwPDg8xEgaFwuCmuO20OSzXWcrGn9tYyrJ9f598PoeiyESBz/793bityuXduc5NdfLpPNro9m0qHR4gwQDIdFvQj7VvH8Fq551b7/HmL99GluWZR1NdriscRZouS9RrtdGMP6eIlGT54Sc9TubhbNvpOXjLskI6HUcpjtMeWIB8VIzU6Od/VovzWY1CWqfWsJAkqZcPlSSJ5cUcpXIdWQJD++sJVslkEtuxh971RMJA8nws18VpewjREUx0gKHrXiH6aNiuaXFXOi+EIAzjFiyKIoMkE3W6NSuqgqFrSJKMH8RRQjKRwDB0JFmi7Xi4rkc6ncLouJhYloUfhOSyGQxDJwxDmk0TJCgWcqiqhud51GoNdENncaGILEu9XEw2k6FYzHfovxBD11hbXer1fFooHrfk6DYndF0vBqOFPFEkiAQosoSma735HgQhURjhewF+EOC022TSKWzbpWnGhdN+EOJ5XuypKSL80EcgOKzFObMgCmju1mKzKSk2t71vHedzj6yo93tJaBiezo9/HHuYvvzl58msJJFChWXrOivLBVKd7szlowqSLLG4uHBMAR6UeK7PgLa70b63d0QhdTzXS1WTK5c3SaWSfPDhHRS/1dMjXLl/hYbSOFet/cCAahya7uRYWV1j//7uifVennpBHB5NdSi/5549VVU9i6FrGnYQnQtUfhAiS7EycHJn8VEjqkcjO29ZdsdmR+oVDp5eDAcjqlb7Yhuqk+A9bzFCIaNTqbdYXpB6akpJklheynNQqiNJoKszahrJo+WrL4RAOkHv+UHslK/rGkoui+f5tJom6XSKbD6NhESzafZ6MyWTSaIoolqNN2lxq3IN1/WoVOuoqsLiQhwt2LZDpVonlUqwUIzpTafdplprkkgmer2dRCRwPQ9djwVVQkQ4jgyE0AHBGDhiN5i266H4AZ4fxK19PJ9GIy6O9zwfEcWbqSAIEUAul6HRNLFslyD0CaKQptXqgUjNqiIkQSRCIiJKOwexCKL7yyJu3aEJ6nZsaCu7OovaCq2WjWnaHHmH6Dmp8zPxg3fOeOO7C7Ny6j3vzpbOMwokDLPAxx99QOXoiMW1RZ554wkA0kcb5HJ51pbjqM33A7a3d3jpxed73/jW2+/y4gvPnZoH+6UqaY2eE0nTcknn8iwU89z+eBsldMj2veOpVIoUKeRdmepWdebzcmSgGofyGzZKB/sDakDbtllZW5s5UH3ne3/O3v4BxWKBZ58e3sLD6yl8xERKNQD1gsW1K02fhr4bVS0oPcSIqgtOAkinUxNcIyiyMt5CKvVTRVGHUgmJwpBWs4EkySQ7O0jbdnqPIJfPo2paXLja2eWfETBTTBuUK01WFvNoesdhQZZZXc6zX6qR1JXe94ruYxZ9lBX9kQa9SKNLPUqShCzJyFLsNacp0rl1Ww8OqU4jZ1LX8H0fWZZRVRVFUfA8H6fdRtPUjpFxvHA2mrEoQYgYNJy2S6VaQ1M1IhFTX0HgUyofIUlyz87JsdscuCVcz2d9bYVMOkWj0aBt27FaEkgaGu12G7fdBiRkCZIJjcDzCD0PSZJIJbSYuoxCwihEkQWZnNG5MC/ufZUUJFMQ4ePj4tXjHJWqKpSysZNDRs7hnaREj+HhfPAA2qbPamKdleUFykc1Dtr3MYoSs24PEzY0IhHw/e9/H4AX/n5c/2TUiuTkFS5vHBtvv/3OuwMWSR/e/ojHHrt6asNdqzVw223ySbm3ltVMl4xQeOe9j9ClCFkEMETYsppeJXkvyf0r9x9WRDWln9qJhPmkdNh5i/fe/j5/+q04N/X0U0/R7kxoqesMLsvIitwzlZ20PYXrBySy2gVAFWAo0tgtJ8bJ+/Tu7UOqQzJN68zIaRwadRxniyDw8R0LTxo+f05aOfX/OQw8wiGO55lcYch8jSOrg6MG6yuFnnuKoiisLxfxg6AnNZfoys6P/ZqOZehSD/zOfIeEoGk6mI57hhT+wQ7lRB5OkmMxhaGr8WItg6ZI6KpBFPqIKEAGcplEfN2x4gAtqZNNGceKQAmyKb2bgep4qMtEQu44qke4rTDu+CxJRIbLXuK0/D0jz66vlRk1yYSruJ43Mwhpmz4ZZ4nMaop6oxWDVGH2m8moobG1uMm3/+xbhGHIYy9e5spzWyhOguXoMS5fWu5tIO7cvcfGxnqPNi2Vj1BkhcWFhYHvdByH0lGjl5cCKNcdPv3Udfwg5OOP7+J6zXNLkHK5HMquQkNv0FiZTSHzSG/FNJQfwP793VMXlkiOv/suHeyTz5+tgvv2935AEIY8fv0xnnnm6RHWyMkW+CgCXb1Imh6STEpx07k+O5zJohaTdDoz8ibgQY1ZHDcualXGuvezfuWFGC7QUGSJQkZnv1RnY7XY23kqqjJ2qcRFYJ1JJziwLi6c1hNJvLYzt2falRv4UUAkxTSXi4+iqbiBR6R6yEZEWRwO/fkLQUScDxoqaYx6ijCKaMiNmQPT8I2eQr3ewvWnb6vRNn3W5Mtk1lKUy1WacnUuICVshQV9maPyIe+9dyuOpt54GoTEYutxNjYXyWZSnQipju/5rF5d7jFKu7v3T1F+YRhyb7dCMX38XpdrFssrSxiGzu2Pb6MEFtkR6mTT6TRp0ij3Faqb01OBF640U1N+hwenQKrZbJIvjFeDUjkqn1uX9f6Ht3nzl3E19mdefmm0i5/QfkhI8rmKv2NpelxbNo3JaL1WQ5FlarXqzK9j2pFKJbGs6RZNRVbGKhyMI+rZ0ifinI7AmiKRT2sclOsTswCjLZbSSOKZuRcLd05ht3GPj6IPuRN9RIl90ukEK0uLNKJ6D6Qycu7Ur+lBW2DoOsmEEUu8H0QEKcusriyO5eB/Fkgtig1WVhbwPZ+mVJsLSOFLaE4GSYLvfOe7MUj93acprOXIlLfIpXMU85ne+/Lh7Y+4cePxPgrw1tDWHfuHFTIGqJ1UQst2CYRM23H5+Zu3EJ45kJcaZaymVtm8t/kgIqppe/0M2RUa44sLFpeWKR3snwlWXQHFKy+92Ku0PjdKMc2JW29wAVCFA9L0ye9hP22VTCR6ru0nx6Q2SlMGAZ0IJ5x+XRwjxyai2S/WIhLnbtl0VSaTUDk8arBUzKIqci8P1V0MjpWMxzLq3i86Ck4Rq8SEiI1ldU05zutJ0khUr4geTMmCHEkD89drRyQ0CcnXOC0BmC1S6oYWKzvdBzOX+4vFpwGpYriOpEhxTsrZwyjO6dmYaa5srfODH/yIcrlEfiXLi288jd4oUFBWh+Sljn37Pvr4Dpe2Nk+tfbVaA991yXXyUkEY4XiCpz/1OKVyFdexiNoWTFBwncvlkLalqSTs6oOm/FqtFmsbmxNPKNM0TxURf/+HP2Z7Z5dsNsMrL7040neFUTj5DkpSUEeQpjODF2B0SuyTU3PVO2cBYRQR+AEkRgPZiAhlxhFVJCIUzo/qDE1GliVq9RZh2Clu7iT5u04Y3RSV1BFL9IQTnfxMt+WIjISQBEEoj8lvPICQqtsdpT+akSOkiFgqHs03ehdSrE6TZblTUDv/EQQhjUarJy+fBKRW5C3W1pYozRmkorrGenGZdrvNT38a93968Y1nkF2DZf86jz+2jtZxmNnZ2WVxYaFXElSpVIkiwfKJzuaO7VCuNFjMHL8Dh1WTjY11mk2Tw8MSktsY2xqvf2Sz2akk7Oq8KL/yEMoPwFItfqr+ZKiX3+DPHxKG8YRdWYsLdlfX1jk82B/4nGlavWjq2U9/avQHHkYwaQsVSY7drM+Z+APYNLPFRRphX/jJGUJAwjDQ9dEFBFEkZt4QwnUsNO1iKlpTJLTUGEcXfYWpnefTzev5gSA6QTmOYvgqzxmoerOoL6ISUkTb9TEt50JAnwX112pZseHzAwIqXdViUY8Yn9p1LJ9se4nCWo5G0+RwjiAlbIU0ORzH5fvf+y6+73P52U0ee/kyxYNrrKzlMToK1VarRcs0+VTHOi4IQu7cvcfLL70wuGEPAu7eP2Ixffxcj+o2mWwWz/fZ3tlDj+ypQOqYIZpcwq7Oi/IbSrdZFrWt2G6+a7txFmAFgd+7OZVyCc/z0DT9lMLtT//s27TbbS5f2uLypa0xFrzJKSv1Ak88Pwh61J9j25NTjP0vhOP0iqcfVETl+X6n/9EgtSXLCrLScZ1OJ3FdF2MCOjcS4tiwdQxwm09EGvVqcWKKrtP7iTiH0WzUO6o+aarn2bVCkiQJEZ7c/4zwzj0ghWe/T6qQIzzfx/M8lLn3jRLkchmSCZ1q+fDBXKsskc9lqDXH2+kLW2GVVdJLKUrlKg0q+PkmBnMQf/gyaX+Bra0V3vzFW9y+/UEnmnqaTPkSy4VlVpYKfZTfrYF+Uiel6d2xd1gll5B665XleGiJJI9d3eLu9h4aHrnsbGtRL5KwS0h9a4J0NlDNg/I7a5Hp94nqB63+ZoqJRKJX72T3dS/9+M5dfvQXPwXgpeeeHehSOl10ct5CKV+o+PP8kETHFygSAmUGu2BFUajXap38RgwWkiyhyMq5hcejAKDoAAZ0nL67Mv5zfAY17fhhHh5UmQCniAREQTDWTja6IJ806bDNZmcnapLNZgbmbAATAfH5DJ5EeDKiGmGePCjndemEz5SqySwU8zSs1lyPK7q1hw+w5CIMQsIwGquURNgKmWCBtY0lmi2rB1JzUyg2E6xuLmLbbf7y5/Ga+eyv3WQ9d41CsMblzWM672Q/qbt377G+tnrKeKBSrRN4x3mpMBLUWi5bWwvc3yvRtkxUhtdLTTvOy1ut6Oss3Y3voxQCwRAWZWrKr3Q4FKQcx2Hn0vn9ZPqjLNEJX7PZ7Knw8Tia6lB+T3+KYrGAPUZfpEnzRl4QkM/pFwJVqgNUsaJserrkYqGEmHDBlCkuFHkYIy7eHa8NivgEUpxnbZNO4rMsS0TifG3JvHt3dQ+tRoNLQxDFHn/91J8ZzWFhlgSW0yaIogeWoxJAqVzBD0aTpwtbIeHmUQ2Faq3BXmsXvzA/kIrqGnkjS6Va4xdv/RXVUoXMQoqXf+0FFlpXuXJ1qacs3ts/INPXT6pWq+N6HlevXhlc5y2bSrU5kJc6qLRYX1/F932OyhWUoDkTym/oxtC2WdvYZC3YPGVqK6OgfdsEQwYrRDT8YXvT6SbHWVFNMEai8qfqTwiD2Pqk2WrRbDZPfeZHf/FTPrpzl0w63WuIOA74TFoDFHGBND2KetL0LqX0IMYoRr2P2sIfK980VEUd8fPiE2XUe1FkFA2LqMSjEVGd2nyFLuWjWuwwPtdHEH+58oDEFBk5h65qrK8tD7A4Z56do3mNUSQAACAASURBVJCLlrhyaR1Jkthr3cebI0gJS2U5tcr62hKWafPu22/HlN+vP8OS+SSXt1bJdHw0bdvh6KjSS4F0pelP3nhicC0Ogo6P3/E6Vm3YrKyssLK8QK3eRAntuYHUyYl8pl7Bi2j8foLwHy4MRlTzovwgllCPOhZ3Fwe+p9ls0mq1Oh5yGdquO9DC4xh0RpvYtm1NLOUWSKjnqAVjabo0uLg+wmMcuXOz0YgX106uatq8WA/DP2mNBGf0np6cGpIsdTYO0ggxzwMI+fqflRSSycQefs1IRijR3I5r6Dq5bAaaD/xtuBCkNCvL0maBlmlTcg7wCo350X2+jN7OUFjKUqk2+OnbP8Rre2zeXOOFJ77Iam6ZYv44f/T2O+/y8svHque33x6UpnfH3kGFXELu5aXsto/lRmRExO2Pd7AbRywX59emZZgZeResBqKrzQQNtYGyURgEKkWdPFF6dAbl1wWaUb2fMtVMLD/vmzPd7+12Av7Tb32blmmytbHO449dG3jRRxlBEEyREJfPdSUITtRQPepANdYOXYKEbsxsZx8JcF2vE4VfTI/G0epfnxFGpyOqi+aLJD08oEoYBpbSRoqUOQKV6AlbHpTqz3N9jqr1c1kf4Shkw0XSxQSlcpVacDRfkAIUM0Uum2HvoMzd0ofcvXUPgFdf+xx5aY21lWPxxAcf3uaJx6/38pzbO7ssLi2eYloqlTpR4JFOyL31qWH73HzyGoflKl7bJqlJ1Go1isXZpwQuCoZeDl7lvr7XWyBkSUYKpWOgmjaaOo/iSoxhH5RtZSF/9jG2d3f5/g9/3IumJqHzpqLjZOVcy58giAZzDI84UzXOwjeOeeyo+1dNU0d+bl2PuHGG67oDfY563yRO+wJ2R6sVdxC+qOnn1Nd/ApRkqft30sOOp061UhFyhOO4cRM/ZY5nIQlalk0QBA8sR6VpGulUkqrZt+vvy7+JtkzGX2BjYxnTsqn5R3jF+YJUVNPZWlzFMHQqrQrv33oXgE9/6Sk+tfJZbjy2gdYJLEqlMpqqUey4zzebTSzT4ubNJwe+07JsqrUmCwN5KZMrVy4hyzLNehPc+kBgIISgUJhNJ2vLssbCGHHLZPWpIupOeAxUqfTkL+XB/h7ZM17qYwC8PWrAQkqkzlxU//RbMeX36ZtPsbQ4KNcOg5BatTIgo5bkrpJNOXa1mCLKudg1PTjhSvGoR1SjLQb1Wg0QKEpiZnkSSZZ7hbIjTdxIjLVSO06b5ZXhu8LS4fA6jq7iz7Ls+RNN4tQNOdfO6QEj1SkAqTWaqIoad7qdG/kmSBkGS0tFqverc79MM2ySVpc7lk1x7ZboaPPNqInSNsg5qxgZnWbLZLu6M3eQEpZKVsmjGxr7B0e8+/FfUdmpkcwm+JXP/gaXN1fQOyUynudxf29/oFvvO+++NyBNBwh8n3v3j1juM5uttRxCIVOpNeL57psDrFjXV3VW0ZU8gjr5p+pPWOdS/PkbabQ/bYHbASrTslhdm6wLbvXo6EyQAtB0faxWxWf51jUaDW5/fJf3P7xNMpngpSENES/q+9RsNhBRNHFuJRIy2gVuFp4XktSk2URvD2I9OiOaqVYqA/RgFEXnei1OulCH4eieSLGH4uQRyzgjnU5hWfbEIpVRhqHKtNsuiYRBGIa0LIelnPFoTIwTNLpQQoqdReywOc+IKj62qipz7wpg+SaamUNLqIRhyEpxiUQzgR1aeHIbJMGCvMLmlRUOShUOqvt4xfp877snkw6KpNIJdnYPuFd7n/f/It7kf+nLv8LmyiUKub681Nvv8swzn+4DqeE+fvcPqhSScu+xtt2ASNJ47pkrfPjRNsKzyWWGMwzFYnFqsBqlSe5JnBC6TPP3kghJoE7SZXcggvC9nnX86R2tw9LKKne5M9riUEujptShQYjv+3yz017+xeeeHUmhc3JMW3jrBSGZ1AVAFQSkBjrAPtpZFV3TTrmzO7Z9ihYzTXMe4RxhGI7stjA+UD1697vfqT2X1mg0LcrVFrIMuZQ28ks/v4hm+KwVckQQhqiqghTO0Z1CEvi+j2U7c6X+3GbIkrjCwkKeRsuk2bTI5dJEYcSCkSdh6LRdj1QygWU7VJxSD6TmFk0JUK0Mm1vLWLZDPTri7Z+8A8CzX3yGz77wGle3Vnsf/+jjO1y6tIXWWdd27++Rz+VOBQ5HRzVE6GEkjtelasvlUzcfp9Ew8do2UtjmPKueYrFIvR4XvedH8FIdzqqNDlI9Jkev0wjqqNOA1OH+3rk8vj+mbb7qqWfWln3vhz+mXm+wvrbKk088PvcFpd12ESJCkuLiV13TUFSt56M1nJqKBvT+lmmemQd5lEbbcXDbbi966oJCFEUDz9eyrIHPhJE4UwDQ68+EhCxLpzr7dkFSUpSR6cfxIyRxHkbONSI7F2z7Dp5Pj795mmfurFtQL+syCcugnXY7QCUwLZsoFHMDkIycwwybBEFI2/XmFrHQMlgysqyvLdN2Pdquy5HYRzIV9DBJWsuQySR7TiX7pTLu0pxBCojqOplEGtf12avs89abP8eq26xdX+aNX/kdnri20Zu3lWqVKIp6vn2maVGvN06p/EzTotZosZAerJfSjQTbO/uYponit8hkL1b5dXNV40RXo+SlTkVSkiD6TBqhxirYUAST+6FUK0cXvjCyooxF+ymBMhSoPrz9ET/8yV/2oql5j2F2RZZlEkTRuQ4FQRgO1HJNZXw7x9G/I5ck6UxKr/9z/c+6+7JYljUyHRh32u13FJdI5pJEY+Twxm3xcb5I4yFFuuJRaz5/zh3qN6CVIkQkWF9bpH7/aK7Un65pLBbz1MwaDrMtLJatFNcvX6ZWb7Jz/5B6dESQM3sqRp8mtihRcXV0J8eV5S1WFhdo2zWClDOfImdAmCpLqWVUVWF374Bbu79g/4MSiqbw+pd/k83VpV47nDCMGxi+0i9Ff+ddPvvqK6cChe37FZZzxyDVMNvki0W2NlZ5+93byKE99sZnHCrwIiX5MHyo+mXMm3FtghPEG6eJgcpzXYwLapHGrVUyAmOokOI73/9zAG4++QSrK8sPZi05SUumM4ROdK5d0cn2HlMZ3855zGJXPk7AcTKyDCNwPA9VHX2ORGNSf9KUrvXziKgiESEj8+gOqR+bBqg/VY3tuhQxX7+/bhG6NGNAt12bjcQGkiRx1KpiJ6tExunITUiCMOHi0cRuuywt5DlqFmkOaW9iRtMXe8mexipXWFoscHRUY9f6iPd+9CEAr/29v8OzTz7L8mK+D5QG81C33vuAm089eep7d/crFNLHeSnXC7B9waWVRfYOyiRU8L3JPE+7YKUoypllSRdpH84KYrzIxTvR42WiGXe4v3fK2mgYhbC8usbIar8zNrlv/vJtPrj9Mbqm8dSNGw9q23sahIRAVc+XUvv+oGv6tL2a5rYUzUi2N42rhRAiFhGMoyDra0g5/XU+nKhGPOrimoHuHvIAUAVhSKNpwpxbfbQ9j/JRbeK2GwMAIohVigJUJ42clLBsB1dtnQKp/Y8+x/r1Hx2/8wmXcv2QKAzRMVCtFEHangk49e63kEi2FjAKOrV6i/vWDu/8OM5LPf35T/M3Xvo1NteO2Z172zusriyT7Hif7u8fkE4lyecHwaJcriJHPoZ+/KyO6g7FxSJ37tzHbNXRRXsq94luRDUsupq23OnkGBuoatXKSLvxIAjGf2hD6jO++a2OgOKF5ygW8kP7Uc16DAOjtg+FfPKCa55Nw8RPzJgi4AgFZAyd9hg7unHVmudZakkSeJ7fdxmi57jRDaQkSaLdyd0lk4OU78nOxiedJtLp5JlR4dQLebvdux/pdPLCyLbddnsA1HWAl6CXhO8fyWQS27FRkspgLkoC23HIpFMYqjFd60Rx/MuOrLiliIjzmUpkIMsymUySlmWiWikkIeGKjvefkGJndyEjSTIKMkJIKMgosoqERBCELOuLyJKM7wcoioyu68iJOG96WKoQ5o537KV7LxIGBnIRyvbnWE4dg5WbauJ7BS5trSJ2BQ2zDHLUOd2oA+Kdi5EFSCKWt0si3shdsARojRxbq+t4rsd+Y59fvvlzzKrF8tVFfuPLv8uVreXehqvRaOLYDlcuX+oEAw7lowrP9qn+AMyWSaNpUuzLS5WqJluXNigWsrz1zgcklYB0ajYU5kkq0DTNicUTMwMqt90eST2nKOpYJ5NqpNDS2sDi92ff/R5HlQory0t86skbPcrKth0URYkVY7LUc1afB/3Rfa9CwYXHsV2frPFgGyY+zIhqWlotiqKxziUIQzzXxYvcXhfdc4FKUajXmp22JPHi1x2JlNHzSLtonFVztbp23G3ZNJ2B768cNYaqYWcTUUksrxQol6o4Trv3d92Gjf2tSM5rD1OrVkgOKcbv3lfpxO1VNJl8LkOj1UIz0yAkXHEsrpAiCQklbtOAjCorgEwURBi6joyCH4QosoKhqwgh0FyPbCaNrEg4jouqKmSX0iQTCTLpDOvpZSRZxmxZaJpKJpMiDCOq1Qarq4tIkkSt0UJVFLKZFEEQUj6qsdb5t3qjhSIrZLMpokggyxJVq0akBr0oCkBdO37ty+ZnWc7EpgKR7lOzjlgOFthYX2ElWCAIQqq1BvlcBglw2i5BEJJI6EQhWLaNpqpIskQQBPiBj6opRCLCjwIEUbwhCiXWFlZJp5JUanVu77zD3nuHSLLE66//Q65trZPq2yDdeu/9gTzU2++8e6q/lO95bO9XWemrl2paLrJmkM2k+OjOLlG7STo/281+P1hpujFTkBobqA739y+k/LrDSIxXD6J66ql8zo/+IhZQPP/sM4Of1dSBFhS2bRMEPlEYEUVhR3F2rNYbO6I6IYBo+4JiLnXhLldBDPDqjwIgPKqAJwSYtjt0V3/e8QxDR5UnYKwFVCpNwiBgZXXhQpAql2vH0d8IFFTmRA3KWSAa+C4kk1Pe9/j/yysLfbTz4LNwHBshBPo5i8aZiW4xPGIOCRBCsFgsIFUllpYKqIqKbTtEQlAs5BBCcFiqsLhQQNNUTMvG83wWivH7eliqUChkMXQd226jOW0WF/JEQuD7AalUsld6oioyYRQhggjX84mEIGya+H5A2/Uol2tEIoojRlmm3mgSRiFe4OHs2kQIgsiPgaEss7G0hqFrtOXjViXr139E2f7ciQVAouy8ynIyXlCFGmLbDglDj+eCiNWuhqGhyCqCuM6wWMh1IraIQj6LYeg4bRfTtFleiqONaq2Brmtk0inCMMRpuxwcHHG39j63fhD3mPrSP/gi17duks8erznvvHNroJ/UBx90LJMG2B/Bzn6FYkruzREvCLHckKXFHB/cvocmRyS0+VC3xWKRRqPBxtalmYLUWEBVr1XJZEZTeFmW1evKO+pQfIWUevxg/vJnf0W90WR5aZGtjcHvOmnlc15RpmWaBGGA73lDF76uhFqS6O0uT1J/ri9YvmBxaZptEifWXEme7YTwPG9iM93zIsZJRyQEtu10XgppYGd/UfF1JGB5IYftjC5DFkJMdeqGrmH5AaXDap97iRy7l0hSrw+XosRt543OIt/yx69bOguoTNNCUXSS6ckLiUcp+xjHBPo0TsXnrkWDE7otWdQbJkEQoGkqnhfgCp9GwySZNCgf1fA8nyAIOKrUiCKB47ooqkzTMgmigDAKaLixuXEkAgSCA2uvR5fhC5JBjsevXMFpu+y6d2JqTe1QaaGIbSGzETWpMx8Soucmce5ip24OzbEtp06CleiBFIAaJGMAKldpKEcgh6BI1CvlzmSO15C9loQk4qiy5tTiiDKSEAJs10FGxvdDNFXB9XwWCjk8z6fk7/XqpW5+7gZ/8/lfZ73PUeX+/T3y+Xxv/T08LKHpx5ZJvci/VEMhQFf78lI1hxs3rhGEIaXDMgStkYONcUez2ZwLSI0FVG3HQRvxAsMwHPuk5BOTp9sQ8WTNlOf75zb0OznSnXxWtVK5sKapWzul90nQ276gkEudGz14nkcQ+CQNeQAgZ9HZ9ySVFQlBEAQD0WNyzB36NIGeNJi2YGV1YchGxeEiJ6AoIjacHONkpsSpeD6kk1iWTfocoBARU9UKlUtnCwGEEIShh9mcvE5oVk0cz7z3Z6z5fq7Fdvs2UtSxGWp3ACIlqHVyNiLZeUjdXM0EDJNaS1A6quG6PmHBRcjT06VyoLJ/dMTyYoGCv8RRaA4Y68r1BlEhjyI7LCTePL5HkUROz5HPZag2agSZ6YutjVqB5VRMIR42y/zyl2/SOjJZulzk7375f0fVdIqF+MaZlkWtrz7KdV32Dw54/kSZTqtl0mxZFNPHa1C5ZpFMp5BkiXt37iMH5txAali91P793d7fTQNSIwPV4cH+WBeoquMv0Hp4HCm8/+Fttnd3SadS3Hj8+kw4/lHWw24U4PZFX21fsLiYuOAhtXsdfXtgPYcaKkVRT4FSq9Wa3QI1Ppt2BgiJC6XFgrhB3rgR3CzOfBRbq7PcVo6fhUy12mRh4XRCenmleGZeaxZD1zVM0yaTmc7eaZImjGGizbxHREgukyIMQppCmolbZqQGOFoTI7HKsqFTP0rj547fncWNd4cDnKejyDKu52HOoO+IZqbJKUVM06ZlW3x0/y3uv7sPwN96/e9Q0BfZXD/OKb799i0+++rLvT+/9fa7PP/cYCrEc11296sD9VIt20VLpEinkrx762PkwKKQnZ8I7SSN3O2mUTrYp6E1YHXKjcZFH2jUa2TG9HhLJMcXN/Qr/nrR1I3HJ1pkpn0pu9Riz937gtopy3HRTigWo3C2MuR22yUIfGzbOnH88dWViUSipxybB4E4Wo8reaxeWMff+2j4IgnBUJB6UGPaXmDnEsDiog/M+d5KEYahxy4w0exOIsxYVKp1kCRSXh75AisoKZSRXQNVUTg4rAytuRprsXUNltUNtjZXabddds3bvPvncV7qi//wC7z0+OcQQiLdEVC89/4HPPXUcdPD2x99zNWrlwfs44QQ7OxXKaTk3uMKwgjHE1y/toWiyEiRiwjaQxvQzmKYpsni0vKpdTFmMNJs6Bss7C7MN6KyLWssrb1pmuxc2pkYqPYPD3n73VtIEjx1ojNld4GYaJKMocDrFvVGQqCq8gXRlENCk8aINyYb/TmfZrNBFEYIEU1clDrPPlmjFLUqikwqncQdwyon+gR19533qc7E7PiMyFqMEXkbtoEcxrJxWUhIUb+EHAwSvQ1Jv0Te0izsvHMGUAkcx403ezNUzkZKSDUsEZUjlpaK2I0mJFwi3T0FypqZJh+tsLJcRJZlHLfzuUlvdSSTtRdZu7JEs2VRo8Q7P34HIeDJzz7Oay/+OplMBkOPLcUODg5JJBIUOr565aMKEtKpjhHVah1NGsxLHVZN8oUCzZbFwf4hatQme07N0zRjWL3UMGu91fQqyXvJkfsSjgVUpYP9sQvCJinSy1ay5BLxcX7cy009QWIIFz+J5Hucjr6e55HLFzo7eFAvUMhYbZ/MEKCaxY73TOpH06Z2vOhfSNvtdsfa6HiZGgXIFEWhXKoNLGqxPBrctoMgGho1SZIEevaUN+Io5zyLdUtRFFotk2QyQRiGRJHoSJdlZEVCQkLXH1FLkRluNHzPRRlSciEBkSOIgojF0uIpkOn6N/Zk8FJf9DWiX60VWufsKiMazRZhKJBmrFAL0hbCWiKfy3Aj8QS1eot2vU1bsvGVNpEakPEWKaTzcS2oJFE+qlGTDzv1UhO+s40c6USag9IRNafCW2+/SaPUYmGzwN957e+Rz+SoNyxuPLZOFEUcHpZ4rkPx+b7P9vYOL734/Ck2pVRpsdJH+R3VbZZX4tqr2x9to0fWQNpmFk7ox+uqfQqkGvX6mXWuuVwOZVehoTVorDZmB1TyBKo1fYJEr+IpkIgL2Lq037BoalI+IgjCXv+WcSiVUEDigh4qQRDAkJfpk6BMt21nqjq0IAzjluHDdtoX7AvqTkS9afZojlEjKmUGkWoqFQsqCue027Ysp2dKKklxjQ8MFv7Wa+dRKfMNqcalTR3bJghDojBEiLjVzVniIlVVKRQXqNeqc6hRHCX8iKXufhBSsWb7IgkloiGXOChppJPJWBC0vEgqtclRpY7n+2xcWo6btO4cUHIPCDMm0RQdjbVWhq3iJfK5DB/f2+Gj/ffYeTvuYvulX3+NG+tPYDkexXysLvz4zl2uXbva+/k7d+5x86nTrjy1WotMX92m5XhoiSTrq0vc295DwyWXPZ22mcYJ/dSG8xQDZ54b3KTTadKkUXYVqluj53HVw4P9XkV+979RGKvJxo2m2u02d9fvjH3Bchgv9D/6i78kiiIuX9pioTi8q6Q8gUAhtjIaDaj6G9dFgnMFEee1nZDlR9nPjZm4uk+6hEQCUskEyYQx1n2aJfV30XH7nSVynf4/1WqTVsvs26Sc/E4FEMiKjKoqWJY9N4p1mH2VZZqEUdhThHYjH1mOnRk0VQFVGeG7H3K0KMdAqsjyXNrR+xmLg/AjZEtH9nRsL0faTiMDSwsxZbZX3aOdbhDp/lTHUtoGBVbIZdMclirste9wq5OX+txvvsyLVz7L8vICtY/3WFkqIoSg1TK5/ti13kbY9bxTJThhGFCuHkdTYSSoNNusrmY4LFWwLRNF+JzVjmISJ/T+0TJN1k503jgql0bGjHGpQDWdTs8sZzpuW4/e7js0OkB1UTQ1YTt0ISb66EVAFUURZ6130kMGqm601D8eyu74jHusJzR0XRtr7qmyCjOyT5xE+biwkKNabQ4tO7Ase8CpohtxTaKAHY228zk8qBI3SZaR5E4rGkWenhbu5L/EQ8oJCknQ7GwIpDn5CkZKSJRyIOXg0aARqKRaSywtFalU6ziFyki1WefOsVAm214mmTbY3StR7+SlojDi8Vev8vwLr6DrGrt7RywXY2bi7t1trl290vuO+M+Xh0dTieM5fFBp8di1S5imzUGphOI3RwKNSajAVqvF2sbmqb8Px7TNG4cKVMMwQp2RjHpS2bMkS/zlz/+KeqPB0uLpAt/uGLeGahidd/FOWxqkms4BnDAMkYcstZY1+xqq8SMGiUJxoW/RrD0y0ZwQoMgysiyjnADTWq1GuVxGVVU0TUPTNFQ1luXrhkI4ow7xQeD3JOT9xb9IxI0cpTgakbqFwB3/ubPKI6aJoD3PH/Ab7Br2XnQP+90wZosp0hy+czzqDyCdTFJuPhgOPVIDQik47hcWSaBMdwMSzSJb62sIBIfmAW+/+wvqB00Kazm+8NVXWG5cIpkwqDUcrmytxO9pvc61a1d6G2HLPt2GIwwGo6lqw2ZlZZl8LsP+fhk1ssmOwYaNSwUmhhSTHx7sT+TBOioVqAahGIUNGGk0jcnkj7qi96Kpm+dEU7qmUa1U+hwElIHOtGcD6Fho2wdw5y9AUTg8oorbfTzciEpWFJrNxsQ/3263e84dkiSNZXV00QhF7Ln25pt/RTJh8PzzcZL4rbfe4utf/3rHEivAMOIW7aqq8uUvf5lXP/uFmYLlWPSngGqleTbhOcYccxyHZCpB18VjYXFwUalU6vyvPIQcYSg6qVQC6g/uPQpFwOFhBbvtIunT1W9prQwLyUVUVWV77z73Sh+w/cuY5vrC77zCk9YLFFYW8QJYXoxzpXfvbXP1Wl80dW+bq8OiqfpxNGW3fSw3Ih0J7ty7j65EeBNg+6hUoGXbrKyuDWG6pntOF1GBM2ss4zgOjY3xF8Z0Lc3O7h7bO7ukUkmeePyxcz9/cnFpNupEUdSn2joNYOPUUPUDkxDnU3hBGA1VoT0KfahORXRjnI/n+wPRWEwlWkCECCPCKG5+KMsSlhVbKI2z6AshYkWnEPyH//AfeP311/nSl77Et7/9bV577TVeeeUV/vN//s+89tpr5PN5vv71r7O+vj5VW5FZRP/nKQHH6Z3UNVc9awyjt4/d2sUjn/+cRUQVhCG+H8wlR3X2cSMWFnLITYtmJIMyGc+stA0WlTVUVeXuzh77/h3e/X6cl3r1N1/gjatvsFtusZ5KUtmr8OT1zc4GpcrVK8fA1Gg0eeza1XOjqYbl8emb19ndO8SxTCKnPnXrjrPA6qzWHfv3d6c65ihUoKrPSP45aX5K9VR+9Bc/vDCaOnvxGC4v6wcwVRsdjxVF7YtKzr83QRiiSGdsvz/RW1oxZIOQRtOGX1flqD7210sSPPPc8/xfmxt897vfpdFoUK/XuXnzJsViEUmSWFxcZHNzk8cff5zd3V0uX7k29qVYloOmqadAZtaGweN83UX5S2UoxSFY7etLdHhQmd96LT3keSxHtBpWPE/EgwNlIcWlC5qqQDBhGiOUKfirbGwu02i0sLQK73zvXUI/5LGXr/D0rzxJq+mSSCS5t3PISqch4vb2zmBu6txoKr4nR3WL9fXVWLhjWshecyaAMQyszmrdUT06mskxT1GB9xWqm8dUoOpECVKKOxNBxcvBq8B4vk61/QZvvXsLOF9EMSsAuyiS6ObAIui1fj4TqPwITX6wNVQPBqfGPP8xrXgiAfWGSSQkNjc3+d3f/V3a7TaJRIJ6vc7GxgaKohAEcc7Add0p6j4EC4s5TMuBjtwcIVBnxXf3gW+3pqx7/4QQQ8UUnutTrzV7rUoG8lOd30qyjNEHrieB9UFEVfM4huf7cZ5PPQ8wBIahs7JcpLZdwX1QE1+OMC0H3wsm7i6sWmkyqQy202a3vss7771Fba9ObiXLF37nZV4OXmXPNnnqySt8vHPA0mJMuZXKR1y+fGzoejK6OhlNtd0AxxO0XZfbH++QS2t4kkGrNRvT2WKxSLPZJAzDTuuO4eup57kX2o3NYqib64vc36+QVtyZLG6H+3s8pl9nYXFpJMB666fv9aKpWZltTjr6bY+iSKBd4ErhByHDTvmT3t1jHJwyTWdgQR3pPkeQSiWo1e24ZYKikEqleOaZzaKvEwAAIABJREFUZ3jzzTe5fv06ly9f5r/8l//CxsYGH374IX/zi1+c0Ocxfhj9bT0sy+lIyWc3hokfLGu48iM5icXYiUklzbHX2fGxpAHGJC4KF33z4+Sf+6nJ4wJwSZJoKU0iJaJdvHidEZLoBXOypDy4iS8JnLYbz7MJX+KcKCLLEnv7ZbZrt7n35i4AX/jqy3xe/Rs4rk8qnaJSa7HUMZ7d2b3P1b5oantn9xRIAVT7oqlqq83NJ6+xf3hE4DosLGRIJxY70fb+2LZ3Z1FxEOetVFWlXqsOpARKY3rAjjpKVumUsELN5fNYjofdDDDrR1MdYHf7Xm/nWz48YDPYRFFUqqkK5sJp12HX9vj5m7+Mo6knn3gEFujBGir9omLfMGSYXeIkZp8Pewy+lwJNE6d6HJ0F7uPuvAWCTDoVA1XfgV9//XUsyyKVSvH6669jGAalUomvfOUrXL5yhWbTHFudPlTsEkSfuDzP6fOV5qjKO34mYRT3XsrmJi8M/VD5YOzDe4FHpdYgDB4cOyHkiFwmjUBMpDZUnNjyKJNO8uHe+9zq5KVe+QfP8RvXfwOAequNohsELZsnr8d1SPv7B3zmlZd633N4WOKVl188FU0ddaKpasNmdXUZw9CxLIvVhUFB2STChvM6p/ezGaWD/V4Lp3n022s2m1SuDNLasq/GAXg+m6JaqZ46qXFHrU8C3V+gliaFuWNiSdYAUr73/dtEUcSVS1sUC4VHajEQJ17YcegxWflkJ7u713ZWTqp/OI57Ztv1c+40nucTieMOv7Zts7u7y40bcQW+rut8+ctfBuCdd97h448/plhcxLadgZfkvOjENK1OAaWFJB13+A2jcK5AFcvN4w7GrusezyNpEAj6Z9dFlk2GoQ90EVaU+YfthRl6wo07QhGSNHQSmoH9oOa9FPtUKooyUZsXrZ3GyGvUmya//Nmb+G7AtRcu8eyv3YSgw8AkUySSKZJG/Lzv398byE3t3t87N5ry/BCzHZLyAz6+s0vGUAbm0aTCBlXTMC3rwkgsnU6zf3+XIAiQJKkzv+PcnhBiKqeLVqt1SvWn2CmWzasxUOm6jqonkfz5cY2ZTIZWe7AlxXvfvw3A1rX1XoFqt4r+oVB/fdSS1AdX4wzLsojCELRH2ytuhq/3RD9RrTXith0dwAnDkP/+3/87b7zxBjdvxr13Dg4O+MY3vsG9e/f4/d//fSRJOqUu7LZi7984dH870OizIy8XxG0RQj2CPtoqfvbSQHQZ9/pK9I5zVu6xi3nJVHKo3Hy0eeP0G8TQ854Q8QUJGLDDKRZz1GsWruvOxGXk7Oj6IUX4cqwkVWsKcihPZWE0+kEjGg2z4zg+3kZGDlRyaoFG0+SHP/kBlb0qmcV0Ly8FUGu1Wd/YoFwzubSx1AOmVz9z3Mbj/u4er/a19TgZTe2VbZ66cY1ypYZjm6wtZgeinUlAyjRNVjsuE/VajbZjn0vpnXWM2hS1mpZlsXt5t+9RyKjNLCv+FRYXCjFQqZqGQO65hs9tl6QfEzcf/vgOZtUmt5Il9ekkFY7DvWQziRIoGIHeK7h8EPmrWeyy0+k0dc/lkzIsy0KW5YHFbjxKaYKdp6axurLI7l6lB1TZbJYXXniBr3/96/z2b/82Ozs7fOtb3+Lq1at87Wtf4/Lly9Rrp8sfxsn3dKOWwA9YWro4gu+KI7pAdl6zRdfzTrWjH2/ejP+z6Uymt6Oddriu2/M2lOWHj1QhQQeQ87QPN7ATVYL0fGMrIQk0TSWZTFCuj3cPFCfB0mKB9z94nw864rAvfPVlvmD8zXj+CIHdDqjWj3NTe3v7A9HU/v7BUKVfN5qqtxyWVpZIJg1M0+q5WUDcjik9QV7qpMtEoViEYpG93Z2poqNxhuM41I165z4mUVsZlqQ11ldXyOfSfHB7+1h7k07ruOF0YHAeZ9lut2mtt05FU5c+fdqFwsnF9E5/VivZSqAE8e5Ki/QOqIiZ2gKNY3t03rVKnyA1hRCCZDLZixi6rUP29srnwlLs2iBPtPuW5bizbzI1GDn/6q/+KolEgv/0n/4Ta2tr/KN/9I948cUXkSQpjoLCgAdBqlarTRRFHoigLlRCPjQbh9GP67ouURTFLvRd1w1FQVVU8oX50HyHtX0yShrfCHBTo4OqYzS4u3MfTdVYXiwiRIH92gFupkGk+fO5lZJAVZS40Lg23sROBnlc1+G73/k2AC/9vWfY+tQ6Hbyl3nJYX1vGdHyKhThaube9y+c++0rvO+7c3ebzn/vM0GiqmJI4cgKMVMjde3skVQZcXcZtx9Qdxhnr58bWpZnVR503Go0GqXSG5nKTpdITrOZXMFZ02m2XTDrJ/mGFEjvHQJVK6EhhDqtWGru1+SgRSX/7j/u3DijdqWCkDTaeWhtt4mZPN/pbPlrGtp2hfZm6tjfjANnJHj+TeJ05jv3Q1YuTjEmUaF1w65qvnnW/usoviFuARKqM7bRxbZsD1+7ZJSmKwlNPPcVXvvIV/vzP//wUHyUrclw3MHXkfP4iFPgBupYciHIumgsPC6dkWcZxnD5Fnhh675Op1NzA6NyFEIOEloAI2kfxfHFVl1ALhr7TvfUi4VLTd9GaGQxvg6WlIsmkwc7uIY5Rx8+ac7iZAs8P4kLjMRo2Ku0EST3B//eNb9But7ny3CbP/2+f7lF+AH4oIykqq0txVL5/cDjg4Xd4WBrq6deNpsq1FjeuX6XeaNFqNthYPgaQw4kpP4vV9fUz/319c4vS4QESnDLFHXofzmHkms1mZ5MkevNSVVXy+Ty2EwcmNy5fJ5tJUT6qUapU+aj5IUG2RbjUPgaqhKHTaoqJ+kl1Q8jzblbYBwLnRVPjRXAXOyKcB2RxDuL457W+mpdJY6JZeieOM3zf70tviAeS55sE3MIIAklDliS2t+/y7W//2dAFNooi/viP/5irV6+i6zr/+B//4/hFiFTCKERTNVRNQ5IkfM8jDAMSiRS2PcICNmXAexKUvI50exSV5BzCgAufQ7vtkkymHviZObY9sFHs/j5F/M61j1yEiLASNk72dBNFIUd4hSb32y6NnSYJNcniYgFVXuSgdoCVqhHp3szOV0gRttPutNca/R3W2ik+vvc+uzs7pPNpvvDVVwZAqu1F5PNZwjAi33Hiv3v3Hp/77GcGoqnPnshNBZ1oKiH7FBcWSKeTbO/us9JH+dVrtYmk6GcZy54cXbukUaKrXC5Hq9VCUZQYRyQp9kO9oBOH78XPcHt3HzNqYhkVgnUTIR9jRg+odF3DD8TEnUMv+rluDUxtv8HdN3dBgq1Pb8yNauxFiiMAGQjCKGJ5eWVCUqXvPoQhzBioHMdB142+RVbqUG5S94+n5MP1Wu1CY9OHQVMKAYmkgW7o3HjySZ566kl83x/45Xle75fruvi+j2EY+H4AhITtAFlRUBS1B3CREPi+j24k8Nz2VNc8zj3pFolbpslDGY8wy+z7/rlqxu78TJKkXqnTWjTPjK4axh52K4virlNYXmBT3aB8lKTZruBnW7O5D5IgZRisrixS366NVGgshwqtA5Mf/jB21/nC77xEMpfoUX4AsmagaCqZTlRSKpUHrJHK5SMubZ1eC2v1FilDotbwWUzC9s4+uhwNdB1vOzbaBLVM8ph6hPXNLSrl0kgM1XKfF2CtUrlQ0SpJEgu7C+xu/eLMz/SAStM0/HBya/+LgKqttU9EUxtoCfWhv0xdIGu33ZnwOTNpET5kpMd0Jh51re0uyqNe6rS4Fiv9YnpNltUeXx9vGuwexRAEAYeHh2QyGfL5fAxabQfCePfltp34zwMLozvWNc9k9e/cuPQEztGzov4e1REE/sidkgtGAb1kUFmpnPlI/FyLA8+ludsgrWZYWiywTJG9o0NsvTb4YTH4wwMdO86SnguJsKMuVCINrZk9//OAZ7v85Mc/AODlv/0Kl54ZBJwQBd3Q+df/+v/m//l3/w6Ao0qVT918sveZu/e2T9VNdaOpyLe5fu0SpuVQrlbZ7Kf89icvuE2nUhzs3ccwEhRPtLc/Rds1Gvi+NxLbdjLPX1xc5Kh0eG46KZfLwQV+5gNIkUzotJ35yKpDNcS1Pd77/kcAbJ1D+z0RHnezPLdYcIbRQH+x7zQb1bhh3eyjkFarSTY7Og89alTQ/7njGqX+f4ujN0nqaz0+BVUbCWiZNpbtDnxXq9Xi3//7f88f/MEfUCgU+OM//mP29vZQVZWvfvWrXLt2jSgMkcX0G4GLclTSWDj1cO2yHmXhzrggmkolkY+WcRQbszi8VX2ke5j6Ia5pQgNWlxdZyi8QBHlSyQRhFFGrNVko5lBUGcdx8f2AfC4DSNQbTZLJBAlDx/U8HMelWIjfq2qtQT6fIYoEq0vLtNs5isUcElAq1ygWcmiaimU7BEFAIZ/jv/23/xfHsXn88Sd54e/fJMIboP0cN0AJHX7+s5/xzW9+k7/1t1/j8qUt3nvvPXRdZ2Njg+vXrw2NpjQpRMvmyWbT7B2UWS7EFF/pYB9dNwbLLyYY2WwW2z5WUjbqNXzfJwxCoihunqt0XGMUw4BRcu9CUDo46HSRjjrtcTJTz5UBoEolNVxzciFAs9k888QCPYgLfMOIlWtLZBamt/iQZgwGp/5ughOYxw43lUoOj/imHJ7vo6rxFPA8j4ULdlZdGjLOKUUdr7qIMAhHohmFiCOqhYU8QRB2qLx4fPBBvCEpFotsb29z9+5d/sW/+Bf84he/4Jvf/Cb/9J/+IdKMTFLlC5xDxrEnesg4deG1XDTO2gj2bxYnGSfzU6OORMIggYF8JNNcap1NK2YsysE9mvfrpOQshXwWiOlfVVNAivPFruujqgp+EBKFIa7nk0wYuJ5Pu+0RRhFO2wUh8IOQlungaj5BEGI77Z4nZCQiqvUGCUMnCiNMy+bnP/8Zt2/fJpPJ8Pnf+DyRPhjhu16AH8qks2n+5b/8l/zJn/wJV69e5b/+1//KD37wA5rNJp/5zGf4vd/7PRZefvlUNOW2XRaSSXbvHyJHPrqWonR4QDqdptVqoWnZGawtKQ7391AUhWQyiTpliVJmQmahuw6NHFHVFZ1J2qjqhtFLvB3u7w2csOM4WBvWSNHUqMOwjZn2SJoVVM7DPslxnLEpxSAILhRUBH4wdrHosBC+UR+90E9EYOgqQRAORC7lcplLly6hKAqlUonLly+zubmJEILvfOc7BGN2D50GiMYxJE0kDOq1KppuTFTHMv21XDzf2pLDh0r5gZ6X53sYUwh68ok8Wkk/mwokbnboFCv4tk3DPhz4t6NWh7GTRLycWZ3X1RDU+/d8MpQ7KU2hd3anXmf3kYRa0Nmyaj0uL/7+WoWf/fRNAD73f7yM9vhpMUi91SZXWCSdNHjjjTe4dOkyH3zwAfv7+/zH//gf2dnZ4Y/+6I/4Z//sn/GZz3yGr33ta7z00kvYjosUBVy9sonn+ezvH7C1ku9sTI7rDmc1Mg+Jth58jxLkSjmaK82LgcowdPxAkJwAVD3XZW93h42tS6eiijAMOwW+FvmVLIuXiiPRfucNN+XSOGqgRXqPruk30xxlh38hHTTBbllRZ180LUkSi0vLc4g3xczOb2RqVIDT9mi3XTTt+F6l02nu3r2L7/vs7u6yshILW0zTxDCMzjHOP99Y4SkulMorikLJcY87+yoyckfGHUWCMIwIw3BATXfeNcqK8lBAqrsjbjUbj8CmbXCEQQBTKk9TqSRKZRlbPpsKBAhSzgO9NtdyeeeHcVHv869/issvH4sHurRfGEagagRRRDIZr0XrGxv823/7R/zmb/4m165d48c//gnPPfccv/Vbv9UDrH/1r/4Vzz7/CnpCp5DP8uFH2yzl47n1IOqaHuZQfXW0iErTNCRFgwmM9RVFQZYVzFbzlOY+iiJ2vhfveF761AtT0xI9qrFDDZwEt0Zjkg6p0qk/TtKoL+5nNVs+aF55iJkJP6RxqDJBFIYEYUTCOF5cn376ab773e/yb/7NvyGKIr72ta8RhiE/+MEPeO6554iEwDJNRF8OsL8+S5almVsJjQJ8tm2jqA9XFPSw82TDN36zYRYMw8AYgQp8UCMKIn75P27Rbrls3lzjpd94dujnaq02kdBYLMaRj2VZpNMpVFWlUChQr9f51rf+J3/4h3/Iiy++yOuvv04Yhnz+81/gsFxH0xTu75eI/DaJdJrD/f2/1iAFkAySowGVLMuomg5iPKDq1lA1m00CP0A70ajw7vYOd+7eJZNO89SNG2cyi2O7LJ9JL43/4k7SNkE6gxpr1GszLfo1DIN6Lf7O5AiFd44z2g5TdCKWaWnJcQQWkixTLOZBag30+yoWi/zzf/7PuXPnDktLS2xtbRGGIZlMhi9+8YuICNLp1MzyVKPu6LvjrJYdsiyTzz9cQ+VZA9W0+Sl7wvzURVSgXtaxEta5hcLzHr/4H+9SP2iysFXgb//B586O8lBIp5NkO7ZajtNmaWmRf/JP/gnXr19nZ2eH7e1tnnrqKXzf58033+RXf/VXadkexUIWIQS7u3tcWs1Tq1amFk58EsZ5m5tTW8FM2qDdbDFO49/uzvwsxP/Zm7E+/tOfujnWC/JEeGNC8Br/xQ08b+yvOSsdNQ+JeiJhjJW4HyW6kDjmpz1vssLJZDJJtXJ06pqHFVR3gQrAddskjGOePQxDbNvm+eefB+DWrVvs7+/z+c9/nrW1NRoNk4fbOVmaOpr8XyWi8j1vLs30kskkSZLUqvWhbYPmPd7+s/c5ulclXUzxK//nFzDSg5vRLu3XMF1SqTTr/z97bx4kWX3d+X7ulvtWa3dXVTdNi7URm4RZBAghaEloRYDNIguMsCR7nuQJW5Ido+eRl5hxzNPI40VhbI+wPGEbpHBoYt6TmEEzCBCLWARiX5qGBrq7umvNyv3ezLv8fu+Pm5mVWZVZuVZ3I+kXURSVncvNe3/3fM/5nnO+Z8toPTJ/4YUX2LZtK5deemlVykoSjUb5+te/jhCC1157jT/5kz+lbDtMbRnljbcOM5b0ndJKuTxQte3bZW2kbLHO1EZCASp2b8UUGxnmhcUlXnrlVRRFYftU70UU/Xh3/dy2wVB4SO80/Eow23FwPdFVNHWsViwWa/qJRCJVDUEL0zQpFosUi0Ucx6NQMJmfO8J//+/fo1z2veMnn3ySu+++G9d1efXVV7nrrrt4+umn+fu//3sOHDgAinJMe1vb4dHx0Md0vAGV57mb+v4jgRRji6NDjSDX/kwXZtiS2cL40hjxdIz9Dxxgbt8CelDnis9eTGKyfTGDYgSJRkJ1artQLPDDH97D3XffDcDScpqpqW187WtfY3l5mXQ6zTe/+U08qeF5LnPzy1TMIpGQwcLckU0ZTng8rnA4THw53l1EFQoGUPqs/Gu1Hvvpk4A/Zj6RiJPPZXFdD13Xq+oCWkdtwV4jq36ov7VortCNrNzRM51HszInm82QqurCNf5/qVQkGo01/X+pVNzwPKy9tpZnEAwZnHDiibz88kt897vf5ZprruG5557j5JNPRtd1XnzxRc466yyuu+46vvOd7/DMM8/w/is+0PXx+0rgjU6DrDsetcd7yWdZVrnl82sge+yB6u1D4QxrRSIRlCWFUtCsi1gP6uA2OYeVil+QZRi8+vx+3th7AICrr/4QOyLT5Mi13nuOJJlIUCzkgCSmaaJrOldddRV/8id/wm233UY4FEJVVc4991y+8Y1v4Loumm6QL5gkE3EOHJxlx5Yk6aXF46Ii72gu3da7AyojYCBVfShAZZXLPPrEKlCBP/uquRhIkstm6iMGFFVBwRcg1VSt3vFf23jDymOtNWytBDv7uf8tyxx6Uj9gGFiWual6bYFAgJV0mtoo8ZV0GlVVcF2XbMYfdum6bl2Xy3XdanOg2/V4GClBNzT/+yg273jHO3j88ccpFArkcrl6pd/i4iJnnnkmiqIwOTnJ7Oxs9wbGdhjrMMLDpxGHEbEox3S44GaswfNTpaHnpzpRgY3yS4Me/9q7/+VX9/H0c/4U8pt+7VredZZfPJE6nMJ1XcyASWZbZrXJVw/wxOOP8rd/ezsXX3wxH/vYx9m9+3TOP/98UqkUf/7nf46qqmQyGd58801UVeULX/gC57z7ArZMjHDg0Byj8eqAT8/jF22F7TAZMp2BStd1FE3HNDNdKeZuGE098aQ/wXfHdkZS7WebbFR4kM/nEJ6oN5hOqOOYukkpZfZM02xkQLOZTLPR6VwNjdriSeFwpGudvT7um65XuVzp+Rj6AtgeikZENdp1XY8Xnn+Wp556ko9//ONMTU2xdetWnnvuOSKRCG+88QZ79uwB/OGJyWSya3orEDAo5EvEE9ENqCmBpmo97Y/jlfbr36XanOXnp7rfExuNQO92+fJLAUbHxofyHQqFPKFQiP1vvsXjP33Kj6Q++mHedfZZTREdQIIEqbkUOSNDMBJH6kGuuPIKDEPnW9/6Fo888giXXnopn/zkJ/nQhz7Ed77zHS699FJOOeUULrjgAiYmJrjwoovJ5IosLLoU87n6MMTjsZqz2Sm3cBx/5MqwKhLb3VMt46xIKEixKAd+80frtN9JA0UTrMkjFuXGHnGv5dxSCkZGx9aRev0oU8DmFFOIHjZtOBzGMjsPmTvqgrQCPASWVSE1kuLWW2+tD2fbs2cP3/72t/npT3/KmWeeyYknnshrr73GT3/6U770pS/h9uBdet7G57/36yOPa6A6nvT+Op371lGYPyZmkF60SMR3EBVVGbgK07FtFhaXePARX2j2A1dcziUXXdD2+a7rMjYxydxykXAsSMAwuPLKKzn33Hfx9NM/44477uCRRx5h9+7dqKrKLbfcwkknnVR/7cJSjkQszJtvzbJ9MtFFJH9sVqFQQFEUpPRZl8mtfs3BkdlDw6P+9C6pP4BIOEBe0Qe6UV597XWy2RwT42NMb9s21BOmuZ2OrVegavMenar+2jShbsqE1E3YtEcbqASSRCJKJBJix46dRMOrnve2bdv4/d//fSzLIh6PoygKu3bt4hOf+AQ7duwgncl3byw7Kvn3ei7bAJV2vADE8aP31ytoqqpWj+QHja5qDMJKOt2VHFi7lc3leODBhwG49D0X8oH3v68zuLkeqhGqj5i3rDKBYIA9e/Zw+eWXc99993HHHXcwNzfHv/zLv/DZz36W6elpcnmTWCxMIV9gJB6q245BBGcHXaVSCdd1kVKiGwaBgN9w324siD7EisRwOEwsHaO4Rkm/pcUPB41qQUXnlc/nW4Z9r77mq6TPTE0N9SSapslIJEU0E0VWB3GtiHR94qymaz1Tf217qPrEhtTIKNnMylC5+lqI/XY2cFKApmoIKeoit2tvkEKhQKlUQtd1dF3n/PPPx3EcNFXtOmvqOi4L8ytVMKZhJIqCotI0uXcQH8HP32WOfZ5qSJdx0PxOqVTqiW5uVMsHv2BoGFRgJOL3MkqoFwJ1u2ZnD/HIYz/FcV3efc7ZfOIjV3VmfYJBMoUKkViSQMA3qcVSibt/8H3i8TjXXXcd73nPxbzvfe/jxz/+MXfccQe//du/zde+9jWmZk5ECI/Mykp9GOLR7psqFosIIarRjMLk1m0U8rl1o4Pa3x/DdaIN2+guogoEAyhdFlS0o1Fefc3X9ZueGm40Vfu8jfoKehVWbFf43I0yhWxjJ4QY7sULhYKkl5fWSSmZpoldqfhHW90wUnbZR3WUHXGJpGSaKCo8+dPHOe3UU5ma9r20xx57jDvvvLMe+geDQSqVCtFolOuuvZadJ3ZPH0ejG+dWe+3FbncjBgyDslfhWC9VOT4iO8exfZXtHu/lxhWLxYZCBdbyZL1EV+VKhYcffZxiqcTpp57Cjb96TVfgPLFlK4dXKkynVnsSH374Ie69915++7d/G9d1efbZZ5mdPcQll1zCXXfdxSOPPMKpp55O2XY5eOgwMxOr0dPR6pvyRcQ1tmxbH0x0C1JA18VU3a6YG1tXUNESqAzDQKpGV0DV6iZOr6ywsLhIKBhkcmKc4321jKg6M38bOrKbQf+11nOTG3qxtcGQ7WSAisUiqqpWJfm1DZ/bSBnWpIt6KcAQwgdcRVFIp9P8xV/+Jddffz0nnXQSjz32GL/+67/O9PQ03//+9/ngBz9IsVjkgQceIJFMcjwVDKw9/7WqyJp3HYkcZRWB42TUh/CGk5utRVnDiq7yuSxCyI6R7z3/+/+QyeY4Ycd2br7x+u6id9dlpVAhmYiRiPvHnc3m+Ic77uCLX/wil156KT/84f/my1/+Ejt37uS73/0ut99+O++97DLSmSKeY5OKButTwY9W35RpmmybnhnKe41PTLI4Pzc0vctWtkdvZ4hC4RDlQrYv+mqzoqnasQ179VIB1j3logx5Y1ktAVVK2cFQya6qN4vFYl9Vf+VyGSFEk3esKAqqqq7roRIS4rEI5YrNBz/0EU466SSeeuopRkdHcV2XM844g0AggKIoTE1NEQ6H6+Xro6PHp8Oz9v6wymU812u6/ArKmu3QIoZXmv9HWft3m+eGw2G0t2lRh9rhvhsWFVibIrCSThMMBlsOufzfP7qPufkFJsbHufnGX1snA9c2cguFqXgqO7f6UVulUqFQ8McdnX322WSzWe68807+9E//lA9/+MN8+tOf5tlnn+XieArPdVhaWq4PQ0wvLx29vqkh29FhltK3itDaXg1DlYhghEIhh6qqLQ1Pe6Dy81PDLqLo52bo6j3bhq6y47VuR/2pQwqHTdOq5t9gZGS010Nks/NQGzkyvqirqFcJOUJHCIlVtnFdj3POOYfTTz+dfD6PlBLLstA0DUVR6uPnK5XK0K65ZZWrlKysg3w3/HovsVz4KPUQ1Y6skM9Vb+7BztHg+aniQPmpjcDKNC2E8IYSXcH6VpQfP/wI+994k2gkwi03/RrJLkutTdPEiI4S0oIEqsC2sLDE5OQk5XKjYMHTAAAgAElEQVSZ//pf/yuzs7MkEnGuvvpqXNclHo+TGhmhXLE5fGSB6fHV7+Q6Tu+8dJ+U37Ciqc0IICKRCNFMlFKDYn5boEomYsxm02xrqPQo5HO4rovn+UPIajd5oVCoT4IE2Pe6H1FNTW0dergaGbKMkG3bJFqUsyp0U2jX/uLoQ1LUVlWF1Mgob8dVMwymaTE6NsZyzmQ5ncG0KgSqoztCoRChUIjJyUmeeuoprrzySgKBAP/6r/9KKpXCNE2mp6b85sqS1RU12UxP+tdJVZWmsR29rEKheNye4+NlvIdjO2ihwfJTnfbRMKIr37kKkllJYwQCvPjyXl5+ZS+qonDLTdezdcuWrt/Hb4CXnLRrvMouVDACBvF4nG984xvcddddjI9P8KUv/R6qqvKDH/yAgwcPsnv3O6nYHslogEB11M2R2UP1Vo3NXKVSaeggNeyICsCoGN1FVKFggEis2YB3SrDlczleefVVHMdhbHQEpXrxVE0dSnJwU/qTNip6GCAtEolEyOeyHYcXDvqdOxV8tMuV+ROD5VHq1ZD1aHjL5DhH5pbWHfWv/uqvomkagUCAj3/849x3331ks1k++tGPkkgkyGbzRKNhfrmOz7UZ92Y7KrCxpL3fFQ6HeeGlV3i6Kph93dUfZ9eJO3u0phFisSjhkH+P53I5RlJJVlZWOPvsszn5lFNQq87YN77xDZ544gn+8A//ENeTzB05zI6tflS3vLR4VEBqmEzPumsz5Lya6qpdUn8BA8frzYglkklmj8wDsPOEE5qaaIvFAp7rIaVACImq+nmMQQ35wCZUir5xSqk9aVMbf5UOx9/+KMvlcltqzggEmpKfS0uL66LXVcqtOW9Si1S6vXa191EVFVVVkAiUNVuv0VOemJjghhtuaIp6leOnVeiXa4NrvFnPX7tPBo2u9r2+nyeffgaAj131Qc484/SeXm9ZFkIfYXrraD26euWVV/jLv/wLstksZ5xxBp/73Oc5u6pmMTU1xe/93u9x9jnv4uCheQxp1wfNiqMklZTL5Zia2b5JdnS4Dm/YC3cHVJqm4aFguxJNVVDV7rIdr+zdC8D2mek1GyzeNhT1PBfhCYTw6on4VjIsm1FIMcj57XQ0wy5R7xVNN9o8tZHWtfJ2pYUh6UQ5disVVfPiXCHIF0p4rocRbI6w8/k8Tz/9NJlMpqoHufpzxhlnoCoKgl+uzVgD56eKm5Of6ia66gesDhw8xCOPPQHARz/0AS675D09v0dFBtkyMUIg4O/jubl5vv71/4cPfOADnHPOOXzve9/jC1/4v/j85z/PDTfcwE033YSUkkNHlinllphIRYHwUZvaWygUNg2kwO8dHeZ3WVtQsWEiZetEikrFpuJ62GUP23FBSlQFNNWnlTRl9Xcmu8LhI3MEg0GmuiykaFfSaFkmruv5IwOqgrXgj7wYbo+B7AuEmkKMdv88hBL1Tti8EfW3IQhX31gKQSgUpFh0ej4D3Zbge66LqIrdCiGQiKZKtXK5zN/93d+Rz+fZvn07juPUKwmllJx22mmIo1SeblkW4Uho0x2k42m9pu0bCKwcx0HTNic/1R0VqHYNfPMLi9z/0CMAvP+yS3nfpRf3/LmeVAnF4myZSFX3b4VXXnmZWCzG5z73eSKRMKefvpvHHnuUP/uzP+Pxxx/n3/7bf8vUzA5y2VwVpKos1FGa2ns0BG5VdXi0YjQaJZKLYCbNzkA1moq39NKFEPWCCtf1cD0PxxW8UtX227Ztmqwpqgfve++qAmpVJUBT/KGD6gYzhjZSCi8U8niuV+39GYxC3OjkDlpQN4wJSoMZydbfwHYcEtV8o5CSfraXZVk9nXPhQSgYJJWMk8vmacS4vXv34nkeX/nKV9Zx9VJKv+Q3nz8qOhpCQKVio2lavdpVUY4fLb1+t0E87UceUmncu9XqR0VyRJlFIknIpL9zlYb9W1P2UBp2dfU/4XD4qOSnhkEFrmSy3P/Qw0gpufD88/jwB67sL4J0NXZOrbINjz32KH//939PMBikUCgwNzfP6GiKq6++mne/+9381V/9FQ899BAf/fi1qE4BAqGjfp60TcpNDdsxb1xG2YBkFxFVO8OpVedIrQup33oDgNNPP5Xt0xN1UJNC4FU9ZM+TeJ6H6wkqjsAVHsKTKEoV1FCqv2tgtgp0tRWPJ1rSD67rIqTwo7429GFPJ7dTZVk9olHaUF7qEAynYCW9vDGQ9RphNnwv17Ex9HDPICyE13X/jpQgpK9Y7tORsk49gp+DSiaTLRPKiqJg2w7CddF6vA8qtgNS9jRttlawUSgUicdjIHnbF3GkQp1FWvuj4yT5fK7nwobNaDHpRAWWTJMHHnqEcrnC2e88g+s+8bG+PqciDFKpOLGYf66W02ne/e7z2LNnD9/73vf4L//lz7n11s9Qqdhkszm2b9/Of/7P/5lC0WRpKU08Gjome+BoANWwxxBpjtYd9dfreu45v4Jm586dTaCGpnX8oFqRhed5ddrH82Q9WnOq4yF8EFoFMKUaqQXCUUKKDzxqw83nuj6l1Y4u3PCmGZBtGkaJ+iBcflvpn0CAfC7bclR8t9GgEKKnRlMhJGbFwnE9f+ZYg4Nw8skn8/3vf58XXniBXbt2+UM1q9GMqqr+6BlVBbkxfVEqWUSiQRRFRVFhbCxBOp3jl6srF7SvV/VKw5umNfQWk0awKpVKKIrS9Bmu6/HAQ4+Qy+c5+R27+PSNv9YffSZVpB5iettklVXwm90TiTi/9Vu/xXve8x7+43/8j3z5y1/i85//PB/+8IertJsgnSlgeKWBvt8gBSSRSIT5uSNs3Ta1aTuoUinj2PbQ6MzGgoqhAdWLL75IuVxmy5YtfR2ooqj4mKZ1NL41UBNCIDyB6/lUpCsEnidwXFGN0kKogRCOY4P0jarnuigI8GyEkIQ26K3pmBepjQFW2m2O6FBK1IcNVDWwGoRylD3SPUJKEok4uqaRyzlNEVUymeS0007jb//2b4lGowSDQXRdxzAMRkZG+I3fuBWlS68hHo+u8STf5rTdUVqbovjfJhLfzFXLeTca9QceepjFpWWmp7Z1LY3UalnCYHprqn5vzM3P8eMHHmBhYYGLL76Yc889l29/+9v88z//M//wD//Ao48+yh/8wR9g2YLc0hyjicGiKSMQGAishiVx1W6NT0wyd3h2iHtSHT5QrY2mNs3vUxQURaMbZ75GPTqOgyukP+hQAdcV5PImuiJRdAXXk+gteaXO1F831N3bZTXeBF4Hg9JbRaNfDBOsVkgpSnNE9fzzz/Piiy/y6U9/mi1btuB5HrZt+xOEPY8up4MNTHmUSmb9eim/YPXwoVCoGu38fPSq1ajAp597gUOHjzCSSnHzjdf33fRdETrxeJRkwr8/Zmdn+b3f/V2i0Sg7d+7k61//OmeeeSb/4T/8h3p0dccdd6CqGlapyGgiRCaTYaRPpf1isVgXj11JL1Mpl3sOCN5uTlsjI/W2A6peQa1dPi0Rj+C4Ho7tULFtcmUbRUoMTcFQaQNc6+mxTubzqJSoD+nG9gVsq2F3KEQ+nwNZU4LwAWf1/3vzjISQ2I6D63pVynb1/L755puce+65XHTRRS1fn8sVkEL01UsVj0dYSefrZcTtjICiaB1V13/+1+bv1UAwiOt5uI6z6SPrX3zlVV5/402CgQA333Q9Y6P9gYSQCq4WZnrKp/wcx+GeH/6QXbt28Wd/9mfk83l+//d/nyuvvBLLslhYWOCss87iL/7iL5lfyqA5BVBgZGSETCaDqqo9NfgWCoWmWVC1Scbp5WVCPeRfj4bTrCgKpVJpKAK1oVCIxFKC/EQefW5+EUPX0DQdTdfRdQ1D09B0reuk5/LyMm+99RaBQOC4AqqOobSuYegakUiIEfwSTsd2sCo2+bKNGEQ+/Sje/MPbZGuMyhDbAISUOI7ry8zoahP1NzExwSuvvLLhawejm0SH7602FUwoqlqnTZVqZaqUq60ASkO1ap1eXfOYlBJFVVcfw6dLu36sAcx9H2H1s4dpcHzQcOt7uWLb61iJ5i0s6+e0n1yTYQTqedGV9PKm5aueef4FXt77KgDXXf0xtk/3n5sxPYPtU6P1PZtOr3B4dpbp6WlCoRC33347MzMzvO997+Pee+/ln/7pn7jzzjtJZwusLMyRjKw6yrWIqpfoKhQK929+Gp3zRIKV5WVGxzdP4DkSjVG2rOFFVbYfS+nlQgZTKkgUhFQQKMjqb0XR0A2NgKZiGCqGrqHrGrpW/V0FuOMxmuqXJtLCGqGwD1yuOzifPszegqPhDW3SOyOEYHwsRXolh+vYTZ/lui6HDh3iH//xH5mZmcEwDILBIIZhkEgk2DY9gzvAofXaNa+pGuFIFMsyAUkoHEVVFGzHpmyWCIXDBAJBX0jXNJFIwpHqc2wbyywRikQIBvyq00qlTNmyCIXDBIN+FGE7NmXLIhAMEQqHUFBwHYdy2UILBAmGw6iKgud5/o2v+AZLVVXyuezwHAgh+hr8aJlmX59Xtsw6UI2OjZPLZauVmcMTY3157z6eee4FAH79+us4YXv/2na20JmamkRTqdPRIyMpLrzwQv7lX/6FH/zgB+zfv58/+qM/QtM0FhcXSaVSOI7LyvJKE0g1rpGREbJZ/zqmUu2rMoulElu2bmsbnfbiCFuWxfjklk21IYlkcqgqFWE3XKUBFbExNAsQQsGxFSoNICYawO3hRx71T/7oBItLGTRNQdf8ii1NU9Gqv1W1GqW9Tfh/Xd8YZDwJnguKIdGUzStRPxprI7ml4SwVpWp4VUVpyjE6jsPMzAylUonnn38eu+rVSynZsWMHn7h6putiiv6ASlljvL161OR5HqVCvq7qrmkGZcvCrlR8xQ0FhOtRbHiOrhtULAun9pwq/VmpVHBdF0VRkEKClHiug1XtOfRc1292kIKy5Q8PrDVqaqqGbdt+EYyiDCap0nhu+ozOwhtoWZqmVZ2s3NS0VW1BUVlJL9fpq2RVEHolnR5Kfmz/m2/x+JNPAXDNxz/CCdtn+s4LCRSC8REyK8vce++9fOQjH+Wee/4Xu3bt4oMf/CA/+9nP+MpXvsJtt92G53k8+uij/Ou//itf/OIXSWcKBLE2jHtqANUuuuqkch6Lx3uaAxUOh1mYO9JyUOIwVzKVYmHuyFAEhGusnt6diZGgVBtDW5z3N17fB8CObaPglPAcBQegFqFVzYzPIviRmqErPog1ANkqoKmomrYp/RbDXKlElHJZx7JsChUHQ1cIaGA05Lc0TeftsDYzl6Yo4AnBcjqLaZWJhoNNTbR79uxpCS41iqtYGoxK6NWmCyF8sGyg2VxXNL2f53nruv3dNUZ/WM+pPaYrULasAUpLfBUF6d+FqJqKrhsbUK5V2rXK/tXv4erfrhIAaVSpyYZjChoYhkZQV5ruhY3W6NgY2czKQM7S7OEjPFh1mj905fs547RTBxJ7LbkGu0biPPLIM9xzzz3cd999xONxLrzwQgC++Du/w65du7jzzjt56KGHfHC85houvOgSZg8dIh7o7ruPjIyQz+fxPK8JsCJdAJB3lHQCe13DOq5afcHAVnT/G29RrlQYSaVIxOO17ez3Mm3USytAegoOCnYVwGo/ogpyUlHq4KWrq8Cm18FMRVM11Kone9QjLk0jFo0Qi0aQUmLbNuWyTd6qgJQENIVQJEIpnzvm4rtdmPPN5BTRVD8XWCqadfBqXOl0mtdff510Ok0oFGLnzp3s2LEDXdexbW8gVYpOpdettk7ZKm1oxI/Vza+pPt1e6w/s+Vxoal2VpN1yhaRYloTDAb9nUVWrTfdKdTaa/zsWjUCtIV9VUJSqkoeq4LoehZJF3rIJGgpBvfMVTI2MUsjn8Ty3Z8BaWk7XpZHee/FFXHn5ZWQymYEov0QiTjgcZM+ePUxPT/PHf/zH/OxnP+P+++9n+/btVGybG2+8kWuvvZbDhw+TSqWIRuMcnlskHuhR0LtawVcrttB1g8mtW7vY270580djWsIwR5aEw2Hiy/HBgerV16tDEnucPaUAilL10zrp2XkKwlXwGqIy4b8Doh6l+R6iUQUwVZVoqp9vCh4FkFAUhWAwSDAYJJmM47kuFdvGNG1cLQoS1Lqsqmz5lZuJkrXnRW6qhNBmVgT510YjEg6hqir+UOLVb7Nv3z7+23/7byQSCZLJJLZt85Of/ISJiQk+85nP9PRZhYJfYm5XHCYmfe9U6QhU6/89GApTqZR9o2U75PRj0zgcLoeJhqN1mi4UjWHbFXD7e7+AYbTsxSkWi3ieixQCNZRi22QKfYBimkBAYywQwEt4FEsW+aJFLKzSyazGEwkymZWe+oXy+QL3P/gwruty3rvO4eMf/tBApeASBUsa7No2XnUQBLFYnEsvvZTf/M3f5Fvf+hYPPPAAX/3qV5mcmGBpackXcU6lmD2SRlpZepZRaYiuwFc678pZ7tGZ2myWKr28NPSRJbqtDwGoamPnt23dPEOHrILaxlEachXULNshFIsCylEBqnUhq64T0XUikQijQmBXKriuV6/gqjFttQoxIYUfZVIt/5aygW6RdbqFGvUi629QU2xbA3gSJZigLLTm09Y0Fb3Bu9LDOFJbA5iyLZjW/70rMPXJKtt2EMJDojeBw49+9CPOO+88PvGJT6BpvsxSOp3mb/7mb3jmmWc4+ZTdiC4CiFrlnqZqgNNVRGVZlZa9Nbpu+FFypeyXtguw4uWjD1RWeF1ENOhyHYeV9HK1slCtz4vTNf8+KUsGAqm11E0yEcPQNQqFEpEOdFg2s1KfktzNZN9KpcL9Dz1MyTTZfdqp3HDtJ/25UH2CFEDB0ZmZGqsb9eXlZWZmpvniF78IwO7du7njjjv4N//m33D11Vdz4MABdu/eza2f+U1KhQwRbXCXMplMcvjQQaa379jYIQj2Zts8z2Nhfq5tgUYvK5fNklxTCLIZU4rDdngwoMrl88wePoKmaUxPbeN4WHVQEw6GpqDr6oZh8KEjaWIRg1AwQDBgoOnDzympqkoovNmNlKv9Tf749+pjotr7VPv/OlA2AF1Vi09V1SoQyjpg1gCxDpayGUxFHTxXXyPk6vtKKZG6/3tuMYNUdSqOqAO1EIL5+Xne//731/loRVEYHx/nne98J7Ozs5x62u6eR3w0RojaBpWX4XAQyyqvAyshBIYRwK5GVarXP0CMFXZwwvQ0b80eZiVxsKfXOpqzxhC4vjEYYHUaySFcG7tirzOC9b0gxKoDVf1/US0OEVJWJzcHm5yRUDBAJlfc0NP0x8asXodacUWpVEJK2RKw7n/oEVYyWU48YQe33HT9wOxA2VOJxROMVAW5i6US99zzv3jggQcIBAJcccUVXHXVVfzxH/8xl19+Of/jf/wPZmZmuOWW3yCTLRDR3KHd0d0MI4wnkj0VVPhDSPurGl2cnwOqzfrSLzqSUvgaq55ASjGUAopW9nMgq9wYTR2PnfxS0tSv0/IkKBJFOJSKDlkh8YRCJGQQDhkYhnHcjPruBqJXBxs2GGbteLsmsoluU1WVE088keeff54TTjihXrqczWZ58803ueSSS/wKuT7Ox2p0q/Y8t8uulAk1iGwqon+gqql8aErvF8PTPSpKhaCslrqXLVRN21yq1rNYWsmhKhoCgRA09HE1/Pi7rv537awLCcuZAmOpaL1PSlGUDa/BRrPNGmWRGkd63P/gw8zNL7BlcoKbb7oeTdMGovwAyiLASdPj9X3xj9/+Ns8++ywf+9jHWFxc5PbbbyeZTHLVVVdx2WWXcdlllyGk5PBcGs/MoGrDsYONZelP6U/UHz/PvaBllNQTlbaBM57P5Ugkk+RzOUrFQnVCha+32Q4MDX1zC8a0LrRiOwCVn5+amtrK8biE9Js32xsoX+1AVxV0FUJV4+ZWgcsVEseDaCREKhGtJ5J/uQYwgi3O35VXXsmdd97Jf/pP/4l41Yu0bZtoNMo555xDvmAxCOEVi0VIp/N1CadWDs36vSOolFerDVXR/3W3hU0mm6+KKtNTp6ZneOsMfDgUpjBgVNWJlUiEVJoPtrfvr3vgNU4IV9o3GHQ7gLNxpMdzL77EWwcPEY/FuPnG64nHYgNTfjlbZ2ZqvE75LS0v88QTT/CFL3yBCy+8kH/6p3/m/PPP51d+5Vf4yU9+gpSSSy65hIWlLJnlRVLh4diGjcrSn9KfWAdWveadGp2c7MoKqqZh2xUMw0DXNNJLi74qxFGaldVpRSKRwYBqXz2i2nbcGcQaVdVpikcr3KkBV+3mtL0Kc/NlPCnRdI1oKEAk7E+f/SVwDb62b9/O7/zO77B//34WFhbwPI+ZmRlOPvlkDEPHzeTpNcu49rL02i+ka3rTUEpd9H+rCIQvsqvrKEJFat0fSyVi46U9CNa8S71e5bpZFVzDSLgrayJVpY1DkM22B6lyudLy315+dR+vvrYfTdO4+abr2TI5MTDlZzoK8USC0RHfUcrl80gh61Wor7/+Oj/5ySN85StfYXx8nK9+9atcccUVOI5HZiU7NJCC5rL0xmhq7WM1wOqnBebI7CFUVa07huEGynWzpa36WX3ffW+8dQDTskgmE6SSiePSAEopNxx6J4XoarhhQFMIRBrmJ7kVMtkKjisJBQ0i4QChYGBT8ls/j2t5eZkHH3yQPXv21L22SCTCmWeeyZlnnrmO1nBdl0CPpzYSCZNO5xtuvo08dtniEV+RwvTyPv0xwPBEgUssGqFSrqBIFdljxq2R+pRIXNdFVdVN7aGxTJPwAPJGQq6hVFs4dLlshlCwHUiVSY2MUioVqZQr9XzVI489wb7XfQf55huvZySZqJehDxJN2QQ5ZXqy/vfs7GHO2H06F110EbfffjsAl156KSeddBK5XA7TNJmenmYxncWQJjCcarpG8dlWINUquuq1oOJ4iZR6cp4Gpf02s9pvcKBiQ5V1If0qtUIhT6lYxDRLVdmczsAVDSikIiqG6mKWTBaWMhyeXyabK1ApV45Kv8Lbdbmuy4svvthVNCqE6FuFIRgw6j89G9qagkZDgUff0YWnI4SHEdAJ58bQzR4La2TzcdVUK4a5bMfBrJiUrBKm6B+kbE+SswRGIEg8Fmkb5uZy2baySTWQAohGY4yOjVEuV/jRAw+y7/X96LrObTd/ijNOP5VUKlUHqHw+3/PxappGwQ1UKT//+Pa++ho7qrJLX/7yl4nFYjz22GOUSiXuu+8+/vAP/5BQKMQZZ56NWcgR1IdX8h2LxXoalfGU/gT7xl7F7FPS6u2y+g4B9r3+xnFL+9VASkj8McEbeKqK4t/8RnD1VNRUw321BtlQ+Va939RaHKZUGx5V/7eqYroWpYKOUHSCQYOgoRIKBvwEplJLPKv1sd6/iMtxnLaq9q1oqEBAB2kP/LmFQrF7oBICx7FZHcPZ52DBTIqZsW1omkbJLLNj2zRLy2HS8gBSaQ02ilBRpAKeClLFViRatVLSz6uqRIP97x3LspASbLWC1CSeJrBGmtU/tvYYrLmexHQk4VCAbZPRdezCqsOh+CDVpmWkEaQaQfShRx9n9vBhotEIt37qRnae0Fy23Y/YK4AeTrJ1JMJotcpvZSWDYeh1SkzTdL761f+biy++mLvvvpuHH36Yd7zjHXztj/6IYtEiSGWo94ZpmmybnukYTa1dx6tCxTEFqnyhwMFDsyiKUm/0LZUsNE1FUdW+PNjNAquNPGGfGlz/nMFVw11sx8J2wdNDFApqTXcbr0Y3KqtBrY9zSrWvpfqo4gva1icWV8Gxdrx1Be+qYkDN61+twGp+v9r7U68MrL3faslW7f0aQVRpQ9sMClSqqvI//+f/JBgMEgj4+b6aEG0gEKj/npqaIhAIICr2UD47Ho/1YNDNOuXX2L+kSAWE4lcCytpvFaXhMaSC5gSIBxNIYHEpQ7FSYIsxSjwWI5/1myI1NBRUAloQXdFxHYFh6ISCASRglcuMTibQdA3TqqAqMJJKkE8v+Y2//UR4isryxNJQzqcnJZbt9w1OjEVaKrB4nkcmWyRkKOTzubYgZVkWI6NjzVRYqcQP/8+PWFxaYsvkBJ+77VYMTW07SqKXURqReIojS8vkcxkuueQSAA7NznL2Wav084svvcy555zFtddeyzXXXOOrg2gaR+YzWLlFrGIWTdOOKZ12nnsB88qRXwLVumiqoSxd0zRKJQtVUxifSFV5VhPP9fCEP4lXCj86aTSy3VT5DLpEB8qmRv1txloFOw9d8bonW+Xq77JZWcv81AFPCNki6V0DHWVNAKCsAZs1lVzKmsdaRXvVKLAOePhjLNQGYFSrQKjWoFGp5ikUlWAoiOu6BA0Nq1yhXC4zPz+PbdvrfhzHwXV9GZ3f/d3f3bRREJ1WsSwBzxeeFQapzAwBPYii+OMw4rEouqZREb4uYCIVRVNVVjJ5RlJxQqEgtu2SyeZYtOcQIRfTrGDoGrsmTyQSDmGVKxSLJhPjfhSwkskRCBjEohFs28Gu2PUmaOF6VDwXkckRNoy+gWoYTcMCKNsSqWiMpiIEW9zPUggKRZN80SIcUKhY+bZOYCuQWslk+OH/+RHZXI4Tduzg87fdysjIaoNpO6mebqIrTTdw1QAP/vgB/uqv/pLPfOYzfPrmmznl5JPrzzl4aJaZmemqmork3//7f89HPvIRzjjzbHLZFWKGQqjPSK5lAFCt9uslmqoXVKg/35Os+wOqajJzemoblYrNlq2ja3jWjQ3L8nL2qHw5KTambGrgebyquW8E5sVikUik3+Y6ueZ379RROBymVhMg11BjNVkrgHKlgqIqxKLT5HIWIqBQKVdIJpN87nOfq+cpaiK0NcXw2k8wGKTYA2U3zLVlLEE47hvCTDaPruvEYxE8z2N+Mc3ISAIFyBcVHNtBSknF9kE2ly+SL5oYhs6WyTHybxbRPJWK4eC6DpqqYZYsKo5DpWxTrlRwpZRZREQAACAASURBVIvj2Xi4iLSHUASogkx2gWg5QkAP+M6CJkHrX20lYBiEC6G+lTYsR2K7MJqKtlQ8l1JSKllkciXChkIyrJLP53oCqfn5BX54748wLYvTTj2Fz99267pqtE55w1p01SriWSlU2BLX+eIXv8Bpp53KN7/5TX784x/z7/7dv+Pyyy/HdhwqFbueq7rnnnt44oknuO2228jlikTXNGJv9FmbQflFs1EUobBcXsTz3LfVJPGjDlRT27b2ldQ9OoUGfnHxxtSfwLXtoQ4I/EVYa6+fshb0lFX5pUjIV/tQhU3U8NCNII7joOt6E01Um8YMzQ2JlmXhOg7qpnyPDlGDEMwvphGeoGLbSClYzCzhSRdHOmQOL/t5JlWAIpF5gVQFMuhPG0ATRHLjKMBoMkU4HCQSDrGczjAr94MqkSGBjIiOKTDNCdWFXaVwsSuD3UP9KG1UHInlSEaSUSai4Zb3lmVZpLMlAhqkIv5npNPLRNtExa1A6sDBQ/zw3h/heR7nnnM2n/vMb7T+Dl1EEa2iK9uVKIEYY9VS9D179rBz54l85zt38Vu/9VvccMMNfPrTn+Ydu3YBsLCwwF133cVnP/tZYokxVhYOEza6+6xuoihVVTesTm61gsUgW6JbIPyLYXN6BqrDR+YoFEsk4jFGR1JYVu9e2dHqPer0ObViiV+uHmmfHr23+qTaOjIIdu7c2dU+cB3Xr8BrcR+vLY7QNG2oSWW7UiasG1ScMoYBuXKO/Gihp/coB/Lk8xF0QyMcCvLGgUOU1Dwi2WPDriehahxVRRm4DqeT0sZr2j5O9k7xz4MnsWxJIhZmbDzSsom+Uq6QyZsgPeKh1RKUbCZDNBLBNK110ZdpWoyONYPUa6/v5977HwDgPRdewKdvuqHl8S0tLPQk11OLeEZGRsjbKttnUmhVCvTAgUNs27aVr33ta1x22WX89V//Nbfddhtf/epXee9738s3v/lN4vE4H7zqIyzML7QEqX6iq1oUVVu9UH4pfeQXyub0DFSLy8v+iaqKEfYTHY2Pp1heymxqY5mqqh3HOwghkVL8ohbfHb0ITAgqlTJCCITnsfuMM7ngggu6A0UpNnQmasURpZLJ5JZR0un2yfpCjxSiJwSeXakzw/00/boRixVnlrHyDJFICEVTcBL5Ps7h6jlQNY1QKEzRLfj7t5/7owulDQGUyoJwOMi2kWjLKk3btsnlTVzXJRygaYBo4zBEIdY7EJFImGwmg6b7VXYvvfwKDz7yEwCuuPx9XPfJT7Q8rmxmpa8hiyMjIyxkK4xObmVizKd0i8UipmVxQmw7ABdffDE7d57Id7/7Hb70pS9x2WWXsX//fv76m9+kULQIyHJXqYJuoqtG09lrld/o+HhdQeIXYfUc/y8uVYGq2uTbL4s3PjGCEIJSyaJib4YcjNIxwehJ+cuA6ihFYJVKxQeschnTtHp4rTxmjoSu6wSDwYEZAGE42MLvrTMUo68956hOE2j507P7F3I0ROccl1mRjI7EGUkl1n2W57pkMjmW0jl0XGJBpQ5S+XyO9PJSE5jEYjGKxfWOQigUxNA1Hn388TpIffTDH2oLUn701l9uLZM3iSbHOGF6ov7YK3v3cfppp9T/3rt3HzMz0/zBH/wB3/rWtygUCnzqU59idGwLKwuHO2qHtgKsbDa7Tgg2Xyh0NW+q1aoVULiu+wtjQ3qPqKpAlRxCOWYiGSWR9EtM87lS1VtUqFTcwUvcVdA6RlSiqhLQPV7bjoPwGr3Y1SEbvkzP2mq5hnq6FqO5649X/+g2X/Z2km4yjACaoWOVSkjZm16i50ks06LTnA9FUVhcWPH/aLDBpZKJbvTX9IuEYDCE4zh4rjsQYFaExcJiGttxUIWG0HqjKIUh6uK0nvD8vN0AlV7dXAIh18vpCOFRKJgUSmXCAaWqCdgc7YRCoZZzr2KxGKZprqvifOqZ53j+xZcA+NVrPsn73/fetsc0d3i2r2IFISXCiDM2GkfXtSrld5ATGvqxDh8+wujoSB2UL7roIs466yw8AQsLy6Si/RWwtBo5HwqF+4qmaiA1zOGEP5dAtbQmoupEr/UCWgAl0xpOH5ZUugAqqqWBPdzwUpIa2Tx+uFuBzmMJVL1+tqbr6A16ZL0eejQSRlU2PiftqCBV80voe4niVqk/r+n7KgPsdU/1SCZjBAIGeVeDHoHKbRCnlUJgWuZAEVU3yfu1ovXFoulX8gX8Sr61q5Hq822D2tI5bFyPPvEke/e9BsD1117NqSftans8C/NzffcrpQsuidERJquUn2lZFIulOlDZts1yOt3UQ+UDSohDR5bRvNLGwqFdRle5XA4pZX3OVK+UH8D8kcO/UCDVH/W3vCaiGrK97G+kQ2vqrxOIesLrOccmxOZyhd0a8bcTUDUaKAk90SeDlt0qKIyMJpjcMtq7yrTnYVlW/Rh0dQAHSvNQUAgEDFSvd4CpRCp45dVzYejGQHOpuuqlWnNvSCmJBNePlS8U8mQzmXXOQiQSWUf3NVKADz7yKHv3vYaiKNzyqRv4lXedSyKRYGHuCNnMSjPQLC8R63Lm0jqQyltEk6PsnJmo7929e/dxWgPl51OAp677vq+/NU9m8Qj6kBxyTdM6DkPcKJpamDtSV834JVC1WcvpFRzHJRIJE6wKIapDNpjDAgLZBVD1ZwM3Gai6MKblcrk+t+mYbJoeDb5jV5ryCr1sGTngOZeqStmBigua3jtAuI49lHYKofsj2R3HRekDqELFYFPhhBEIEAj2n0gPGAahYrCj09T43VVVWZeTzmYyGLrelgVQWwytDIcj/PDe+9n/5luEQyE+f+vNnLn79CYwM3SdpcWFVaeyz3zMSjaPEkiQSkQxDD+qn509zFRVrADgyNw842Oj61Q15hZWKBUKjCWGV7DQr3D1ee4FPlhvwmDCt8Pq6azVCykawu9he/a+ksFQAqrOBlXKno3QZvaAWabZVY6qE5jXaK6arqCqKi2lbfpZrcqMu7kYosHI9qJELqXsi3ERUqEidYLhKEYg6OcjA0kc4WCo3dNuoXAEz3OplMt1416O9a4IIVWPg8Yr/h9rHOJQyTfyqquiCl+KKShDUFX/r1+/UHOkGQwG6xOI+wvytI5AJYSoG3RVVZvowLVUX6sViYSbclXlcpn7HnyYhcUlRlIpbrnpemamp1q/NhxmYe4IQoi+KL98Po8eGcEIR5gY96mySsVmJZPhrDPf6TtRjsPiwiLnnHNWs3PleqQzBZIhMTTaqNWcqfPcC5ifO8Ls9kMdX++57tDHvG/WKpVKeJ6HpVlEZXRggO0NqGq0X8NYj2HlqFapPwHq4GNpOyXtazp/9AxUm3dxfaOgdnEMG4eCuqGTSCTXAIyJEF61RNwv+V4ra6WoahdA2fsJCIXDOI5NxfP8SLcHCR8hQevjM8vCYHIsQSjcXHmWyeSpWKWuwcp3dvSujXurSEj1fACiECToBdufc42uJzI7tj2w86F0aPpV20RUpWIRx7G7dlhisRiW5UeT9z34MJlslm1bt/DJj364LUg1vrafVSwW0SMj6KEYO2Ym6xXAe/e+yum7T2um/E5fT/m9dWgR18xiJIYDDGt7pmpraWGBeCzGjtkd5LU82W3ZltFUv0UkRxuUPMPDCTmYM6tq7qG3Qn2dL9d1KWtlPN3rDajWFlK0C+0HMtZDAgJ/xIe6MVD19Xmbh1RCCjS6SXJvfAxai2vSrV5eqVREeKIuZySE1/Tafpp9NU2jlk7ppBay/mwrPfuzttAZSUabQKp2LCMjCWbLDgbtiyt8dXE/2tYNA1DqUUHNuAdLPgBpnoriKQREsG7MawBUo9h6AaBuzieKgus6WKaJoqo9D4Ws7xNX7fhZjddbVXz5q7ChommtjU+5XEbVNNxqiqBuO5bTPPbkU5RKJrt2nsDNN11PLBodikZeKyMXS42TtQTJcIhAlfI7MjfP+PhY3TGYm19gdCS1btzIwlKGYiHPWGJ40UvLoZEN/WDRaJQoUaIHohw+4XATSC3Ozx8XIFUul3FdX67J0iy8gIcTbAallvdT0CJJcsPr5XkelmrhaR5u0KU4XRyc+mssTVe1YVN/w9Gs0gNGh+m+si+JP3UTxR+7KSQxTYt4By9zENHRaLT5vXPZzKCWFddxmujKXgQ0+6FaPam09fYVRSEc0ChkK00l76vjV5Sm/J/wvKakWkSGia5UVcJV/J8hKnDVQFzTNDRdR1FUhOfhODZGIFg/NtdxKG/QT2SaFlKK9XJX1UhOVVW0DuipKs2OiZSyOp9LtDVktREduYa+oSNz8zz0k8ewHYfdp53KLTddX6cTGxUjhnYOVY2i5REIrlJ+ruuysLDIuVWKz3U95ubmede5Zze91nU9llcKUM5CeHjg0KrhuWxZGGsKIxKJBPphnYIssDKzQjazQjR69EWZm0BJt3ANl/y2fF/v5QSd1kBn+KBUmi5tvA/tQJ9AVY2obNthdGy4SD8sas3XmlWHDlSb2X0qugDpTkBu2zaJZGqIN/1gwFwrpa6dNc+TTVp+XYF3j4fgF9K0f5Gm+WCkKd20ATQ31gYHzBH4EaaOqvn6bp7r4gmPYChEMOC/d6VSpmxZ6IaBEQj4k6hVBdu2KRWLqJpan3wsGiSjfBDyc1rd0HKdSvYVmvOhqtaahDVNi2Aw2DRHqgaQbx08xP0PPgzAO3efxm986sZ1rx8mWJmmiatFicbibJ0cqfdMrW3sfWXvq+xeQ/kBvHV4EcfMMTaSIJfLVe1dcgh2rfnMbUTlua7LrumT2eXCvHV4HZhtOigF+gelljTsaJHDS4e7fk+1EkArh9GsEBEvQSqW7A2oyhU/iRxqULweelQxNKRSN5qZiKiPoZc9vu0mloXLwc/PMFWUWxV3SKiXF9cM40ZGUVVVjEAAu7I6sqTbvKZPvx1bVWhN0whHIqjZbBd7Q0VTtTpIuq6DqmoEg0E0Q0cKSblc9gd1GgE0XcPzdCpWmUq5TNn0KUfXdXEcu6m023/PVQDSusondmIHlE7BcDNQqSqtBuNomkp0TZSfGhnhmWef5bGfPgXAey44n2s+/hFyuVzb0RyDglWxWCQUH8V1FAxDJxzyc3gLC4skE4l68/LCwiLJZGJdM/PCUgazaBLWHMCoH2e7Y+5lRRpK6zfqBysUCvVc1maUoluWVQelslEeOii1W/mJzp+hlUOMFk5A9wJMToyyZdcotu1wcHa+e6ByXRfXdVFVpe4Rb0pP0dDeUtm4qVH2N91jM/uX5BC+/DCdh1bFHaqirBtYVy5XdfzWgKSqqoQjEeKhMLZt+1WWKF0foxBeXYX9WIXttWuiGzq6bqCoip/Dk4JAwB/0qCgKlapXGgwG0Q0DicQyfdBxPZdKpYLjulTKFp7nUSjk6+fLV8/2ozxFAcPQ66XUm7k67eU5bZYd4qRmsFzzmkqlUv8+8XiiatizvLJ3H08/9zwAV1x2KVd94MqOjtQgYJXL5RjfMkXO8jACQSbHE9UI3uPQ7GHOe/e59c+fPXyEd7/rnGa62BMspfMIa4VIshl0k8kk2Wy2rjDRM4CWSmzZ6k9CX1lebtsPViwW2To1DcDy0uLAlXKNoGQF/EipMFXgeF1aKcwJW2YIh4O8deAItuNQKpmsOMvdA1WlOmHV0I3NQJWhRgS27aAGQx2GJop6+W1vXuh68FM1DSMQRDOaq7A8x8axK030TEea6xhRp5nMSnUooh8ZqKqG49iEtc4zgDYSxgxUo2+zWhmkBJNdKyp4rrspo8KMYBCkwHPKGEagnvepVCqULZNQOFKn+CqVMrZtE08kCFX7lizLQji232ckBGXbxjRLOI6DaZpIZPXY/XyQWQOhDufqaK+1tG48HaMwthrFSWW989Ho/JXLlXUqLdlMhlde3cczz78AwEc+uIfL33tJExhtZPQ7/XtLbz2fZ2pmO4eXCqRGxxlNxQgYBp7n8eRTT3PuOat5qFdeeXVdlR/AgcNLOFaesWRrcEilUn2B1dqSdNd16j2o7e4VoGubUZt0vA6Ugsc3KLW0XbqHrvuFOAvKQY5g4o35ediugapG+xkNdMPm9BQpQzDWnWdRCSEbh633BVQSSSgUR/MUnNdy2HMm0q7K7gQ09G0RQicm8QxJuVzoo35t+HTOBvHnuqZNvUVlV+/qDr5yeg0MTE+rJuS7eO0AE5g3uvae6w9lREqE59aLEjzPbyp1Hae+tz3XxfNcbNuhqBSqr/WfVyqWUFWlrm33dptrtrYvLCiCGEsGKxN+AY1QPDyv+R7XVRpqKdbf/y/ufZXnX3gRgGs/8TEuOv+8nmmTXkChWCyybXqGpUwJPRBCUSAWDTWBVA0YFheXiMVjRNZUgy4uZykWigQpA7GhHJdpWihKM+W3UV7KssqMT052fF5jBJlIJjk4c5BYOkZxqsjbfYmAQ7FkMjk+iiJUvNBqsVAPEVUNqPSBvfdNR2YpUeTGILTaQ9T9+zqOQ7zanySRRMIxvCMW5ssr64/B9nAOFHAOFAjsHiUyFcO0ihuCVTfH0pl67M+0t6pKakUl9KqI4Xkuruv0BaSeJ/qi/jrBm+u6uI6Dpsg6pd38707TMTfue0PXgSA/LytqxgiUAwhVEg6HyZazDRGVh+c1R1SaqiGFgoIkFAqRz+fqPXv3P/gQe1/dB8Cnrr+Oc9fo5q0a/M4UXyqV6qqYIRgKsZQpEYolEEJhcizREqSklBw8NFunAOt7TPiUnyxniSU6U22pVKrjsbdq7F2YO9IWfBqpwcUu9QxVVWXviN9AXhwr/lzsRWE4LCysIDyB4YZobKvvnfpr8Bo1bfil2sOgeqT0abRuGn4Vpb9S6VAojnfEwq6CVGD3KLLUbNyUqIH98gr2yysEGCW0LU6lXNzgu6tdnJ8OTZp9XxOlp+/ftdceDCKFxLYryB73jOf1l6PqtIc0TcXhlwtqYr6r1GdhvJH6k7jr8o5++b/ie4K4jg/yd/+vezg4exjD0Lnlphs47ZSTu2Ym2q0aQGWzOVKp9WBVLlcQegShBtB1nW2TPnisBSnwq/zWavkBzB5ZxjbzjCW6LwHfKJdmWdY6kFpebJ9vyuVyTM34s7AyKyvr8r/tlq7rnOde0Jeo7fFL/bkEghqjI0mWcjEaLWXXVqMV9RcKBUmn8yzMpymWrOPpK3csq/ar/noDxkAgQDazgu04aJ5SBykAfTKCcWKy6UefXN389ssraJ6yIe3V6Vgsq7N8Ub8N2EpVYXyj3px+8oe1Euuq5euoaN8MVHJTiinkL2eQtY5OgkEm0xOc7J1CuBAithJbd801TW26Irqu8d//3/+Pg7OHicdifP7WWzqCVA2EMpnuevRSqeS6eU4l00ToEfRQjHg8xtSW0bYgtbS0TCQSWdePtJTOkcsVMKTZ87mqgVU390i7ytVabq0eDJStHvbwz+cmLoki0WiYRDjeNIW6+4jK9oFqLQ8fDFRn/QhIp/N1/Tz/REo/upENtI/i50MU1f+tqn4Xf60JcThVdbKzIG0touox5xIKhYhGozhv5JrpokWzCZhqjzVRh2/mYEeAbCaDoipI0TwypNOxdLM5tT77nkZGV0eCZ1bSwxO9lavHLbsYZrmO+uunMrMjzXnsSt513cCIRAmHI7jV/I+uKViWiWOW1lGOxwKsspkM46FxyqJSv361+7IxEiqWStz/4MMsp1eYGB/nlpuuZ+uWya4/q5d8ZyPlViwWUUNJtGCUVDLO+Gi8Jd1XW28dOMivnPeudXtgcTmHKGdJJforAV8bWbWi/OaPHG5ZYl7LrdVWr/OlFEX9uYqm6gGRLJLJ5tF1DdUO1PNUA1F/6zb5oHOkJITDg1dFSdnZIAohccpWXwlwIxTBmmvOSzmv59Y9b+1j7pxJePcooVK+bogt0yQciXQlSNvJwA6r2XeYJfiVSrlukCSg6z3o/FWj3mFDVS907zBXODWGqui8tP8gB44sY1dps4Chc8LUOGe8YweGdLGy6WNqLEKhIKZpEggGETU9zPqeEEgUVjJZ7n/wYfKFAjtmprn5phuapNW6WbWoqtty9JGREVYyWULxMVwlwFgytgakzloHUk8/81xrym9+BeFYhI3BZ0zVvkN4jUxZO/AxTZMt26YaqMGFnkCqWCxyqAsR27fjEgGHXK5IuWKj6kbvQFVuUUxx3HKddJ7u6wnZtQhsy8+wm4sP9G0RgruaQcI7XMRreN7a19Q+O5/PgZQDi4yKIc7yardM00JVlXoxSsfIS/pFKLWIqhcM9IREV4ZPcaiaiuu6aMbRA6zo6AQH5tI88/Kb6x0Mx+W1A/O8dmCec3efyAnbJiitLB3ju0ghFotTKAuElHWxJVVVWVhc5MGHHqRcLnPKSe/glpuu71uxo1uVkkyugKcECSW3ogdDbBtLkoxH1oDU6jG4rsvPnn6WM9+5e53OZXolTzabh3KOcHLwhtqRkREy2SwzDXOmFufn24LPWnq+FxqvUCiwdWqaQ/z8AlU0GmbrljHmDrzVB/XXIkd1/K5uZlFJpPBA2zxjpaaCeDm74/OGVdbcScVhJb3qqY+OjW1AySgbIk9qZPW1+Xyu7fErqko4EqZULCIB0Sv1JyTGJgCV67rVc3V0gCqcGmsJUu//FV/F+/4n99Yfqz1n+5axYxpZ1aJgtSpMW+t9O3jwIPf+6F6EEJz1zt3cfOP1A31OPB7fMKpKZ4tILUR8dArXk8SiYbZMpAgYeluQsiyL555/kXe/65x19koIyfxSFlHOMZocnurDSCrFwvwcW7ZuI5NOt9XnK5VMJrdurf/dqyp6KBz5uaT86tfHsDGtMhPjI+hOCLtfoHpb9Ioo3URUom/VafD7pBojJCXqnxfz4VkAIpfO1B9rfM1mUnJSyupkVKUh/7aa+6tFQKbZPnlsWVbbyE5V1aa8Qie6UlUUVFVDVTWEEHiu19TU2FWEqPW5ATqcp4ARoJ246jCXphuoit4ykhofbW2cn3n5TU7YOoGuG8csZxUKBVlJL6MGY/VG9Jdeeom7774bgPPPexe/9slPDMfIj4yQz+frBlsC6WwJNRhFi4wQCkcYScVJxMN1JfRyucyzz72wDqTy+QKvvb6fC84/b9394nkeRxayCKdMsIeZZN2uWDTKwvxclR0xWlJ2jZTfQpel6HWQM00OTh/g53mJgMPSIb9IRfeC/URUnXNUx8tSVa2jJp/wZN/CGk7ZRN8WwTmw2vltJPzP8/J202P2GnrQKZt9f69OuZVOozxqNJ2qamQzK9Wil9VISVVVhBAbvI/SBAJCCjSlUy6wgfrsIaIaROevE72oKipHq5wiEIny0v6DTY8lYhEioUCd+t06nsIs2+SLq3vjpf0HOX3nFtx89pjdR5FIBNP2EFLw9NNPc++99wLwnvdcyjUfuXKon+V5Hq4nSedNjHCc8W07sGyX0WSURDxSz38Xi0XeOnAQQzfWgVR6ZYXD/z97b/olx3Weef5u7JmRe9ZehcJKEuBOUJRIyyNZ1tLtpWUOZbXb9tjSsT39Zaz/Zf6EPme+zJn5MG3P9Ngem3JLlEhRIimKlEiCIJYq1L7knrHHvfMhsrJQqAKqCigABcn3HB4kszIzMiPi3ue+7/u8z7OwWx4JMrWaucUNAt9D+k3cyv2xzdiyLrl1bBEt2q0mURiiG+ZtpZT2Glvvn+fXG6gAhJ0yOlLF9wM6hwWqR6pGJcQBGEXqrrX1vH6f8unaDqCSlcKuRJK4xcLaPF2m02/c1TGDILgLZ93b75bv9vhhFO2IePR9hH+DINhWhRfi4KK+St4DNV3dw1+POO2XyzO3tLHjua984Tyus70Z+N0vPE0/8Pi7198bPje3tMHFC6fxHxJQBUGAbTtoAt544w3eey/7bn/8x3/Mk09fhCPsROv0AkJlk7eKjE3W6fkRxWKe6UJumHJstdpcn5unWChw/onHd9W2VlfX2Gw0efbZp3fPVy9gYaWJZQi8sEe1cn+9nW5lA94sNOv1+weOom5WNZ+cntk35fdU+EWuNq/iTyw/0kDVV13yOYd8PocWWUgr+vVM/QkE2j7NvtlaeHdLVprExCLFerJG/Fmb/MUKKkhJSXG/kNVv0l4ECNyX63jvtTDPlYlFetepnIdJqR6m4W5JP2YRz+1zc5quI9N0mGJV+wkF3zSSJL0H92hxLzh2pCNJ1ZDdtzU21pt0bY/x0exeWV3fHM6vYQQQJ0P6+sMYlm2DELzx4ze4cSMr3H/3u9/l937v9/jlx1eP5BjNro/UbOx8hUrZQmgatWqJE9P2cKO5sbHJ9bl5RkfqPP/c3koXCwuL+EGwp21Hr9dnbrHB7PQI16/PY6gQsO77+dsCK8uymJiaprGxgef1D0zJ73S6TE5PD/9/P5A62XyBmcfGWets4PNoA1VqRKyubRLHMZowDwdUwSOU+kPsQ6ZQKjOFu4dDdNsblCfrmJTp/+TORW/ryRpi0qLT3LgHoHi4QLWVhkvTlFazmTHn4uSOGxfDMNF1Ha8/sAXR9ANT31OZkiYxXuJvY4u6M9psbUCM/J1bHKRKM/1Bx3oo5/LHH2T1qv/4714BdpIpjsPwPB8/jPj+D35It9ulUqnyt3/7v/Dss88O5tfdk1BSqYYANTY6hWaYJImkVHSoVbbJDSsrq1yfm2dmZnqX7NF2qq/J3Nw8tWqVx86d3ROkri9skHcM5m8soaLukdtmHASsNtfXcBxnSJ3vdDqZ1iSZjcxeEZZh6IciTXhJD6UUOS3Poz6kFdHr++QcB61nHi7196ix/u6snK5AcA879my0m5sUx0fIj80QX2uT7CFKa57OIql7AanjMLZAIHeT+vd+0bUQAv2mFM2heqhSiWkYWNbh053hPhGVrhv311fs5gVHF1imsSuq2jeiMQ0MXTzw6xwEAXM3bgx9pM6ff4I//bO/5ML5x246f4dnuESJtfFQ6wAAIABJREFUpNkNKdfqTJ+cpNP1kWjUyy7uTRuLhYVFFpeWOXlylpe/8NKen7W2ts71uXkmJ8Z3OfRug1ib5bUWT5ydZqPRotvcpFp0H/j53IvNeCswtdvt4UbUMAyKxWKmpNFy6Vf6BzpOL+ly+co8YRihxSbSfIRFwjSFY1pMjNe5uliilIz+egBVohKacYuVcI121KIbh9i+hW4YWLpFzshRc+pMu9PUnTpCDWy2j0DNvNvewDBMcmdcck/WdvwtDjw6/cZDVxt4aCF8mmBKY5j2O8zylkp5f7yoyBqtpbB5EKw/3/c4OTXC5bmVQ73v5NQIvu890OvleT6//PgTfvlRJnb61a98mf/xj14lkDuXCUMTB06fepGkHyRUanUKeorQLZSCqYnaEKCUUszN3WCz0eDkyVm+sKfiOiwtLTM3f4OTJ2f5/Esv3vaYG402axttRutFwihic6PBzGSd9dWVfQlHD2Pc2m/VarWy6EjPHRioUitiZnqcXs9j07v2SACVSAy0yEKLTPTQwkxylO0KBdfFdizSVPLFF19ECHGI1F8QDnd6xwmglsMVPu1+xo1ogVW1TocOISFJN9vBmsLCwaGqV5kypzldOM0TxcdxVOmeI6rh90hiuu0WtFv827jpvMQx4SCyVUqgGQeHqrtVTr9dWvDmYVomtdoEzdWl+34OIq/PU2dnDw1UT52dJew2Hti16nZ7/ODHb7K2nkX+/9Of/glffOVlFJBE8pYoUUMl4rbXRynoBSlhKnALLqenR2g0u5RKOapll/xAfSZOEuauz9Pv9zl5apZTp2b3/Lz5+Rusrq1z8uQsr7z8+Tv+jla7hx8kTI5WuDa/SM7UGCnnBvM0eSTmzZaNyEpw8HtGmTFhGJHL2Yj28QomRKqjReYAlCwc6VIwSmhKxzB0JidGyOdyLCytUq+WKRTytNpZhFgsuvh+8OhGVM24xcfdS3zQ/yXX5Rye5SFsgTAFwthm/SUypptEdKI214NrfND/Beea5zhvP8Xj1gnq1B+NaFjTeNSGZdlE0bYFvXkYQVop70FJX+xzL8f0en2cB5BZS5MYqRJeePL0rl6qTndvJf0XnjyNVMkDi8TnFxb50Zs/IQhDJsbH+Ys//0+cOXVqeCbjW0z8DF0jjQX6Lc3Ycapo9UKcfJHJE9PEiWRts02SJMxOjwx7i4Ig4Pr1edI05eSp2T1p2lJKrl+fp91uc/LULLOzJ+68IYgSlteb9PseQqX0OwkzI4UdyjOP2hwS8uA3qLRiVteyRmMtekhrtBLooTUEJCvNYckcOSNPrVrCKdpsbLY4MT2O49j4fohUkjhOWF3bpN3usdHeJKBPZPpIO2aRCFk+IJlCKUU8cCy9m/z0UY+1cJ23W+/wrv9zGlYDraxh2Mae65PQBUIXmYVQAbygz/u991nwF+i4L/I5/SJ1q/aAwEbHGAB9miboWvad0zQhvcNuL6OG3zllYZgmmm6AUiRJfGCH0ANPmrtADcvJDOy2FtxDWXwk96CcfoCvWsoZdNvdu5b+OVT6r7XJyclRgB1g9Y9vfrgnSJ2crD8wCaUPfvkR7/z8fQAuPP4Y//lv/mqXC/Eu80RD4+a7NYglHS+mNjLCeMkENDZbfSqlPBfOTQ+p5Df3QJ06fRJnj3MfRRHX5+YJgpBTJ2c5c+bUvhFUs+Mh05Qg8DFFSrWUQxPbn726soyAe7Z2f+BApQ4BVGYMCMpFF7Ox08vpvqxlAzDSQhM9tslTpOSUsG2Lbuhx+uQUbj5Ho9khCENGR2p4fka3vz6/TCwjKsUyJ6bH+dH7PyMYWUeORSht73S8cdBFyrIsoigijpOH2ku1Hm3w49ZPeCd4j26hh+7qGRAdcAHTchrCUmz0Nvix9xMSmfBK9QvUzOptAMDCMExEkNnxSUeQpAlpHB1YoyvnuIgIRE5HrYTIRoT+mAtzPmgC62wB6cUoC/xgd07aNC1yRgGhFLGeEEc7b0OhaZhYqA96aCMWasLYE6icnIsWgbQEYegdSpnjboBKEwLDNDLgPLR8krwrnT91MJyi1dg8sr60g4x+Y50T43VOTozeUZRWquSBgJSUkh+99TafXc2A8+u/+zu88tKLu0AqmzZqh4K6YegoxDC9pxkm5y+coeDmuDq3TJImTI1XKQxkhFqt1qAHqsj5809g7LHZ9TyP63PzgODUydk7XhulFH4QsbTaJEliAs+j4OhMVHa+ZwhQrsujOKz04KxUpackKqFUKlA0SxyVlaIWG9ugFFm4WokcLmkqmZocJT/u0Ot5CCEYHakipeTylRs0Wx3WN5p0+j16SYdPG58grQiZi5BW1rpTCF4kSVKUme5w8z0wUPm+DyLrM8ps3RX2AKj6nrdLJTmM4ntXTj/A6CRd3m3/nHfD9+iVehh5/a4MbYUu0Is6Hb3Nz7rvkOs4fKHyeVw9vwukLE8n+UUD/CQzY8ybWBdKxDVrF2Dc9ng9SfyjdawvjiLHDLjhoX7RRoUS/XMVVDsmfmMV67dG92zxEJqG+qCDQiEu7t4VGoYJixGqF6GeLpIme/vaaD1J8uYGxssjCOdw8cqh0yZCEMfxkM10N4K0dytsvd/bFAyUrh9sn5Lf2sQwTC6cGufihdO7bD7C7oMh3jSaTd548202Gw0s0+Q/futVnn/mabq93m2uPTv0/hAa3RBmpqYZqVdZWl5ndW2Ta0HCWL3E+FiWodjZA/Xs3nO60+X63DyOY3Pu7Jk7CjOnUtLrBSyubGLogij0yZkao2M758Tq8hKapj2yADU874fUouzFHXo9j5yZR0jtttHJnnMm1QcRUkZusKWLJR3q5Sr5vEMfn/JIgVq1TJwkXLu+iGWZ+F5Aq92l7/nMry3QU+0MkOI4+3c0vu3xWu0ucZIciNNk7L3bUszMju94rlDI0+31yOftTMtTqawJVEG9XqLf91GD55RSKCmRatB/M/Ck2opAssVLbK1ngwVMDPXoEAKBGOa0NV0HTeOz3jXeDd7PIqm7BKntxR90V6el2rzj/5zxaJLnys+gpBym4QzDJPmggTA09JdHQIGc98DSEAIs29na4oGmIQfv04wsBTdM6Vka5sU6yhIZE+7pEqyEUDVJDImJnv3dzthUmm5ku86BpFGcxIBEDWzBDdPKdPd0A6lSNDSEFqE/UyHRUgzDIJXZd9xKB6ZpAinIePszlC5J02TfNOHdWNALIAh8tGHPzeHSxmkqD9E8ccuRD3BfSKV4COzvzOa+03poihNXr13njbfeJk1TTsxM8yevvcrE+Bi9Xo+Jm3TotiKXME5JU0UcJ8Prl8/nMCyHVAquXl+i1w/I5x0eOz2B4zjDHqgTd+iBajSaXJ+bp1Ip8/RTF+64EYqimHbXo9HqY+qCOOyTy1vUa9sby431NeIowjCMRy7Fd1Sbw1D0abY6eF6AcEyUvXsjLaS2g9hgJg5Fo4Jru4RhRK1aYqReIU5SlpbXOTk7SRTFeH7A2nqTzUabXtSlm7ZZXLqGtCNkPkJWokNOU4Xr5jh9cprNTzfuDqj2Smlt+USFUUStttvzyHWPPo3S62Xgp+kGy5/N8X74c9aKa2h5DY5ikRGguRrL0TLvz73DjFlj8uQscV4njkJEKpDNEOvZGkkhA2DtGZcoTdGEhn41znbliUJ5KcZsdg7kjT7YGsbJPJGlQaSQayF6wcWUOvJKH1ExUVf66K6BNuMSr4VohRyGbWHFBuqan33mqI0+lQfR2U7DejpyzkOvO4hOjKiYJFM6Ojraxz20soV5Mo9aCJArfTA1jNncNuuuEaNdiRCugXE6T2QEd6yR3Y2bqKbraJo2ZFpJdXBLh+x49yAYvM/NoQlBIuEYlFsf6Hj3/V/wiw9/BcDnLj7Pn7z26jCdN9x0AUsbXYTQiBLJ2EgV25Y7Yk837zA1ViGVkkIhT8F1CAKPjz/5FCEEkxPjt++BWl/n+vV5JsZv3wM1BKg4ptsL2Gx28T0foWJs12JmtLgresrn8zt6/H4dxmHT7dKKqdXK2LbFRu86CDWIkCyM2Kagl1CRRq1aplwroJSi1/OYPTEJwMrqBkEYsb7ZwvMCGt0mK79aIjb8LDrKR0grPlSkdqe8hhAC0zRu2sweBVANboIoih7YhSoUBgu/rnGpe4nP7CsI9/Z6cTk9x+niaZ4on2fEyYrXG8E6l9qfcK17DT/194isBCqvuOxd5dPuZcau1NCfLxETonSFPpojudRBDwuIkgllgXIyoFStmHTNQ5/Io4KU6M11tJyBNp5HLnjItRDjS3WQKcl8F/1UHoQiudJGG3HQyhaql4W+yXwX+1QOE5Pk7c0MRGsOyacdDLc2XLb1viJ5r4lWtdBmc6Rv+8hmiDZRQWunRNe66F+eRF31iD5sYMy4qE6MvCLRz1cgkiQLfbSyRXyphdFPMF5w7whUd6OKoQkNx8nR63aGQHXQiCqLwu8hLSf2f0EYRVg5i9+EEUYRP3rzJ8zdyJT9//Dff4PPvfAc3W4XKWU234WgWstSds88fZ40Tbk2t0S9XqHd8ej1A3IDjcgwigj8PpubDaI4pl6rUa/XmD0xs2d2xvM8Ot0uc3PznJw9ccceqK1SwsZmm07PxzQ0wn6XasHGze0EKF3Xf22ip3uJqLQ4i5BQAt8PKRTyTG6eo2Dm0WwNXwY89kRG/d9stAnCENM08LyATrfP+7/8hFB4+KKfAZLIQEkV0/v225TIhM6brU62OOwHVF5qIVDD+oFAIXWHrp/JDAkBSSwwzAyovCAmkQMdbbG1KN3nnHrY5Lq2QM/1MKy9d+U1u8aXJr7M16a+zhPl84wOgGp9AFT/svTP/HDlBzTC3b0pwha0ch3mi+t40zouCsuyszTdCxXkpR7pfB/pxyAE5nM1xKkcEtBKFrxQRI8h/Qcf/WwJedrEmLCJf7aJFu6xyOsC40KZtC4QaEhPDfORopGgggTzd8ZIbIURuURGMtxRpB90EI4OTxcJQh9zNkf87iZmoEiXA0TBRKuYhO9sYJwpoi7k0JSGQiD9FAyB8WSZtKZh2jrJ9S66Kt2/iSbEEHQOqgaRkTzuDqgO8i4hFK5bJJIpKIFt6limII6iPdOgQtNQmkWcpri2SXQbBXyhaegDU7xUbmsc2rk8Xrj3pM/nbIIwREqwdUUS391GMIqiIehkVi4+SknWNzb52Xvv0+31cPN5/sPvfYPHz50dLvBxIpFAFKf0wxSpBBufLRAnCamUXL66hCYEcRSwtHiDMAyp1arU6zWemXpqkM5M8DyPlZVV+p6H5/l4nodpmuTzOfL5PPl8bt8eqHanT7cfEMcZYSgO+hRLOao7IqhlNE0ca4DyfZ9kwJK+l++Zy+XIt/N45ex+E4m+g9hgSxdb5aiVy+TzDq24i+vm0DWNUtFlZnoc3w9YCiM++fQaIOglHfqqg+xlpAZZjR9Oc7BQJEma9ecegN1onJiZGFgqbNeX4jjGsq3sOaXQDEXezU54EErCxESpLM+vZKZBnsqUbF7utM8QWyUDcTO4ieFzurbNJhI3v0Zs29rN9xZZNlcR9t71h5ye40sTX+avHvtrzpbO7fjbVH6KqfwUs262o/inhX/cFVkJTYAFS+ESy8EyT9WezH5r4JNYEuelOoamk4aS8L0N0ssd8o9XCDXAymplwtQQukCzdZSmgzn4DZqO0tTOcF4TMFgYlZTkpDMMBJSfInQNZQuSKERqGnGcYiiQm1nOWbgmYnDO9dqAhrsaIxc89LOFbMHyEoRrkiQJyeAaOdLMjm2IbBE1tSO1nd9ZY8pUn7dBSueg+dpUSrhLiw8UaPtKKOm8d2mB9UYHXdNIpeTERJ1nz00TB/4uexGBoNHzefuDz/jGK0/ftsRtmhZLm31SJTkxWiIKtnUK3/j5pyQDEEySFGOQhv0fLp7n3Y+uMlIt8dTJ0dtHGWE4AKLsEzOfLw1Nz8CxVM7S8Z1OG98PMG2bS5c/46c/y6SQzp05zZ+89irVaoXVpsfCfIucY1MsurhuAa+/ipOmjI+NoQlBt9ul2W7TaLSo16vUxyrYjo3v+Xiez/zcDT7++FPy+RzuAIjy+TzVanWXHfx+w/NC1hsd/CAgDiOEiqmWctQL2xuo1ZVl4ig6sG39gxye55EkCZqmY1omI2NZfX9jbe3eN3vJwApm7UmK+UKWThcJpx6fxjB0FpbWKBbyOIP1utnqUCy4LK2vcbV5ldQMM0AqbLHtjs+wHZPJiVFWmvufJyN/QGZMtVoZTHJBvVY+0IoxzN6oLfbgTY9VZrTBgGShBq/P0o6KbI3LXtuIOrSMNsLaewE6XTzN16a+vgukbh5nS+f42tTX+bR9iY9aH+0GeEvQDFus+Ruc7GUpEdOyMTYV6UhCrEWZAaGjZzWpRN4ilCqGKS9NN0hFtigZhokScuhLpekGAjAtC2llC5BuZM9puo5ydFQq0RONnOsiQgVaAiJBmBrmc1Win24grvoY52ykStFnC6SLfZASMeGgkBkVvp+gGc6QPSQecGN+EPjDNLJ+iLBbyq0eqrul/d35ffPLa6yst/jiC49TyFk0Oj5RHCOQg4XfzDYLCmSaImVKMW/zxecfxzI0NMMBkYG9pmsomZFVhKaxvNEiShJmx8oYpkkSxwjgt547BwquL2+wtNbk5WfPogmNgusM051JkiJ0gzRJkDJF1/WMp6Pr1EfHkVIO2XeSjBkJIkuvxSlKSaRmYxbz/OTNN/j00kAK6atf5bt/+ZdomkBoOjNn9WFaaWm1weRYjU8uZam8lZVVdMPANAyUUui6Niim+wghKBaLjI+PHbjeeKc6ZKfrsbzewjYNojBARgEjpRyWuV1rWltZARQF16V9TJQl+v0+aZpdH8u2GR2f2BtkjsA9XEuzzzg1M0O5VKDf95m7sczq2iZBENL22lxv9EmMAGkknDbPMzUxSmIG+OPHW0V9y/7nIOzGA99tWw2nt9oR3KkOMFwvhLgn7oPcTAn16Lb9Uk+Uz/NE+fy+n7P1uj2ByhB4SZ/+jQaqnsf3fOxYI/n5OhgCre6QRpJk1cN8rEysYpCgGDgFy2xpTdOEOJCYKjv5cRxBuo1nW/UemabIVO4+Z6M2wtSJ397EGHGI13zs52ukArSyjTVbgq4k/KiBMzmBPuqgTll4/zCPPu0iClmEZ54pEf2yiZ5I8FOEa6CfKz+wm9C0LOJBPVMhMA8hnySHqb/D3zVxHGM7d77xuz2fgpuj6jokSchkLdusJXGC0kw+XdxgvdnDtnROjNeYrBVod3yuLq7z/BMnaPZDri6sUyu7rG52qBTznD81wVqrT6fvkaaKdy8t8Ny5rEgdhQHEmVne1nBMDZXEpJFAqSxt+OG1NaIk5eyJMSbqNaSE5Y0W15dWQC0zOzXG+EiV9VaPazdWqJYLrKw3GauXmZkc5dLVZVrtNpuLV1hfzeR3fv+br6Fydf7Lf/3vzEyO8KWXnqbomswvrfPj9z6i1e4xPTHCi0+fI00TxsZO4g6io/sRbadpSrvrsbbZJe+YhF4PZQhqxRxGcTtNtra6gpLyWKT4er0eaZpimiaW7TA2MXnA1Ld+ZEB1de4Goe4TiB7SilhKI6Qbo0o3uYynOl4jyIRpOf4qHF6YgW4UJUcHVLVBoXUv98r7PeI0JiG9bXFxxBkd1qTuNEad0SHJYnd9QRDpMWrEoFopUCrkUID8skk630O2IjB1zBfHiCZsZCyxSyYCg0RlaS3jZBFlaRko6aBP5QfmjApjxgVNoJDoMy4pKUmaZHR4laLPuCQyIpIp1it15JxP2o3QTxZIiwKtaAAikyQ6k8PwisjVAG3EgbyGyBnosy5KSQzDQD9fQdg6yWIfkTOwzpQRpoExU0AYGrZjghsipl00Q0doGpZlZ7t1KYmiTINcN0zcARFCSjm8BnLQgnDbG8swiOI0S+MJ0A5Rc0pTiUpTuIvJJpXaF95GamWu3FjmnUvz1EsFSq6kXs6jGwZrLY/ljRYzYzU6XsCb73/KN37rWVCwsLLBc0+cQCrFZ/PLnJoeo1LM8cm1RRSKmbEaOccmTVPq5QK5XI6NThvHcVBSUSqV0VYHlidCQ7PzQ5LM0mqT6fE6ftjnzfc/5fe//CJhGPP2h59xanoMIQQ//eASv/OFZwHF5bklTk2PUS7k+fDTOT6bWyGnx1z55EPiKKRWH+Gv//pv+OhGk2LOoTpV4I13fkWv7/NHX3uZ/+2/fp+T02OcOzXN/PIafS8gn8tRKZdIU0m35xHFKbZlUnCdIwGtKEq4trCWMWqVpN3bxLUESEmr2c/uJyGQabonQCl1//vegiAgjrNatGEY2Lazwz7+MOMoVHw0mc2BtcmPD1T3kVKxsLg69I87zsPQNeq1Mq1u5+iA6uzZzO9lZWXlgf8gTWjZDuEeskEHyxhpaAU7y/9bg5ts3ILx4p6TRr2Y1YPMNM1qdS9apKkijWL8gkA+XUHKzABQe7rEVmilP+1m6c04u5liO0U8kydVkiSKUKZEf8IG4ZBKSb/XQp8apAwDLzOGfNIB3SDthqilAGFqqFGLwPdQfZkV9kcMtPECQgh8GaBpBuq5PLFMIUgxpyzEtIXQMuURITIChK5ryDQlTmJswyA3qAv4vkeapuRzeTRdJ45jvH4fJ5fDNE2kTAn8YNAPp6FbeXpBF9OysA+hERknKbpp0PfC4eIkDjBJAXTD2BcSp8ZqfO6pc9xY2eDy/ApxnFCtFPjt5x5jolbE0GewDI1KMcdn88t0+36WhoOsl01lFicXnzxFMWcThDEbzS6fe/IMn91YRSk4MzNGECRI3caLAT1HL5QDYBI4+QJKgW0baJpgvF7m+fMnafc8/u71n9Lu9NlodsjZFk+cHEfTNNY2WyysrDNWr2CZBhfOTKMhiZKEa1c+ZW4hMzQs1ib4gz/+Tzz15FOcPRcSRDEa0O72ub64SqvdodnpcfGps1QKOUafegzHMmm1A5ZXmxTcHPm8TbFwNFGVlJKNZpdWu08ceMR+h5wJxaH6hE5W1H1wNaU0TSkWizuID4ZpUh8dO7LjFEuloRfVXa9Jh5BRUkJh2yZnTs+w+avNYw9UaIKCm8c8QBr5wEB1+vRpbNum2WzS7/dxH2DXd87MYUuLIA33ZI5tBOusB+tM5e+881kP1tkI9panUakir+XIG7kDgppA6Dqavq3fN7xBbwG0JI5J0zTTvRuk++JEkmqCJAXPl2giS3dpwkTEChHHCBQaCnNQw+r1eui6ngGqrpHPu2hLkviXLYwnSqRGigoGShBSksjoFsfwW1xkw0y2pFypIoQg8H1gJ9HE9/o0fJ+862agoRS+76ENTBANwyAMfKRMMQwT07aIgoAoDClV6/hhSLFQOFTqL5WgNBu3WgKpCMIoU0exbVCKnueTs7Om5zjOtASdAXXaDyIsuT8Qzk6OMFXLI5Wi3Y95/ae/ZPP0NEma8sGnN8jZJkKIjMCw1ZyOwLQs9DDJ5KE0nSRV2c5ZCMJEDUFSaAamrVMzDaSSJKnM2LGDGmy316Xf61OplJEyqwUlSYo+IEkIAVGSYpk6hq5jGAY5xyZOJI5toQmNWrVCu9Xk+uVfsb6UufB+9WtfZyMpoWkm7W6X/+cH7+L5wbDmJBVUy0W++spz/OKTayiVqZh/6aWnBtHa0Y4oTrh+Y41+v49FSMnRwby7nsu7iai2QImBTqllWYyOT7C+ukIUx0Piw32rw9yj4elhZJSyiEpm81I3jj1OpTKh7/nIAzhZH+rXnD17lo8++oiVlZVhhPUgRsWuUjarePEy+h66Opfan3Cp/cm+QLX1uj1vqFhR1WvUnKMVqBUiW9z22y+maUqaJCilSFNJmqZEcYJSkEhJnCi0nIVuaGgCkjgilgJtwkKMjxHoCWGng2WZBEGIUnIQ2Yg7Cq+KQapld71se3FIU7mDtp018Sa3gF5IdFP9MopC5ucWUCjCMKZeq+Ac0FE3TRVuPkd14Pja6fZBKcrlYrbYrklq1TKWZeJ5AZ4fMFLPyD5rG819QTGKYoRt4rp5UNALWsOawtW5FUarJS5emCWIEpbWGltCLCgUcaoGLEpFlCgUckjekDKLrKVS9Pu9LP0iwLJMLNPEtq1MmFeITN5Hqe2apVID5tigAdeyKLo5VtabuIUCIPD8kHq5RDwg8nz88Sf87O036fV6CE3jf/6b/8xvffGL/K//5e+wbRM/Srh0dYG//Yv/wHi9wj+98S5Xb6xgWRbnz57g+QtncPMOr7/1C37+0VW+9Pln0I6oLiWlZLPZo9XuEfl9xssWtpVnbWX5vm1yt6IjKSWmaWEOQGnPMsBtnj/qca/pykPLKPU91tYbKCWOPVDFacL6RpP4KGtUNwPV8vLyAwWqGXeaKWuapWARcrtVKa51r/EvS//MrDt7W+bflc5n/MvSP3Ote23vg4SKE/YJZouzD+Wi6bp+oJz2FvNLpjLT0lOCVKaQGODo+IlEGgamaaCLTA8tUTpRFGY+Qkoik5hcLjekPKepJElvbyt/t2tXwdFIlUaqWZSKBzesy4SPTW4srALxsOOhPfD7UsDKSjCIXrI/el6PjAEHd2KySpXVdxZWNxiplDB0ndXNFtNjNWqVIm7e4cbSOqZp0O35RElCctNEiaJwWJvTNIFjW+iahiYE5VKRWqXIry7P88ncKhcvnKHX69LpdAmCkHKpuO3kapqMjY2C0NC0Kxi6jlso0O1nUW4YJdSrJT68dJ1/ffsDNKHR93xOTI0QRTG99Xn+9bN3s+z09Cwzjz3H1772u5n01FZk7+awTIMfv/srSoU8c4trKODy9SX+9//2A86cmMTNO3zwyTWePDd7ZCAVRjHzixt4Xh9LpEzWC0cWYew1ur0ejuPc9+joYURUh029Wo6JpmmkScpxH7qhcWp2ijhOWFMChCLfzmMGJkZsYEkLFHSL3cMD1cOoU43lxjn5P3H0AAAgAElEQVSZP8mHjQ8yuu8tNHU/9fnhyg8A9m343UudQsWKkipxxj17W7LFsUnralpGaDDAuk2/ihrs1DNAKxLFEVAmSVPiRGZ041SidB1h6OhunqDvkcYBKk0HKbaUOAozIoBiEN1ttRCAbduEUchA1AAhtKFXmUJkAIWGm7ep5p1DT27btun3A1wnNwQkqYa4NPweOx8rdE1k2pC3+dwkSXj28VkmRiqsbbZIpeTJszOMVFy6nQ6PzY6Ts016/YCZyTqVsku5WEDXNJ48O0utVsXoejx5dpacYyMEFPIOui5YXVtjaqSElDPEcYpmaNTr9R1uAy0vRtd0bNsaAsP4SA3HNlFKYZk6z50/QyHvMD5S4Ru//QJX5leQUvKN334Rv9fkn/6/f8YbgPaf//mfU5s+R6/vDzcVz54/RbnoMlor8+ff/Aq/ujxHnKRcfPoc7W6fmYk63/zay3x6bZEwivnqbz3PS888diTRQ7Pdp9nuEYc+ZUejeIu02v0AKoBKtXYs5+s9R1SHFoNWjNQrrGys0TzmQCVJt8soSlBaK1GxK5kl001JoDp1hDrEmVxdXeV73/se+Xye733vew/0R33Y+JD/c+7/4DPtU4yycdvG38NKKAHIjuQF/SLfOvFtThVP8ZsyMp+xFF3X8P0QlSZZaivNECBVcjsC0LPmYE0IZJrA4LFhZvWzLUagHGgz2paBbZoHVqPYTvtJOj0f2zJIkgTL1LPajtgWLRYD0eKt50CQJEmmaBBHRHFMFCUkg8cZAJiDdJCJbZnYto1pmvtGsWmaEoZR9rlRTBiGKMC2LEzTwDBMHMe+Z0PRZrtHqZC/o2fX97//fX72s58BcP78eb773e9y5syZQx9raa3JxEjlyByuAfp9n5WNDuVinkajgWuCY+/eB6+uLN+1qnmz2dyz4be7h6DucRnLiwuUSnev/OL7Ptenrh/49fXVx3nh/AU+uXKNhdoHx3r9KaxMc3b0LOsbLfxkkZJ7+1YE42bK8X5jfHycarVKs9m87U1zv8aZ0hmeKj7FQuMGURyh7dH866c+H7U+2rNP6raLdawoyzJPVZ5m2p3mN2kIIbAGu/2CmzsW30nXNarlrYXMRilFFMVEUUQSx9njOCaOYqI4U8u2LGsARCaWZWbkDdM6sFFjmqYEYUgQZP+FQUCcxDi2g+3YOLaN49iUSqX7puTh5hz6XkipuPs6zM/P8/rrr7M2UDr49re/zbe//e27PlYQREf6O5qtHkurDZAJI1U3qwHKvYHqUSjyH3UG5F7GrTJK+97LMuXq9UWiID7252Z7A6kjgzsbmBoffzo3YH1nlGKhCTSR5d81IdC0AT1cZL1G09MzNJtNrly5ymOPPZa9T8tSPzt3u9uPs121GNKfQQx3cwedMK7h8vzI81zuXeaj3q8QFe3Qu/XdZwpEIDjvPMnTtWcwNZN/Gw9v+H5Ar9+j3/eIwghzQEIwTRPTsrBsG9ctDO1fDjspMiAKCMNwAEwBlpWBkOPY5BybSrn0UFysTVOn098d8f/whz/krbfeArLU+3e+8x3Onz9/b8cydKSS6EK7x+sVsrzWIggDRBpQcm3mF1Z4/NxJLl/euxZsmMZv2F197xuCLRmlA230DMGp2SkuXb5+7M+MFJJarUy359HpR9h3oJwZRb2/5wK+raYwUFxQ2b9TE6P88pewvLTAzOT44OXbJnw7u17EUGZoi+IrpczMoLa39duAJgagN9ACFJrIOC+DlE9R1rjgPM1ia5GO30J3721BkaFkQk5ysXxxX8bgv40jvkmlpNfr0+/36fX7mKZJwc1TcAuMjozc9eeGg8goA6OAIAjRdR3HtrFtG8dxKBYL9ywBdL92mMP03NISr7/+OktLSwC8+uqr/Nmf/dnRpFxch35/7+jtoKPR6rK0solKIqpFi1wpS9u0ehG9xhqT9b3Te+VKlY211UP7mz2yMHUE6VU9OYSqi5KYppHpLQ4ICsc2oiKrGSulSK07kz+M/fcCA4gZ/ODZ6YzWubm5iS4OyCy5+VrttzmQbB9VDt6ssoc68IR9mgXjcd7tvoc05Z4pwAOdpFRh+haPGeeZFDN0On10TRte5MwLUfBv42hGGIb0+h79fg/fDyi4Lq7rMjI6wuTk4ajCURwTBiHhAIiCIEShBmDk4Dg2lUoZyxp9ZM5PmkrMQST35ptv8sYbbwBw4sQJvvvd7/LMM88c2bGq5QKfXl2i4DqHvseDIGJxtYHve+QNRbmyE5BuB1C3blJ+3Ue71SKKwntO/cG2jNJBRpzGNBrtrJ9KCdQxBioEXLm2iB8E9Gp9io08Rs44PFDtNU7MZJHHxmbjPv+Gm2K0m0TTx+wKnys9x3pjjavd61kK8LBWrQqUpziVzvKse4F8YuD3Oll/imbhODZ+EKJrGoauo+mCank75ZSxx9KMYKDdPwXyR32sr2/Q6XYRgFvIgKleO3HAhTuzANhK0YVBuLNu5NgUCgXq9fqvxfnv9gP6vTb/73/7O27cyJp3f//3f5/vfOc79+X3TU/UuHpjldMnxtBvs5jKNKXnBYRhZvnR7HhEYYilpUxU8nfdtpCm6a/Vfd5pt4jCiDRNBkK+Ovl8HuOIokYhD36ihaaI4gQ/CKF0vOeFEoqTJyZZ32yyoQTqDo2/hwYqN59nbHSEtfUNNhtN6rUHK7svEJzKz3IxfI5Gt0nba6MXDmdLL0NJPaxzMfccJ/NTw8gwVQmx1EhTDWRCpeAAin4od6Rl4jhhbaONppFZm4hMdNUwNAw9Azddz6SItujkR7GzelRGo9lkY32TiYlxzo7eOY3n+8GuupE9qBvZw7pR+cDEiEdxRHHK+z9/l5++ndWiJiYm+M53vsOLL754346Zz9lMjJS5Nr9KaeDSq2mCJIro+yHtbkCcpDi2iUBhGDqx32G0nMe27HtboJR6ZK9Vp9MmCsOBwr3E0HXyrjt0QL8fw04Pfr4lkonxOkEYsq4Ex/pMi0yRxdB1iAWdXAe7Z2MLG9M1iXsxKlX4ls9dJepPTE+xtr7BxmbjgQMVgKVZPFW6wGq0xtu9d0jMBM052EKmYoXt2TxjPsmFwhOYwtgBggKYHB9hYWl1R4h68+5RCDANkQlqDoM0iVIpMoYgykwrpdrqacoea3omu2OY2cUxbgIzXd+Sznl0o4N2u8PK6ipjo6M8/vi5O6SPAprNFt1uj2q1Qi6XO7Z1o/s9lpZX+f7rr7O4mEVRX//61/nOd76DZVnDRV2p7Sbvrf64NE2wLWv491RK+l6EH4QkSUqcpMRJAmnEaDk//AwlJV0/Yn61SxBlOpS5nINj2+QsDTefI4xTatUSj09P02i2mb+xRNm1mR49GoNN/RG5zt1OhygMSZJ4aK/iuu4Dt7w/jDrF0DpDCJDHfC0RmX+W5wegC3r1Hj161BfqtFWb/kz/7iOqrfTfu+9/wMZmgyceO/tQfmPNrPJS5SKbGw0+6X2KMhTCuPOFUVIhPMFj6iwXC89TNkq7cqZDsFA7U4W7I7vd/y+EQNNvPanilqyjRMqUNI2JB2AmJcihB1fmY2MaOuYAyAxDQ9P0YTPrcQO0Xr/PyvIqlUqZJx7fu3E0iiKazRbNZotqrUK9Xjt0bepRHVIq/CBEppn00ZaNybvv/Zx3f/YTlFIUSyVe+6M/4vMXn6exukSaZIoczX7EZidzvQ2jmHzOolrM4VqCWHOQMrOSMXSDdJCSVkg0kYk4i7hLdMsmLm8bnJ+t7rqHN7oJ1WqFaqXIlWsLfHzpKppKOTF2tA7QR01Rt22b9dWVIYgLIZiYOlyrSa/bJQwDknjbC8x13YGGpP1Q75/DZGOUkFy9vkAQRFA8/qm/IMycqbmpfLM5s3nvqb+tiAruf51qvzHjTPOF8ku0Wx0W+8sYpTukAAd1qRPRNC8XX2Lambzdy2i3u4RRDK65I9q6E3AdPHWZmQjq+0CfJEXKhDiFKMjIJFJCqhRKZoQeQx+AmbEz3agPUo33u34WBAHLKxmD69y53Y2nSZIMwalYKlCtVBgfHzuek0ZlTtNKqW0BWUQmL5Uk6IaOlFlP11ZYnaYpUZQggUrJJX8bLcNUSprtPppQFAsuvu/xw//+r1yfuw7AC889z6vf/ENmT0yjaRpRGNLrRli2w9mREc6SKdf3Ol0KxQK5fEZYyJWqpGm2MJ08MYllmTRbXXw/YGoyI5IsXv+MWq0OgNfv4/V7FIslnEH9pNfNooZCscTouE2uVOXGwgpJFDBScbHMo1+kj5qibpnmDvkv3/f3T09vbBAnMTLN7IMKhQKObYNtH7t783BApRgfrbO8unEo5fWHFVGN1iv0+j7z/Tt/17uOqAA2G82h0+XDGLrQedw9y3q0Qcfr0jf7aPnbFIYDScWr8Ln8Rc65Z24bTidxgqZp2Lf26uzAqfuf+dW4iXWo3w7QFFKlyCQhShimGLP/1K76WRah7QQ0cRf1syiOWV1ZRdN1Ts6e2PX+RrNJY7NJLudQrVYZHR05knOyLeGUicJKmaW9GEgoZUrnavBYITSR/UYhSJKUMMp2y1IqUpnVHZXM0iVKbZ9ZqeRA3khkW4aBurkgIwJkbRSCarlIoeKyvNoAmbtDRCVJkphTJyb4yU/e5sc//jFJEuPm87z6zT/g4rPPIISg02plJNdBZBCGAUmSAWMmGqzwPY9wIADsLTcznUM/4Mq1BXRdI46z2kkQRmhCkPT79AdpxHig0hGGAWmaDJ+TShEEPr1el825NcquxdRo6b7d24ehqHe7XTQtUz0/6DqTy+VoNRtDWaXG5kb2OwegZBgGjuNkFO5HZJTWs+vRGe3su/hbtombdyA+/kAllcrWOXUfgErTNE7MTHFjYYmV1TWmpyYfyu9USuEIh6fzF1j2V/hF98MsBXgLZV1GCqNjckF7nPPO45iYwx30jvMmBKZpUCy6tDrdHQHUDnhQdy/UeuSAJrLa150ATSEzQIshvql+FkaZa2kUJ5jmoE42sEfPOdau8yOlZHlllTRNmRgf39V463keS0sr1OvVPSOsO13HMIrx/JAoStHEAGyUHBg0ZpsDweCaDVigWzguBCDjwd+3ro0agI4YnCeFqUmEUAgdNAPEPVB3vVChVKZqLkQWJd92Q6VlFip///d/z8cfZwZ4Tz95gde++QeUisUBACukjHaelzTdoVrPACizSC5ibGTg2FyxbwLygW/WAHzXfX9Y7xpuNG5RugcIg4B+v8/0xIOZywelqAtNY2wiSxH7i96BP9/3PMIg2AYl69EBpVtHPp8nTybqbC6Ye6bGbl78O51eZiekjnvqD5aW1zMW6D49/Hcdgz/95HluLCzxyeUrDxyotiZ2mqbEcUw+znNBf4JVb43F7hLaTZR1lSpUVzETTvFE/jGs2CJQwVDnTQz14rbTe2makiQp22fvVmR6tFhLAtCFgJvqZ3Eq0RyTsdEac/OLlGwHiUTJlE47YqMhKOZNSqUCuq7TaDZptztMTozvMoKTUrK4tIyu64cCqDSJaXY8/CBGE+CYEiKfQtkd1Pxu/RW3n3gyjg51Tjab4TaY7Vl0FrsINDf/LU7BVh5hGO1LOP344495/fXvE4YBpmnx2qvf5MnHztyT3YVt26ytLA8ZdFtz4uY5cthMx4Osex6Uop4myV19/r3o6x3X4Yn9gVoJRbfn0e/7iPxxJ2YpSqUCSiqW7kfqD+CVl17kH//5X5mbX6DValOplB8YSGVW6Zn+WxiFxHFMNa7wRPoY3W6XttXFKGSTVPYllW6Fx9U5ilGRnuphmia2ZWPZmUbccEILQSolq+uNPRf7X6cRhAmWY9LteRjadroRTeDaAhWmrKxnux2FJE1STp86uetz1jc26Hb7TE9N3NH3ahvUUjzPp9MLiKOQJJEUCnk8P0AGPihJczMZpti2dt6FYh7XzdFqdqhUtxehdrtH4AeM1g/OxOr1k3tyXQVIvBjLNDFMgzCM9ty6dLtd3njjDT788EMAnnvueb769X/PyckRmhur93wNj9rX6UEClXZAEP23HsVsrPXWCN2Q3kxv33Ta2GgNz/VZ6R7/1J9jWdni2rtPQJXP53j5pRd566fvcOnyFb7w0sUHBlRRHBOEAWEYEUXZf3EcM56MMZvOckn/lMTIdmJWy+aUN8uIXieUITLJ/JekVEglt9l6mkacKpQY0NMXV/HDrD6QpBpS3ZRZU4/+jR8lKbYQbGw2KeZ2xt39UJHP5TANnfX1ddyCy+yJmVsW4R5Ly8tMjI9z5vT+Nag4jmi1e/hBjCEkhkixTEVfCcbH6szfWMGx7NtzYSRsbraxLYv19eZQST2OEwQPvsdKAY6dqbH3uv1d9+ibb77JW2+9NQTcb/y7P+Sv/+ovmLuxDMTHUp3hQYLCQdXmf5P6D++4MbITerXegRZ/JRVCaMc+9YdQeEGQXWN1n4AK4JXPX+Stn77DJ5ev8MLzz9zWeO8oh5SSJI5J4oQkSUjimDjOoistEkwnk7TTNotiERBMtMeYiMbBUERWlh7SBsCkaxqRHqPrBpqm4bhlXNfJXHEtC9s2EZpG2PF2TGL1iEdYEoVhWNRrZfp9H9scRJ9AL5BUSi6um2dhYRHTMgf288GwqXFjs0GSJLelou+I3AKfRstDkBJ6PVzH3JlSGyxEQtv/nG7VGW7uY7Etm37ffyjnMZUS7RaDul/84he89dZbtNvtbI688gqvvvoqXV8SRnGW8tKP/z3SbDSAQTpx4PV18+Ob/x3Si9TOXZyCYY1NCEEunx8SHGr1ETbX1/aNbB8WUeu4jYPKKCmhWF5dz0TC1fGnp7fbXQzD2Pe73hNQTU1OcOGJx/j40mUufXqFZ546f99/XMZmU9sF6GEhOmNyuUmeU/EsVmwhgKlokrzIkWpy+L6t92Ssr+3cvmkamIZBkqYkMqVou2haxvC6eXF9lDvrAcIwwXXzpKlEyQQwkUrR8RWj9SKO43DjxiKFYoHp6Sk2G80hA7HRaBLHEZMT+/dA9fse640ejq2jCRPdytNPsm7+LfsOwxS0O71sQXvENs+dTn8oOnr9+jXeeecdFhcXgcwv6rXXXuP5558njiI+vnyDGwsr9HoeuVruWN5DjuPQ63YpFIuEgU+xWDzi89UhuanmdJD6Uy6Xo9NuUyqX+U0eIj0g6AhFwXVJ0gT84x9RjdSr5HMONxY+u39ABfDy51/MgOrygwEqTYhtNQdNG1q4G4aOlCYoGEvGqMSVLPWnWZiGgWmYGIY+fP1Wr1H2WdkFbTcbbG5qjI3VSJKUxkbGrkmVjlK/Pjd9EKUkKsQPQmwruwX8iCFIzc3NU61WKZWKdHseI/VsF9xstgjCkKkDNOoGQcB6o0PesdENjXq1TBhF9Ho+9VoZpRSra5uM1Kv0+l62gJmPFlJVKyUajU1+/OaPuTE/B8DY2Bjf+ta3+MpXvnLThASE4MypaeZvrCBIjm2koNT9S0neLcFhi6L/mzr6/f7BUzhC4TgWmuaAd/yBSqmsjeS+pv4Anjr/OJMTYyyvrHH12hxnTp+8r79N17OeCimzXhqVrQFDGSLTNEllipL5QUpJoGsZkJmmmUVNA6dXy7J29GfkLY1AGpSKLu1Ol1I+Iwd0AsnOVLnika7xCo2Repnl1U0qeZM0k8PAcRwWFhcZGRnBdfO0Wl06fZ9iIU+r1cbzfKan92d4BkHAZqOLLhS2bbK+0aDf7ZAkmTJDr9tDaFnPj23bVCtFmo0Ha5w9bNyFu/K3CsKQH/3oB3zwwQeDaNzkW9/6Fq+99trtN1k3NWALcTxB+ThGesldMv8exeH7PkmSkKoU3/KJnXiHlNBB0mmeH+DY1iOR+mu2OvhBuK8byZG0iL/80ov8X//3P3Dp8pX7DlRZr5MJiIG8kEEUGZhmVrNK0zRr/BxMuC2iRBZ1GRiGjmVaWNbAmtw0tutPg3920dPVTmWKRzm6ipMUJ+dkvTVSommCfqioVHL4foBAw3XzbGy0kTJGE4Jms0W/32dmZvpAC936ZpdyXqPjaZRLBdrtDmNVa0iGGOhskGiZ/QcUBzv5BxNlFNzt2z6jqR8OqD745Uf8/INfDSnWn//CK/zZn/4JU1N39jTb2Gzh+QG2qx9bC5nA9wn8o0/73ctIf42BqtfrkciE0AhJrITOVOeeo5ROp0dXiEeATJEFHjnHvn+sv5vHK5/PqOrLq2usrP7/7b3pcyVXeub3y/3uG/atqljFfWluTTa7SbbYEkctTc/0hOToTw47HLbD/uIPdtgR9v8xXyZsRzhiQhMjSzMeTdsKj8eSNdK0hmKzm2yyuopF1or9AndfMm+u5/hDXlwABaBwAVyggGadCEQVway8NzNPnue87/u8z1Nheup0fYC2GnO1fpRkmSFhFBGF0cFA1U/76X3A0nQddUcP1dadO4ievkuZ4gIDleuHmJZBq91F1xQiIVH60dTde/e5+tSVWPkg9MlaKl2nRxS4XL48nD1H1/GwDGVQNxwg/X6g1pck2tis7ZaoOqfj9t37fH79Bu1OzL56+eVX+J0Pf0hpbJx8Lv/oNxIGahhxdHU+U3+jpryPKmXY7pNTLjYo2fiRxCVCqJIobeMstEf7IYpkrFQgk0mx1pfoOs+pv2TSoljIQWVEQFWvP3qivPatl/no57/gxpdfkRnhZH8UJmQzKVTDQNf1wcIYg5QY/LvYKVgdSOkcJOjqByG5XAYncJmeGmd1h3q6fBipLvAIQkEyrdFotMkkddwAioUUjWaLfD6Poigsr5ZRiZCBjud6XLv21NDn73Qc0qYykDParDSQfSq2FLufpgAK+SyqouA63cd0Rw7fdayul/n8+g3KGxUALi3M8fbb7/DD3/8RSFgvV4b6pKmJEr2eC8TagU/GEVJijn2hvm/XtvFDiUuIUFQSZhpFyzA9O04mncJ1Pe5V7uEwWqCSSrwGqopyIVJ/YdjPXo2qRqUoCvkDmDee5/HB++/x0c9/weLyCm9/+w2ymcxoIgDX21eTy3GcwffaAp6T1ae3drpqrPMmH53euog1KiElumlSLOTodmw0TUUoGlbCYnFpmWeffRrf8zENncALqDVaZDK5WGduiOyYlJIgDFEtjUBIMpkUScvCc+NFJop2F+pFX0NP01TOYyas0Wzx+fUb3HuwBEAhn+PDH3yfd956g2rT7SsBHi+8zheK1KuVoZqkn4zz3fjrOA5eIHCVkEiqJKw0mcwEMgyZHSsyPlag2eoQhhGlYp5Gs00yaaG5p2AXokgazc5Qi/95iKjqtRau6x0IqlovidZLDA9UhxVZx0pFXv/WK3z2xXW++voO337jtYv1JsjtPx5WT/9NYfx5fkgqkeynRyPcwKBUTFEubzLbl8FqdmyyKYtW4FEq5Ok4Hj23RyJxuFaaEHKgeSeExFJVdEM/UAdPAm7PQzP0xxav7ief5Pk+n39xg19/+dVg8/LhD97nww/e39WAulauDjYtj5oiW59w78EK7Y7NdDHZB+7fLKfb0xzpdJpGo/HYv4fjOPihoEeIkCqqbpE284xP5OIHLWFudpIwjLi/uIplmZQ3qmxUGoSay83KDUyRYC43Ry6boR5pSG2E80ABw9Dizf0FAKp8PsvC/BTrX67sAibLz2AGKSYnxijN5UZTo9ra7bzz9rdjoLp9h9df+9aBFtfneYRBiLKfevoR00Xncbh+iB952I6HZRqouh43NPse05lJPNcjCiOSlkLP85gv5pGqSS47XHQcRWIbqGTswaRqGpq2xXR76C6KOC3baduPFHU9y3H95i0+v35jwAp85603+PAH36eQ30utHh8rEIYRzdZw6ZuZ6Ym+IoVy4ObP87w9mn3DbhaH2WQ+fI7D/vsom9ctWSTlUMi+GKPX6+EFUQxKqBhGgoSZQzNVnp2ZIJ1Osri0zrWn5lEUhQeLa6DA7btLtNwmNm2WN28jEh7RjMcWtU3ZmGRhfpr1chU10IlGCFRSkVimSamYQymff60/pW9XlIpyFDcmMA2T+blJMukUK6sbpNNJwjBipMYw1566wlNXLnP/wSJffX2HF59/9sIt5oaxTU8/KPUg5MWsWCmKxvTUGGvrFYSqUcqmWF8rDyjnzbZD0oCe55FNb9H7tSPI2IgBGEVCkEgY1BstUpZKZbOxB6iEjGtUigJe13+s9+bu/UU+v35jADovPv8sH/7gfS49gumYsEx8NRh6LiQTVt80MF6YaukaNWqxtUd/EXOmnZFe18LywpFSaorykPivMizkKAcerwx5jJCSyamDe/TWV1dOHZRCAZ4iUFSdXLpAoZRG7zpcXpghnU6ysVnrt7joVCoNOh2bz7/6knbUQFg+UcJDZD1k/uB+NGEEeJ5PJARKqAPeSKOUwA8JgvD87aelguYm0HoJEkGWolFCScStIm+9+gq202Njs0YQhCwur1Nt1ek2GkRJ9+RA5XneLl+Zd956Mwaq23d4/tmnT02ra9T9HjtPt1c9/REHX5DhBzEtXdc1pBQYRgJN19ANHV3XcV0PKSI0Q4mbfEuFwaUOWx+Ii7jbacBcJo2qKMgwlqB6WC5HEteookgMFB6GHaOSTdqsVLn19W3WyjF5Zn52hg9/8D4vv3h487rtuASDZtTD50S7Y+P5PslkHHnYxbMhCGRGVC8+7dHtng2hxnVd/CAiiCSeIlB1E1UxKRbzFPJZ/CBE01QmJ0oIIfj6ziKKEr8XK+UNbLVJZLlElo+Y8Y6cupN6yPpGLXYjFqM1kUSRtDrd+NzyMWe0dgFThqIxEbcDmQpXn403gKvrm5Q3a0gpadltGmGFB5FLlHQR09ubV33U3+3N117lb372Eavr6/zso4/5/rvfvVALeiQEG5uHOxdftIjKDUIMy6DRbKOoGvlcim63O2BoNtsOW2WoKIpZQ7V2D80cvuArhNw2H+wTJYSQ6JpKMmWxV/RAYbNSp+d6JFvRWlsAACAASURBVI/4TqmqwsRkcfuzg6Mtco1Wh198epNbtx8AkMtm+PAH3+d73/n2kEmLWCIqGLbHR+6ofabOhvE3sThxoWSpTosw0enGDDxPiUDVSadyGJaBpWk8PztFMmnxYHGNyYkSiqJg1xpUah02alXaYYOQkPFekXQqSdvaxB87mbO50ENkJLg0P83K3fsjxgZJPpvhyuVZyjfWzh6Yegk0N4HppxkzJ8nn0th+j6nZcbJ9l4T7D1a5v7hKp9ehEVaJkn1gGj84q3JioNovsvnJH/6Yf/xP/lfu3LtPsVDglZdeuACvyTYJfXpqnNX1jUOOvFgjDAWZrEGz2SGZSmKaJpVKlenpKVzXBRGhKQpdJ1aiANBUHVMfvhk2iiRbggtSSirVBp4XUMxpffDbvWqqmkYum44704+4oCrHrGn5QcgvPr3BLz+/Nfjdhx+8z4c/eB9dP9rrMD01jtNzqdcah08KBRbmpwmjiJiYf/rD0A0yqfMVTXW73UGfo6ppu9OCI8Ap27aJooie1iMyIvRgklJxmol0iq7tMD5WJJdN4/Rc1tYrOL0em5U6tVaT1c4KvuEgLA9R8hFGHC1rboKu7WDoOmp48k2GNEJ0Rcc0DbRoxIaOfddcRVFQlVPeEO0AJsNLUzLGKRayaEmNnutxeWGGKBIseeusrJYJpE8jqhIlXCLDRaSHT/frp/H952dn+ckf/Jg//hf/ik8+/YxiIc/83OyFWNBVta/9Jw8On6S8WEUqISWGZZHPZWi2bNLJ+OXo2jaaplGptUn2XZE7XYeZybH+zQBNHx5BhIgG2hKKqpLPZ9nYrKGpSmwD/tC5FFUlkbDino+jPqdj7L4///XXfPLpTXpuXBN4953XePO1N7m0MHecFaE/B87vXHA0B1oc2FbyOIZuGIyNj1YQYNPeJNIjAmuv3NDV1jNcuTRLGEbYTo+19U1W1gTtsImrdVlseTEwzQaPjICalU4sHCBPDixCD3G7HmvrFTQxYscJReL0az0jl23cAUyWnyElc0xNjJEbT8d9mZkU2UyaeqNFvd6i0WnQkvUYmLI9hHl8zcZTiagAvv36a2xsbPJX//5v+dlHH/MPf/+HpPsF+nMZT+2kp7d309OVC97s6/ohCSvZr7sJNC0GjGQy2bc2D1ENFSHl4P8JIQn8iERi+Nke7ahRqapKwjJRVQVVgUjIPZNNCInv+whxdOuLo4i63rm3zCef3qRabwLw8gvX+NEP3+PppxZYXnOOPV82N+t9duAQ80PC6tom3a5DqpA4k+fenG6SXc6eq7noex4b62uYVoJiqTTSa905zFqJ71x6B0dx+eTGF/T0NsLyiNIewjoacUfqIcmExaX5aaqdKieuLCqSltNmcqJE1szRGXHqD4jVd06qJ7kFTL0EyTCHGaQYGyswPl9AQaG8WWNivEinY9PpOpTrm9hqK07lTZwMmM4kotoaP/q936W8WeHLr77mZx99zA8//MH5T5EFYd+Pyjg41XfByBSuFxJKD9vuofVZfN2uTSaTRggR29T3o6mttF8kBKlUAss6Wupvi4oehALX8wcGgWEQsbNvW8o4KoqbE4+unD5MpLdervLJZzdYXC73I/0p/sEP3+PN10aTik6nk6CA7/mHBl8okEmn6HTPhkCRrWbJ2TkyufOV+tupoL6+usLM3PzpfJAiUYilvLq5DcL0ye67F7kAWOpoNhlCjygWctTqLZRIRWpiZNdtGAZjpTwPykeM1gbAlCQZZcmQR9M0Li1Mk04lWS9X0XUNzwtotTtUWlWW7ftEyR5R1h0pMJ1ZRLU1fvIHcb1qdX2dn//iU97+9huc5xHT0zO02tvF+T20ai6E9912mkzT47rb6iaapqCpKl3bplQsIKJtSnnHtpnPTvaBKq4h6EeIXOJ/01fA0DXaHRvZb2p9WIRVSkgkLKYmx7CPuHh7vs/Y2MHprHa7y88/u8mXX8WF6mwmxY9+9z1+57feHi0YZNOxGoc/zA5dIZ/PUGu0OIsalemax7bVOEvQOjWwUiT1RivOjIwgI2KHNmvrFQI/QhEqUj3ZM/Skje8HhGGIEhpIbXQU9UhE+MEQ170LmHIUjRJhFDE5XmJivIjn+Swur9PruVSqDWrtOl2lGQNT0kXMnZ39in7qkzGb5Sd/8GP+5//tn/LrL29RLBZ45trVc/0CRZEg2kFP31MOuUAWv14QkUwm0FQVKSKk1FBUlW63y/TUJI7TQ1ViVfXkDjmfSEikjI7UBhCGERgKQkgSlsXkeJGlXnc7qtgJ9hJ0Ve2f/2jQ/7Bm4PZzi/j5pzf5xWc3B7/7vQ+/xz/43ff2leE6cRrLD+J+FQ7jUsSSBZ7nx2oUxulPnmEdYc8DWFU2N5iYnBrpeaUiiaIoZhKKk9/vAI9k0iKTTlIJdaR5sr4/YYTcvb+CZZmooY6wRgdUds9haXmdMIj2AaZY+SEZZClaY1iWSWhEPP1c3G+3vlGlazvYdo9mr0UrqrLS2qKLPz5fMP0sPuTZp6/x4x/9Hj/983/Dzz76mGIhz/jY2Dl7ZeQg5VXerD608Cj74NTFQCrPD9FNjVq9haErRP2+qK0aT9SPqDq2TTazLSYshECq8khXGYOO0o+sYmHarfskHtb5kxK750KjfeR7+bC5n5SSL27c4ZPPbuA4cYrmu2+9wo9++D5TE4fVQZRjz5fyRhXP80kckh4No1iNYmOzhuv6OE6IpqqMKdfwwwBDi61mor6gctwUDEEUoimxwaeQkigKMfoszDCKUBTQVA0JBA+dxzcFvV5vV4/jeR3KKZ20UMjFc7A2glSdFpJOJfH9AMXV4YRAJfWQqVIJTdN4sDnaZTiRMLl6ZYHe1y4dJ9WXJEozlojp4j3pUZzOUchncV2PO/eWuXtvmY7XpSV20MXT58ew8tRTf1vj+9/7Lhsbm3z8i08H5Irz6HKqADNT46yub27vTtkn93dB+lPCSJJLJak3WmQTOnag4HneoH8qEgJNga7tUtohExQJSTJlog+p8r1TqFcISc+LDeC2pZH2gn06nURTFY7aE94ve1Gp1vny1tfcvHUbr18nevGFZ/mHf//vceXy0/H1H3q246kdSBQuL8xQa7RwDkldqqpKLpvm0sIkna6D63pMjBcRQnDvwSoLc1NYlkmz1cG2e8zNxunX5ZUy+Xw2pvD3PNY3qly9EjMUNzbraJrK+FiBSAjuP1jh0vwMpmnE53F6tDeWLsQcPRW7+b6KuDIiXyaphzi9eBOkhhrRCM4XhlGf8j4aoFKEiuomQMap9lw6y4T5bcysQbPV5anLs0SRYGVtg9W1Te6vLdMSNcQWMOXOr5OyfpYf9pM/+EeUNzZZXF7h33/0MR+8971zd0PUvkX9rgnwUH1FXJBOqkhITMsim0nRaLRil2O5RaTIDCIqFUgmrYfAQMbM6yFp4FJs17qElBRyGVDAdfx906dCSJKWhaoqh3mm7RkPlpb4248/Znllu6Hx2Weu8oPfepfvvPV6HEl6ZzNXhokGpRDY/Uiv3e5Sa7RoNNpIJF27RxDEEZYfBDGNuq+6Yfd6tDs2hq4TRhGu6/H17Rh6Xc9DURTq9VZ8nq7D3WBl+zxRxEXSZY+i0ZojSkWyXq7E83cEOpJCD1lZ3cAwDBR58mVTGCHNVod2x+7LKB0fmLYkiZIiw/TUOIXJDE7PpZDLkk4naLa6tNtdPv3yBh0aiIRLVHAHfWIXYZxZRLUTrP7xP/lfuHf/AcVCnldffuncJQBb7S6eF0DKOON8xWhHbJLYT1dIgezXhcIwQDfiRx+GAgOBrql7UnM91yefG85bTEg56G2KhMCyLIIwXoArlcYe63XZPy7cQeZ41Gi22ty+e4/bd+7Rc+NF3zQN3v3u27z3vbd46sqlI92bWrVy5AbfPeeot+jazqHfX9dUoiikUm3QbHWYLiQGbQAPip8e/A+Le39VOcKxl1YuXYhFqNvtMjUz4j5LRVLI50gkTNYrJ1d/kH2W3uREifXbiyOJ0FzX4+UXn6Z+s4o7HPqiO0lUN0EqzGFGKYqFHFOXSqiqyvJKmUI+i+3ETcxtrx3T8hMu0cTFAqZjA5WiKHQ6J9fimp6a5Cd/+I/4oz/+U3752ecUC4VHCn9KGefaH1aAPq2YJuwXx7fo6fvyJi4IPd3zA1B11jeqJE09ljXSFVwvGLD5QhGhItAecpzdiiyHVTUXOyMqIfE8D88PYta53KeuJGK9Pt8P0B+x0t9fXOL2nXssr25HT3Mz03znrTd4681XMQwTRYFmoz2YpwCZxKNfyihwSVgZcrmTmHzKvrXJ8Ju6s2oWL5QL59Ktd9+15TT0QBWJbmgkRmR3MUjVGTq6NE8sIytVgWrERq5JPU3joIjJN1E9k6TMUjRLRFJw9dIVkkmLzUodIQROz6Xdtql266zcW+yn8XoII+Q3ZQwNVJZlMXGAsnF5bZVsdvjGwtdeeZnyxiZ/8Vd/zV/81V/z1huvHyizpKoa+UJhz+9bzeZoI6k+9hiGTj6XGdiN7xc9XRRhClU3mJocZ3mlTMLSCCIwNY0wjAYLuogkERGaqqLrxiDNqarBALCGBaqdgrQxWPlYaZWJySK1auuhCAwmJ0o0Wx18e/f/63S73L5zj9t379O14/qPqii89ebrfPuN1yjm8xQK2cHDkDIWuN05Nmth/5nKh/YWW6SZk9/fifEiUSRwez2G0VCanCjR6TqchQiXFmp0g+65F6Rtt9unQk+XioyJNZITA5US6ujtDK7q0Wi2yVLEb3UJ8idz53Ujh2qtiSo1FKGihBpKpKN6JmnyJJUUtmtTyhZ5duEaiqKwXtug1emyvlGl3q3TVZsxMCV6iLnfHGA6Qerv4IetHoMU8Xsf/jZRFPFXf/MzPvn0M+qNBu++8/audIzrehSKxQP2sqf3skcipqeHkY7tS/LZ5J601bmPpoKIVDLZj3IEpmkReRGapsQNtv1oVVHiOpVpGINCkpTsu/g/Gqh2MwSLxRx+EKCqAtvu7aGHS+iL1m4rpy8tr3L77j0eLC0PjpudmeatN17jrTdeJ5mMmy2bzdYQG6tH09FPSoYzDGPXPBwmyI6zAmfT21CbryFXJHTPp3q64zhIGAlI+QmfdCONVCVO3hlEVFtAdVxLdiXUsapjzCTmmZ4dJwgCWu0ur770HNXaJIvrq1Snvz76BtI3UH0Tt9+uYJo6E+XnGSvmqTibXJ29QjGbx+453F69R9d1uLV0m27QoUMTqUVESReZ+c0FpuMD1SOe9eTUNJWNMqnU0SSSfvTDv8fszDR/+q9+yt37DwZgNTkxcTgknBJaREJQ3qiCohGgMz2Z2VPLiIQ49xGV6wfoUqVSbWCZev97S1RVHQCVEBJVjVUjdM3a5SUlRIR+hHL8TkFa+ooAYRRHavsJ0kqg0WhTrzdYvv81t+/do73DA+zN177FW2+8zjNP7+25Ox+u5JIHi2vYjksmaQ51/L0Hq7TbNtmJswGO+nyd9PL5Sv+1220sK3FgduY4Y17rg52A7nKX5YXlfo0qw/h4kfu3bx/rvFa1xHz6Mul0ElVVqdVbVJwNNFVlYrxIMVMgXLtGc/buIwEp/jFIyDT5RIFUIoHt9Zi4VGJ8rMBYqcDyaplLCzNMuCVWa2tsNis03AaO2kYkfWqmj0x/cx2hh69RHbZLOCbV/PVvvcLs9DR/+mc/5cHiEv/Xv/l/+e7bb3Hl0jzF0tn3WimoSDRKxQy5bGqfnWAP7QJ0/EYCStkM1VqTQi4xSLepqjpoCxBRhIpCGAnUHYWWKBJkMilQh9/H7BSkDSPB+kYVt+ehZpP7CtJuVjb4/Fefcvv29o50cmKct954nbfefI3sI6IA9Rw4R4eRYHZmkvJGFVUJHkmxV5T4Z25mgjAMsUzJ4HU5xbVn+sE0mfz5iqZUTaM0Pn5q5x9EukqcflYV9dipvzF9ionxInfuLtFObBLkOoiCz1e9Gis3p3n1+RfIZTNcrzYQljcApIyaJ6Vn8DyfqYkSuckMYRDR7toszMWNzYtL6ziOi58NCMKQjXqFlc4ioeETpR2E5SOTgidjhKk/gLHxCTY3yqRTRxeenZqc4L/5r/4L/o+f/jn/4eOf89HPP6HV6fDB++89Omrod14rKOiauquoHUWSQGw/aFVRMDR1sBuXEkIhiPoqB34E1ZZDOpNlYiy/h5YtoohW28b1PDLW+W6iiiKJZVmkUglkTWD2e6GEiAVptyLEqB9RiSjapUYeRQJVM44ECDsFaU3LZGpijNW1WGPP8wJ03cD1vAFzr7Ejfffqyy/x1puv8cJzhztCt9sdstnzIW6cSFrouoYQQ6RgpEIiYcWbhDPa4zhpB62tnSspJeWswmFF0mx3+gaCR/9MzU1QyOXIZdPYRgtvfLtrOEr2sCfWqVSnuXxphufDl9F1jcCPdUJnpmMgXlxexzAMXNen3enSaLSptqt0ozah4aEIBdtZQFVVeqnmiX2ungDVMCFVPwW4sb527Jz4H/74R4yVivyf//f/w80vb1Gr1fjg/fcZGyvtn/vTkoMdq2FpmDuQyg0Egb+9XdV0BdPQBiw2IUH4IVEYR0dmWmesmNoXaB2nR61hkzQ59yAVX3uIbibouR7qjhxpJOMd5pbygRARSh+YHgYdP/BJpY6W+tM0Jdb507Q+/Tr+7Fqjzi9/9QW3794bHF8oFvmd3/5t5hee4tLk8EQceV4YlzLuiXI9H8tgqFR0q90lCAIOdI4edZptok1+OX+u5uZZApWhx8Qomod/piIUlNBADXSUwMDoZFCmFFbXNgmsvQ3dUdLlQfkeqWqC8VKBMIqoeU2ajQ6dro0ddOlELSLHR5g+wgwQcz4o2xNF9SyswGJudpLy7RWejJFEVENGRzOzNOo13F7vyDu5brfL3//93+PFF1/gj/75n7C6tsa/+LN/zQfvv8dzzz6z5/iF+ZkDzzXM0rf1Cq+W68xOFfe8RFEY0mjahGFAPnVxzD6CMMJKqjSa7V1isEL0BWMNbQAuqkrfzG8nUMUKzKp6dEHaUEjCSFBvtPj6q1v85dIDNivVwXEvvfAc3379dWafepFsNk27dTT25nkBKgl0OnYfqIwhjpd0Oja+HwIGkVunvOlQVIqnm6IMQxqNxrkCqsrGxhk8H4lpGuRyGdR+UloJddRARw2M/t8NEqRIaWkUoaFpGuNjBRKWSc1oMTM9zt17K0TJ/buc8mqJhGVy86t71I21GJDyAcLcDUgHfkc9RPoSy4y/h8uTcWKgOspOaKu2VKts4vs+pmmSSOwvj2/bNmEYkkqnB01/Vy5f5n/6H/47/uif/+98/Mkv+Mt/99dUa3Xe/e53di0Uoxqaqu65vlbbpt1xSFsKaeti+VEJISjks0SRQNthn6EqCkEQbqf+ogiVvcrmUSRIpkwMTT3CghiLra6XN7h1+w737t6JBViBbCbD299+g7feeI2J8bFY8NbKcnlhhi++OBrF97wAlaIozM9NxcKnBIcdPDje9fy+RC34AUznj24i2O32yGYzO+7JIw5O/iYtV0e4GEUSBHFTbV4tMlGfIooElmUyVspjGgbr5QoL89NYlkmr3aXdsclkUriuR6//c/nSDOWv13Cmd9u6q55FKVckm01jK61jpe2kFmG7DpVqA1NJ8GScYUS1c4xNTA7+Xqvu31M/Ob1/VKTrOv/Zf/IfMz83y7/8s5/y+fXr1Go1fuv775Efcc5dVRXCMELXNVzXo911cXo9imn9WE6y52AZHQCR1U9VSgm6HiskbKX+wlBiqMoezcUoihBSwJBW1lEUcfvrWyw9uEN5x275mWee5rd/6x2mxqbI79IRBFOPBVSljDiKcOJ5AqrtDZNyrI3TcaZWt+scqWfxGzsUSafrsFau8NJzz6BpKrV6E9f10XUNp+fScz3uPVgllAF21MXD4U43RBoBIhkRLPq8/NyzFNRxgpZNlOghLB+jmafgzJKeT1CrNfHM41sfOkEXRZmAoE/6UOSTZ3eiiOqEia/j2k9/+Ns/YH5ujn/2x3/Cytoa//LP/jVvvPYalxfm+PTzWwOgKWVNUonty2l2fdr29k43YWqUsiZ6n30WRYJ6J6DnhSiqSrPVwTJNJBJdU5AiwvE1okgQhMGW9x0Qi6+qijKwrdc1Fcs4PwK7kZCUN2o4PZdsMl7Uttx7wzAcCM2GQmBqcUS5KyKT8YJolR69IdjY2OD69etcv34dv+/JlEqlePe993nvvfdImCoTxSSL99ceOn9sl13erB1rI+C6u5WrEwnzzO+xlJKV1Q06HZtizhr6eNvuQT55os99MoYDqmw6xdUr83x9Z5Fu0MGOukSaj3ACpBEiikGcfjvAW6oaLnPjS41L81MsMEWz2aFWbzA/NcPU0yVu313C9rqExeObMkZqwPhYEdvuUQ31Cy1zNIqR38jTmtrdJ1koF0ZLpjit8fxzz/I//vf/Lf/sj/+EX31xnf/wdx/zqy+SvPLSC7z0/DZTTO5g+eVTOvnU3svbOkZVYDxnsFXY7vUclKCH0FIousHkRIl0KrZqL2/WmJ4cQ9M02p0uQkhSyQSeH9BsdVANg0anSyZpYeiPH7B0Pc61r5UrA429SEh0TSUIA9J9kkQQRgh1i/yg74gw1W2G2kOj0WiwtLTEzZs3WVraVud+6qlrvP+9t3n2uZeRmoGUEl0TVCt1crnsQ6lJSFhmzEI8BjdFVUImxuJUyWrZAczHsRKSzabp9gVkh9noZbNp2p2TOc0+Aaoh75Oy3Yzd9Oo0po6u9xfk2rR6VRqtFOOlAjPT46RSCcZKBZZWyqx6i/hjdaR2/B6DQPNwei6WZaJ4OnyDgSq/kadgFdBXdCzFQoYSO2mTT+TPVj39JCOTyfBf/5f/OZ9+9iv+4q/+HfcfLPLxJ59y88uvePnF53nhuWdO/BmFYokgjLB7AZVKlSqxD5CiKJQ3aqiqGtPT0yl6ikfgB1iWyeR4Ed/PsLy6gWVAJpEYWLI/jqGqGoahx1Ggsg0Omq7i9SMq2ZefCEUU91Ap7AIqKeNIq9vtsrS0NPjZWZhPJBJ88MEHvPvuu2h6kmJao9rqMjM9QbPZRldcihMl7t7ebTcRSJ2p+Utoqkp52aMd9vaA2SOBWHv86VhVVcjnMtTqTVCG6HdRIJ/LsFmp70kfnhSoFOV05Sdd192T9rSsc67Nrkh6rkd5o4qIjn9z7Kk17vTq3F9PYHbzvP7cS3S7Nve6X+FNntzoSuohi8vraKqKqup8c1t6IR2kwdqtpGL2N6Fnlvob1Xjj9dd44/XX+Iu//P/4+S9/yfLKGh/9/JfcuPU1r7z4PM89c+1E5zd0jUJ2dyTR6XRQRQhSZTxvEQmf0PeQfU275VWPTCZNNpsml0lRrbXQlIB00jrz+yZk/J1sp7crwhRSYg5SfzpSSlQlNjSMBWqVQVptafEBlWqFeq3C5ubmng3DSy+9xLe+9S0++OCDuE+k57JWjmuQYSjIZlK02t0BoFiWQTq9PfmadoimqTiORyaTJGWqdDrd2KyxL9y6/4IcK1507BDXi5iZenz9VFJKXNcjDCNMfYsecdiC78WtAIp2gs892+vsdDpMz+4Vje52tuoycpeO4sOainv1FuXgf8uHjtsSgh7dMxKYpollnAxUt4wEpSoIwhAUZWQpOqGHTOaLSAmrtQsTN5zKaKfajLG/yMOFSP3tN15+8Xm++/brfPb5df76Z3/Hyto6f/t3n/Dpr65z9colnnrqMpPjx1e2aLdbhEGAqmokEtsTvd3qIkVsmRGGAbquMzZRpNlp4weQy6SZnRlnZXWTZjfAMiSpM9x9in4Ds+v6uxTLxUA+KRakFVGEosZ26tVqlS+//JKVtTXW18u7gdsweOmllwY/Tz/99N4XWUSDZl8podN16PVcMnl1AF47RyigvFHDdnrkzPgf7mSxDTN6vR5rGx5BIGg02hSL2/W0VqtLNqMh+3R8KePr39Iv3JLck0AUQf4Y6g1CSFbXK9h2j3QiNcSiGR/vOD0gs+tZXcTUX2bEhI6N9bWRA5VuaJSKOZY3RpOOl6qgXm+habGI7EjOaYR4XsDU5Bhq+ZsNVKZjbr0aJwCqc9pF9Pqrr/D6q6/wy199wd/87cesrq1z49bX3Lj1NWOlYgxaVy6TSQ+/++45DqZhxEKtD42dL1OnE5BMJqhVGui6xlghS7W6CYpBwjKZnCzR7nSp1ZtkkvpQ/TYnHZGQpNNJioXcjl0vfTsKhSAMWF1d5f79+9y7/4Dy+tqexe/atae5dOUa33/vHV588cVDU1Sxll//71Kh1erQtXvMlDL7prgM0+KpK3N8fXsRQzueTMzDFuvNZgshBKZpoGtQzA+3OVhZ7x3r8zVN4+qVOe7eWx7q1VAUhatX5rh9d2lXyu7JOMVNGwLfDwj8EYm3qgIhBAnDAmc0QCX0kHq9RSadxPyG91LV5+vINUkulTs+UJ2Hl6pRqxGEAVIIwiCg0dgOv69evsLVy1dYWy9z49ZX3Lj1FbV6g1q9wSeffs7M9BSX5ueYmpwgcUiE0+v1SKWSh96DrQV4S9W7XmkwNV3CCwTNjk2lqlDIZzEtC3SDRtcmaeokzNPbOQkpsTQ17pHqo0elWuX2vSUa9SqLi4t9dYTtsbAwz4svvMDzzz7L7NwCmXyRruPz1KWp4cAxEoPPMkyDhflpurY9uF87SRlSgmlZ6JpGFAYja5AoFPI4TpvpiTOKXvu9UUdRfVQUBaWfDD5uXFQs5uh0OrGP10AsWR6YItS0vq1JpJDP579RC1/Pc1laKWPoo9kgSlWQspKMjxVQGiOKqPQQIQUd24FQ45s+ImP/Kp3eaLT3f6GUOIraomJbycerwlytbJJMJDAPSQ8Ui0VeejH2tvr1zS/57IvrfH79BuvlDdbLcY9POp1mrFikVCowVipSKhZR+pGUarrangAAEDlJREFU6+4PUgctPDtHOp2kVm0hpGBqokjP9VlbL6NqBuOlArKYZ2VtA8d1yCQtzFOgtPd6LitrG3Q6Lcrr61Qqm9j2bqbZ3NwcTz/9DJcuXaKYz/PCs1exEvE115pdqrUmiSP4YIRhnPqzLImqbOsKArSaHdI7otkgkghVUKu3CH0PEqOLMo9DsjiupI8Qgs1KHdf1SCesQ3MRUhIf73lA4kSfncmkaLe7LMwO/4xWy8ez+rsILEPP2762nZswXVe59tQ8t27fH8nnSFXEKi4KI0v9QUxRn5uZpN22afPNHu2JNsaKsUeGTy8Wh5NwCcLHy0fZSQwYdrz84gu8/OIL/Ec/7vUB69esrpexbRvbtlla2dbXijvWSwPgGisVKTxiB+p53h5Fh63zxMDaBAWmxgt0eyFLy2tkMmkMXWd8aoJqvYHT7ZFJWnts4IcZvu9TbzRpNBrUGw3qjSb1RmMPKAGUSiUWLl/le++8haLqfPBb71OtNvB6Niurq3ue89hYgSAY/n4HYYSmxIrinu+zuraJiOJ0i98XpB2AWiSxEia200PXj9ND5WIlTHw/IAxCwjBEUVQ0TSWVODsdxlgRfSuiUoYKkbaOhyc5v1GOVtiiNl/bd4egKMqxaoH7p/4ktWoT1/VQxOg2mb0o9tBKJEzUQP+NcuY9zqjN1/CrPhkng5kz8dv+xaCnt5qNI3td7RypVJJ333mbd995G4DNSpXV9XXW1susrZdZXV+n27UH/729I9N3AdfWz/bkP3jB2SJgVDYbqJrC5FiBtu3QcyNcz2N6cpzyZo2G7ZLQIZ20djW/BkGA7TjYtoPjOP2/2zRbLeqNBp2dDsQ7hmEYLCwsMDE5xczUJG++/ipzs7Os1no8d22Om1/e2gYXtS999FB0lLBMJMOzmsJIYGgKYShJpxKk00m2WOxBsBuogkiwMDlGz/VwWkdfsKMoojS2/wYico8uY3PclLamaUyMF2k020PWqNg+/oTR3M7U3pPxiHkpAjY2a/heMBLVB6kKUskElxdmqN7eoDei7+mrLnfuLRNFAkXV4RsOVACd8Q4dOpRWS9Qv1YcHqp5j03PsQSpA1bTd76eioOs6URjuWlR2p5B2pxR3/6nEOyCUPYwi3/PQU6OjIk9OjDM5Mc7r33pl8LuV1TU2q1WqtTpr6+usrpVpNJtsbFbY2KzsWlyKhTxSxr00mqbFChWKgtJXqlAVFaX/p6oqKEpcMzIMnUTC4teRRMpYYTyfz+K6HrV6Hbfn4Loujm3jB48GCtMwmJmZZmZ6mpnpqf6f0wSYXLq8QKPZxlQF2XQyrluZOmEYYhhxxOeHESlV2ZPaiSKB0/P3jRYPjqgEaT0GoXQ6SzqVHKThHlZmDyKJZZnUG60jaQnu/H4jjo1OABYxjX7YmpMQcteBJwGqrdrTaac4zyxjchpAJWNZtGw2TUUqyBEAFRATdpTRNZlLPWR8rECr3UUJv9nMv4dHfS7efA59V4ZWQj8xFVtSr1Z2LaBn8ZIV8jkK+RxvvPqtwe+6dhxlra5tR18blQr1RvPUv49lWRTyefL5XP/PPIV8jonxcWampxk/gHq/WmlTb7RotjrMT+b7i7vE1DV8PxjU+AI/Qk0xkFMaAIGEru2Qzw5fkwyCCBJbBowSp+cO0pkPA4tE5cFS7HQ7lhpNw+txo6mTRFRhGHLvwUp8r9KHUbXjDcH9/vGMZUcwr5+kDw/N1KkwVirQanWPbZ64+5ZLXN+j2eyAGN39l3qIEILxUoF7q8aTB7fPOJfw/Xi63hWmZmZ2+Wll0mmeffoazz59bbCoeZ5PrV8LEiKW6I+t2+OfKNrx976lu911sCxz13G27WBaBqqu03Mj0pk8L7/0HOPj47hehOM4jBesIzcrqqrGlUuz3Lm3NACh2LZDxw/8AeU+iEJAw9B3TwFd18hlMxhHIHrExAmNMJK47S7NZodUXwz3YfPFZCrF3OwUTvc+ypA73E6nb4CnqKTSiZE/9+MMwzCZm53C8/yhEXF+biqOlJWTgeRvIkyJ6Pg1cHlAPCakIAhC7J4LydHcMT/0cXo9VHmCeqhU0DwL1TNjT6owRUPpMDU59iSiukhA9VhGfx6rmnbITjqgVMxTKuYRkTyUIVivNyiVDiasdLtdFi7PxLJNDQ+JjkQwPz8XC7fWGowXLXR1uFSDom432erqts6faWgEvo9hmn35pNgg8eGISlVVwkiQHJKNJ4VAVWPGX6MjuLQwT7fr4Pca/RTV9vnDSJJMJkhYJpEIGVY1XQjBlavzp/PYj7l+qYpCwjKHdkFWiIk2qqoh+tHfSSKqMIKlVYdLc6kn7+4BI5IRD5bWMA0DRSojSS9qhsLszCStA2rEe567UAeApHkWGSVPUksThREL89NkMynabRun59JqdYaT43oCVE/GxOQU66srB6Y6wzBi/tI0AGsrm488V6vVfiRIQSxJtLK0AUiuXJqm1XXoOR5BNs383BS5bJr7i2sYmsvUWAqkfkgaLqS8UY0pu0puAFSapuA4PtlsFhFtESlCDF0fkB2iSMR+SR2bQnY46rPYYUEfRgJD14kiga6pNOqtXUAeRBJdSKq1JipiaKAyzNNMhxwPLCIhdjj2Hv4aSbnT4RcqNZdE4vggs6WmUW/2KBWsJy/uvoGL4OqVOVbXK6NJ/QGRjGvwmqrtIWgokYrqWai+heaZmGGKUqpELptGsVR6PZenLsdyVJVqg0ajjdNzse0edbtOT2/jl1pDfY9MLYPu62iRRiJKsHp59Tfu+eUqOXRfJxkmnwDVfstVKpU+cNdtGPqO3x+m2DBcOmOrz2jpwTq6rnF1fpJ6q8GNm3UksaKBbuisrG4gwy6FTKpv9f7wYijRDR3D2O2NHvX1/PwgrlFFUdz3FPQ9uLauI4wiMqkkUlH3RFqPWrC3gUrSaLZptbuM51VsL8A0rV1AZSoKjWYb4wg9T5Z1ekB13KBGCEmna8fPWIFH0gH6n9HpOoM2j1H1Jx2F9PLNe6llXy5MjEyxwIs8llbKcR1WT8eOwZ5FTiuS0lN4XsDC/BT5XJZu16bZ6jIxUcK2e7TbXa7fuI2vuHRli8jyEIGPyHrI/P6RVLqZRvd0tEDDiix0VUfTtFiZJbGdlbnoI1vNonsGySCBpmnb16g/iagO3q0Wi2yW1/Y0ncUglqKyWcc0jQNdiwEajeah0dSeh9XXu1u8v0YiYXJ5ZpzNeo+VtQ1mZyaZGC+yth6y0XBJJSSFTPoh0JCkk0nGSnnW1sq7fq/pGoEfYBgGvuejqQphEGHoOkHgY2lJgjAinU7R7QVDA5XYoUohZczeDMMQXTMJwnAXUIWRZH5uikq1ju0PZzbnOL1TqEsx9GbjoGFaBvOzU3Ta3UHEdNjnzM9OYtsO4I2MXq49AapHRFSSzWqDTtdGOYEohxJq/ZqSheIblIo5TENnWhlH1zRa7Q5XLs2haSrVWpNms4PjuLS7Nk23zr3O7dim3vIQOQ+p7v/w0400hmeghRqmMDE1M27LMXmkk42mXSxFi2w1G0dKfhJVVdF1PQal1JPU35G21pYlWbg8w/Li+h6warc7A3miR0nSnGTHvGV58eDeKplsktnxIpvlVdqO4OrlOYrFHPVGm7W1MtmUSqbfAhD3YWixwrOMlcgVRYmBSlXxAx9N0wijCFUFPwxJ9eWfPLdHr+dhpQzCMBy69rJTkFbt9xbV6i10TSUMdveDKKred1f1hlaRSKWSdLtdio8wcTwu46/d8bGs44Hgtir+8Z7zKCKqXs9jesIYcnor5/z1OwVmSV8SZHy8yIY/3PmVUB8QHXQ/SV4vkDLT9Hou87NTFJ/NDZ5fwrLodG06XYfbd5fohE1sOjEgCZ+o6B3Yu5VupDFcAy16CJQs4p8jjGQySa6Soz1x/nQtDgSlJPHPkOMJUB0w1lY3dy0m9XpMDhgmSjqMQDF0ZNe3b19+sMqVq/OMBRHl8hqNVptUMkkylQRdp1zvkM9oiEil7dh491fQNBXfiyUugzBC1WJ6OsR1Nk1RCMJoF+svigSdro08wrTYKUgbN0ILhIwAfc/iE0SSxaV12u0O4+nhFybTPB1jRHkUob6HU0C+z/LqBj3XG0oAV0rJ8uoGTs+FzMkbdm3bIZl4Ek0dlvorFnI0W519a1RqYAyIDmaQxIxS5FI5ioUsek6ja/e4NB/Xo7+6vUgkBMsrZaqNJp7i4GpdhOUTlTyEdbBEVaaeidN3D4PSCBMFuv/4l/JsLYvunRyUHgtQGaZFIlcgm8nh9+0eTF2l023jtpsEvnc+5vTDC3AYkc1mqdcbaJp2JOAZNhoZHrDyrC5vImTEwqUZHDdks7JBJlfg0vw0ijLD3fsrtFpNFubnME2D8tr6dnpOKqiqOijkh2EcUe20pY9Tc4LLV2ZY22gcCagsM154nZ7PvQerBJ4PWKiqtiv9mM2mGRsr0GjUGZZI0ev1SCRPhywgpOS4T0rXdfK5DO1Wa+gJls9lYmYX/okZaEIMrxD/TU79hWFEu2Oj6Ap6N4PqmZhBirxRIGkm8byApy7PkkwmuP9glbnZyb4lyyZhGPHlV/doBg08zWa15RFZPmLm8YLSvlFVmDzTe5upZTA841RA6cyBKjs5i6aa/M2nN/n17WV6/Z6TpGXy8jMLfP+NF4mET2dz7Vyl/gAWLs9QrTSwLJN0evjm11FFU/ulwACWF9fRNJUr81N0bJebN79GNy0SCYvnnrmGrmu4rk/CUnYsququ9MqWNl/Q96baCVTxpBt++Q63pJgiQSGfZWFuitt3Yr3BnbnzIJJkc2kSloEih2f8bdl53L29tMsXbJ9laTtK6v/3w1HLw+k2KSXHtVXSdT1mcw0Z1Cgo5LLp7Qj2xJm/s9FQkhdZq0mRLK2sk0omeZpXSWeStGWXmUvjJJMJqrUmQRDiOC5r6xUanTYbdhlX68aAlPIQpv9IUDI8HfWMQeksNsd7r9NAjVSSIommafF1nhIonSlQFWYWuH53lX/7s8/37pI9n09+fZdPfn2X333vVV65tkBzffnczfPxiSIrS+UjL2CnupPJ7CBcJE0uz47TaHt0ul1SyQQT40VczyeMBJYlEYLB4mj0m339MCKtx6SHXdGRkFTrrSMRpIJQkNAVwijCspKYpoGiSKqVxsD+JAbBWG6o3jga4283aJ2fCEKI2Oo8DKOhsoeS+PhIRCOBGflE7G9X5LTv71VBNpke+LO1211cz2ejUqfr2DSDOqHhxuy7hIfIBUMt1o8blPYboyJU7IwId4HSY77OU1lVs5Oz+4LUf/qj7wLwT//8o8Hvto558crsY42sRmEZf1rR1H5jJ+HiytU5TCOg3elSLOZYW99kdrxPsBCQMONJvCWf5AcRWWOvIn4cXcXEi6EjqihCM8HzJEEYDIgUgR+gJfRdEZXvBzRbnWPZcZy34Xs+6+vbUl/yMOiRsF6u4Loe5E8OVU9w6vARpR1W2ysk2im+XL2FpzuIhI8wPMR48Oi0ln9+QemgzMNRCRU7CR2JKIGu6+f2Ov9//zOAqJ8B4MAAAAAASUVORK5CYII=;imageBackground=none;imageBorder=default;" parent="1" vertex="1">
          <mxGeometry x="40" y="40" width="426" height="429" as="geometry" />
        </mxCell>
        <mxCell id="cAM0yAjCSFjHZgML37Gu-1" value="" style="rounded=0;whiteSpace=wrap;html=1;fillColor=none;strokeColor=none;" vertex="1" parent="1">
          <mxGeometry x="457" y="460" width="10" height="10" as="geometry" />
        </mxCell>
      </root>
    </mxGraphModel>
  </diagram>
</mxfile>
